G04 (created by PCBNEW (2013-07-07 BZR 4022)-stable) date 4/28/2015 11:34:22 PM*
%MOIN*%
G04 Gerber Fmt 3.4, Leading zero omitted, Abs format*
%FSLAX34Y34*%
G01*
G70*
G90*
G04 APERTURE LIST*
%ADD10C,0.00590551*%
%ADD11C,0.055*%
%ADD12R,0.055X0.055*%
%ADD13R,0.03X0.02*%
%ADD14C,0.06*%
%ADD15R,0.06X0.06*%
%ADD16C,0.066*%
%ADD17C,0.056*%
%ADD18C,0.07*%
%ADD19R,0.0531496X0.015748*%
%ADD20R,0.0551181X0.0629921*%
%ADD21O,0.0629921X0.0354331*%
%ADD22R,0.0748031X0.0748031*%
%ADD23C,0.0590551*%
%ADD24R,0.07X0.07*%
%ADD25R,0.35X0.35*%
%ADD26C,0.0393701*%
%ADD27C,0.035*%
%ADD28C,0.02*%
%ADD29C,0.0153937*%
%ADD30C,0.01*%
G04 APERTURE END LIST*
G54D10*
G54D11*
X30400Y-20100D03*
X30400Y-21100D03*
X30400Y-22100D03*
X30400Y-23100D03*
X30400Y-24100D03*
X30400Y-25100D03*
X30400Y-26100D03*
X30400Y-27100D03*
X30400Y-28100D03*
X30400Y-29100D03*
X30400Y-30100D03*
X30400Y-31100D03*
X30400Y-32100D03*
G54D12*
X30400Y-19100D03*
G54D11*
X33400Y-32100D03*
X33400Y-31100D03*
X33400Y-30100D03*
X33400Y-29100D03*
X33400Y-28100D03*
X33400Y-27100D03*
X33400Y-26100D03*
X33400Y-25100D03*
X33400Y-24100D03*
X33400Y-23100D03*
X33400Y-22100D03*
X33400Y-21100D03*
X33400Y-20100D03*
X33400Y-19100D03*
G54D12*
X22450Y-31675D03*
G54D11*
X23450Y-31675D03*
X23450Y-30675D03*
G54D13*
X18780Y-26935D03*
X18780Y-26185D03*
X17780Y-26935D03*
X18780Y-26560D03*
X17780Y-26185D03*
G54D14*
X31510Y-9780D03*
X31510Y-13780D03*
X25025Y-31550D03*
X29025Y-31550D03*
X14800Y-30400D03*
X18800Y-30400D03*
X34635Y-23215D03*
X34635Y-27215D03*
X30500Y-17700D03*
X30500Y-13700D03*
X21600Y-24450D03*
X25600Y-24450D03*
X25025Y-32450D03*
X29025Y-32450D03*
X16800Y-24425D03*
X20800Y-24425D03*
G54D15*
X29300Y-10200D03*
G54D14*
X29300Y-11200D03*
X29300Y-12200D03*
X29300Y-13200D03*
X29300Y-14200D03*
X29300Y-15200D03*
G54D16*
X18800Y-29100D03*
X18800Y-28100D03*
X34425Y-10750D03*
X33425Y-10750D03*
X20750Y-26100D03*
X20750Y-27100D03*
G54D17*
X28100Y-28800D03*
X28100Y-26800D03*
G54D11*
X15550Y-29225D03*
X13550Y-29225D03*
X31600Y-17300D03*
X33600Y-17300D03*
X27000Y-30600D03*
X29000Y-30600D03*
X27000Y-25000D03*
X29000Y-25000D03*
X19000Y-31600D03*
X20000Y-31600D03*
X29000Y-19000D03*
X29000Y-18000D03*
X29400Y-23000D03*
X28400Y-23000D03*
G54D18*
X46520Y-10208D03*
X45520Y-10208D03*
X44520Y-10208D03*
X43520Y-10208D03*
X42519Y-10208D03*
X41520Y-10208D03*
X40520Y-10208D03*
X39520Y-10208D03*
G54D19*
X14884Y-25688D03*
X14884Y-25944D03*
X14884Y-26200D03*
X14884Y-26455D03*
X14884Y-26711D03*
G54D20*
X14697Y-24940D03*
X14697Y-27459D03*
G54D21*
X13300Y-24822D03*
X13300Y-27577D03*
G54D22*
X13300Y-25727D03*
X13300Y-26672D03*
G54D23*
X17500Y-11700D03*
X17500Y-10700D03*
X17500Y-32700D03*
X17500Y-31700D03*
G54D24*
X19450Y-12600D03*
G54D18*
X19450Y-10600D03*
X19450Y-11600D03*
G54D25*
X25950Y-11600D03*
G54D12*
X33310Y-15080D03*
G54D11*
X32310Y-15080D03*
X32310Y-16080D03*
G54D14*
X34610Y-22160D03*
X34610Y-18160D03*
X34500Y-16275D03*
X34500Y-12275D03*
G54D15*
X14200Y-13050D03*
G54D14*
X15200Y-13050D03*
X16200Y-13050D03*
G54D26*
X24375Y-26253D03*
X24375Y-29246D03*
G54D14*
X21240Y-32360D03*
X21240Y-28360D03*
G54D27*
X29825Y-17700D03*
X29700Y-22025D03*
X28500Y-11700D03*
X30000Y-11750D03*
X16800Y-25800D03*
X17100Y-26600D03*
X28300Y-20700D03*
X28300Y-19700D03*
X27010Y-15900D03*
X17740Y-25270D03*
X33920Y-13750D03*
X33850Y-19530D03*
G54D28*
X30400Y-26100D02*
X32400Y-26100D01*
X32400Y-26100D02*
X33400Y-25100D01*
G54D29*
X14884Y-26455D02*
X15615Y-26455D01*
X15615Y-26455D02*
X15810Y-26650D01*
G54D30*
X29825Y-21900D02*
X29825Y-17700D01*
X29700Y-22025D02*
X29825Y-21900D01*
X30400Y-30100D02*
X30400Y-30025D01*
G54D28*
X25600Y-25225D02*
X25600Y-24450D01*
X30400Y-30025D02*
X25600Y-25225D01*
G54D30*
X30500Y-13700D02*
X29950Y-13700D01*
X30000Y-13650D02*
X30000Y-11750D01*
X29950Y-13700D02*
X30000Y-13650D01*
X18800Y-28100D02*
X18800Y-26955D01*
X18800Y-26955D02*
X18780Y-26935D01*
X18800Y-30400D02*
X18800Y-29100D01*
X17780Y-26935D02*
X17435Y-26935D01*
X16800Y-25800D02*
X16800Y-24400D01*
X17435Y-26935D02*
X17100Y-26600D01*
G54D28*
X33400Y-29100D02*
X34915Y-29100D01*
X43520Y-20495D02*
X43520Y-10208D01*
X34915Y-29100D02*
X43520Y-20495D01*
X33400Y-30100D02*
X34895Y-30100D01*
X44520Y-20475D02*
X44520Y-10208D01*
X34895Y-30100D02*
X44520Y-20475D01*
G54D30*
X34610Y-22160D02*
X34195Y-22160D01*
X32930Y-21630D02*
X30400Y-19100D01*
X33665Y-21630D02*
X32930Y-21630D01*
X34195Y-22160D02*
X33665Y-21630D01*
G54D28*
X16215Y-26185D02*
X16215Y-25115D01*
X16215Y-25115D02*
X15750Y-24650D01*
X16265Y-26185D02*
X16215Y-26185D01*
X27500Y-14450D02*
X25375Y-14450D01*
X25375Y-14450D02*
X15750Y-24075D01*
G54D30*
X29300Y-12200D02*
X29300Y-12250D01*
G54D28*
X15750Y-24075D02*
X15750Y-24650D01*
X28550Y-13400D02*
X27500Y-14450D01*
X28550Y-13000D02*
X28550Y-13400D01*
X29300Y-12250D02*
X28550Y-13000D01*
G54D29*
X14884Y-26200D02*
X16250Y-26200D01*
X16250Y-26200D02*
X16265Y-26185D01*
G54D28*
X17780Y-26185D02*
X16265Y-26185D01*
X15550Y-29225D02*
X16475Y-28300D01*
X16475Y-26225D02*
X16500Y-26200D01*
X16475Y-28300D02*
X16475Y-26225D01*
X14800Y-30400D02*
X14800Y-29975D01*
X14800Y-29975D02*
X15550Y-29225D01*
X16690Y-26200D02*
X17400Y-26200D01*
X16500Y-26200D02*
X16690Y-26200D01*
G54D30*
X17765Y-26200D02*
X17780Y-26185D01*
G54D28*
X17400Y-26200D02*
X17765Y-26200D01*
G54D30*
X28300Y-19700D02*
X28300Y-20700D01*
G54D28*
X28160Y-17050D02*
X27010Y-15900D01*
X28950Y-17050D02*
X28160Y-17050D01*
X20150Y-29250D02*
X20150Y-27090D01*
X19245Y-26185D02*
X18780Y-26185D01*
X20150Y-27090D02*
X19245Y-26185D01*
X23450Y-30675D02*
X21575Y-30675D01*
X18780Y-26185D02*
X18655Y-26185D01*
X18655Y-26185D02*
X17740Y-25270D01*
X28950Y-17050D02*
X31050Y-17050D01*
X31050Y-17050D02*
X31300Y-17300D01*
X31300Y-17300D02*
X31600Y-17300D01*
X32310Y-16080D02*
X32310Y-15760D01*
X32450Y-10720D02*
X31510Y-9780D01*
X32450Y-11680D02*
X32450Y-10720D01*
X32810Y-12040D02*
X32450Y-11680D01*
X32810Y-15260D02*
X32810Y-12040D01*
X32310Y-15760D02*
X32810Y-15260D01*
X20150Y-29250D02*
X21575Y-30675D01*
G54D30*
X33850Y-19530D02*
X33850Y-18640D01*
X32940Y-17050D02*
X34040Y-15950D01*
X32940Y-17730D02*
X32940Y-17050D01*
X33850Y-18640D02*
X32940Y-17730D01*
X34040Y-13870D02*
X33920Y-13750D01*
X34040Y-15950D02*
X34040Y-13870D01*
G54D10*
G36*
X35170Y-28350D02*
X34950Y-28569D01*
X34950Y-27600D01*
X34635Y-27285D01*
X34564Y-27356D01*
X34564Y-27215D01*
X34249Y-26899D01*
X34153Y-26927D01*
X34080Y-27133D01*
X34091Y-27351D01*
X34153Y-27502D01*
X34249Y-27530D01*
X34564Y-27215D01*
X34564Y-27356D01*
X34319Y-27600D01*
X34347Y-27696D01*
X34553Y-27769D01*
X34771Y-27758D01*
X34922Y-27696D01*
X34950Y-27600D01*
X34950Y-28569D01*
X34770Y-28750D01*
X33929Y-28750D01*
X33929Y-25175D01*
X33918Y-24967D01*
X33860Y-24827D01*
X33767Y-24802D01*
X33470Y-25100D01*
X33767Y-25397D01*
X33860Y-25372D01*
X33929Y-25175D01*
X33929Y-28750D01*
X33792Y-28750D01*
X33697Y-28655D01*
X33564Y-28599D01*
X33697Y-28545D01*
X33844Y-28397D01*
X33924Y-28204D01*
X33925Y-27996D01*
X33845Y-27803D01*
X33697Y-27655D01*
X33564Y-27599D01*
X33697Y-27545D01*
X33844Y-27397D01*
X33924Y-27204D01*
X33925Y-26996D01*
X33845Y-26803D01*
X33697Y-26655D01*
X33564Y-26599D01*
X33697Y-26545D01*
X33844Y-26397D01*
X33924Y-26204D01*
X33925Y-25996D01*
X33845Y-25803D01*
X33697Y-25655D01*
X33571Y-25602D01*
X33672Y-25560D01*
X33697Y-25467D01*
X33400Y-25170D01*
X33102Y-25467D01*
X33127Y-25560D01*
X33237Y-25599D01*
X33103Y-25654D01*
X32955Y-25802D01*
X32950Y-25814D01*
X32950Y-25375D01*
X33032Y-25397D01*
X33329Y-25100D01*
X33032Y-24802D01*
X32950Y-24824D01*
X32950Y-24385D01*
X32954Y-24397D01*
X33102Y-24544D01*
X33228Y-24597D01*
X33127Y-24639D01*
X33102Y-24732D01*
X33400Y-25029D01*
X33697Y-24732D01*
X33672Y-24639D01*
X33562Y-24600D01*
X33697Y-24545D01*
X33844Y-24397D01*
X33924Y-24204D01*
X33925Y-23996D01*
X33845Y-23803D01*
X33697Y-23655D01*
X33564Y-23599D01*
X33697Y-23545D01*
X33844Y-23397D01*
X33924Y-23204D01*
X33925Y-22996D01*
X33845Y-22803D01*
X33697Y-22655D01*
X33564Y-22599D01*
X33697Y-22545D01*
X33844Y-22397D01*
X33892Y-22282D01*
X33982Y-22372D01*
X33982Y-22372D01*
X34080Y-22437D01*
X34133Y-22447D01*
X34143Y-22471D01*
X34298Y-22625D01*
X34458Y-22692D01*
X34323Y-22748D01*
X34169Y-22903D01*
X34085Y-23105D01*
X34084Y-23323D01*
X34168Y-23526D01*
X34323Y-23680D01*
X34525Y-23764D01*
X34743Y-23765D01*
X34946Y-23681D01*
X35100Y-23526D01*
X35170Y-23360D01*
X35170Y-27056D01*
X35116Y-26927D01*
X35020Y-26899D01*
X34950Y-26970D01*
X34950Y-26829D01*
X34922Y-26733D01*
X34716Y-26660D01*
X34498Y-26671D01*
X34347Y-26733D01*
X34319Y-26829D01*
X34635Y-27144D01*
X34950Y-26829D01*
X34950Y-26970D01*
X34705Y-27215D01*
X35020Y-27530D01*
X35116Y-27502D01*
X35170Y-27352D01*
X35170Y-28350D01*
X35170Y-28350D01*
G37*
G54D30*
X35170Y-28350D02*
X34950Y-28569D01*
X34950Y-27600D01*
X34635Y-27285D01*
X34564Y-27356D01*
X34564Y-27215D01*
X34249Y-26899D01*
X34153Y-26927D01*
X34080Y-27133D01*
X34091Y-27351D01*
X34153Y-27502D01*
X34249Y-27530D01*
X34564Y-27215D01*
X34564Y-27356D01*
X34319Y-27600D01*
X34347Y-27696D01*
X34553Y-27769D01*
X34771Y-27758D01*
X34922Y-27696D01*
X34950Y-27600D01*
X34950Y-28569D01*
X34770Y-28750D01*
X33929Y-28750D01*
X33929Y-25175D01*
X33918Y-24967D01*
X33860Y-24827D01*
X33767Y-24802D01*
X33470Y-25100D01*
X33767Y-25397D01*
X33860Y-25372D01*
X33929Y-25175D01*
X33929Y-28750D01*
X33792Y-28750D01*
X33697Y-28655D01*
X33564Y-28599D01*
X33697Y-28545D01*
X33844Y-28397D01*
X33924Y-28204D01*
X33925Y-27996D01*
X33845Y-27803D01*
X33697Y-27655D01*
X33564Y-27599D01*
X33697Y-27545D01*
X33844Y-27397D01*
X33924Y-27204D01*
X33925Y-26996D01*
X33845Y-26803D01*
X33697Y-26655D01*
X33564Y-26599D01*
X33697Y-26545D01*
X33844Y-26397D01*
X33924Y-26204D01*
X33925Y-25996D01*
X33845Y-25803D01*
X33697Y-25655D01*
X33571Y-25602D01*
X33672Y-25560D01*
X33697Y-25467D01*
X33400Y-25170D01*
X33102Y-25467D01*
X33127Y-25560D01*
X33237Y-25599D01*
X33103Y-25654D01*
X32955Y-25802D01*
X32950Y-25814D01*
X32950Y-25375D01*
X33032Y-25397D01*
X33329Y-25100D01*
X33032Y-24802D01*
X32950Y-24824D01*
X32950Y-24385D01*
X32954Y-24397D01*
X33102Y-24544D01*
X33228Y-24597D01*
X33127Y-24639D01*
X33102Y-24732D01*
X33400Y-25029D01*
X33697Y-24732D01*
X33672Y-24639D01*
X33562Y-24600D01*
X33697Y-24545D01*
X33844Y-24397D01*
X33924Y-24204D01*
X33925Y-23996D01*
X33845Y-23803D01*
X33697Y-23655D01*
X33564Y-23599D01*
X33697Y-23545D01*
X33844Y-23397D01*
X33924Y-23204D01*
X33925Y-22996D01*
X33845Y-22803D01*
X33697Y-22655D01*
X33564Y-22599D01*
X33697Y-22545D01*
X33844Y-22397D01*
X33892Y-22282D01*
X33982Y-22372D01*
X33982Y-22372D01*
X34080Y-22437D01*
X34133Y-22447D01*
X34143Y-22471D01*
X34298Y-22625D01*
X34458Y-22692D01*
X34323Y-22748D01*
X34169Y-22903D01*
X34085Y-23105D01*
X34084Y-23323D01*
X34168Y-23526D01*
X34323Y-23680D01*
X34525Y-23764D01*
X34743Y-23765D01*
X34946Y-23681D01*
X35100Y-23526D01*
X35170Y-23360D01*
X35170Y-27056D01*
X35116Y-26927D01*
X35020Y-26899D01*
X34950Y-26970D01*
X34950Y-26829D01*
X34922Y-26733D01*
X34716Y-26660D01*
X34498Y-26671D01*
X34347Y-26733D01*
X34319Y-26829D01*
X34635Y-27144D01*
X34950Y-26829D01*
X34950Y-26970D01*
X34705Y-27215D01*
X35020Y-27530D01*
X35116Y-27502D01*
X35170Y-27352D01*
X35170Y-28350D01*
G54D10*
G36*
X42000Y-11365D02*
X41871Y-11365D01*
X41871Y-10630D01*
X41520Y-10278D01*
X41449Y-10349D01*
X41449Y-10208D01*
X41097Y-9856D01*
X41032Y-9878D01*
X41028Y-9868D01*
X40860Y-9699D01*
X40639Y-9608D01*
X40401Y-9607D01*
X40180Y-9699D01*
X40019Y-9859D01*
X39860Y-9699D01*
X39639Y-9608D01*
X39401Y-9607D01*
X39180Y-9699D01*
X39011Y-9867D01*
X38920Y-10088D01*
X38919Y-10326D01*
X39011Y-10547D01*
X39179Y-10716D01*
X39400Y-10807D01*
X39638Y-10808D01*
X39859Y-10716D01*
X40020Y-10556D01*
X40179Y-10716D01*
X40400Y-10807D01*
X40638Y-10808D01*
X40859Y-10716D01*
X41028Y-10548D01*
X41032Y-10537D01*
X41097Y-10559D01*
X41449Y-10208D01*
X41449Y-10349D01*
X41168Y-10630D01*
X41202Y-10730D01*
X41426Y-10812D01*
X41664Y-10802D01*
X41837Y-10730D01*
X41871Y-10630D01*
X41871Y-11365D01*
X35170Y-11365D01*
X35170Y-23069D01*
X35101Y-22903D01*
X34946Y-22749D01*
X34786Y-22682D01*
X34921Y-22626D01*
X35075Y-22471D01*
X35159Y-22269D01*
X35160Y-22051D01*
X35160Y-18051D01*
X35076Y-17848D01*
X34921Y-17694D01*
X34719Y-17610D01*
X34501Y-17609D01*
X34298Y-17693D01*
X34144Y-17848D01*
X34129Y-17882D01*
X34129Y-17375D01*
X34118Y-17167D01*
X34060Y-17027D01*
X33967Y-17002D01*
X33670Y-17300D01*
X33967Y-17597D01*
X34060Y-17572D01*
X34129Y-17375D01*
X34129Y-17882D01*
X34060Y-18050D01*
X34059Y-18268D01*
X34143Y-18471D01*
X34298Y-18625D01*
X34500Y-18709D01*
X34718Y-18710D01*
X34921Y-18626D01*
X35075Y-18471D01*
X35159Y-18269D01*
X35160Y-18051D01*
X35160Y-22051D01*
X35076Y-21848D01*
X34921Y-21694D01*
X34719Y-21610D01*
X34501Y-21609D01*
X34298Y-21693D01*
X34225Y-21766D01*
X33877Y-21417D01*
X33845Y-21396D01*
X33924Y-21204D01*
X33925Y-20996D01*
X33845Y-20803D01*
X33697Y-20655D01*
X33564Y-20599D01*
X33697Y-20545D01*
X33844Y-20397D01*
X33924Y-20204D01*
X33925Y-19996D01*
X33908Y-19955D01*
X33934Y-19955D01*
X34090Y-19890D01*
X34210Y-19771D01*
X34274Y-19614D01*
X34275Y-19445D01*
X34210Y-19289D01*
X34150Y-19228D01*
X34150Y-18640D01*
X34127Y-18525D01*
X34062Y-18427D01*
X34062Y-18427D01*
X33431Y-17797D01*
X33524Y-17829D01*
X33732Y-17818D01*
X33872Y-17760D01*
X33897Y-17667D01*
X33600Y-17370D01*
X33594Y-17376D01*
X33523Y-17305D01*
X33529Y-17300D01*
X33523Y-17294D01*
X33594Y-17223D01*
X33600Y-17229D01*
X33897Y-16932D01*
X33872Y-16839D01*
X33675Y-16770D01*
X33642Y-16771D01*
X33973Y-16440D01*
X34033Y-16586D01*
X34188Y-16740D01*
X34390Y-16824D01*
X34608Y-16825D01*
X34811Y-16741D01*
X34965Y-16586D01*
X35049Y-16384D01*
X35050Y-16166D01*
X35050Y-12166D01*
X35005Y-12057D01*
X35005Y-10635D01*
X34916Y-10421D01*
X34753Y-10258D01*
X34540Y-10170D01*
X34310Y-10169D01*
X34096Y-10258D01*
X33933Y-10421D01*
X33924Y-10442D01*
X33832Y-10413D01*
X33761Y-10483D01*
X33761Y-10342D01*
X33730Y-10243D01*
X33513Y-10165D01*
X33283Y-10175D01*
X33119Y-10243D01*
X33088Y-10342D01*
X33425Y-10679D01*
X33761Y-10342D01*
X33761Y-10483D01*
X33495Y-10750D01*
X33832Y-11086D01*
X33924Y-11057D01*
X33933Y-11078D01*
X34096Y-11241D01*
X34309Y-11329D01*
X34539Y-11330D01*
X34753Y-11241D01*
X34916Y-11078D01*
X35004Y-10865D01*
X35005Y-10635D01*
X35005Y-12057D01*
X34966Y-11963D01*
X34811Y-11809D01*
X34609Y-11725D01*
X34391Y-11724D01*
X34188Y-11808D01*
X34034Y-11963D01*
X33950Y-12165D01*
X33949Y-12383D01*
X34033Y-12586D01*
X34188Y-12740D01*
X34390Y-12824D01*
X34608Y-12825D01*
X34811Y-12741D01*
X34965Y-12586D01*
X35049Y-12384D01*
X35050Y-12166D01*
X35050Y-16166D01*
X34966Y-15963D01*
X34811Y-15809D01*
X34609Y-15725D01*
X34391Y-15724D01*
X34340Y-15746D01*
X34340Y-13870D01*
X34336Y-13854D01*
X34344Y-13834D01*
X34345Y-13665D01*
X34280Y-13509D01*
X34161Y-13389D01*
X34004Y-13325D01*
X33835Y-13324D01*
X33761Y-13355D01*
X33761Y-11157D01*
X33425Y-10820D01*
X33354Y-10891D01*
X33354Y-10750D01*
X33017Y-10413D01*
X32918Y-10444D01*
X32840Y-10661D01*
X32850Y-10891D01*
X32918Y-11055D01*
X33017Y-11086D01*
X33354Y-10750D01*
X33354Y-10891D01*
X33088Y-11157D01*
X33119Y-11256D01*
X33336Y-11334D01*
X33566Y-11324D01*
X33730Y-11256D01*
X33761Y-11157D01*
X33761Y-13355D01*
X33679Y-13389D01*
X33559Y-13508D01*
X33495Y-13665D01*
X33494Y-13834D01*
X33559Y-13990D01*
X33678Y-14110D01*
X33740Y-14135D01*
X33740Y-14606D01*
X33726Y-14593D01*
X33634Y-14555D01*
X33535Y-14554D01*
X33160Y-14554D01*
X33160Y-12040D01*
X33159Y-12039D01*
X33133Y-11906D01*
X33057Y-11792D01*
X33057Y-11792D01*
X32800Y-11535D01*
X32800Y-10720D01*
X32773Y-10586D01*
X32697Y-10472D01*
X32059Y-9834D01*
X32060Y-9671D01*
X31976Y-9468D01*
X31821Y-9314D01*
X31619Y-9230D01*
X31401Y-9229D01*
X31198Y-9313D01*
X31044Y-9468D01*
X30960Y-9670D01*
X30959Y-9888D01*
X31043Y-10091D01*
X31198Y-10245D01*
X31400Y-10329D01*
X31565Y-10330D01*
X32100Y-10864D01*
X32100Y-11680D01*
X32126Y-11813D01*
X32202Y-11927D01*
X32460Y-12184D01*
X32460Y-14573D01*
X32414Y-14555D01*
X32206Y-14554D01*
X32060Y-14615D01*
X32060Y-13671D01*
X31976Y-13468D01*
X31821Y-13314D01*
X31619Y-13230D01*
X31401Y-13229D01*
X31198Y-13313D01*
X31044Y-13468D01*
X31021Y-13522D01*
X30966Y-13388D01*
X30811Y-13234D01*
X30609Y-13150D01*
X30391Y-13149D01*
X30300Y-13187D01*
X30300Y-12051D01*
X30360Y-11991D01*
X30424Y-11834D01*
X30425Y-11665D01*
X30360Y-11509D01*
X30241Y-11389D01*
X30084Y-11325D01*
X29915Y-11324D01*
X29826Y-11361D01*
X29854Y-11281D01*
X29850Y-11187D01*
X29850Y-10549D01*
X29850Y-9850D01*
X29812Y-9758D01*
X29741Y-9688D01*
X29649Y-9650D01*
X29550Y-9649D01*
X29412Y-9650D01*
X29350Y-9712D01*
X29350Y-10150D01*
X29787Y-10150D01*
X29850Y-10087D01*
X29850Y-9850D01*
X29850Y-10549D01*
X29850Y-10312D01*
X29787Y-10250D01*
X29350Y-10250D01*
X29350Y-10257D01*
X29250Y-10257D01*
X29250Y-10250D01*
X29250Y-10150D01*
X29250Y-9712D01*
X29187Y-9650D01*
X29049Y-9649D01*
X28950Y-9650D01*
X28858Y-9688D01*
X28787Y-9758D01*
X28749Y-9850D01*
X28750Y-10087D01*
X28812Y-10150D01*
X29250Y-10150D01*
X29250Y-10250D01*
X28812Y-10250D01*
X28750Y-10312D01*
X28749Y-10549D01*
X28787Y-10641D01*
X28858Y-10711D01*
X28950Y-10749D01*
X29003Y-10750D01*
X28984Y-10814D01*
X29300Y-11129D01*
X29615Y-10814D01*
X29596Y-10750D01*
X29649Y-10749D01*
X29741Y-10711D01*
X29812Y-10641D01*
X29850Y-10549D01*
X29850Y-11187D01*
X29843Y-11063D01*
X29781Y-10912D01*
X29685Y-10884D01*
X29370Y-11200D01*
X29376Y-11205D01*
X29305Y-11276D01*
X29300Y-11270D01*
X29294Y-11276D01*
X29223Y-11205D01*
X29229Y-11200D01*
X28914Y-10884D01*
X28818Y-10912D01*
X28745Y-11118D01*
X28756Y-11336D01*
X28769Y-11368D01*
X28741Y-11339D01*
X28584Y-11275D01*
X28415Y-11274D01*
X28259Y-11339D01*
X28139Y-11458D01*
X28075Y-11615D01*
X28074Y-11784D01*
X28139Y-11940D01*
X28258Y-12060D01*
X28415Y-12124D01*
X28584Y-12125D01*
X28740Y-12060D01*
X28777Y-12023D01*
X28750Y-12090D01*
X28749Y-12305D01*
X28302Y-12752D01*
X28226Y-12866D01*
X28200Y-13000D01*
X28200Y-13255D01*
X27950Y-13504D01*
X27950Y-13300D01*
X27950Y-9800D01*
X27912Y-9708D01*
X27841Y-9638D01*
X27749Y-9600D01*
X27650Y-9599D01*
X24150Y-9599D01*
X24058Y-9637D01*
X23988Y-9708D01*
X23950Y-9800D01*
X23949Y-9899D01*
X23949Y-13399D01*
X23987Y-13491D01*
X24058Y-13561D01*
X24150Y-13599D01*
X24249Y-13600D01*
X27749Y-13600D01*
X27841Y-13562D01*
X27911Y-13491D01*
X27949Y-13399D01*
X27950Y-13300D01*
X27950Y-13504D01*
X27355Y-14100D01*
X25375Y-14100D01*
X25241Y-14126D01*
X25127Y-14202D01*
X20050Y-19279D01*
X20050Y-11481D01*
X19958Y-11260D01*
X19798Y-11099D01*
X19958Y-10940D01*
X20049Y-10719D01*
X20050Y-10481D01*
X19958Y-10260D01*
X19790Y-10091D01*
X19569Y-10000D01*
X19331Y-9999D01*
X19110Y-10091D01*
X18941Y-10259D01*
X18850Y-10480D01*
X18849Y-10718D01*
X18941Y-10939D01*
X19101Y-11100D01*
X18941Y-11259D01*
X18850Y-11480D01*
X18849Y-11718D01*
X18941Y-11939D01*
X19015Y-12014D01*
X18958Y-12037D01*
X18888Y-12108D01*
X18850Y-12200D01*
X18849Y-12299D01*
X18850Y-12487D01*
X18912Y-12550D01*
X19400Y-12550D01*
X19400Y-12542D01*
X19500Y-12542D01*
X19500Y-12550D01*
X19987Y-12550D01*
X20050Y-12487D01*
X20050Y-12299D01*
X20049Y-12200D01*
X20011Y-12108D01*
X19941Y-12037D01*
X19884Y-12014D01*
X19958Y-11940D01*
X20049Y-11719D01*
X20050Y-11481D01*
X20050Y-19279D01*
X20050Y-19279D01*
X20050Y-12900D01*
X20050Y-12712D01*
X19987Y-12650D01*
X19500Y-12650D01*
X19500Y-13137D01*
X19562Y-13200D01*
X19849Y-13200D01*
X19941Y-13162D01*
X20011Y-13091D01*
X20049Y-12999D01*
X20050Y-12900D01*
X20050Y-19279D01*
X19400Y-19930D01*
X19400Y-13137D01*
X19400Y-12650D01*
X18912Y-12650D01*
X18850Y-12712D01*
X18849Y-12900D01*
X18850Y-12999D01*
X18888Y-13091D01*
X18958Y-13162D01*
X19050Y-13200D01*
X19337Y-13200D01*
X19400Y-13137D01*
X19400Y-19930D01*
X18050Y-21279D01*
X18050Y-11780D01*
X18045Y-11688D01*
X18045Y-10592D01*
X17962Y-10391D01*
X17809Y-10238D01*
X17608Y-10154D01*
X17392Y-10154D01*
X17191Y-10237D01*
X17038Y-10390D01*
X16954Y-10591D01*
X16954Y-10807D01*
X17037Y-11008D01*
X17190Y-11161D01*
X17275Y-11197D01*
X17214Y-11222D01*
X17188Y-11317D01*
X17500Y-11629D01*
X17811Y-11317D01*
X17785Y-11222D01*
X17719Y-11199D01*
X17808Y-11162D01*
X17961Y-11009D01*
X18045Y-10808D01*
X18045Y-10592D01*
X18045Y-11688D01*
X18039Y-11563D01*
X17977Y-11414D01*
X17882Y-11388D01*
X17570Y-11700D01*
X17882Y-12011D01*
X17977Y-11985D01*
X18050Y-11780D01*
X18050Y-21279D01*
X17811Y-21518D01*
X17811Y-12082D01*
X17500Y-11770D01*
X17429Y-11841D01*
X17429Y-11700D01*
X17117Y-11388D01*
X17022Y-11414D01*
X16949Y-11619D01*
X16960Y-11836D01*
X17022Y-11985D01*
X17117Y-12011D01*
X17429Y-11700D01*
X17429Y-11841D01*
X17188Y-12082D01*
X17214Y-12177D01*
X17419Y-12250D01*
X17636Y-12239D01*
X17785Y-12177D01*
X17811Y-12082D01*
X17811Y-21518D01*
X16750Y-22579D01*
X16750Y-12941D01*
X16666Y-12738D01*
X16511Y-12584D01*
X16309Y-12500D01*
X16091Y-12499D01*
X15888Y-12583D01*
X15734Y-12738D01*
X15700Y-12819D01*
X15666Y-12738D01*
X15511Y-12584D01*
X15309Y-12500D01*
X15091Y-12499D01*
X14888Y-12583D01*
X14750Y-12722D01*
X14750Y-12700D01*
X14712Y-12608D01*
X14641Y-12538D01*
X14549Y-12500D01*
X14450Y-12499D01*
X13850Y-12499D01*
X13758Y-12537D01*
X13688Y-12608D01*
X13650Y-12700D01*
X13649Y-12799D01*
X13649Y-13399D01*
X13687Y-13491D01*
X13758Y-13561D01*
X13850Y-13599D01*
X13949Y-13600D01*
X14549Y-13600D01*
X14641Y-13562D01*
X14711Y-13491D01*
X14749Y-13399D01*
X14749Y-13377D01*
X14888Y-13515D01*
X15090Y-13599D01*
X15308Y-13600D01*
X15511Y-13516D01*
X15665Y-13361D01*
X15699Y-13280D01*
X15733Y-13361D01*
X15888Y-13515D01*
X16090Y-13599D01*
X16308Y-13600D01*
X16511Y-13516D01*
X16665Y-13361D01*
X16749Y-13159D01*
X16750Y-12941D01*
X16750Y-22579D01*
X15502Y-23827D01*
X15426Y-23941D01*
X15400Y-24075D01*
X15400Y-24650D01*
X15426Y-24783D01*
X15502Y-24897D01*
X15865Y-25259D01*
X15865Y-25873D01*
X15400Y-25873D01*
X15400Y-25815D01*
X15400Y-25815D01*
X15400Y-25717D01*
X15400Y-25559D01*
X15362Y-25468D01*
X15292Y-25397D01*
X15200Y-25359D01*
X15223Y-25305D01*
X15223Y-25205D01*
X15223Y-24575D01*
X15185Y-24483D01*
X15115Y-24413D01*
X15023Y-24375D01*
X14923Y-24375D01*
X14372Y-24375D01*
X14280Y-24413D01*
X14210Y-24483D01*
X14172Y-24575D01*
X14172Y-24674D01*
X14172Y-25304D01*
X14209Y-25396D01*
X14280Y-25466D01*
X14372Y-25505D01*
X14391Y-25505D01*
X14368Y-25559D01*
X14368Y-25658D01*
X14368Y-25816D01*
X14368Y-25816D01*
X14368Y-25914D01*
X14368Y-26072D01*
X14368Y-26072D01*
X14368Y-26170D01*
X14368Y-26327D01*
X14368Y-26328D01*
X14368Y-26328D01*
X14368Y-26354D01*
X14386Y-26372D01*
X14406Y-26420D01*
X14442Y-26455D01*
X14407Y-26491D01*
X14386Y-26539D01*
X14368Y-26557D01*
X14368Y-26584D01*
X14368Y-26584D01*
X14368Y-26682D01*
X14368Y-26840D01*
X14391Y-26894D01*
X14372Y-26894D01*
X14280Y-26932D01*
X14210Y-27003D01*
X14172Y-27094D01*
X14172Y-27194D01*
X14172Y-27824D01*
X14209Y-27916D01*
X14280Y-27986D01*
X14372Y-28024D01*
X14471Y-28024D01*
X15022Y-28024D01*
X15114Y-27986D01*
X15185Y-27916D01*
X15223Y-27824D01*
X15223Y-27725D01*
X15223Y-27095D01*
X15200Y-27040D01*
X15291Y-27002D01*
X15362Y-26932D01*
X15400Y-26840D01*
X15400Y-26741D01*
X15400Y-26584D01*
X15400Y-26583D01*
X15400Y-26583D01*
X15400Y-26557D01*
X15382Y-26539D01*
X15377Y-26526D01*
X16125Y-26526D01*
X16125Y-28155D01*
X15579Y-28700D01*
X15446Y-28699D01*
X15253Y-28779D01*
X15105Y-28927D01*
X15025Y-29120D01*
X15024Y-29255D01*
X14552Y-29727D01*
X14476Y-29841D01*
X14450Y-29971D01*
X14334Y-30088D01*
X14250Y-30290D01*
X14249Y-30508D01*
X14333Y-30711D01*
X14488Y-30865D01*
X14690Y-30949D01*
X14908Y-30950D01*
X15111Y-30866D01*
X15265Y-30711D01*
X15349Y-30509D01*
X15350Y-30291D01*
X15266Y-30088D01*
X15223Y-30046D01*
X15520Y-29749D01*
X15653Y-29750D01*
X15847Y-29670D01*
X15994Y-29522D01*
X16074Y-29329D01*
X16075Y-29194D01*
X16722Y-28547D01*
X16722Y-28547D01*
X16722Y-28547D01*
X16798Y-28433D01*
X16825Y-28300D01*
X16824Y-28300D01*
X16825Y-28300D01*
X16825Y-26926D01*
X16858Y-26960D01*
X17015Y-27024D01*
X17100Y-27025D01*
X17222Y-27147D01*
X17222Y-27147D01*
X17320Y-27212D01*
X17435Y-27235D01*
X17476Y-27235D01*
X17488Y-27246D01*
X17580Y-27284D01*
X17679Y-27285D01*
X17979Y-27285D01*
X18071Y-27247D01*
X18141Y-27176D01*
X18179Y-27084D01*
X18180Y-26985D01*
X18180Y-26785D01*
X18142Y-26693D01*
X18071Y-26623D01*
X17979Y-26585D01*
X17880Y-26584D01*
X17580Y-26584D01*
X17530Y-26605D01*
X17524Y-26600D01*
X17525Y-26550D01*
X17765Y-26550D01*
X17840Y-26535D01*
X17979Y-26535D01*
X18071Y-26497D01*
X18141Y-26426D01*
X18179Y-26334D01*
X18180Y-26235D01*
X18180Y-26205D01*
X18381Y-26406D01*
X18379Y-26410D01*
X18380Y-26447D01*
X18442Y-26510D01*
X18519Y-26510D01*
X18580Y-26534D01*
X18679Y-26535D01*
X18837Y-26535D01*
X18837Y-26584D01*
X18580Y-26584D01*
X18519Y-26610D01*
X18442Y-26610D01*
X18380Y-26672D01*
X18379Y-26709D01*
X18395Y-26747D01*
X18380Y-26785D01*
X18379Y-26884D01*
X18379Y-27084D01*
X18417Y-27176D01*
X18488Y-27246D01*
X18500Y-27251D01*
X18500Y-27596D01*
X18471Y-27608D01*
X18308Y-27771D01*
X18220Y-27984D01*
X18219Y-28214D01*
X18308Y-28428D01*
X18471Y-28591D01*
X18491Y-28599D01*
X18471Y-28608D01*
X18308Y-28771D01*
X18220Y-28984D01*
X18219Y-29214D01*
X18308Y-29428D01*
X18471Y-29591D01*
X18500Y-29603D01*
X18500Y-29928D01*
X18488Y-29933D01*
X18334Y-30088D01*
X18250Y-30290D01*
X18249Y-30508D01*
X18333Y-30711D01*
X18488Y-30865D01*
X18690Y-30949D01*
X18908Y-30950D01*
X19111Y-30866D01*
X19265Y-30711D01*
X19349Y-30509D01*
X19350Y-30291D01*
X19266Y-30088D01*
X19111Y-29934D01*
X19100Y-29929D01*
X19100Y-29603D01*
X19128Y-29591D01*
X19291Y-29428D01*
X19379Y-29215D01*
X19380Y-28985D01*
X19291Y-28771D01*
X19128Y-28608D01*
X19108Y-28600D01*
X19128Y-28591D01*
X19291Y-28428D01*
X19379Y-28215D01*
X19380Y-27985D01*
X19291Y-27771D01*
X19128Y-27608D01*
X19100Y-27596D01*
X19100Y-27218D01*
X19141Y-27176D01*
X19179Y-27084D01*
X19180Y-26985D01*
X19180Y-26785D01*
X19164Y-26747D01*
X19180Y-26709D01*
X19180Y-26672D01*
X19117Y-26610D01*
X19175Y-26610D01*
X19800Y-27234D01*
X19800Y-29250D01*
X19826Y-29383D01*
X19902Y-29497D01*
X21327Y-30922D01*
X21327Y-30922D01*
X21441Y-30998D01*
X21574Y-31024D01*
X21575Y-31025D01*
X23057Y-31025D01*
X23152Y-31119D01*
X23285Y-31175D01*
X23153Y-31229D01*
X23005Y-31377D01*
X22975Y-31449D01*
X22975Y-31350D01*
X22937Y-31258D01*
X22866Y-31188D01*
X22774Y-31150D01*
X22675Y-31149D01*
X22125Y-31149D01*
X22033Y-31187D01*
X21963Y-31258D01*
X21925Y-31350D01*
X21924Y-31449D01*
X21924Y-31999D01*
X21962Y-32091D01*
X22033Y-32161D01*
X22125Y-32199D01*
X22224Y-32200D01*
X22774Y-32200D01*
X22866Y-32162D01*
X22936Y-32091D01*
X22974Y-31999D01*
X22975Y-31900D01*
X22975Y-31900D01*
X23004Y-31972D01*
X23152Y-32119D01*
X23345Y-32199D01*
X23553Y-32200D01*
X23747Y-32120D01*
X23894Y-31972D01*
X23974Y-31779D01*
X23975Y-31571D01*
X23895Y-31378D01*
X23747Y-31230D01*
X23614Y-31174D01*
X23747Y-31120D01*
X23894Y-30972D01*
X23974Y-30779D01*
X23975Y-30571D01*
X23895Y-30378D01*
X23747Y-30230D01*
X23554Y-30150D01*
X23346Y-30149D01*
X23153Y-30229D01*
X23057Y-30325D01*
X22150Y-30325D01*
X22150Y-24341D01*
X22066Y-24138D01*
X21911Y-23984D01*
X21709Y-23900D01*
X21491Y-23899D01*
X21288Y-23983D01*
X21134Y-24138D01*
X21117Y-24178D01*
X21115Y-24180D01*
X21115Y-24039D01*
X21087Y-23943D01*
X20881Y-23870D01*
X20663Y-23881D01*
X20512Y-23943D01*
X20484Y-24039D01*
X20800Y-24354D01*
X21115Y-24039D01*
X21115Y-24180D01*
X20870Y-24425D01*
X20876Y-24430D01*
X20805Y-24501D01*
X20800Y-24495D01*
X20729Y-24566D01*
X20729Y-24425D01*
X20414Y-24109D01*
X20318Y-24137D01*
X20245Y-24343D01*
X20256Y-24561D01*
X20318Y-24712D01*
X20414Y-24740D01*
X20729Y-24425D01*
X20729Y-24566D01*
X20484Y-24810D01*
X20512Y-24906D01*
X20718Y-24979D01*
X20936Y-24968D01*
X21087Y-24906D01*
X21115Y-24810D01*
X21115Y-24810D01*
X21160Y-24856D01*
X21194Y-24822D01*
X21288Y-24915D01*
X21490Y-24999D01*
X21708Y-25000D01*
X21911Y-24916D01*
X22065Y-24761D01*
X22149Y-24559D01*
X22150Y-24341D01*
X22150Y-30325D01*
X21790Y-30325D01*
X21790Y-28251D01*
X21706Y-28048D01*
X21551Y-27894D01*
X21349Y-27810D01*
X21334Y-27810D01*
X21334Y-27188D01*
X21330Y-27089D01*
X21330Y-25985D01*
X21241Y-25771D01*
X21115Y-25644D01*
X21078Y-25608D01*
X20865Y-25520D01*
X20635Y-25519D01*
X20421Y-25608D01*
X20258Y-25771D01*
X20170Y-25984D01*
X20169Y-26214D01*
X20258Y-26428D01*
X20421Y-26591D01*
X20442Y-26600D01*
X20413Y-26692D01*
X20750Y-27029D01*
X21086Y-26692D01*
X21057Y-26600D01*
X21078Y-26591D01*
X21241Y-26428D01*
X21329Y-26215D01*
X21330Y-25985D01*
X21330Y-27089D01*
X21324Y-26958D01*
X21256Y-26794D01*
X21157Y-26763D01*
X20820Y-27100D01*
X21157Y-27436D01*
X21256Y-27405D01*
X21334Y-27188D01*
X21334Y-27810D01*
X21131Y-27809D01*
X20928Y-27893D01*
X20774Y-28048D01*
X20690Y-28250D01*
X20689Y-28468D01*
X20773Y-28671D01*
X20928Y-28825D01*
X21130Y-28909D01*
X21348Y-28910D01*
X21551Y-28826D01*
X21705Y-28671D01*
X21789Y-28469D01*
X21790Y-28251D01*
X21790Y-30325D01*
X21719Y-30325D01*
X20500Y-29105D01*
X20500Y-27626D01*
X20661Y-27684D01*
X20891Y-27674D01*
X21055Y-27606D01*
X21086Y-27507D01*
X20750Y-27170D01*
X20744Y-27176D01*
X20673Y-27105D01*
X20679Y-27100D01*
X20342Y-26763D01*
X20323Y-26768D01*
X19492Y-25937D01*
X19378Y-25861D01*
X19245Y-25835D01*
X18929Y-25835D01*
X18880Y-25834D01*
X18799Y-25834D01*
X18165Y-25200D01*
X18165Y-25185D01*
X18100Y-25029D01*
X17981Y-24909D01*
X17824Y-24845D01*
X17655Y-24844D01*
X17499Y-24909D01*
X17379Y-25028D01*
X17315Y-25185D01*
X17314Y-25354D01*
X17379Y-25510D01*
X17498Y-25630D01*
X17655Y-25694D01*
X17669Y-25694D01*
X17809Y-25834D01*
X17580Y-25834D01*
X17580Y-25835D01*
X17224Y-25835D01*
X17225Y-25715D01*
X17160Y-25559D01*
X17100Y-25498D01*
X17100Y-24896D01*
X17111Y-24891D01*
X17265Y-24736D01*
X17349Y-24534D01*
X17350Y-24316D01*
X17266Y-24113D01*
X17111Y-23959D01*
X16909Y-23875D01*
X16691Y-23874D01*
X16488Y-23958D01*
X16334Y-24113D01*
X16250Y-24315D01*
X16249Y-24533D01*
X16333Y-24736D01*
X16488Y-24890D01*
X16500Y-24895D01*
X16500Y-24923D01*
X16462Y-24867D01*
X16462Y-24867D01*
X16100Y-24505D01*
X16100Y-24219D01*
X25519Y-14800D01*
X27500Y-14800D01*
X27633Y-14773D01*
X27633Y-14773D01*
X27747Y-14697D01*
X28797Y-13647D01*
X28866Y-13544D01*
X28988Y-13665D01*
X29069Y-13699D01*
X28988Y-13733D01*
X28834Y-13888D01*
X28750Y-14090D01*
X28749Y-14308D01*
X28833Y-14511D01*
X28988Y-14665D01*
X29069Y-14699D01*
X28988Y-14733D01*
X28834Y-14888D01*
X28750Y-15090D01*
X28749Y-15308D01*
X28833Y-15511D01*
X28988Y-15665D01*
X29190Y-15749D01*
X29408Y-15750D01*
X29611Y-15666D01*
X29765Y-15511D01*
X29849Y-15309D01*
X29850Y-15091D01*
X29766Y-14888D01*
X29611Y-14734D01*
X29530Y-14700D01*
X29611Y-14666D01*
X29765Y-14511D01*
X29849Y-14309D01*
X29850Y-14091D01*
X29790Y-13947D01*
X29835Y-13977D01*
X29835Y-13977D01*
X29950Y-14000D01*
X30028Y-14000D01*
X30033Y-14011D01*
X30188Y-14165D01*
X30390Y-14249D01*
X30608Y-14250D01*
X30811Y-14166D01*
X30965Y-14011D01*
X30988Y-13957D01*
X31043Y-14091D01*
X31198Y-14245D01*
X31400Y-14329D01*
X31618Y-14330D01*
X31821Y-14246D01*
X31975Y-14091D01*
X32059Y-13889D01*
X32060Y-13671D01*
X32060Y-14615D01*
X32013Y-14634D01*
X31865Y-14782D01*
X31785Y-14975D01*
X31784Y-15183D01*
X31864Y-15377D01*
X32012Y-15524D01*
X32045Y-15538D01*
X31986Y-15626D01*
X31977Y-15669D01*
X31865Y-15782D01*
X31785Y-15975D01*
X31784Y-16183D01*
X31864Y-16377D01*
X32012Y-16524D01*
X32205Y-16604D01*
X32413Y-16605D01*
X32607Y-16525D01*
X32754Y-16377D01*
X32834Y-16184D01*
X32835Y-15976D01*
X32763Y-15801D01*
X32967Y-15597D01*
X32985Y-15604D01*
X33084Y-15605D01*
X33634Y-15605D01*
X33726Y-15567D01*
X33740Y-15553D01*
X33740Y-15825D01*
X32727Y-16837D01*
X32662Y-16935D01*
X32640Y-17050D01*
X32640Y-17730D01*
X32662Y-17844D01*
X32727Y-17942D01*
X32835Y-18050D01*
X30927Y-18050D01*
X30965Y-18011D01*
X31049Y-17809D01*
X31050Y-17591D01*
X31017Y-17512D01*
X31052Y-17547D01*
X31052Y-17547D01*
X31166Y-17623D01*
X31184Y-17627D01*
X31302Y-17744D01*
X31495Y-17824D01*
X31703Y-17825D01*
X31897Y-17745D01*
X32044Y-17597D01*
X32124Y-17404D01*
X32125Y-17196D01*
X32045Y-17003D01*
X31897Y-16855D01*
X31704Y-16775D01*
X31496Y-16774D01*
X31336Y-16841D01*
X31297Y-16802D01*
X31183Y-16726D01*
X31050Y-16700D01*
X28950Y-16700D01*
X28304Y-16700D01*
X27435Y-15830D01*
X27435Y-15815D01*
X27370Y-15659D01*
X27251Y-15539D01*
X27094Y-15475D01*
X26925Y-15474D01*
X26769Y-15539D01*
X26649Y-15658D01*
X26585Y-15815D01*
X26584Y-15984D01*
X26649Y-16140D01*
X26768Y-16260D01*
X26925Y-16324D01*
X26939Y-16324D01*
X27912Y-17297D01*
X27912Y-17297D01*
X28026Y-17373D01*
X28159Y-17400D01*
X28159Y-17399D01*
X28160Y-17400D01*
X28950Y-17400D01*
X29523Y-17400D01*
X29464Y-17458D01*
X29400Y-17615D01*
X29400Y-17657D01*
X29297Y-17555D01*
X29104Y-17475D01*
X28896Y-17474D01*
X28703Y-17554D01*
X28555Y-17702D01*
X28475Y-17895D01*
X28474Y-18103D01*
X28554Y-18297D01*
X28702Y-18444D01*
X28835Y-18500D01*
X28703Y-18554D01*
X28555Y-18702D01*
X28475Y-18895D01*
X28474Y-19103D01*
X28554Y-19297D01*
X28702Y-19444D01*
X28895Y-19524D01*
X29103Y-19525D01*
X29297Y-19445D01*
X29444Y-19297D01*
X29524Y-19104D01*
X29525Y-18999D01*
X29525Y-21637D01*
X29459Y-21664D01*
X29339Y-21783D01*
X29275Y-21940D01*
X29274Y-22109D01*
X29339Y-22265D01*
X29458Y-22385D01*
X29615Y-22449D01*
X29784Y-22450D01*
X29940Y-22385D01*
X29947Y-22378D01*
X29954Y-22397D01*
X30102Y-22544D01*
X30235Y-22600D01*
X30103Y-22654D01*
X29955Y-22802D01*
X29920Y-22885D01*
X29845Y-22703D01*
X29697Y-22555D01*
X29504Y-22475D01*
X29296Y-22474D01*
X29103Y-22554D01*
X28955Y-22702D01*
X28902Y-22828D01*
X28860Y-22727D01*
X28767Y-22702D01*
X28725Y-22745D01*
X28725Y-20615D01*
X28660Y-20459D01*
X28600Y-20398D01*
X28600Y-20001D01*
X28660Y-19941D01*
X28724Y-19784D01*
X28725Y-19615D01*
X28660Y-19459D01*
X28541Y-19339D01*
X28384Y-19275D01*
X28215Y-19274D01*
X28059Y-19339D01*
X27939Y-19458D01*
X27875Y-19615D01*
X27874Y-19784D01*
X27939Y-19940D01*
X28000Y-20001D01*
X28000Y-20398D01*
X27939Y-20458D01*
X27875Y-20615D01*
X27874Y-20784D01*
X27939Y-20940D01*
X28058Y-21060D01*
X28215Y-21124D01*
X28384Y-21125D01*
X28540Y-21060D01*
X28660Y-20941D01*
X28724Y-20784D01*
X28725Y-20615D01*
X28725Y-22745D01*
X28697Y-22773D01*
X28697Y-22632D01*
X28672Y-22539D01*
X28475Y-22470D01*
X28267Y-22481D01*
X28127Y-22539D01*
X28102Y-22632D01*
X28400Y-22929D01*
X28697Y-22632D01*
X28697Y-22773D01*
X28470Y-23000D01*
X28767Y-23297D01*
X28860Y-23272D01*
X28899Y-23162D01*
X28954Y-23297D01*
X29102Y-23444D01*
X29295Y-23524D01*
X29503Y-23525D01*
X29697Y-23445D01*
X29844Y-23297D01*
X29879Y-23214D01*
X29954Y-23397D01*
X30102Y-23544D01*
X30235Y-23600D01*
X30103Y-23654D01*
X29955Y-23802D01*
X29875Y-23995D01*
X29874Y-24203D01*
X29954Y-24397D01*
X30102Y-24544D01*
X30235Y-24600D01*
X30103Y-24654D01*
X29955Y-24802D01*
X29875Y-24995D01*
X29874Y-25203D01*
X29954Y-25397D01*
X30102Y-25544D01*
X30228Y-25597D01*
X30127Y-25639D01*
X30102Y-25732D01*
X30400Y-26029D01*
X30697Y-25732D01*
X30672Y-25639D01*
X30562Y-25600D01*
X30697Y-25545D01*
X30844Y-25397D01*
X30850Y-25385D01*
X30850Y-25824D01*
X30767Y-25802D01*
X30470Y-26100D01*
X30767Y-26397D01*
X30850Y-26375D01*
X30850Y-26814D01*
X30845Y-26803D01*
X30697Y-26655D01*
X30571Y-26602D01*
X30672Y-26560D01*
X30697Y-26467D01*
X30400Y-26170D01*
X30329Y-26241D01*
X30329Y-26100D01*
X30032Y-25802D01*
X29939Y-25827D01*
X29870Y-26024D01*
X29881Y-26232D01*
X29939Y-26372D01*
X30032Y-26397D01*
X30329Y-26100D01*
X30329Y-26241D01*
X30102Y-26467D01*
X30127Y-26560D01*
X30237Y-26599D01*
X30103Y-26654D01*
X29955Y-26802D01*
X29875Y-26995D01*
X29874Y-27203D01*
X29954Y-27397D01*
X30102Y-27544D01*
X30235Y-27600D01*
X30103Y-27654D01*
X29955Y-27802D01*
X29875Y-27995D01*
X29874Y-28203D01*
X29954Y-28397D01*
X30102Y-28544D01*
X30235Y-28600D01*
X30103Y-28654D01*
X29955Y-28802D01*
X29875Y-28995D01*
X29875Y-29005D01*
X29529Y-28659D01*
X29529Y-25075D01*
X29518Y-24867D01*
X29460Y-24727D01*
X29367Y-24702D01*
X29297Y-24773D01*
X29297Y-24632D01*
X29272Y-24539D01*
X29075Y-24470D01*
X28867Y-24481D01*
X28727Y-24539D01*
X28702Y-24632D01*
X29000Y-24929D01*
X29297Y-24632D01*
X29297Y-24773D01*
X29070Y-25000D01*
X29367Y-25297D01*
X29460Y-25272D01*
X29529Y-25075D01*
X29529Y-28659D01*
X29297Y-28427D01*
X29297Y-25367D01*
X29000Y-25070D01*
X28929Y-25141D01*
X28929Y-25000D01*
X28697Y-24767D01*
X28697Y-23367D01*
X28400Y-23070D01*
X28329Y-23141D01*
X28329Y-23000D01*
X28032Y-22702D01*
X27939Y-22727D01*
X27870Y-22924D01*
X27881Y-23132D01*
X27939Y-23272D01*
X28032Y-23297D01*
X28329Y-23000D01*
X28329Y-23141D01*
X28102Y-23367D01*
X28127Y-23460D01*
X28324Y-23529D01*
X28532Y-23518D01*
X28672Y-23460D01*
X28697Y-23367D01*
X28697Y-24767D01*
X28632Y-24702D01*
X28539Y-24727D01*
X28470Y-24924D01*
X28481Y-25132D01*
X28539Y-25272D01*
X28632Y-25297D01*
X28929Y-25000D01*
X28929Y-25141D01*
X28702Y-25367D01*
X28727Y-25460D01*
X28924Y-25529D01*
X29132Y-25518D01*
X29272Y-25460D01*
X29297Y-25367D01*
X29297Y-28427D01*
X28200Y-27330D01*
X28204Y-27330D01*
X28399Y-27249D01*
X28549Y-27100D01*
X28629Y-26905D01*
X28630Y-26695D01*
X28549Y-26500D01*
X28400Y-26350D01*
X28205Y-26270D01*
X27995Y-26269D01*
X27800Y-26350D01*
X27650Y-26499D01*
X27570Y-26694D01*
X27570Y-26700D01*
X27525Y-26655D01*
X27525Y-24896D01*
X27445Y-24703D01*
X27297Y-24555D01*
X27104Y-24475D01*
X26896Y-24474D01*
X26703Y-24554D01*
X26555Y-24702D01*
X26475Y-24895D01*
X26474Y-25103D01*
X26554Y-25297D01*
X26702Y-25444D01*
X26895Y-25524D01*
X27103Y-25525D01*
X27297Y-25445D01*
X27444Y-25297D01*
X27524Y-25104D01*
X27525Y-24896D01*
X27525Y-26655D01*
X25950Y-25080D01*
X25950Y-24877D01*
X26065Y-24761D01*
X26149Y-24559D01*
X26150Y-24341D01*
X26066Y-24138D01*
X25911Y-23984D01*
X25709Y-23900D01*
X25491Y-23899D01*
X25288Y-23983D01*
X25134Y-24138D01*
X25050Y-24340D01*
X25049Y-24558D01*
X25133Y-24761D01*
X25250Y-24877D01*
X25250Y-25225D01*
X25276Y-25358D01*
X25352Y-25472D01*
X28150Y-28270D01*
X27995Y-28269D01*
X27800Y-28350D01*
X27650Y-28499D01*
X27570Y-28694D01*
X27569Y-28904D01*
X27650Y-29099D01*
X27799Y-29249D01*
X27994Y-29329D01*
X28204Y-29330D01*
X28399Y-29249D01*
X28549Y-29100D01*
X28629Y-28905D01*
X28630Y-28750D01*
X29875Y-29995D01*
X29875Y-29995D01*
X29874Y-30203D01*
X29954Y-30397D01*
X30102Y-30544D01*
X30235Y-30600D01*
X30103Y-30654D01*
X29955Y-30802D01*
X29875Y-30995D01*
X29874Y-31203D01*
X29954Y-31397D01*
X30102Y-31544D01*
X30235Y-31600D01*
X30103Y-31654D01*
X29955Y-31802D01*
X29875Y-31995D01*
X29874Y-32203D01*
X29954Y-32397D01*
X30102Y-32544D01*
X30295Y-32624D01*
X30503Y-32625D01*
X30697Y-32545D01*
X30844Y-32397D01*
X30850Y-32385D01*
X30850Y-33150D01*
X32950Y-33150D01*
X32950Y-32385D01*
X32954Y-32397D01*
X33102Y-32544D01*
X33295Y-32624D01*
X33503Y-32625D01*
X33697Y-32545D01*
X33844Y-32397D01*
X33924Y-32204D01*
X33925Y-31996D01*
X33845Y-31803D01*
X33697Y-31655D01*
X33564Y-31599D01*
X33697Y-31545D01*
X33844Y-31397D01*
X33924Y-31204D01*
X33925Y-30996D01*
X33845Y-30803D01*
X33697Y-30655D01*
X33564Y-30599D01*
X33697Y-30545D01*
X33792Y-30450D01*
X34895Y-30450D01*
X35028Y-30423D01*
X35028Y-30423D01*
X35142Y-30347D01*
X35170Y-30319D01*
X35170Y-33755D01*
X29575Y-33755D01*
X29575Y-32341D01*
X29491Y-32138D01*
X29352Y-31999D01*
X29490Y-31861D01*
X29574Y-31659D01*
X29575Y-31441D01*
X29529Y-31331D01*
X29529Y-30675D01*
X29518Y-30467D01*
X29460Y-30327D01*
X29367Y-30302D01*
X29297Y-30373D01*
X29297Y-30232D01*
X29272Y-30139D01*
X29075Y-30070D01*
X28867Y-30081D01*
X28727Y-30139D01*
X28702Y-30232D01*
X29000Y-30529D01*
X29297Y-30232D01*
X29297Y-30373D01*
X29070Y-30600D01*
X29367Y-30897D01*
X29460Y-30872D01*
X29529Y-30675D01*
X29529Y-31331D01*
X29491Y-31238D01*
X29336Y-31084D01*
X29273Y-31057D01*
X29297Y-30967D01*
X29000Y-30670D01*
X28929Y-30741D01*
X28929Y-30600D01*
X28632Y-30302D01*
X28539Y-30327D01*
X28470Y-30524D01*
X28481Y-30732D01*
X28539Y-30872D01*
X28632Y-30897D01*
X28929Y-30600D01*
X28929Y-30741D01*
X28702Y-30967D01*
X28727Y-31060D01*
X28749Y-31068D01*
X28713Y-31083D01*
X28559Y-31238D01*
X28475Y-31440D01*
X28474Y-31658D01*
X28558Y-31861D01*
X28697Y-32000D01*
X28559Y-32138D01*
X28475Y-32340D01*
X28474Y-32558D01*
X28558Y-32761D01*
X28713Y-32915D01*
X28915Y-32999D01*
X29133Y-33000D01*
X29336Y-32916D01*
X29490Y-32761D01*
X29574Y-32559D01*
X29575Y-32341D01*
X29575Y-33755D01*
X27525Y-33755D01*
X27525Y-30496D01*
X27445Y-30303D01*
X27297Y-30155D01*
X27104Y-30075D01*
X26896Y-30074D01*
X26703Y-30154D01*
X26555Y-30302D01*
X26475Y-30495D01*
X26474Y-30703D01*
X26554Y-30897D01*
X26702Y-31044D01*
X26895Y-31124D01*
X27103Y-31125D01*
X27297Y-31045D01*
X27444Y-30897D01*
X27524Y-30704D01*
X27525Y-30496D01*
X27525Y-33755D01*
X25579Y-33755D01*
X25579Y-32531D01*
X25575Y-32438D01*
X25575Y-31441D01*
X25491Y-31238D01*
X25336Y-31084D01*
X25134Y-31000D01*
X24916Y-30999D01*
X24827Y-31036D01*
X24827Y-29303D01*
X24821Y-29231D01*
X24821Y-26165D01*
X24754Y-26001D01*
X24628Y-25875D01*
X24464Y-25807D01*
X24286Y-25807D01*
X24122Y-25874D01*
X23996Y-26000D01*
X23928Y-26164D01*
X23928Y-26342D01*
X23995Y-26506D01*
X24121Y-26632D01*
X24285Y-26700D01*
X24463Y-26700D01*
X24627Y-26632D01*
X24753Y-26507D01*
X24821Y-26343D01*
X24821Y-26165D01*
X24821Y-29231D01*
X24814Y-29125D01*
X24770Y-29020D01*
X24686Y-29005D01*
X24615Y-29076D01*
X24615Y-28934D01*
X24600Y-28850D01*
X24432Y-28794D01*
X24254Y-28806D01*
X24149Y-28850D01*
X24134Y-28934D01*
X24375Y-29175D01*
X24615Y-28934D01*
X24615Y-29076D01*
X24445Y-29246D01*
X24686Y-29486D01*
X24770Y-29471D01*
X24827Y-29303D01*
X24827Y-31036D01*
X24713Y-31083D01*
X24615Y-31181D01*
X24615Y-29557D01*
X24375Y-29316D01*
X24304Y-29387D01*
X24304Y-29246D01*
X24063Y-29005D01*
X23979Y-29020D01*
X23922Y-29188D01*
X23935Y-29366D01*
X23979Y-29471D01*
X24063Y-29486D01*
X24304Y-29246D01*
X24304Y-29387D01*
X24134Y-29557D01*
X24149Y-29641D01*
X24317Y-29698D01*
X24495Y-29685D01*
X24600Y-29641D01*
X24615Y-29557D01*
X24615Y-31181D01*
X24559Y-31238D01*
X24475Y-31440D01*
X24474Y-31658D01*
X24558Y-31861D01*
X24713Y-32015D01*
X24722Y-32019D01*
X24709Y-32064D01*
X25025Y-32379D01*
X25340Y-32064D01*
X25327Y-32020D01*
X25336Y-32016D01*
X25490Y-31861D01*
X25574Y-31659D01*
X25575Y-31441D01*
X25575Y-32438D01*
X25568Y-32313D01*
X25506Y-32162D01*
X25410Y-32134D01*
X25095Y-32450D01*
X25410Y-32765D01*
X25506Y-32737D01*
X25579Y-32531D01*
X25579Y-33755D01*
X25340Y-33755D01*
X25340Y-32835D01*
X25025Y-32520D01*
X24954Y-32591D01*
X24954Y-32450D01*
X24639Y-32134D01*
X24543Y-32162D01*
X24470Y-32368D01*
X24481Y-32586D01*
X24543Y-32737D01*
X24639Y-32765D01*
X24954Y-32450D01*
X24954Y-32591D01*
X24709Y-32835D01*
X24737Y-32931D01*
X24943Y-33004D01*
X25161Y-32993D01*
X25312Y-32931D01*
X25340Y-32835D01*
X25340Y-33755D01*
X21790Y-33755D01*
X21790Y-32251D01*
X21706Y-32048D01*
X21551Y-31894D01*
X21349Y-31810D01*
X21131Y-31809D01*
X20928Y-31893D01*
X20774Y-32048D01*
X20690Y-32250D01*
X20689Y-32468D01*
X20773Y-32671D01*
X20928Y-32825D01*
X21130Y-32909D01*
X21348Y-32910D01*
X21551Y-32826D01*
X21705Y-32671D01*
X21789Y-32469D01*
X21790Y-32251D01*
X21790Y-33755D01*
X20529Y-33755D01*
X20529Y-31675D01*
X20518Y-31467D01*
X20460Y-31327D01*
X20367Y-31302D01*
X20297Y-31373D01*
X20297Y-31232D01*
X20272Y-31139D01*
X20075Y-31070D01*
X19867Y-31081D01*
X19727Y-31139D01*
X19702Y-31232D01*
X20000Y-31529D01*
X20297Y-31232D01*
X20297Y-31373D01*
X20070Y-31600D01*
X20367Y-31897D01*
X20460Y-31872D01*
X20529Y-31675D01*
X20529Y-33755D01*
X20297Y-33755D01*
X20297Y-31967D01*
X20000Y-31670D01*
X19929Y-31741D01*
X19929Y-31600D01*
X19632Y-31302D01*
X19539Y-31327D01*
X19500Y-31437D01*
X19445Y-31303D01*
X19380Y-31237D01*
X19297Y-31155D01*
X19104Y-31075D01*
X18896Y-31074D01*
X18703Y-31154D01*
X18555Y-31302D01*
X18475Y-31495D01*
X18474Y-31703D01*
X18554Y-31897D01*
X18702Y-32044D01*
X18895Y-32124D01*
X19103Y-32125D01*
X19297Y-32045D01*
X19444Y-31897D01*
X19497Y-31771D01*
X19539Y-31872D01*
X19632Y-31897D01*
X19929Y-31600D01*
X19929Y-31741D01*
X19702Y-31967D01*
X19727Y-32060D01*
X19924Y-32129D01*
X20132Y-32118D01*
X20272Y-32060D01*
X20297Y-31967D01*
X20297Y-33755D01*
X18045Y-33755D01*
X18045Y-32592D01*
X17962Y-32391D01*
X17809Y-32238D01*
X17717Y-32200D01*
X17808Y-32162D01*
X17961Y-32009D01*
X18045Y-31808D01*
X18045Y-31592D01*
X17962Y-31391D01*
X17809Y-31238D01*
X17608Y-31154D01*
X17392Y-31154D01*
X17191Y-31237D01*
X17038Y-31390D01*
X16954Y-31591D01*
X16954Y-31807D01*
X17037Y-32008D01*
X17190Y-32161D01*
X17282Y-32199D01*
X17191Y-32237D01*
X17038Y-32390D01*
X16954Y-32591D01*
X16954Y-32807D01*
X17037Y-33008D01*
X17190Y-33161D01*
X17391Y-33245D01*
X17607Y-33245D01*
X17808Y-33162D01*
X17961Y-33009D01*
X18045Y-32808D01*
X18045Y-32592D01*
X18045Y-33755D01*
X14079Y-33755D01*
X14079Y-29300D01*
X14068Y-29092D01*
X14010Y-28952D01*
X13917Y-28927D01*
X13847Y-28998D01*
X13847Y-28857D01*
X13822Y-28764D01*
X13625Y-28695D01*
X13417Y-28706D01*
X13277Y-28764D01*
X13252Y-28857D01*
X13550Y-29154D01*
X13847Y-28857D01*
X13847Y-28998D01*
X13620Y-29225D01*
X13917Y-29522D01*
X14010Y-29497D01*
X14079Y-29300D01*
X14079Y-33755D01*
X13847Y-33755D01*
X13847Y-29592D01*
X13550Y-29295D01*
X13479Y-29366D01*
X13479Y-29225D01*
X13182Y-28927D01*
X13089Y-28952D01*
X13020Y-29149D01*
X13031Y-29357D01*
X13089Y-29497D01*
X13182Y-29522D01*
X13479Y-29225D01*
X13479Y-29366D01*
X13252Y-29592D01*
X13277Y-29685D01*
X13474Y-29754D01*
X13682Y-29743D01*
X13822Y-29685D01*
X13847Y-29592D01*
X13847Y-33755D01*
X12969Y-33755D01*
X12969Y-33400D01*
X12969Y-27960D01*
X12987Y-27972D01*
X13151Y-28005D01*
X13448Y-28005D01*
X13612Y-27972D01*
X13750Y-27880D01*
X13843Y-27741D01*
X13876Y-27577D01*
X13843Y-27414D01*
X13755Y-27283D01*
X13815Y-27258D01*
X13885Y-27188D01*
X13923Y-27096D01*
X13924Y-26996D01*
X13924Y-26248D01*
X13903Y-26199D01*
X13923Y-26151D01*
X13924Y-26052D01*
X13924Y-25304D01*
X13886Y-25212D01*
X13815Y-25141D01*
X13755Y-25116D01*
X13843Y-24985D01*
X13876Y-24822D01*
X13843Y-24658D01*
X13750Y-24519D01*
X13612Y-24427D01*
X13448Y-24394D01*
X13151Y-24394D01*
X12987Y-24427D01*
X12969Y-24439D01*
X12969Y-9400D01*
X12969Y-9045D01*
X35220Y-9045D01*
X42000Y-9045D01*
X42000Y-9875D01*
X41942Y-9856D01*
X41871Y-9927D01*
X41871Y-9785D01*
X41837Y-9685D01*
X41613Y-9603D01*
X41375Y-9613D01*
X41202Y-9685D01*
X41168Y-9785D01*
X41520Y-10137D01*
X41871Y-9785D01*
X41871Y-9927D01*
X41590Y-10208D01*
X41942Y-10559D01*
X42000Y-10540D01*
X42000Y-11365D01*
X42000Y-11365D01*
G37*
G54D30*
X42000Y-11365D02*
X41871Y-11365D01*
X41871Y-10630D01*
X41520Y-10278D01*
X41449Y-10349D01*
X41449Y-10208D01*
X41097Y-9856D01*
X41032Y-9878D01*
X41028Y-9868D01*
X40860Y-9699D01*
X40639Y-9608D01*
X40401Y-9607D01*
X40180Y-9699D01*
X40019Y-9859D01*
X39860Y-9699D01*
X39639Y-9608D01*
X39401Y-9607D01*
X39180Y-9699D01*
X39011Y-9867D01*
X38920Y-10088D01*
X38919Y-10326D01*
X39011Y-10547D01*
X39179Y-10716D01*
X39400Y-10807D01*
X39638Y-10808D01*
X39859Y-10716D01*
X40020Y-10556D01*
X40179Y-10716D01*
X40400Y-10807D01*
X40638Y-10808D01*
X40859Y-10716D01*
X41028Y-10548D01*
X41032Y-10537D01*
X41097Y-10559D01*
X41449Y-10208D01*
X41449Y-10349D01*
X41168Y-10630D01*
X41202Y-10730D01*
X41426Y-10812D01*
X41664Y-10802D01*
X41837Y-10730D01*
X41871Y-10630D01*
X41871Y-11365D01*
X35170Y-11365D01*
X35170Y-23069D01*
X35101Y-22903D01*
X34946Y-22749D01*
X34786Y-22682D01*
X34921Y-22626D01*
X35075Y-22471D01*
X35159Y-22269D01*
X35160Y-22051D01*
X35160Y-18051D01*
X35076Y-17848D01*
X34921Y-17694D01*
X34719Y-17610D01*
X34501Y-17609D01*
X34298Y-17693D01*
X34144Y-17848D01*
X34129Y-17882D01*
X34129Y-17375D01*
X34118Y-17167D01*
X34060Y-17027D01*
X33967Y-17002D01*
X33670Y-17300D01*
X33967Y-17597D01*
X34060Y-17572D01*
X34129Y-17375D01*
X34129Y-17882D01*
X34060Y-18050D01*
X34059Y-18268D01*
X34143Y-18471D01*
X34298Y-18625D01*
X34500Y-18709D01*
X34718Y-18710D01*
X34921Y-18626D01*
X35075Y-18471D01*
X35159Y-18269D01*
X35160Y-18051D01*
X35160Y-22051D01*
X35076Y-21848D01*
X34921Y-21694D01*
X34719Y-21610D01*
X34501Y-21609D01*
X34298Y-21693D01*
X34225Y-21766D01*
X33877Y-21417D01*
X33845Y-21396D01*
X33924Y-21204D01*
X33925Y-20996D01*
X33845Y-20803D01*
X33697Y-20655D01*
X33564Y-20599D01*
X33697Y-20545D01*
X33844Y-20397D01*
X33924Y-20204D01*
X33925Y-19996D01*
X33908Y-19955D01*
X33934Y-19955D01*
X34090Y-19890D01*
X34210Y-19771D01*
X34274Y-19614D01*
X34275Y-19445D01*
X34210Y-19289D01*
X34150Y-19228D01*
X34150Y-18640D01*
X34127Y-18525D01*
X34062Y-18427D01*
X34062Y-18427D01*
X33431Y-17797D01*
X33524Y-17829D01*
X33732Y-17818D01*
X33872Y-17760D01*
X33897Y-17667D01*
X33600Y-17370D01*
X33594Y-17376D01*
X33523Y-17305D01*
X33529Y-17300D01*
X33523Y-17294D01*
X33594Y-17223D01*
X33600Y-17229D01*
X33897Y-16932D01*
X33872Y-16839D01*
X33675Y-16770D01*
X33642Y-16771D01*
X33973Y-16440D01*
X34033Y-16586D01*
X34188Y-16740D01*
X34390Y-16824D01*
X34608Y-16825D01*
X34811Y-16741D01*
X34965Y-16586D01*
X35049Y-16384D01*
X35050Y-16166D01*
X35050Y-12166D01*
X35005Y-12057D01*
X35005Y-10635D01*
X34916Y-10421D01*
X34753Y-10258D01*
X34540Y-10170D01*
X34310Y-10169D01*
X34096Y-10258D01*
X33933Y-10421D01*
X33924Y-10442D01*
X33832Y-10413D01*
X33761Y-10483D01*
X33761Y-10342D01*
X33730Y-10243D01*
X33513Y-10165D01*
X33283Y-10175D01*
X33119Y-10243D01*
X33088Y-10342D01*
X33425Y-10679D01*
X33761Y-10342D01*
X33761Y-10483D01*
X33495Y-10750D01*
X33832Y-11086D01*
X33924Y-11057D01*
X33933Y-11078D01*
X34096Y-11241D01*
X34309Y-11329D01*
X34539Y-11330D01*
X34753Y-11241D01*
X34916Y-11078D01*
X35004Y-10865D01*
X35005Y-10635D01*
X35005Y-12057D01*
X34966Y-11963D01*
X34811Y-11809D01*
X34609Y-11725D01*
X34391Y-11724D01*
X34188Y-11808D01*
X34034Y-11963D01*
X33950Y-12165D01*
X33949Y-12383D01*
X34033Y-12586D01*
X34188Y-12740D01*
X34390Y-12824D01*
X34608Y-12825D01*
X34811Y-12741D01*
X34965Y-12586D01*
X35049Y-12384D01*
X35050Y-12166D01*
X35050Y-16166D01*
X34966Y-15963D01*
X34811Y-15809D01*
X34609Y-15725D01*
X34391Y-15724D01*
X34340Y-15746D01*
X34340Y-13870D01*
X34336Y-13854D01*
X34344Y-13834D01*
X34345Y-13665D01*
X34280Y-13509D01*
X34161Y-13389D01*
X34004Y-13325D01*
X33835Y-13324D01*
X33761Y-13355D01*
X33761Y-11157D01*
X33425Y-10820D01*
X33354Y-10891D01*
X33354Y-10750D01*
X33017Y-10413D01*
X32918Y-10444D01*
X32840Y-10661D01*
X32850Y-10891D01*
X32918Y-11055D01*
X33017Y-11086D01*
X33354Y-10750D01*
X33354Y-10891D01*
X33088Y-11157D01*
X33119Y-11256D01*
X33336Y-11334D01*
X33566Y-11324D01*
X33730Y-11256D01*
X33761Y-11157D01*
X33761Y-13355D01*
X33679Y-13389D01*
X33559Y-13508D01*
X33495Y-13665D01*
X33494Y-13834D01*
X33559Y-13990D01*
X33678Y-14110D01*
X33740Y-14135D01*
X33740Y-14606D01*
X33726Y-14593D01*
X33634Y-14555D01*
X33535Y-14554D01*
X33160Y-14554D01*
X33160Y-12040D01*
X33159Y-12039D01*
X33133Y-11906D01*
X33057Y-11792D01*
X33057Y-11792D01*
X32800Y-11535D01*
X32800Y-10720D01*
X32773Y-10586D01*
X32697Y-10472D01*
X32059Y-9834D01*
X32060Y-9671D01*
X31976Y-9468D01*
X31821Y-9314D01*
X31619Y-9230D01*
X31401Y-9229D01*
X31198Y-9313D01*
X31044Y-9468D01*
X30960Y-9670D01*
X30959Y-9888D01*
X31043Y-10091D01*
X31198Y-10245D01*
X31400Y-10329D01*
X31565Y-10330D01*
X32100Y-10864D01*
X32100Y-11680D01*
X32126Y-11813D01*
X32202Y-11927D01*
X32460Y-12184D01*
X32460Y-14573D01*
X32414Y-14555D01*
X32206Y-14554D01*
X32060Y-14615D01*
X32060Y-13671D01*
X31976Y-13468D01*
X31821Y-13314D01*
X31619Y-13230D01*
X31401Y-13229D01*
X31198Y-13313D01*
X31044Y-13468D01*
X31021Y-13522D01*
X30966Y-13388D01*
X30811Y-13234D01*
X30609Y-13150D01*
X30391Y-13149D01*
X30300Y-13187D01*
X30300Y-12051D01*
X30360Y-11991D01*
X30424Y-11834D01*
X30425Y-11665D01*
X30360Y-11509D01*
X30241Y-11389D01*
X30084Y-11325D01*
X29915Y-11324D01*
X29826Y-11361D01*
X29854Y-11281D01*
X29850Y-11187D01*
X29850Y-10549D01*
X29850Y-9850D01*
X29812Y-9758D01*
X29741Y-9688D01*
X29649Y-9650D01*
X29550Y-9649D01*
X29412Y-9650D01*
X29350Y-9712D01*
X29350Y-10150D01*
X29787Y-10150D01*
X29850Y-10087D01*
X29850Y-9850D01*
X29850Y-10549D01*
X29850Y-10312D01*
X29787Y-10250D01*
X29350Y-10250D01*
X29350Y-10257D01*
X29250Y-10257D01*
X29250Y-10250D01*
X29250Y-10150D01*
X29250Y-9712D01*
X29187Y-9650D01*
X29049Y-9649D01*
X28950Y-9650D01*
X28858Y-9688D01*
X28787Y-9758D01*
X28749Y-9850D01*
X28750Y-10087D01*
X28812Y-10150D01*
X29250Y-10150D01*
X29250Y-10250D01*
X28812Y-10250D01*
X28750Y-10312D01*
X28749Y-10549D01*
X28787Y-10641D01*
X28858Y-10711D01*
X28950Y-10749D01*
X29003Y-10750D01*
X28984Y-10814D01*
X29300Y-11129D01*
X29615Y-10814D01*
X29596Y-10750D01*
X29649Y-10749D01*
X29741Y-10711D01*
X29812Y-10641D01*
X29850Y-10549D01*
X29850Y-11187D01*
X29843Y-11063D01*
X29781Y-10912D01*
X29685Y-10884D01*
X29370Y-11200D01*
X29376Y-11205D01*
X29305Y-11276D01*
X29300Y-11270D01*
X29294Y-11276D01*
X29223Y-11205D01*
X29229Y-11200D01*
X28914Y-10884D01*
X28818Y-10912D01*
X28745Y-11118D01*
X28756Y-11336D01*
X28769Y-11368D01*
X28741Y-11339D01*
X28584Y-11275D01*
X28415Y-11274D01*
X28259Y-11339D01*
X28139Y-11458D01*
X28075Y-11615D01*
X28074Y-11784D01*
X28139Y-11940D01*
X28258Y-12060D01*
X28415Y-12124D01*
X28584Y-12125D01*
X28740Y-12060D01*
X28777Y-12023D01*
X28750Y-12090D01*
X28749Y-12305D01*
X28302Y-12752D01*
X28226Y-12866D01*
X28200Y-13000D01*
X28200Y-13255D01*
X27950Y-13504D01*
X27950Y-13300D01*
X27950Y-9800D01*
X27912Y-9708D01*
X27841Y-9638D01*
X27749Y-9600D01*
X27650Y-9599D01*
X24150Y-9599D01*
X24058Y-9637D01*
X23988Y-9708D01*
X23950Y-9800D01*
X23949Y-9899D01*
X23949Y-13399D01*
X23987Y-13491D01*
X24058Y-13561D01*
X24150Y-13599D01*
X24249Y-13600D01*
X27749Y-13600D01*
X27841Y-13562D01*
X27911Y-13491D01*
X27949Y-13399D01*
X27950Y-13300D01*
X27950Y-13504D01*
X27355Y-14100D01*
X25375Y-14100D01*
X25241Y-14126D01*
X25127Y-14202D01*
X20050Y-19279D01*
X20050Y-11481D01*
X19958Y-11260D01*
X19798Y-11099D01*
X19958Y-10940D01*
X20049Y-10719D01*
X20050Y-10481D01*
X19958Y-10260D01*
X19790Y-10091D01*
X19569Y-10000D01*
X19331Y-9999D01*
X19110Y-10091D01*
X18941Y-10259D01*
X18850Y-10480D01*
X18849Y-10718D01*
X18941Y-10939D01*
X19101Y-11100D01*
X18941Y-11259D01*
X18850Y-11480D01*
X18849Y-11718D01*
X18941Y-11939D01*
X19015Y-12014D01*
X18958Y-12037D01*
X18888Y-12108D01*
X18850Y-12200D01*
X18849Y-12299D01*
X18850Y-12487D01*
X18912Y-12550D01*
X19400Y-12550D01*
X19400Y-12542D01*
X19500Y-12542D01*
X19500Y-12550D01*
X19987Y-12550D01*
X20050Y-12487D01*
X20050Y-12299D01*
X20049Y-12200D01*
X20011Y-12108D01*
X19941Y-12037D01*
X19884Y-12014D01*
X19958Y-11940D01*
X20049Y-11719D01*
X20050Y-11481D01*
X20050Y-19279D01*
X20050Y-19279D01*
X20050Y-12900D01*
X20050Y-12712D01*
X19987Y-12650D01*
X19500Y-12650D01*
X19500Y-13137D01*
X19562Y-13200D01*
X19849Y-13200D01*
X19941Y-13162D01*
X20011Y-13091D01*
X20049Y-12999D01*
X20050Y-12900D01*
X20050Y-19279D01*
X19400Y-19930D01*
X19400Y-13137D01*
X19400Y-12650D01*
X18912Y-12650D01*
X18850Y-12712D01*
X18849Y-12900D01*
X18850Y-12999D01*
X18888Y-13091D01*
X18958Y-13162D01*
X19050Y-13200D01*
X19337Y-13200D01*
X19400Y-13137D01*
X19400Y-19930D01*
X18050Y-21279D01*
X18050Y-11780D01*
X18045Y-11688D01*
X18045Y-10592D01*
X17962Y-10391D01*
X17809Y-10238D01*
X17608Y-10154D01*
X17392Y-10154D01*
X17191Y-10237D01*
X17038Y-10390D01*
X16954Y-10591D01*
X16954Y-10807D01*
X17037Y-11008D01*
X17190Y-11161D01*
X17275Y-11197D01*
X17214Y-11222D01*
X17188Y-11317D01*
X17500Y-11629D01*
X17811Y-11317D01*
X17785Y-11222D01*
X17719Y-11199D01*
X17808Y-11162D01*
X17961Y-11009D01*
X18045Y-10808D01*
X18045Y-10592D01*
X18045Y-11688D01*
X18039Y-11563D01*
X17977Y-11414D01*
X17882Y-11388D01*
X17570Y-11700D01*
X17882Y-12011D01*
X17977Y-11985D01*
X18050Y-11780D01*
X18050Y-21279D01*
X17811Y-21518D01*
X17811Y-12082D01*
X17500Y-11770D01*
X17429Y-11841D01*
X17429Y-11700D01*
X17117Y-11388D01*
X17022Y-11414D01*
X16949Y-11619D01*
X16960Y-11836D01*
X17022Y-11985D01*
X17117Y-12011D01*
X17429Y-11700D01*
X17429Y-11841D01*
X17188Y-12082D01*
X17214Y-12177D01*
X17419Y-12250D01*
X17636Y-12239D01*
X17785Y-12177D01*
X17811Y-12082D01*
X17811Y-21518D01*
X16750Y-22579D01*
X16750Y-12941D01*
X16666Y-12738D01*
X16511Y-12584D01*
X16309Y-12500D01*
X16091Y-12499D01*
X15888Y-12583D01*
X15734Y-12738D01*
X15700Y-12819D01*
X15666Y-12738D01*
X15511Y-12584D01*
X15309Y-12500D01*
X15091Y-12499D01*
X14888Y-12583D01*
X14750Y-12722D01*
X14750Y-12700D01*
X14712Y-12608D01*
X14641Y-12538D01*
X14549Y-12500D01*
X14450Y-12499D01*
X13850Y-12499D01*
X13758Y-12537D01*
X13688Y-12608D01*
X13650Y-12700D01*
X13649Y-12799D01*
X13649Y-13399D01*
X13687Y-13491D01*
X13758Y-13561D01*
X13850Y-13599D01*
X13949Y-13600D01*
X14549Y-13600D01*
X14641Y-13562D01*
X14711Y-13491D01*
X14749Y-13399D01*
X14749Y-13377D01*
X14888Y-13515D01*
X15090Y-13599D01*
X15308Y-13600D01*
X15511Y-13516D01*
X15665Y-13361D01*
X15699Y-13280D01*
X15733Y-13361D01*
X15888Y-13515D01*
X16090Y-13599D01*
X16308Y-13600D01*
X16511Y-13516D01*
X16665Y-13361D01*
X16749Y-13159D01*
X16750Y-12941D01*
X16750Y-22579D01*
X15502Y-23827D01*
X15426Y-23941D01*
X15400Y-24075D01*
X15400Y-24650D01*
X15426Y-24783D01*
X15502Y-24897D01*
X15865Y-25259D01*
X15865Y-25873D01*
X15400Y-25873D01*
X15400Y-25815D01*
X15400Y-25815D01*
X15400Y-25717D01*
X15400Y-25559D01*
X15362Y-25468D01*
X15292Y-25397D01*
X15200Y-25359D01*
X15223Y-25305D01*
X15223Y-25205D01*
X15223Y-24575D01*
X15185Y-24483D01*
X15115Y-24413D01*
X15023Y-24375D01*
X14923Y-24375D01*
X14372Y-24375D01*
X14280Y-24413D01*
X14210Y-24483D01*
X14172Y-24575D01*
X14172Y-24674D01*
X14172Y-25304D01*
X14209Y-25396D01*
X14280Y-25466D01*
X14372Y-25505D01*
X14391Y-25505D01*
X14368Y-25559D01*
X14368Y-25658D01*
X14368Y-25816D01*
X14368Y-25816D01*
X14368Y-25914D01*
X14368Y-26072D01*
X14368Y-26072D01*
X14368Y-26170D01*
X14368Y-26327D01*
X14368Y-26328D01*
X14368Y-26328D01*
X14368Y-26354D01*
X14386Y-26372D01*
X14406Y-26420D01*
X14442Y-26455D01*
X14407Y-26491D01*
X14386Y-26539D01*
X14368Y-26557D01*
X14368Y-26584D01*
X14368Y-26584D01*
X14368Y-26682D01*
X14368Y-26840D01*
X14391Y-26894D01*
X14372Y-26894D01*
X14280Y-26932D01*
X14210Y-27003D01*
X14172Y-27094D01*
X14172Y-27194D01*
X14172Y-27824D01*
X14209Y-27916D01*
X14280Y-27986D01*
X14372Y-28024D01*
X14471Y-28024D01*
X15022Y-28024D01*
X15114Y-27986D01*
X15185Y-27916D01*
X15223Y-27824D01*
X15223Y-27725D01*
X15223Y-27095D01*
X15200Y-27040D01*
X15291Y-27002D01*
X15362Y-26932D01*
X15400Y-26840D01*
X15400Y-26741D01*
X15400Y-26584D01*
X15400Y-26583D01*
X15400Y-26583D01*
X15400Y-26557D01*
X15382Y-26539D01*
X15377Y-26526D01*
X16125Y-26526D01*
X16125Y-28155D01*
X15579Y-28700D01*
X15446Y-28699D01*
X15253Y-28779D01*
X15105Y-28927D01*
X15025Y-29120D01*
X15024Y-29255D01*
X14552Y-29727D01*
X14476Y-29841D01*
X14450Y-29971D01*
X14334Y-30088D01*
X14250Y-30290D01*
X14249Y-30508D01*
X14333Y-30711D01*
X14488Y-30865D01*
X14690Y-30949D01*
X14908Y-30950D01*
X15111Y-30866D01*
X15265Y-30711D01*
X15349Y-30509D01*
X15350Y-30291D01*
X15266Y-30088D01*
X15223Y-30046D01*
X15520Y-29749D01*
X15653Y-29750D01*
X15847Y-29670D01*
X15994Y-29522D01*
X16074Y-29329D01*
X16075Y-29194D01*
X16722Y-28547D01*
X16722Y-28547D01*
X16722Y-28547D01*
X16798Y-28433D01*
X16825Y-28300D01*
X16824Y-28300D01*
X16825Y-28300D01*
X16825Y-26926D01*
X16858Y-26960D01*
X17015Y-27024D01*
X17100Y-27025D01*
X17222Y-27147D01*
X17222Y-27147D01*
X17320Y-27212D01*
X17435Y-27235D01*
X17476Y-27235D01*
X17488Y-27246D01*
X17580Y-27284D01*
X17679Y-27285D01*
X17979Y-27285D01*
X18071Y-27247D01*
X18141Y-27176D01*
X18179Y-27084D01*
X18180Y-26985D01*
X18180Y-26785D01*
X18142Y-26693D01*
X18071Y-26623D01*
X17979Y-26585D01*
X17880Y-26584D01*
X17580Y-26584D01*
X17530Y-26605D01*
X17524Y-26600D01*
X17525Y-26550D01*
X17765Y-26550D01*
X17840Y-26535D01*
X17979Y-26535D01*
X18071Y-26497D01*
X18141Y-26426D01*
X18179Y-26334D01*
X18180Y-26235D01*
X18180Y-26205D01*
X18381Y-26406D01*
X18379Y-26410D01*
X18380Y-26447D01*
X18442Y-26510D01*
X18519Y-26510D01*
X18580Y-26534D01*
X18679Y-26535D01*
X18837Y-26535D01*
X18837Y-26584D01*
X18580Y-26584D01*
X18519Y-26610D01*
X18442Y-26610D01*
X18380Y-26672D01*
X18379Y-26709D01*
X18395Y-26747D01*
X18380Y-26785D01*
X18379Y-26884D01*
X18379Y-27084D01*
X18417Y-27176D01*
X18488Y-27246D01*
X18500Y-27251D01*
X18500Y-27596D01*
X18471Y-27608D01*
X18308Y-27771D01*
X18220Y-27984D01*
X18219Y-28214D01*
X18308Y-28428D01*
X18471Y-28591D01*
X18491Y-28599D01*
X18471Y-28608D01*
X18308Y-28771D01*
X18220Y-28984D01*
X18219Y-29214D01*
X18308Y-29428D01*
X18471Y-29591D01*
X18500Y-29603D01*
X18500Y-29928D01*
X18488Y-29933D01*
X18334Y-30088D01*
X18250Y-30290D01*
X18249Y-30508D01*
X18333Y-30711D01*
X18488Y-30865D01*
X18690Y-30949D01*
X18908Y-30950D01*
X19111Y-30866D01*
X19265Y-30711D01*
X19349Y-30509D01*
X19350Y-30291D01*
X19266Y-30088D01*
X19111Y-29934D01*
X19100Y-29929D01*
X19100Y-29603D01*
X19128Y-29591D01*
X19291Y-29428D01*
X19379Y-29215D01*
X19380Y-28985D01*
X19291Y-28771D01*
X19128Y-28608D01*
X19108Y-28600D01*
X19128Y-28591D01*
X19291Y-28428D01*
X19379Y-28215D01*
X19380Y-27985D01*
X19291Y-27771D01*
X19128Y-27608D01*
X19100Y-27596D01*
X19100Y-27218D01*
X19141Y-27176D01*
X19179Y-27084D01*
X19180Y-26985D01*
X19180Y-26785D01*
X19164Y-26747D01*
X19180Y-26709D01*
X19180Y-26672D01*
X19117Y-26610D01*
X19175Y-26610D01*
X19800Y-27234D01*
X19800Y-29250D01*
X19826Y-29383D01*
X19902Y-29497D01*
X21327Y-30922D01*
X21327Y-30922D01*
X21441Y-30998D01*
X21574Y-31024D01*
X21575Y-31025D01*
X23057Y-31025D01*
X23152Y-31119D01*
X23285Y-31175D01*
X23153Y-31229D01*
X23005Y-31377D01*
X22975Y-31449D01*
X22975Y-31350D01*
X22937Y-31258D01*
X22866Y-31188D01*
X22774Y-31150D01*
X22675Y-31149D01*
X22125Y-31149D01*
X22033Y-31187D01*
X21963Y-31258D01*
X21925Y-31350D01*
X21924Y-31449D01*
X21924Y-31999D01*
X21962Y-32091D01*
X22033Y-32161D01*
X22125Y-32199D01*
X22224Y-32200D01*
X22774Y-32200D01*
X22866Y-32162D01*
X22936Y-32091D01*
X22974Y-31999D01*
X22975Y-31900D01*
X22975Y-31900D01*
X23004Y-31972D01*
X23152Y-32119D01*
X23345Y-32199D01*
X23553Y-32200D01*
X23747Y-32120D01*
X23894Y-31972D01*
X23974Y-31779D01*
X23975Y-31571D01*
X23895Y-31378D01*
X23747Y-31230D01*
X23614Y-31174D01*
X23747Y-31120D01*
X23894Y-30972D01*
X23974Y-30779D01*
X23975Y-30571D01*
X23895Y-30378D01*
X23747Y-30230D01*
X23554Y-30150D01*
X23346Y-30149D01*
X23153Y-30229D01*
X23057Y-30325D01*
X22150Y-30325D01*
X22150Y-24341D01*
X22066Y-24138D01*
X21911Y-23984D01*
X21709Y-23900D01*
X21491Y-23899D01*
X21288Y-23983D01*
X21134Y-24138D01*
X21117Y-24178D01*
X21115Y-24180D01*
X21115Y-24039D01*
X21087Y-23943D01*
X20881Y-23870D01*
X20663Y-23881D01*
X20512Y-23943D01*
X20484Y-24039D01*
X20800Y-24354D01*
X21115Y-24039D01*
X21115Y-24180D01*
X20870Y-24425D01*
X20876Y-24430D01*
X20805Y-24501D01*
X20800Y-24495D01*
X20729Y-24566D01*
X20729Y-24425D01*
X20414Y-24109D01*
X20318Y-24137D01*
X20245Y-24343D01*
X20256Y-24561D01*
X20318Y-24712D01*
X20414Y-24740D01*
X20729Y-24425D01*
X20729Y-24566D01*
X20484Y-24810D01*
X20512Y-24906D01*
X20718Y-24979D01*
X20936Y-24968D01*
X21087Y-24906D01*
X21115Y-24810D01*
X21115Y-24810D01*
X21160Y-24856D01*
X21194Y-24822D01*
X21288Y-24915D01*
X21490Y-24999D01*
X21708Y-25000D01*
X21911Y-24916D01*
X22065Y-24761D01*
X22149Y-24559D01*
X22150Y-24341D01*
X22150Y-30325D01*
X21790Y-30325D01*
X21790Y-28251D01*
X21706Y-28048D01*
X21551Y-27894D01*
X21349Y-27810D01*
X21334Y-27810D01*
X21334Y-27188D01*
X21330Y-27089D01*
X21330Y-25985D01*
X21241Y-25771D01*
X21115Y-25644D01*
X21078Y-25608D01*
X20865Y-25520D01*
X20635Y-25519D01*
X20421Y-25608D01*
X20258Y-25771D01*
X20170Y-25984D01*
X20169Y-26214D01*
X20258Y-26428D01*
X20421Y-26591D01*
X20442Y-26600D01*
X20413Y-26692D01*
X20750Y-27029D01*
X21086Y-26692D01*
X21057Y-26600D01*
X21078Y-26591D01*
X21241Y-26428D01*
X21329Y-26215D01*
X21330Y-25985D01*
X21330Y-27089D01*
X21324Y-26958D01*
X21256Y-26794D01*
X21157Y-26763D01*
X20820Y-27100D01*
X21157Y-27436D01*
X21256Y-27405D01*
X21334Y-27188D01*
X21334Y-27810D01*
X21131Y-27809D01*
X20928Y-27893D01*
X20774Y-28048D01*
X20690Y-28250D01*
X20689Y-28468D01*
X20773Y-28671D01*
X20928Y-28825D01*
X21130Y-28909D01*
X21348Y-28910D01*
X21551Y-28826D01*
X21705Y-28671D01*
X21789Y-28469D01*
X21790Y-28251D01*
X21790Y-30325D01*
X21719Y-30325D01*
X20500Y-29105D01*
X20500Y-27626D01*
X20661Y-27684D01*
X20891Y-27674D01*
X21055Y-27606D01*
X21086Y-27507D01*
X20750Y-27170D01*
X20744Y-27176D01*
X20673Y-27105D01*
X20679Y-27100D01*
X20342Y-26763D01*
X20323Y-26768D01*
X19492Y-25937D01*
X19378Y-25861D01*
X19245Y-25835D01*
X18929Y-25835D01*
X18880Y-25834D01*
X18799Y-25834D01*
X18165Y-25200D01*
X18165Y-25185D01*
X18100Y-25029D01*
X17981Y-24909D01*
X17824Y-24845D01*
X17655Y-24844D01*
X17499Y-24909D01*
X17379Y-25028D01*
X17315Y-25185D01*
X17314Y-25354D01*
X17379Y-25510D01*
X17498Y-25630D01*
X17655Y-25694D01*
X17669Y-25694D01*
X17809Y-25834D01*
X17580Y-25834D01*
X17580Y-25835D01*
X17224Y-25835D01*
X17225Y-25715D01*
X17160Y-25559D01*
X17100Y-25498D01*
X17100Y-24896D01*
X17111Y-24891D01*
X17265Y-24736D01*
X17349Y-24534D01*
X17350Y-24316D01*
X17266Y-24113D01*
X17111Y-23959D01*
X16909Y-23875D01*
X16691Y-23874D01*
X16488Y-23958D01*
X16334Y-24113D01*
X16250Y-24315D01*
X16249Y-24533D01*
X16333Y-24736D01*
X16488Y-24890D01*
X16500Y-24895D01*
X16500Y-24923D01*
X16462Y-24867D01*
X16462Y-24867D01*
X16100Y-24505D01*
X16100Y-24219D01*
X25519Y-14800D01*
X27500Y-14800D01*
X27633Y-14773D01*
X27633Y-14773D01*
X27747Y-14697D01*
X28797Y-13647D01*
X28866Y-13544D01*
X28988Y-13665D01*
X29069Y-13699D01*
X28988Y-13733D01*
X28834Y-13888D01*
X28750Y-14090D01*
X28749Y-14308D01*
X28833Y-14511D01*
X28988Y-14665D01*
X29069Y-14699D01*
X28988Y-14733D01*
X28834Y-14888D01*
X28750Y-15090D01*
X28749Y-15308D01*
X28833Y-15511D01*
X28988Y-15665D01*
X29190Y-15749D01*
X29408Y-15750D01*
X29611Y-15666D01*
X29765Y-15511D01*
X29849Y-15309D01*
X29850Y-15091D01*
X29766Y-14888D01*
X29611Y-14734D01*
X29530Y-14700D01*
X29611Y-14666D01*
X29765Y-14511D01*
X29849Y-14309D01*
X29850Y-14091D01*
X29790Y-13947D01*
X29835Y-13977D01*
X29835Y-13977D01*
X29950Y-14000D01*
X30028Y-14000D01*
X30033Y-14011D01*
X30188Y-14165D01*
X30390Y-14249D01*
X30608Y-14250D01*
X30811Y-14166D01*
X30965Y-14011D01*
X30988Y-13957D01*
X31043Y-14091D01*
X31198Y-14245D01*
X31400Y-14329D01*
X31618Y-14330D01*
X31821Y-14246D01*
X31975Y-14091D01*
X32059Y-13889D01*
X32060Y-13671D01*
X32060Y-14615D01*
X32013Y-14634D01*
X31865Y-14782D01*
X31785Y-14975D01*
X31784Y-15183D01*
X31864Y-15377D01*
X32012Y-15524D01*
X32045Y-15538D01*
X31986Y-15626D01*
X31977Y-15669D01*
X31865Y-15782D01*
X31785Y-15975D01*
X31784Y-16183D01*
X31864Y-16377D01*
X32012Y-16524D01*
X32205Y-16604D01*
X32413Y-16605D01*
X32607Y-16525D01*
X32754Y-16377D01*
X32834Y-16184D01*
X32835Y-15976D01*
X32763Y-15801D01*
X32967Y-15597D01*
X32985Y-15604D01*
X33084Y-15605D01*
X33634Y-15605D01*
X33726Y-15567D01*
X33740Y-15553D01*
X33740Y-15825D01*
X32727Y-16837D01*
X32662Y-16935D01*
X32640Y-17050D01*
X32640Y-17730D01*
X32662Y-17844D01*
X32727Y-17942D01*
X32835Y-18050D01*
X30927Y-18050D01*
X30965Y-18011D01*
X31049Y-17809D01*
X31050Y-17591D01*
X31017Y-17512D01*
X31052Y-17547D01*
X31052Y-17547D01*
X31166Y-17623D01*
X31184Y-17627D01*
X31302Y-17744D01*
X31495Y-17824D01*
X31703Y-17825D01*
X31897Y-17745D01*
X32044Y-17597D01*
X32124Y-17404D01*
X32125Y-17196D01*
X32045Y-17003D01*
X31897Y-16855D01*
X31704Y-16775D01*
X31496Y-16774D01*
X31336Y-16841D01*
X31297Y-16802D01*
X31183Y-16726D01*
X31050Y-16700D01*
X28950Y-16700D01*
X28304Y-16700D01*
X27435Y-15830D01*
X27435Y-15815D01*
X27370Y-15659D01*
X27251Y-15539D01*
X27094Y-15475D01*
X26925Y-15474D01*
X26769Y-15539D01*
X26649Y-15658D01*
X26585Y-15815D01*
X26584Y-15984D01*
X26649Y-16140D01*
X26768Y-16260D01*
X26925Y-16324D01*
X26939Y-16324D01*
X27912Y-17297D01*
X27912Y-17297D01*
X28026Y-17373D01*
X28159Y-17400D01*
X28159Y-17399D01*
X28160Y-17400D01*
X28950Y-17400D01*
X29523Y-17400D01*
X29464Y-17458D01*
X29400Y-17615D01*
X29400Y-17657D01*
X29297Y-17555D01*
X29104Y-17475D01*
X28896Y-17474D01*
X28703Y-17554D01*
X28555Y-17702D01*
X28475Y-17895D01*
X28474Y-18103D01*
X28554Y-18297D01*
X28702Y-18444D01*
X28835Y-18500D01*
X28703Y-18554D01*
X28555Y-18702D01*
X28475Y-18895D01*
X28474Y-19103D01*
X28554Y-19297D01*
X28702Y-19444D01*
X28895Y-19524D01*
X29103Y-19525D01*
X29297Y-19445D01*
X29444Y-19297D01*
X29524Y-19104D01*
X29525Y-18999D01*
X29525Y-21637D01*
X29459Y-21664D01*
X29339Y-21783D01*
X29275Y-21940D01*
X29274Y-22109D01*
X29339Y-22265D01*
X29458Y-22385D01*
X29615Y-22449D01*
X29784Y-22450D01*
X29940Y-22385D01*
X29947Y-22378D01*
X29954Y-22397D01*
X30102Y-22544D01*
X30235Y-22600D01*
X30103Y-22654D01*
X29955Y-22802D01*
X29920Y-22885D01*
X29845Y-22703D01*
X29697Y-22555D01*
X29504Y-22475D01*
X29296Y-22474D01*
X29103Y-22554D01*
X28955Y-22702D01*
X28902Y-22828D01*
X28860Y-22727D01*
X28767Y-22702D01*
X28725Y-22745D01*
X28725Y-20615D01*
X28660Y-20459D01*
X28600Y-20398D01*
X28600Y-20001D01*
X28660Y-19941D01*
X28724Y-19784D01*
X28725Y-19615D01*
X28660Y-19459D01*
X28541Y-19339D01*
X28384Y-19275D01*
X28215Y-19274D01*
X28059Y-19339D01*
X27939Y-19458D01*
X27875Y-19615D01*
X27874Y-19784D01*
X27939Y-19940D01*
X28000Y-20001D01*
X28000Y-20398D01*
X27939Y-20458D01*
X27875Y-20615D01*
X27874Y-20784D01*
X27939Y-20940D01*
X28058Y-21060D01*
X28215Y-21124D01*
X28384Y-21125D01*
X28540Y-21060D01*
X28660Y-20941D01*
X28724Y-20784D01*
X28725Y-20615D01*
X28725Y-22745D01*
X28697Y-22773D01*
X28697Y-22632D01*
X28672Y-22539D01*
X28475Y-22470D01*
X28267Y-22481D01*
X28127Y-22539D01*
X28102Y-22632D01*
X28400Y-22929D01*
X28697Y-22632D01*
X28697Y-22773D01*
X28470Y-23000D01*
X28767Y-23297D01*
X28860Y-23272D01*
X28899Y-23162D01*
X28954Y-23297D01*
X29102Y-23444D01*
X29295Y-23524D01*
X29503Y-23525D01*
X29697Y-23445D01*
X29844Y-23297D01*
X29879Y-23214D01*
X29954Y-23397D01*
X30102Y-23544D01*
X30235Y-23600D01*
X30103Y-23654D01*
X29955Y-23802D01*
X29875Y-23995D01*
X29874Y-24203D01*
X29954Y-24397D01*
X30102Y-24544D01*
X30235Y-24600D01*
X30103Y-24654D01*
X29955Y-24802D01*
X29875Y-24995D01*
X29874Y-25203D01*
X29954Y-25397D01*
X30102Y-25544D01*
X30228Y-25597D01*
X30127Y-25639D01*
X30102Y-25732D01*
X30400Y-26029D01*
X30697Y-25732D01*
X30672Y-25639D01*
X30562Y-25600D01*
X30697Y-25545D01*
X30844Y-25397D01*
X30850Y-25385D01*
X30850Y-25824D01*
X30767Y-25802D01*
X30470Y-26100D01*
X30767Y-26397D01*
X30850Y-26375D01*
X30850Y-26814D01*
X30845Y-26803D01*
X30697Y-26655D01*
X30571Y-26602D01*
X30672Y-26560D01*
X30697Y-26467D01*
X30400Y-26170D01*
X30329Y-26241D01*
X30329Y-26100D01*
X30032Y-25802D01*
X29939Y-25827D01*
X29870Y-26024D01*
X29881Y-26232D01*
X29939Y-26372D01*
X30032Y-26397D01*
X30329Y-26100D01*
X30329Y-26241D01*
X30102Y-26467D01*
X30127Y-26560D01*
X30237Y-26599D01*
X30103Y-26654D01*
X29955Y-26802D01*
X29875Y-26995D01*
X29874Y-27203D01*
X29954Y-27397D01*
X30102Y-27544D01*
X30235Y-27600D01*
X30103Y-27654D01*
X29955Y-27802D01*
X29875Y-27995D01*
X29874Y-28203D01*
X29954Y-28397D01*
X30102Y-28544D01*
X30235Y-28600D01*
X30103Y-28654D01*
X29955Y-28802D01*
X29875Y-28995D01*
X29875Y-29005D01*
X29529Y-28659D01*
X29529Y-25075D01*
X29518Y-24867D01*
X29460Y-24727D01*
X29367Y-24702D01*
X29297Y-24773D01*
X29297Y-24632D01*
X29272Y-24539D01*
X29075Y-24470D01*
X28867Y-24481D01*
X28727Y-24539D01*
X28702Y-24632D01*
X29000Y-24929D01*
X29297Y-24632D01*
X29297Y-24773D01*
X29070Y-25000D01*
X29367Y-25297D01*
X29460Y-25272D01*
X29529Y-25075D01*
X29529Y-28659D01*
X29297Y-28427D01*
X29297Y-25367D01*
X29000Y-25070D01*
X28929Y-25141D01*
X28929Y-25000D01*
X28697Y-24767D01*
X28697Y-23367D01*
X28400Y-23070D01*
X28329Y-23141D01*
X28329Y-23000D01*
X28032Y-22702D01*
X27939Y-22727D01*
X27870Y-22924D01*
X27881Y-23132D01*
X27939Y-23272D01*
X28032Y-23297D01*
X28329Y-23000D01*
X28329Y-23141D01*
X28102Y-23367D01*
X28127Y-23460D01*
X28324Y-23529D01*
X28532Y-23518D01*
X28672Y-23460D01*
X28697Y-23367D01*
X28697Y-24767D01*
X28632Y-24702D01*
X28539Y-24727D01*
X28470Y-24924D01*
X28481Y-25132D01*
X28539Y-25272D01*
X28632Y-25297D01*
X28929Y-25000D01*
X28929Y-25141D01*
X28702Y-25367D01*
X28727Y-25460D01*
X28924Y-25529D01*
X29132Y-25518D01*
X29272Y-25460D01*
X29297Y-25367D01*
X29297Y-28427D01*
X28200Y-27330D01*
X28204Y-27330D01*
X28399Y-27249D01*
X28549Y-27100D01*
X28629Y-26905D01*
X28630Y-26695D01*
X28549Y-26500D01*
X28400Y-26350D01*
X28205Y-26270D01*
X27995Y-26269D01*
X27800Y-26350D01*
X27650Y-26499D01*
X27570Y-26694D01*
X27570Y-26700D01*
X27525Y-26655D01*
X27525Y-24896D01*
X27445Y-24703D01*
X27297Y-24555D01*
X27104Y-24475D01*
X26896Y-24474D01*
X26703Y-24554D01*
X26555Y-24702D01*
X26475Y-24895D01*
X26474Y-25103D01*
X26554Y-25297D01*
X26702Y-25444D01*
X26895Y-25524D01*
X27103Y-25525D01*
X27297Y-25445D01*
X27444Y-25297D01*
X27524Y-25104D01*
X27525Y-24896D01*
X27525Y-26655D01*
X25950Y-25080D01*
X25950Y-24877D01*
X26065Y-24761D01*
X26149Y-24559D01*
X26150Y-24341D01*
X26066Y-24138D01*
X25911Y-23984D01*
X25709Y-23900D01*
X25491Y-23899D01*
X25288Y-23983D01*
X25134Y-24138D01*
X25050Y-24340D01*
X25049Y-24558D01*
X25133Y-24761D01*
X25250Y-24877D01*
X25250Y-25225D01*
X25276Y-25358D01*
X25352Y-25472D01*
X28150Y-28270D01*
X27995Y-28269D01*
X27800Y-28350D01*
X27650Y-28499D01*
X27570Y-28694D01*
X27569Y-28904D01*
X27650Y-29099D01*
X27799Y-29249D01*
X27994Y-29329D01*
X28204Y-29330D01*
X28399Y-29249D01*
X28549Y-29100D01*
X28629Y-28905D01*
X28630Y-28750D01*
X29875Y-29995D01*
X29875Y-29995D01*
X29874Y-30203D01*
X29954Y-30397D01*
X30102Y-30544D01*
X30235Y-30600D01*
X30103Y-30654D01*
X29955Y-30802D01*
X29875Y-30995D01*
X29874Y-31203D01*
X29954Y-31397D01*
X30102Y-31544D01*
X30235Y-31600D01*
X30103Y-31654D01*
X29955Y-31802D01*
X29875Y-31995D01*
X29874Y-32203D01*
X29954Y-32397D01*
X30102Y-32544D01*
X30295Y-32624D01*
X30503Y-32625D01*
X30697Y-32545D01*
X30844Y-32397D01*
X30850Y-32385D01*
X30850Y-33150D01*
X32950Y-33150D01*
X32950Y-32385D01*
X32954Y-32397D01*
X33102Y-32544D01*
X33295Y-32624D01*
X33503Y-32625D01*
X33697Y-32545D01*
X33844Y-32397D01*
X33924Y-32204D01*
X33925Y-31996D01*
X33845Y-31803D01*
X33697Y-31655D01*
X33564Y-31599D01*
X33697Y-31545D01*
X33844Y-31397D01*
X33924Y-31204D01*
X33925Y-30996D01*
X33845Y-30803D01*
X33697Y-30655D01*
X33564Y-30599D01*
X33697Y-30545D01*
X33792Y-30450D01*
X34895Y-30450D01*
X35028Y-30423D01*
X35028Y-30423D01*
X35142Y-30347D01*
X35170Y-30319D01*
X35170Y-33755D01*
X29575Y-33755D01*
X29575Y-32341D01*
X29491Y-32138D01*
X29352Y-31999D01*
X29490Y-31861D01*
X29574Y-31659D01*
X29575Y-31441D01*
X29529Y-31331D01*
X29529Y-30675D01*
X29518Y-30467D01*
X29460Y-30327D01*
X29367Y-30302D01*
X29297Y-30373D01*
X29297Y-30232D01*
X29272Y-30139D01*
X29075Y-30070D01*
X28867Y-30081D01*
X28727Y-30139D01*
X28702Y-30232D01*
X29000Y-30529D01*
X29297Y-30232D01*
X29297Y-30373D01*
X29070Y-30600D01*
X29367Y-30897D01*
X29460Y-30872D01*
X29529Y-30675D01*
X29529Y-31331D01*
X29491Y-31238D01*
X29336Y-31084D01*
X29273Y-31057D01*
X29297Y-30967D01*
X29000Y-30670D01*
X28929Y-30741D01*
X28929Y-30600D01*
X28632Y-30302D01*
X28539Y-30327D01*
X28470Y-30524D01*
X28481Y-30732D01*
X28539Y-30872D01*
X28632Y-30897D01*
X28929Y-30600D01*
X28929Y-30741D01*
X28702Y-30967D01*
X28727Y-31060D01*
X28749Y-31068D01*
X28713Y-31083D01*
X28559Y-31238D01*
X28475Y-31440D01*
X28474Y-31658D01*
X28558Y-31861D01*
X28697Y-32000D01*
X28559Y-32138D01*
X28475Y-32340D01*
X28474Y-32558D01*
X28558Y-32761D01*
X28713Y-32915D01*
X28915Y-32999D01*
X29133Y-33000D01*
X29336Y-32916D01*
X29490Y-32761D01*
X29574Y-32559D01*
X29575Y-32341D01*
X29575Y-33755D01*
X27525Y-33755D01*
X27525Y-30496D01*
X27445Y-30303D01*
X27297Y-30155D01*
X27104Y-30075D01*
X26896Y-30074D01*
X26703Y-30154D01*
X26555Y-30302D01*
X26475Y-30495D01*
X26474Y-30703D01*
X26554Y-30897D01*
X26702Y-31044D01*
X26895Y-31124D01*
X27103Y-31125D01*
X27297Y-31045D01*
X27444Y-30897D01*
X27524Y-30704D01*
X27525Y-30496D01*
X27525Y-33755D01*
X25579Y-33755D01*
X25579Y-32531D01*
X25575Y-32438D01*
X25575Y-31441D01*
X25491Y-31238D01*
X25336Y-31084D01*
X25134Y-31000D01*
X24916Y-30999D01*
X24827Y-31036D01*
X24827Y-29303D01*
X24821Y-29231D01*
X24821Y-26165D01*
X24754Y-26001D01*
X24628Y-25875D01*
X24464Y-25807D01*
X24286Y-25807D01*
X24122Y-25874D01*
X23996Y-26000D01*
X23928Y-26164D01*
X23928Y-26342D01*
X23995Y-26506D01*
X24121Y-26632D01*
X24285Y-26700D01*
X24463Y-26700D01*
X24627Y-26632D01*
X24753Y-26507D01*
X24821Y-26343D01*
X24821Y-26165D01*
X24821Y-29231D01*
X24814Y-29125D01*
X24770Y-29020D01*
X24686Y-29005D01*
X24615Y-29076D01*
X24615Y-28934D01*
X24600Y-28850D01*
X24432Y-28794D01*
X24254Y-28806D01*
X24149Y-28850D01*
X24134Y-28934D01*
X24375Y-29175D01*
X24615Y-28934D01*
X24615Y-29076D01*
X24445Y-29246D01*
X24686Y-29486D01*
X24770Y-29471D01*
X24827Y-29303D01*
X24827Y-31036D01*
X24713Y-31083D01*
X24615Y-31181D01*
X24615Y-29557D01*
X24375Y-29316D01*
X24304Y-29387D01*
X24304Y-29246D01*
X24063Y-29005D01*
X23979Y-29020D01*
X23922Y-29188D01*
X23935Y-29366D01*
X23979Y-29471D01*
X24063Y-29486D01*
X24304Y-29246D01*
X24304Y-29387D01*
X24134Y-29557D01*
X24149Y-29641D01*
X24317Y-29698D01*
X24495Y-29685D01*
X24600Y-29641D01*
X24615Y-29557D01*
X24615Y-31181D01*
X24559Y-31238D01*
X24475Y-31440D01*
X24474Y-31658D01*
X24558Y-31861D01*
X24713Y-32015D01*
X24722Y-32019D01*
X24709Y-32064D01*
X25025Y-32379D01*
X25340Y-32064D01*
X25327Y-32020D01*
X25336Y-32016D01*
X25490Y-31861D01*
X25574Y-31659D01*
X25575Y-31441D01*
X25575Y-32438D01*
X25568Y-32313D01*
X25506Y-32162D01*
X25410Y-32134D01*
X25095Y-32450D01*
X25410Y-32765D01*
X25506Y-32737D01*
X25579Y-32531D01*
X25579Y-33755D01*
X25340Y-33755D01*
X25340Y-32835D01*
X25025Y-32520D01*
X24954Y-32591D01*
X24954Y-32450D01*
X24639Y-32134D01*
X24543Y-32162D01*
X24470Y-32368D01*
X24481Y-32586D01*
X24543Y-32737D01*
X24639Y-32765D01*
X24954Y-32450D01*
X24954Y-32591D01*
X24709Y-32835D01*
X24737Y-32931D01*
X24943Y-33004D01*
X25161Y-32993D01*
X25312Y-32931D01*
X25340Y-32835D01*
X25340Y-33755D01*
X21790Y-33755D01*
X21790Y-32251D01*
X21706Y-32048D01*
X21551Y-31894D01*
X21349Y-31810D01*
X21131Y-31809D01*
X20928Y-31893D01*
X20774Y-32048D01*
X20690Y-32250D01*
X20689Y-32468D01*
X20773Y-32671D01*
X20928Y-32825D01*
X21130Y-32909D01*
X21348Y-32910D01*
X21551Y-32826D01*
X21705Y-32671D01*
X21789Y-32469D01*
X21790Y-32251D01*
X21790Y-33755D01*
X20529Y-33755D01*
X20529Y-31675D01*
X20518Y-31467D01*
X20460Y-31327D01*
X20367Y-31302D01*
X20297Y-31373D01*
X20297Y-31232D01*
X20272Y-31139D01*
X20075Y-31070D01*
X19867Y-31081D01*
X19727Y-31139D01*
X19702Y-31232D01*
X20000Y-31529D01*
X20297Y-31232D01*
X20297Y-31373D01*
X20070Y-31600D01*
X20367Y-31897D01*
X20460Y-31872D01*
X20529Y-31675D01*
X20529Y-33755D01*
X20297Y-33755D01*
X20297Y-31967D01*
X20000Y-31670D01*
X19929Y-31741D01*
X19929Y-31600D01*
X19632Y-31302D01*
X19539Y-31327D01*
X19500Y-31437D01*
X19445Y-31303D01*
X19380Y-31237D01*
X19297Y-31155D01*
X19104Y-31075D01*
X18896Y-31074D01*
X18703Y-31154D01*
X18555Y-31302D01*
X18475Y-31495D01*
X18474Y-31703D01*
X18554Y-31897D01*
X18702Y-32044D01*
X18895Y-32124D01*
X19103Y-32125D01*
X19297Y-32045D01*
X19444Y-31897D01*
X19497Y-31771D01*
X19539Y-31872D01*
X19632Y-31897D01*
X19929Y-31600D01*
X19929Y-31741D01*
X19702Y-31967D01*
X19727Y-32060D01*
X19924Y-32129D01*
X20132Y-32118D01*
X20272Y-32060D01*
X20297Y-31967D01*
X20297Y-33755D01*
X18045Y-33755D01*
X18045Y-32592D01*
X17962Y-32391D01*
X17809Y-32238D01*
X17717Y-32200D01*
X17808Y-32162D01*
X17961Y-32009D01*
X18045Y-31808D01*
X18045Y-31592D01*
X17962Y-31391D01*
X17809Y-31238D01*
X17608Y-31154D01*
X17392Y-31154D01*
X17191Y-31237D01*
X17038Y-31390D01*
X16954Y-31591D01*
X16954Y-31807D01*
X17037Y-32008D01*
X17190Y-32161D01*
X17282Y-32199D01*
X17191Y-32237D01*
X17038Y-32390D01*
X16954Y-32591D01*
X16954Y-32807D01*
X17037Y-33008D01*
X17190Y-33161D01*
X17391Y-33245D01*
X17607Y-33245D01*
X17808Y-33162D01*
X17961Y-33009D01*
X18045Y-32808D01*
X18045Y-32592D01*
X18045Y-33755D01*
X14079Y-33755D01*
X14079Y-29300D01*
X14068Y-29092D01*
X14010Y-28952D01*
X13917Y-28927D01*
X13847Y-28998D01*
X13847Y-28857D01*
X13822Y-28764D01*
X13625Y-28695D01*
X13417Y-28706D01*
X13277Y-28764D01*
X13252Y-28857D01*
X13550Y-29154D01*
X13847Y-28857D01*
X13847Y-28998D01*
X13620Y-29225D01*
X13917Y-29522D01*
X14010Y-29497D01*
X14079Y-29300D01*
X14079Y-33755D01*
X13847Y-33755D01*
X13847Y-29592D01*
X13550Y-29295D01*
X13479Y-29366D01*
X13479Y-29225D01*
X13182Y-28927D01*
X13089Y-28952D01*
X13020Y-29149D01*
X13031Y-29357D01*
X13089Y-29497D01*
X13182Y-29522D01*
X13479Y-29225D01*
X13479Y-29366D01*
X13252Y-29592D01*
X13277Y-29685D01*
X13474Y-29754D01*
X13682Y-29743D01*
X13822Y-29685D01*
X13847Y-29592D01*
X13847Y-33755D01*
X12969Y-33755D01*
X12969Y-33400D01*
X12969Y-27960D01*
X12987Y-27972D01*
X13151Y-28005D01*
X13448Y-28005D01*
X13612Y-27972D01*
X13750Y-27880D01*
X13843Y-27741D01*
X13876Y-27577D01*
X13843Y-27414D01*
X13755Y-27283D01*
X13815Y-27258D01*
X13885Y-27188D01*
X13923Y-27096D01*
X13924Y-26996D01*
X13924Y-26248D01*
X13903Y-26199D01*
X13923Y-26151D01*
X13924Y-26052D01*
X13924Y-25304D01*
X13886Y-25212D01*
X13815Y-25141D01*
X13755Y-25116D01*
X13843Y-24985D01*
X13876Y-24822D01*
X13843Y-24658D01*
X13750Y-24519D01*
X13612Y-24427D01*
X13448Y-24394D01*
X13151Y-24394D01*
X12987Y-24427D01*
X12969Y-24439D01*
X12969Y-9400D01*
X12969Y-9045D01*
X35220Y-9045D01*
X42000Y-9045D01*
X42000Y-9875D01*
X41942Y-9856D01*
X41871Y-9927D01*
X41871Y-9785D01*
X41837Y-9685D01*
X41613Y-9603D01*
X41375Y-9613D01*
X41202Y-9685D01*
X41168Y-9785D01*
X41520Y-10137D01*
X41871Y-9785D01*
X41871Y-9927D01*
X41590Y-10208D01*
X41942Y-10559D01*
X42000Y-10540D01*
X42000Y-11365D01*
M02*
