G04 (created by PCBNEW (2013-07-07 BZR 4022)-stable) date 4/28/2015 11:34:22 PM*
%MOIN*%
G04 Gerber Fmt 3.4, Leading zero omitted, Abs format*
%FSLAX34Y34*%
G01*
G70*
G90*
G04 APERTURE LIST*
%ADD10C,0.00590551*%
%ADD11C,0.055*%
%ADD12R,0.055X0.055*%
%ADD13C,0.06*%
%ADD14R,0.06X0.06*%
%ADD15C,0.066*%
%ADD16C,0.056*%
%ADD17C,0.07*%
%ADD18O,0.0629921X0.0354331*%
%ADD19C,0.0590551*%
%ADD20R,0.07X0.07*%
%ADD21R,0.35X0.35*%
%ADD22C,0.0393701*%
%ADD23C,0.035*%
%ADD24C,0.01*%
%ADD25C,0.02*%
G04 APERTURE END LIST*
G54D10*
G54D11*
X30400Y-20100D03*
X30400Y-21100D03*
X30400Y-22100D03*
X30400Y-23100D03*
X30400Y-24100D03*
X30400Y-25100D03*
X30400Y-26100D03*
X30400Y-27100D03*
X30400Y-28100D03*
X30400Y-29100D03*
X30400Y-30100D03*
X30400Y-31100D03*
X30400Y-32100D03*
G54D12*
X30400Y-19100D03*
G54D11*
X33400Y-32100D03*
X33400Y-31100D03*
X33400Y-30100D03*
X33400Y-29100D03*
X33400Y-28100D03*
X33400Y-27100D03*
X33400Y-26100D03*
X33400Y-25100D03*
X33400Y-24100D03*
X33400Y-23100D03*
X33400Y-22100D03*
X33400Y-21100D03*
X33400Y-20100D03*
X33400Y-19100D03*
G54D12*
X22450Y-31675D03*
G54D11*
X23450Y-31675D03*
X23450Y-30675D03*
G54D13*
X31510Y-9780D03*
X31510Y-13780D03*
X25025Y-31550D03*
X29025Y-31550D03*
X14800Y-30400D03*
X18800Y-30400D03*
X34635Y-23215D03*
X34635Y-27215D03*
X30500Y-17700D03*
X30500Y-13700D03*
X21600Y-24450D03*
X25600Y-24450D03*
X25025Y-32450D03*
X29025Y-32450D03*
X16800Y-24425D03*
X20800Y-24425D03*
G54D14*
X29300Y-10200D03*
G54D13*
X29300Y-11200D03*
X29300Y-12200D03*
X29300Y-13200D03*
X29300Y-14200D03*
X29300Y-15200D03*
G54D15*
X18800Y-29100D03*
X18800Y-28100D03*
X34425Y-10750D03*
X33425Y-10750D03*
X20750Y-26100D03*
X20750Y-27100D03*
G54D16*
X28100Y-28800D03*
X28100Y-26800D03*
G54D11*
X15550Y-29225D03*
X13550Y-29225D03*
X31600Y-17300D03*
X33600Y-17300D03*
X27000Y-30600D03*
X29000Y-30600D03*
X27000Y-25000D03*
X29000Y-25000D03*
X19000Y-31600D03*
X20000Y-31600D03*
X29000Y-19000D03*
X29000Y-18000D03*
X29400Y-23000D03*
X28400Y-23000D03*
G54D17*
X46520Y-10208D03*
X45520Y-10208D03*
X44520Y-10208D03*
X43520Y-10208D03*
X42519Y-10208D03*
X41520Y-10208D03*
X40520Y-10208D03*
X39520Y-10208D03*
G54D18*
X13300Y-24822D03*
X13300Y-27577D03*
G54D19*
X17500Y-11700D03*
X17500Y-10700D03*
X17500Y-32700D03*
X17500Y-31700D03*
G54D20*
X19450Y-12600D03*
G54D17*
X19450Y-10600D03*
X19450Y-11600D03*
G54D21*
X25950Y-11600D03*
G54D12*
X33310Y-15080D03*
G54D11*
X32310Y-15080D03*
X32310Y-16080D03*
G54D13*
X34610Y-22160D03*
X34610Y-18160D03*
X34500Y-16275D03*
X34500Y-12275D03*
G54D14*
X14200Y-13050D03*
G54D13*
X15200Y-13050D03*
X16200Y-13050D03*
G54D22*
X24375Y-26253D03*
X24375Y-29246D03*
G54D13*
X21240Y-32360D03*
X21240Y-28360D03*
G54D23*
X29825Y-17700D03*
X29700Y-22025D03*
X28500Y-11700D03*
X30000Y-11750D03*
X16800Y-25800D03*
X17100Y-26600D03*
X28300Y-20700D03*
X28300Y-19700D03*
X27010Y-15900D03*
X17740Y-25270D03*
X33920Y-13750D03*
X33850Y-19530D03*
G54D24*
X30400Y-23100D02*
X30400Y-22725D01*
X29825Y-17700D02*
X30500Y-17700D01*
X30400Y-22725D02*
X29700Y-22025D01*
X29025Y-31550D02*
X29025Y-31475D01*
X29025Y-31475D02*
X30400Y-30100D01*
G54D25*
X17500Y-10700D02*
X16550Y-10700D01*
X16550Y-10700D02*
X14200Y-13050D01*
G54D24*
X25025Y-31550D02*
X23575Y-31550D01*
X23575Y-31550D02*
X23450Y-31675D01*
G54D25*
X22450Y-31675D02*
X21925Y-31675D01*
X21925Y-31675D02*
X21240Y-32360D01*
X21240Y-28360D02*
X22268Y-28360D01*
X22268Y-28360D02*
X24375Y-26253D01*
G54D24*
X20750Y-26100D02*
X20750Y-25300D01*
X20750Y-25300D02*
X21600Y-24450D01*
X28100Y-26800D02*
X28100Y-26100D01*
X28100Y-26100D02*
X27000Y-25000D01*
X30400Y-27100D02*
X28400Y-27100D01*
X28400Y-27100D02*
X28100Y-26800D01*
X28100Y-28800D02*
X28100Y-29500D01*
X28100Y-29500D02*
X27000Y-30600D01*
X30400Y-28100D02*
X28400Y-28100D01*
X28100Y-28400D02*
X28100Y-28800D01*
X28400Y-28100D02*
X28100Y-28400D01*
X29300Y-17700D02*
X29000Y-18000D01*
X29300Y-15200D02*
X29300Y-17700D01*
X31900Y-15100D02*
X30500Y-13700D01*
X29950Y-11700D02*
X28500Y-11700D01*
X30000Y-11750D02*
X29950Y-11700D01*
X32300Y-15100D02*
X31900Y-15100D01*
X34500Y-12275D02*
X34500Y-10825D01*
X34500Y-10825D02*
X34425Y-10750D01*
X33300Y-15100D02*
X33325Y-15100D01*
X33325Y-15100D02*
X34500Y-16275D01*
X16800Y-26300D02*
X16800Y-25800D01*
X17100Y-26600D02*
X16800Y-26300D01*
G54D25*
X37610Y-28100D02*
X37850Y-28100D01*
X37850Y-28100D02*
X45520Y-20430D01*
X45520Y-10208D02*
X45520Y-20430D01*
X33400Y-28100D02*
X37610Y-28100D01*
G54D24*
X30300Y-19000D02*
X30400Y-19100D01*
X29000Y-19000D02*
X30300Y-19000D01*
G54D25*
X17500Y-32700D02*
X17850Y-32700D01*
X28300Y-33175D02*
X29025Y-32450D01*
X18325Y-33175D02*
X28300Y-33175D01*
X17850Y-32700D02*
X18325Y-33175D01*
G54D24*
X30400Y-31100D02*
X30375Y-31100D01*
X30375Y-31100D02*
X29025Y-32450D01*
X30400Y-20100D02*
X27440Y-20100D01*
X27450Y-20090D02*
X27450Y-15040D01*
X27440Y-20100D02*
X27450Y-20090D01*
X29300Y-13200D02*
X29290Y-13200D01*
X29290Y-13200D02*
X27450Y-15040D01*
X28300Y-19700D02*
X28300Y-15200D01*
X28300Y-15200D02*
X29300Y-14200D01*
X28700Y-21100D02*
X30400Y-21100D01*
X28300Y-20700D02*
X28700Y-21100D01*
G54D25*
X18670Y-15550D02*
X17725Y-15550D01*
X17725Y-12880D02*
X17725Y-12495D01*
X17725Y-12495D02*
X18620Y-11600D01*
X26660Y-15550D02*
X18670Y-15550D01*
X27010Y-15900D02*
X26660Y-15550D01*
X17725Y-25255D02*
X17725Y-15550D01*
X17740Y-25270D02*
X17725Y-25255D01*
X17725Y-15550D02*
X17725Y-14605D01*
X32300Y-16100D02*
X32300Y-16600D01*
X32300Y-16600D02*
X31600Y-17300D01*
X18620Y-11600D02*
X19450Y-11600D01*
X17725Y-12450D02*
X17725Y-12880D01*
X17725Y-12880D02*
X17725Y-14605D01*
X15800Y-12450D02*
X15200Y-13050D01*
X17725Y-12450D02*
X17390Y-12450D01*
X17390Y-12450D02*
X15800Y-12450D01*
G54D24*
X33890Y-23220D02*
X34630Y-23220D01*
X34630Y-23220D02*
X34635Y-23215D01*
X33890Y-24100D02*
X33890Y-23330D01*
X33890Y-23330D02*
X33890Y-23220D01*
X33890Y-23220D02*
X33890Y-22220D01*
X33890Y-22220D02*
X33890Y-19570D01*
X33870Y-13800D02*
X31500Y-13800D01*
X33920Y-13750D02*
X33870Y-13800D01*
X33890Y-19570D02*
X33850Y-19530D01*
X33400Y-24100D02*
X33800Y-24100D01*
X33800Y-24100D02*
X33890Y-24100D01*
G54D10*
G36*
X42000Y-11365D02*
X39871Y-11365D01*
X39871Y-10630D01*
X39520Y-10278D01*
X39449Y-10349D01*
X39449Y-10208D01*
X39097Y-9856D01*
X38997Y-9890D01*
X38915Y-10114D01*
X38925Y-10352D01*
X38997Y-10525D01*
X39097Y-10559D01*
X39449Y-10208D01*
X39449Y-10349D01*
X39168Y-10630D01*
X39202Y-10730D01*
X39426Y-10812D01*
X39664Y-10802D01*
X39837Y-10730D01*
X39871Y-10630D01*
X39871Y-11365D01*
X35170Y-11365D01*
X35170Y-23069D01*
X35164Y-23056D01*
X35164Y-18241D01*
X35153Y-18023D01*
X35091Y-17872D01*
X35050Y-17860D01*
X35050Y-16166D01*
X35050Y-12166D01*
X34966Y-11963D01*
X34811Y-11809D01*
X34800Y-11804D01*
X34800Y-11195D01*
X34916Y-11078D01*
X35004Y-10865D01*
X35005Y-10635D01*
X34916Y-10421D01*
X34753Y-10258D01*
X34540Y-10170D01*
X34310Y-10169D01*
X34096Y-10258D01*
X33933Y-10421D01*
X33925Y-10441D01*
X33916Y-10421D01*
X33753Y-10258D01*
X33540Y-10170D01*
X33310Y-10169D01*
X33096Y-10258D01*
X32933Y-10421D01*
X32845Y-10634D01*
X32844Y-10864D01*
X32933Y-11078D01*
X33096Y-11241D01*
X33309Y-11329D01*
X33539Y-11330D01*
X33753Y-11241D01*
X33916Y-11078D01*
X33924Y-11058D01*
X33933Y-11078D01*
X34096Y-11241D01*
X34200Y-11284D01*
X34200Y-11803D01*
X34188Y-11808D01*
X34034Y-11963D01*
X33950Y-12165D01*
X33949Y-12383D01*
X34033Y-12586D01*
X34188Y-12740D01*
X34390Y-12824D01*
X34608Y-12825D01*
X34811Y-12741D01*
X34965Y-12586D01*
X35049Y-12384D01*
X35050Y-12166D01*
X35050Y-16166D01*
X34966Y-15963D01*
X34811Y-15809D01*
X34609Y-15725D01*
X34391Y-15724D01*
X34379Y-15729D01*
X33835Y-15185D01*
X33835Y-14755D01*
X33797Y-14663D01*
X33726Y-14593D01*
X33634Y-14555D01*
X33535Y-14554D01*
X32985Y-14554D01*
X32893Y-14592D01*
X32823Y-14663D01*
X32785Y-14755D01*
X32784Y-14854D01*
X32784Y-14854D01*
X32755Y-14783D01*
X32607Y-14635D01*
X32414Y-14555D01*
X32206Y-14554D01*
X32013Y-14634D01*
X31935Y-14711D01*
X31554Y-14330D01*
X31618Y-14330D01*
X31821Y-14246D01*
X31967Y-14100D01*
X33668Y-14100D01*
X33678Y-14110D01*
X33835Y-14174D01*
X34004Y-14175D01*
X34160Y-14110D01*
X34280Y-13991D01*
X34344Y-13834D01*
X34345Y-13665D01*
X34280Y-13509D01*
X34161Y-13389D01*
X34004Y-13325D01*
X33835Y-13324D01*
X33679Y-13389D01*
X33568Y-13500D01*
X32060Y-13500D01*
X32060Y-9671D01*
X31976Y-9468D01*
X31821Y-9314D01*
X31619Y-9230D01*
X31401Y-9229D01*
X31198Y-9313D01*
X31044Y-9468D01*
X30960Y-9670D01*
X30959Y-9888D01*
X31043Y-10091D01*
X31198Y-10245D01*
X31400Y-10329D01*
X31618Y-10330D01*
X31821Y-10246D01*
X31975Y-10091D01*
X32059Y-9889D01*
X32060Y-9671D01*
X32060Y-13500D01*
X31989Y-13500D01*
X31976Y-13468D01*
X31821Y-13314D01*
X31619Y-13230D01*
X31401Y-13229D01*
X31198Y-13313D01*
X31044Y-13468D01*
X31021Y-13522D01*
X30966Y-13388D01*
X30811Y-13234D01*
X30609Y-13150D01*
X30391Y-13149D01*
X30188Y-13233D01*
X30034Y-13388D01*
X29950Y-13590D01*
X29949Y-13808D01*
X30033Y-14011D01*
X30188Y-14165D01*
X30390Y-14249D01*
X30608Y-14250D01*
X30620Y-14245D01*
X31687Y-15312D01*
X31687Y-15312D01*
X31785Y-15377D01*
X31884Y-15396D01*
X32012Y-15524D01*
X32145Y-15580D01*
X32013Y-15634D01*
X31865Y-15782D01*
X31785Y-15975D01*
X31784Y-16183D01*
X31864Y-16377D01*
X31946Y-16458D01*
X31629Y-16775D01*
X31496Y-16774D01*
X31303Y-16854D01*
X31155Y-17002D01*
X31075Y-17195D01*
X31074Y-17403D01*
X31154Y-17597D01*
X31302Y-17744D01*
X31495Y-17824D01*
X31703Y-17825D01*
X31897Y-17745D01*
X32044Y-17597D01*
X32124Y-17404D01*
X32125Y-17269D01*
X32547Y-16847D01*
X32547Y-16847D01*
X32547Y-16847D01*
X32623Y-16733D01*
X32650Y-16600D01*
X32649Y-16600D01*
X32650Y-16600D01*
X32650Y-16482D01*
X32754Y-16377D01*
X32834Y-16184D01*
X32835Y-15976D01*
X32755Y-15783D01*
X32607Y-15635D01*
X32474Y-15579D01*
X32607Y-15525D01*
X32754Y-15377D01*
X32784Y-15305D01*
X32784Y-15404D01*
X32822Y-15496D01*
X32893Y-15566D01*
X32985Y-15604D01*
X33084Y-15605D01*
X33405Y-15605D01*
X33954Y-16153D01*
X33950Y-16165D01*
X33949Y-16383D01*
X34033Y-16586D01*
X34188Y-16740D01*
X34390Y-16824D01*
X34608Y-16825D01*
X34811Y-16741D01*
X34965Y-16586D01*
X35049Y-16384D01*
X35050Y-16166D01*
X35050Y-17860D01*
X34995Y-17844D01*
X34925Y-17915D01*
X34925Y-17774D01*
X34897Y-17678D01*
X34691Y-17605D01*
X34473Y-17616D01*
X34322Y-17678D01*
X34294Y-17774D01*
X34610Y-18089D01*
X34925Y-17774D01*
X34925Y-17915D01*
X34680Y-18160D01*
X34995Y-18475D01*
X35091Y-18447D01*
X35164Y-18241D01*
X35164Y-23056D01*
X35101Y-22903D01*
X34946Y-22749D01*
X34786Y-22682D01*
X34921Y-22626D01*
X35075Y-22471D01*
X35159Y-22269D01*
X35160Y-22051D01*
X35076Y-21848D01*
X34925Y-21697D01*
X34925Y-18545D01*
X34610Y-18230D01*
X34539Y-18301D01*
X34539Y-18160D01*
X34224Y-17844D01*
X34128Y-17872D01*
X34125Y-17882D01*
X34125Y-17196D01*
X34045Y-17003D01*
X33897Y-16855D01*
X33704Y-16775D01*
X33496Y-16774D01*
X33303Y-16854D01*
X33155Y-17002D01*
X33075Y-17195D01*
X33074Y-17403D01*
X33154Y-17597D01*
X33302Y-17744D01*
X33495Y-17824D01*
X33703Y-17825D01*
X33897Y-17745D01*
X34044Y-17597D01*
X34124Y-17404D01*
X34125Y-17196D01*
X34125Y-17882D01*
X34055Y-18078D01*
X34066Y-18296D01*
X34128Y-18447D01*
X34224Y-18475D01*
X34539Y-18160D01*
X34539Y-18301D01*
X34294Y-18545D01*
X34322Y-18641D01*
X34528Y-18714D01*
X34746Y-18703D01*
X34897Y-18641D01*
X34925Y-18545D01*
X34925Y-21697D01*
X34921Y-21694D01*
X34719Y-21610D01*
X34501Y-21609D01*
X34298Y-21693D01*
X34190Y-21802D01*
X34190Y-19791D01*
X34210Y-19771D01*
X34274Y-19614D01*
X34275Y-19445D01*
X34210Y-19289D01*
X34091Y-19169D01*
X33934Y-19105D01*
X33924Y-19105D01*
X33925Y-18996D01*
X33845Y-18803D01*
X33697Y-18655D01*
X33504Y-18575D01*
X33296Y-18574D01*
X33103Y-18654D01*
X32955Y-18802D01*
X32875Y-18995D01*
X32874Y-19203D01*
X32954Y-19397D01*
X33102Y-19544D01*
X33235Y-19600D01*
X33103Y-19654D01*
X32955Y-19802D01*
X32875Y-19995D01*
X32874Y-20203D01*
X32954Y-20397D01*
X33102Y-20544D01*
X33235Y-20600D01*
X33103Y-20654D01*
X32955Y-20802D01*
X32875Y-20995D01*
X32874Y-21203D01*
X32954Y-21397D01*
X33102Y-21544D01*
X33235Y-21600D01*
X33103Y-21654D01*
X32955Y-21802D01*
X32875Y-21995D01*
X32874Y-22203D01*
X32954Y-22397D01*
X33102Y-22544D01*
X33235Y-22600D01*
X33103Y-22654D01*
X32955Y-22802D01*
X32875Y-22995D01*
X32874Y-23203D01*
X32954Y-23397D01*
X33102Y-23544D01*
X33235Y-23600D01*
X33103Y-23654D01*
X32955Y-23802D01*
X32875Y-23995D01*
X32874Y-24203D01*
X32954Y-24397D01*
X33102Y-24544D01*
X33235Y-24600D01*
X33103Y-24654D01*
X32955Y-24802D01*
X32875Y-24995D01*
X32874Y-25203D01*
X32954Y-25397D01*
X33102Y-25544D01*
X33235Y-25600D01*
X33103Y-25654D01*
X32955Y-25802D01*
X32875Y-25995D01*
X32874Y-26203D01*
X32954Y-26397D01*
X33102Y-26544D01*
X33235Y-26600D01*
X33103Y-26654D01*
X32955Y-26802D01*
X32875Y-26995D01*
X32874Y-27203D01*
X32954Y-27397D01*
X33102Y-27544D01*
X33235Y-27600D01*
X33103Y-27654D01*
X32955Y-27802D01*
X32875Y-27995D01*
X32874Y-28203D01*
X32954Y-28397D01*
X33102Y-28544D01*
X33235Y-28600D01*
X33103Y-28654D01*
X32955Y-28802D01*
X32875Y-28995D01*
X32874Y-29203D01*
X32954Y-29397D01*
X33102Y-29544D01*
X33235Y-29600D01*
X33103Y-29654D01*
X32955Y-29802D01*
X32875Y-29995D01*
X32874Y-30203D01*
X32954Y-30397D01*
X33102Y-30544D01*
X33235Y-30600D01*
X33103Y-30654D01*
X32955Y-30802D01*
X32875Y-30995D01*
X32874Y-31203D01*
X32954Y-31397D01*
X33102Y-31544D01*
X33235Y-31600D01*
X33103Y-31654D01*
X32955Y-31802D01*
X32875Y-31995D01*
X32874Y-32203D01*
X32954Y-32397D01*
X33102Y-32544D01*
X33295Y-32624D01*
X33503Y-32625D01*
X33697Y-32545D01*
X33844Y-32397D01*
X33924Y-32204D01*
X33925Y-31996D01*
X33845Y-31803D01*
X33697Y-31655D01*
X33564Y-31599D01*
X33697Y-31545D01*
X33844Y-31397D01*
X33924Y-31204D01*
X33925Y-30996D01*
X33845Y-30803D01*
X33697Y-30655D01*
X33564Y-30599D01*
X33697Y-30545D01*
X33844Y-30397D01*
X33924Y-30204D01*
X33925Y-29996D01*
X33845Y-29803D01*
X33697Y-29655D01*
X33564Y-29599D01*
X33697Y-29545D01*
X33844Y-29397D01*
X33924Y-29204D01*
X33925Y-28996D01*
X33845Y-28803D01*
X33697Y-28655D01*
X33564Y-28599D01*
X33697Y-28545D01*
X33792Y-28450D01*
X35170Y-28450D01*
X35170Y-33755D01*
X31050Y-33755D01*
X31050Y-17591D01*
X30966Y-17388D01*
X30811Y-17234D01*
X30609Y-17150D01*
X30391Y-17149D01*
X30188Y-17233D01*
X30074Y-17347D01*
X30066Y-17339D01*
X29909Y-17275D01*
X29740Y-17274D01*
X29600Y-17333D01*
X29600Y-15671D01*
X29611Y-15666D01*
X29765Y-15511D01*
X29849Y-15309D01*
X29850Y-15091D01*
X29766Y-14888D01*
X29611Y-14734D01*
X29530Y-14700D01*
X29611Y-14666D01*
X29765Y-14511D01*
X29849Y-14309D01*
X29850Y-14091D01*
X29766Y-13888D01*
X29611Y-13734D01*
X29530Y-13700D01*
X29611Y-13666D01*
X29765Y-13511D01*
X29849Y-13309D01*
X29850Y-13091D01*
X29766Y-12888D01*
X29611Y-12734D01*
X29530Y-12700D01*
X29611Y-12666D01*
X29765Y-12511D01*
X29849Y-12309D01*
X29850Y-12147D01*
X29915Y-12174D01*
X30084Y-12175D01*
X30240Y-12110D01*
X30360Y-11991D01*
X30424Y-11834D01*
X30425Y-11665D01*
X30360Y-11509D01*
X30241Y-11389D01*
X30084Y-11325D01*
X29915Y-11324D01*
X29828Y-11360D01*
X29849Y-11309D01*
X29850Y-11091D01*
X29766Y-10888D01*
X29627Y-10750D01*
X29649Y-10750D01*
X29741Y-10712D01*
X29811Y-10641D01*
X29849Y-10549D01*
X29850Y-10450D01*
X29850Y-9850D01*
X29812Y-9758D01*
X29741Y-9688D01*
X29649Y-9650D01*
X29550Y-9649D01*
X28950Y-9649D01*
X28858Y-9687D01*
X28788Y-9758D01*
X28750Y-9850D01*
X28749Y-9949D01*
X28749Y-10549D01*
X28787Y-10641D01*
X28858Y-10711D01*
X28950Y-10749D01*
X28972Y-10749D01*
X28834Y-10888D01*
X28750Y-11090D01*
X28749Y-11308D01*
X28778Y-11376D01*
X28741Y-11339D01*
X28584Y-11275D01*
X28415Y-11274D01*
X28259Y-11339D01*
X28139Y-11458D01*
X28075Y-11615D01*
X28074Y-11784D01*
X28139Y-11940D01*
X28258Y-12060D01*
X28415Y-12124D01*
X28584Y-12125D01*
X28740Y-12060D01*
X28777Y-12023D01*
X28750Y-12090D01*
X28749Y-12308D01*
X28833Y-12511D01*
X28988Y-12665D01*
X29069Y-12699D01*
X28988Y-12733D01*
X28834Y-12888D01*
X28750Y-13090D01*
X28749Y-13308D01*
X28751Y-13313D01*
X27950Y-14115D01*
X27950Y-13300D01*
X27950Y-9800D01*
X27912Y-9708D01*
X27841Y-9638D01*
X27749Y-9600D01*
X27650Y-9599D01*
X24150Y-9599D01*
X24058Y-9637D01*
X23988Y-9708D01*
X23950Y-9800D01*
X23949Y-9899D01*
X23949Y-13399D01*
X23987Y-13491D01*
X24058Y-13561D01*
X24150Y-13599D01*
X24249Y-13600D01*
X27749Y-13600D01*
X27841Y-13562D01*
X27911Y-13491D01*
X27949Y-13399D01*
X27950Y-13300D01*
X27950Y-14115D01*
X27237Y-14827D01*
X27172Y-14925D01*
X27150Y-15040D01*
X27150Y-15497D01*
X27094Y-15475D01*
X27080Y-15475D01*
X26907Y-15302D01*
X26793Y-15226D01*
X26660Y-15200D01*
X20054Y-15200D01*
X20054Y-10693D01*
X20044Y-10455D01*
X19972Y-10282D01*
X19872Y-10248D01*
X19801Y-10319D01*
X19801Y-10177D01*
X19767Y-10077D01*
X19543Y-9995D01*
X19305Y-10005D01*
X19132Y-10077D01*
X19098Y-10177D01*
X19450Y-10529D01*
X19801Y-10177D01*
X19801Y-10319D01*
X19520Y-10600D01*
X19872Y-10951D01*
X19972Y-10917D01*
X20054Y-10693D01*
X20054Y-15200D01*
X18670Y-15200D01*
X18075Y-15200D01*
X18075Y-14605D01*
X18075Y-12880D01*
X18075Y-12639D01*
X18764Y-11950D01*
X18951Y-11950D01*
X19015Y-12014D01*
X18958Y-12037D01*
X18888Y-12108D01*
X18850Y-12200D01*
X18849Y-12299D01*
X18849Y-12999D01*
X18887Y-13091D01*
X18958Y-13161D01*
X19050Y-13199D01*
X19149Y-13200D01*
X19849Y-13200D01*
X19941Y-13162D01*
X20011Y-13091D01*
X20049Y-12999D01*
X20050Y-12900D01*
X20050Y-12200D01*
X20012Y-12108D01*
X19941Y-12038D01*
X19884Y-12014D01*
X19958Y-11940D01*
X20049Y-11719D01*
X20050Y-11481D01*
X19958Y-11260D01*
X19790Y-11091D01*
X19779Y-11087D01*
X19801Y-11022D01*
X19450Y-10670D01*
X19379Y-10741D01*
X19379Y-10600D01*
X19027Y-10248D01*
X18927Y-10282D01*
X18845Y-10506D01*
X18855Y-10744D01*
X18927Y-10917D01*
X19027Y-10951D01*
X19379Y-10600D01*
X19379Y-10741D01*
X19098Y-11022D01*
X19120Y-11087D01*
X19110Y-11091D01*
X18951Y-11250D01*
X18620Y-11250D01*
X18486Y-11276D01*
X18372Y-11352D01*
X18372Y-11352D01*
X18045Y-11679D01*
X18045Y-11592D01*
X17962Y-11391D01*
X17809Y-11238D01*
X17717Y-11200D01*
X17808Y-11162D01*
X17961Y-11009D01*
X18045Y-10808D01*
X18045Y-10592D01*
X17962Y-10391D01*
X17809Y-10238D01*
X17608Y-10154D01*
X17392Y-10154D01*
X17191Y-10237D01*
X17078Y-10350D01*
X16550Y-10350D01*
X16549Y-10350D01*
X16416Y-10376D01*
X16302Y-10452D01*
X16302Y-10452D01*
X14255Y-12499D01*
X13850Y-12499D01*
X13758Y-12537D01*
X13688Y-12608D01*
X13650Y-12700D01*
X13649Y-12799D01*
X13649Y-13399D01*
X13687Y-13491D01*
X13758Y-13561D01*
X13850Y-13599D01*
X13949Y-13600D01*
X14549Y-13600D01*
X14641Y-13562D01*
X14711Y-13491D01*
X14749Y-13399D01*
X14749Y-13377D01*
X14888Y-13515D01*
X15090Y-13599D01*
X15308Y-13600D01*
X15511Y-13516D01*
X15665Y-13361D01*
X15699Y-13280D01*
X15733Y-13361D01*
X15888Y-13515D01*
X16090Y-13599D01*
X16308Y-13600D01*
X16511Y-13516D01*
X16665Y-13361D01*
X16749Y-13159D01*
X16750Y-12941D01*
X16691Y-12800D01*
X17375Y-12800D01*
X17375Y-12880D01*
X17375Y-14605D01*
X17375Y-15550D01*
X17375Y-25040D01*
X17350Y-25100D01*
X17350Y-24316D01*
X17266Y-24113D01*
X17111Y-23959D01*
X16909Y-23875D01*
X16691Y-23874D01*
X16488Y-23958D01*
X16334Y-24113D01*
X16250Y-24315D01*
X16249Y-24533D01*
X16333Y-24736D01*
X16488Y-24890D01*
X16690Y-24974D01*
X16908Y-24975D01*
X17111Y-24891D01*
X17265Y-24736D01*
X17349Y-24534D01*
X17350Y-24316D01*
X17350Y-25100D01*
X17315Y-25185D01*
X17314Y-25354D01*
X17379Y-25510D01*
X17498Y-25630D01*
X17655Y-25694D01*
X17824Y-25695D01*
X17980Y-25630D01*
X18100Y-25511D01*
X18164Y-25354D01*
X18165Y-25185D01*
X18100Y-25029D01*
X18075Y-25004D01*
X18075Y-15900D01*
X18670Y-15900D01*
X26515Y-15900D01*
X26584Y-15969D01*
X26584Y-15984D01*
X26649Y-16140D01*
X26768Y-16260D01*
X26925Y-16324D01*
X27094Y-16325D01*
X27150Y-16302D01*
X27150Y-20049D01*
X27140Y-20100D01*
X27162Y-20214D01*
X27227Y-20312D01*
X27325Y-20377D01*
X27325Y-20377D01*
X27440Y-20400D01*
X27998Y-20400D01*
X27939Y-20458D01*
X27875Y-20615D01*
X27874Y-20784D01*
X27939Y-20940D01*
X28058Y-21060D01*
X28215Y-21124D01*
X28300Y-21125D01*
X28487Y-21312D01*
X28487Y-21312D01*
X28585Y-21377D01*
X28699Y-21399D01*
X28700Y-21400D01*
X29957Y-21400D01*
X30102Y-21544D01*
X30235Y-21600D01*
X30103Y-21654D01*
X30016Y-21740D01*
X29941Y-21664D01*
X29784Y-21600D01*
X29615Y-21599D01*
X29459Y-21664D01*
X29339Y-21783D01*
X29275Y-21940D01*
X29274Y-22109D01*
X29339Y-22265D01*
X29458Y-22385D01*
X29615Y-22449D01*
X29700Y-22450D01*
X30004Y-22753D01*
X29955Y-22802D01*
X29919Y-22887D01*
X29918Y-22867D01*
X29860Y-22727D01*
X29767Y-22702D01*
X29697Y-22773D01*
X29697Y-22632D01*
X29672Y-22539D01*
X29475Y-22470D01*
X29267Y-22481D01*
X29127Y-22539D01*
X29102Y-22632D01*
X29400Y-22929D01*
X29697Y-22632D01*
X29697Y-22773D01*
X29470Y-23000D01*
X29767Y-23297D01*
X29860Y-23272D01*
X29880Y-23216D01*
X29954Y-23397D01*
X30102Y-23544D01*
X30235Y-23600D01*
X30103Y-23654D01*
X29955Y-23802D01*
X29875Y-23995D01*
X29874Y-24203D01*
X29954Y-24397D01*
X30102Y-24544D01*
X30228Y-24597D01*
X30127Y-24639D01*
X30102Y-24732D01*
X30400Y-25029D01*
X30697Y-24732D01*
X30672Y-24639D01*
X30562Y-24600D01*
X30697Y-24545D01*
X30844Y-24397D01*
X30924Y-24204D01*
X30925Y-23996D01*
X30845Y-23803D01*
X30697Y-23655D01*
X30564Y-23599D01*
X30697Y-23545D01*
X30844Y-23397D01*
X30924Y-23204D01*
X30925Y-22996D01*
X30845Y-22803D01*
X30697Y-22655D01*
X30685Y-22649D01*
X30677Y-22610D01*
X30647Y-22565D01*
X30697Y-22545D01*
X30844Y-22397D01*
X30924Y-22204D01*
X30925Y-21996D01*
X30845Y-21803D01*
X30697Y-21655D01*
X30564Y-21599D01*
X30697Y-21545D01*
X30844Y-21397D01*
X30924Y-21204D01*
X30925Y-20996D01*
X30845Y-20803D01*
X30697Y-20655D01*
X30564Y-20599D01*
X30697Y-20545D01*
X30844Y-20397D01*
X30924Y-20204D01*
X30925Y-19996D01*
X30845Y-19803D01*
X30697Y-19655D01*
X30625Y-19625D01*
X30724Y-19625D01*
X30816Y-19587D01*
X30886Y-19516D01*
X30924Y-19424D01*
X30925Y-19325D01*
X30925Y-18775D01*
X30887Y-18683D01*
X30816Y-18613D01*
X30724Y-18575D01*
X30625Y-18574D01*
X30075Y-18574D01*
X29983Y-18612D01*
X29913Y-18683D01*
X29906Y-18700D01*
X29442Y-18700D01*
X29297Y-18555D01*
X29164Y-18499D01*
X29297Y-18445D01*
X29444Y-18297D01*
X29524Y-18104D01*
X29524Y-18001D01*
X29583Y-18060D01*
X29740Y-18124D01*
X29909Y-18125D01*
X30065Y-18060D01*
X30074Y-18051D01*
X30188Y-18165D01*
X30390Y-18249D01*
X30608Y-18250D01*
X30811Y-18166D01*
X30965Y-18011D01*
X31049Y-17809D01*
X31050Y-17591D01*
X31050Y-33755D01*
X30929Y-33755D01*
X30929Y-25175D01*
X30918Y-24967D01*
X30860Y-24827D01*
X30767Y-24802D01*
X30470Y-25100D01*
X30767Y-25397D01*
X30860Y-25372D01*
X30929Y-25175D01*
X30929Y-33755D01*
X30925Y-33755D01*
X30925Y-31996D01*
X30845Y-31803D01*
X30697Y-31655D01*
X30564Y-31599D01*
X30697Y-31545D01*
X30844Y-31397D01*
X30924Y-31204D01*
X30925Y-30996D01*
X30845Y-30803D01*
X30697Y-30655D01*
X30564Y-30599D01*
X30697Y-30545D01*
X30844Y-30397D01*
X30924Y-30204D01*
X30925Y-29996D01*
X30845Y-29803D01*
X30697Y-29655D01*
X30564Y-29599D01*
X30697Y-29545D01*
X30844Y-29397D01*
X30924Y-29204D01*
X30925Y-28996D01*
X30845Y-28803D01*
X30697Y-28655D01*
X30564Y-28599D01*
X30697Y-28545D01*
X30844Y-28397D01*
X30924Y-28204D01*
X30925Y-27996D01*
X30845Y-27803D01*
X30697Y-27655D01*
X30564Y-27599D01*
X30697Y-27545D01*
X30844Y-27397D01*
X30924Y-27204D01*
X30925Y-26996D01*
X30845Y-26803D01*
X30697Y-26655D01*
X30564Y-26599D01*
X30697Y-26545D01*
X30844Y-26397D01*
X30924Y-26204D01*
X30925Y-25996D01*
X30845Y-25803D01*
X30697Y-25655D01*
X30571Y-25602D01*
X30672Y-25560D01*
X30697Y-25467D01*
X30400Y-25170D01*
X30329Y-25241D01*
X30329Y-25100D01*
X30032Y-24802D01*
X29939Y-24827D01*
X29870Y-25024D01*
X29881Y-25232D01*
X29939Y-25372D01*
X30032Y-25397D01*
X30329Y-25100D01*
X30329Y-25241D01*
X30102Y-25467D01*
X30127Y-25560D01*
X30237Y-25599D01*
X30103Y-25654D01*
X29955Y-25802D01*
X29875Y-25995D01*
X29874Y-26203D01*
X29954Y-26397D01*
X30102Y-26544D01*
X30235Y-26600D01*
X30103Y-26654D01*
X29957Y-26800D01*
X29697Y-26800D01*
X29697Y-23367D01*
X29400Y-23070D01*
X29329Y-23141D01*
X29329Y-23000D01*
X29032Y-22702D01*
X28939Y-22727D01*
X28900Y-22837D01*
X28845Y-22703D01*
X28697Y-22555D01*
X28504Y-22475D01*
X28296Y-22474D01*
X28103Y-22554D01*
X27955Y-22702D01*
X27875Y-22895D01*
X27874Y-23103D01*
X27954Y-23297D01*
X28102Y-23444D01*
X28295Y-23524D01*
X28503Y-23525D01*
X28697Y-23445D01*
X28844Y-23297D01*
X28897Y-23171D01*
X28939Y-23272D01*
X29032Y-23297D01*
X29329Y-23000D01*
X29329Y-23141D01*
X29102Y-23367D01*
X29127Y-23460D01*
X29324Y-23529D01*
X29532Y-23518D01*
X29672Y-23460D01*
X29697Y-23367D01*
X29697Y-26800D01*
X29525Y-26800D01*
X29525Y-24896D01*
X29445Y-24703D01*
X29297Y-24555D01*
X29104Y-24475D01*
X28896Y-24474D01*
X28703Y-24554D01*
X28555Y-24702D01*
X28475Y-24895D01*
X28474Y-25103D01*
X28554Y-25297D01*
X28702Y-25444D01*
X28895Y-25524D01*
X29103Y-25525D01*
X29297Y-25445D01*
X29444Y-25297D01*
X29524Y-25104D01*
X29525Y-24896D01*
X29525Y-26800D01*
X28630Y-26800D01*
X28630Y-26695D01*
X28549Y-26500D01*
X28400Y-26350D01*
X28400Y-26350D01*
X28400Y-26100D01*
X28377Y-25985D01*
X28312Y-25887D01*
X28312Y-25887D01*
X27524Y-25100D01*
X27525Y-24896D01*
X27445Y-24703D01*
X27297Y-24555D01*
X27104Y-24475D01*
X26896Y-24474D01*
X26703Y-24554D01*
X26555Y-24702D01*
X26475Y-24895D01*
X26474Y-25103D01*
X26554Y-25297D01*
X26702Y-25444D01*
X26895Y-25524D01*
X27100Y-25525D01*
X27800Y-26224D01*
X27800Y-26350D01*
X27650Y-26499D01*
X27570Y-26694D01*
X27569Y-26904D01*
X27650Y-27099D01*
X27799Y-27249D01*
X27994Y-27329D01*
X28204Y-27330D01*
X28211Y-27327D01*
X28285Y-27377D01*
X28399Y-27399D01*
X28400Y-27400D01*
X29957Y-27400D01*
X30102Y-27544D01*
X30235Y-27600D01*
X30103Y-27654D01*
X29957Y-27800D01*
X28400Y-27800D01*
X28285Y-27822D01*
X28187Y-27887D01*
X27887Y-28187D01*
X27822Y-28285D01*
X27810Y-28346D01*
X27800Y-28350D01*
X27650Y-28499D01*
X27570Y-28694D01*
X27569Y-28904D01*
X27650Y-29099D01*
X27799Y-29249D01*
X27800Y-29249D01*
X27800Y-29375D01*
X27100Y-30075D01*
X26896Y-30074D01*
X26703Y-30154D01*
X26555Y-30302D01*
X26475Y-30495D01*
X26474Y-30703D01*
X26554Y-30897D01*
X26702Y-31044D01*
X26895Y-31124D01*
X27103Y-31125D01*
X27297Y-31045D01*
X27444Y-30897D01*
X27524Y-30704D01*
X27525Y-30499D01*
X28312Y-29712D01*
X28312Y-29712D01*
X28377Y-29614D01*
X28399Y-29500D01*
X28400Y-29500D01*
X28400Y-29249D01*
X28549Y-29100D01*
X28629Y-28905D01*
X28630Y-28695D01*
X28549Y-28500D01*
X28486Y-28437D01*
X28524Y-28400D01*
X29957Y-28400D01*
X30102Y-28544D01*
X30235Y-28600D01*
X30103Y-28654D01*
X29955Y-28802D01*
X29875Y-28995D01*
X29874Y-29203D01*
X29954Y-29397D01*
X30102Y-29544D01*
X30235Y-29600D01*
X30103Y-29654D01*
X29955Y-29802D01*
X29875Y-29995D01*
X29874Y-30200D01*
X29525Y-30550D01*
X29525Y-30496D01*
X29445Y-30303D01*
X29297Y-30155D01*
X29104Y-30075D01*
X28896Y-30074D01*
X28703Y-30154D01*
X28555Y-30302D01*
X28475Y-30495D01*
X28474Y-30703D01*
X28554Y-30897D01*
X28702Y-31044D01*
X28754Y-31066D01*
X28713Y-31083D01*
X28559Y-31238D01*
X28475Y-31440D01*
X28474Y-31658D01*
X28558Y-31861D01*
X28697Y-32000D01*
X28559Y-32138D01*
X28475Y-32340D01*
X28474Y-32505D01*
X28155Y-32825D01*
X26150Y-32825D01*
X26150Y-24341D01*
X26066Y-24138D01*
X25911Y-23984D01*
X25709Y-23900D01*
X25491Y-23899D01*
X25288Y-23983D01*
X25134Y-24138D01*
X25050Y-24340D01*
X25049Y-24558D01*
X25133Y-24761D01*
X25288Y-24915D01*
X25490Y-24999D01*
X25708Y-25000D01*
X25911Y-24916D01*
X26065Y-24761D01*
X26149Y-24559D01*
X26150Y-24341D01*
X26150Y-32825D01*
X25427Y-32825D01*
X25490Y-32761D01*
X25574Y-32559D01*
X25575Y-32341D01*
X25491Y-32138D01*
X25352Y-31999D01*
X25490Y-31861D01*
X25574Y-31659D01*
X25575Y-31441D01*
X25491Y-31238D01*
X25336Y-31084D01*
X25134Y-31000D01*
X24916Y-30999D01*
X24821Y-31038D01*
X24821Y-29157D01*
X24821Y-26165D01*
X24754Y-26001D01*
X24628Y-25875D01*
X24464Y-25807D01*
X24286Y-25807D01*
X24122Y-25874D01*
X23996Y-26000D01*
X23928Y-26164D01*
X23928Y-26205D01*
X22150Y-27983D01*
X22150Y-24341D01*
X22066Y-24138D01*
X21911Y-23984D01*
X21709Y-23900D01*
X21491Y-23899D01*
X21288Y-23983D01*
X21212Y-24059D01*
X21111Y-23959D01*
X20909Y-23875D01*
X20691Y-23874D01*
X20488Y-23958D01*
X20334Y-24113D01*
X20250Y-24315D01*
X20249Y-24533D01*
X20333Y-24736D01*
X20488Y-24890D01*
X20662Y-24963D01*
X20537Y-25087D01*
X20472Y-25185D01*
X20450Y-25300D01*
X20450Y-25596D01*
X20421Y-25608D01*
X20258Y-25771D01*
X20170Y-25984D01*
X20169Y-26214D01*
X20258Y-26428D01*
X20421Y-26591D01*
X20441Y-26599D01*
X20421Y-26608D01*
X20258Y-26771D01*
X20170Y-26984D01*
X20169Y-27214D01*
X20258Y-27428D01*
X20421Y-27591D01*
X20634Y-27679D01*
X20864Y-27680D01*
X21078Y-27591D01*
X21241Y-27428D01*
X21329Y-27215D01*
X21330Y-26985D01*
X21241Y-26771D01*
X21078Y-26608D01*
X21058Y-26600D01*
X21078Y-26591D01*
X21241Y-26428D01*
X21329Y-26215D01*
X21330Y-25985D01*
X21241Y-25771D01*
X21078Y-25608D01*
X21050Y-25596D01*
X21050Y-25424D01*
X21478Y-24995D01*
X21490Y-24999D01*
X21708Y-25000D01*
X21911Y-24916D01*
X22065Y-24761D01*
X22149Y-24559D01*
X22150Y-24341D01*
X22150Y-27983D01*
X22123Y-28010D01*
X21667Y-28010D01*
X21551Y-27894D01*
X21349Y-27810D01*
X21131Y-27809D01*
X20928Y-27893D01*
X20774Y-28048D01*
X20690Y-28250D01*
X20689Y-28468D01*
X20773Y-28671D01*
X20928Y-28825D01*
X21130Y-28909D01*
X21348Y-28910D01*
X21551Y-28826D01*
X21667Y-28710D01*
X22268Y-28710D01*
X22402Y-28683D01*
X22402Y-28683D01*
X22516Y-28607D01*
X24423Y-26700D01*
X24463Y-26700D01*
X24627Y-26632D01*
X24753Y-26507D01*
X24821Y-26343D01*
X24821Y-26165D01*
X24821Y-29157D01*
X24754Y-28993D01*
X24628Y-28867D01*
X24464Y-28799D01*
X24286Y-28799D01*
X24122Y-28867D01*
X23996Y-28992D01*
X23928Y-29156D01*
X23928Y-29334D01*
X23995Y-29498D01*
X24121Y-29624D01*
X24285Y-29692D01*
X24463Y-29692D01*
X24627Y-29625D01*
X24753Y-29499D01*
X24821Y-29335D01*
X24821Y-29157D01*
X24821Y-31038D01*
X24713Y-31083D01*
X24559Y-31238D01*
X24554Y-31250D01*
X23767Y-31250D01*
X23747Y-31230D01*
X23614Y-31174D01*
X23747Y-31120D01*
X23894Y-30972D01*
X23974Y-30779D01*
X23975Y-30571D01*
X23895Y-30378D01*
X23747Y-30230D01*
X23554Y-30150D01*
X23346Y-30149D01*
X23153Y-30229D01*
X23005Y-30377D01*
X22925Y-30570D01*
X22924Y-30778D01*
X23004Y-30972D01*
X23152Y-31119D01*
X23285Y-31175D01*
X23153Y-31229D01*
X23005Y-31377D01*
X22975Y-31449D01*
X22975Y-31350D01*
X22937Y-31258D01*
X22866Y-31188D01*
X22774Y-31150D01*
X22675Y-31149D01*
X22125Y-31149D01*
X22033Y-31187D01*
X21963Y-31258D01*
X21935Y-31325D01*
X21925Y-31325D01*
X21791Y-31351D01*
X21677Y-31427D01*
X21294Y-31810D01*
X21131Y-31809D01*
X20928Y-31893D01*
X20774Y-32048D01*
X20690Y-32250D01*
X20689Y-32468D01*
X20773Y-32671D01*
X20927Y-32825D01*
X20525Y-32825D01*
X20525Y-31496D01*
X20445Y-31303D01*
X20297Y-31155D01*
X20104Y-31075D01*
X19896Y-31074D01*
X19703Y-31154D01*
X19555Y-31302D01*
X19502Y-31428D01*
X19460Y-31327D01*
X19380Y-31306D01*
X19380Y-28985D01*
X19291Y-28771D01*
X19128Y-28608D01*
X19108Y-28600D01*
X19128Y-28591D01*
X19291Y-28428D01*
X19379Y-28215D01*
X19380Y-27985D01*
X19291Y-27771D01*
X19128Y-27608D01*
X18915Y-27520D01*
X18685Y-27519D01*
X18471Y-27608D01*
X18308Y-27771D01*
X18220Y-27984D01*
X18219Y-28214D01*
X18308Y-28428D01*
X18471Y-28591D01*
X18491Y-28599D01*
X18471Y-28608D01*
X18308Y-28771D01*
X18220Y-28984D01*
X18219Y-29214D01*
X18308Y-29428D01*
X18471Y-29591D01*
X18684Y-29679D01*
X18914Y-29680D01*
X19128Y-29591D01*
X19291Y-29428D01*
X19379Y-29215D01*
X19380Y-28985D01*
X19380Y-31306D01*
X19367Y-31302D01*
X19350Y-31320D01*
X19350Y-30291D01*
X19266Y-30088D01*
X19111Y-29934D01*
X18909Y-29850D01*
X18691Y-29849D01*
X18488Y-29933D01*
X18334Y-30088D01*
X18250Y-30290D01*
X18249Y-30508D01*
X18333Y-30711D01*
X18488Y-30865D01*
X18690Y-30949D01*
X18908Y-30950D01*
X19111Y-30866D01*
X19265Y-30711D01*
X19349Y-30509D01*
X19350Y-30291D01*
X19350Y-31320D01*
X19297Y-31373D01*
X19297Y-31232D01*
X19272Y-31139D01*
X19075Y-31070D01*
X18867Y-31081D01*
X18727Y-31139D01*
X18702Y-31232D01*
X19000Y-31529D01*
X19297Y-31232D01*
X19297Y-31373D01*
X19070Y-31600D01*
X19367Y-31897D01*
X19460Y-31872D01*
X19499Y-31762D01*
X19554Y-31897D01*
X19702Y-32044D01*
X19895Y-32124D01*
X20103Y-32125D01*
X20297Y-32045D01*
X20444Y-31897D01*
X20524Y-31704D01*
X20525Y-31496D01*
X20525Y-32825D01*
X19297Y-32825D01*
X19297Y-31967D01*
X19000Y-31670D01*
X18929Y-31741D01*
X18929Y-31600D01*
X18632Y-31302D01*
X18539Y-31327D01*
X18470Y-31524D01*
X18481Y-31732D01*
X18539Y-31872D01*
X18632Y-31897D01*
X18929Y-31600D01*
X18929Y-31741D01*
X18702Y-31967D01*
X18727Y-32060D01*
X18924Y-32129D01*
X19132Y-32118D01*
X19272Y-32060D01*
X19297Y-31967D01*
X19297Y-32825D01*
X18469Y-32825D01*
X18097Y-32452D01*
X18050Y-32420D01*
X18050Y-31780D01*
X18039Y-31563D01*
X17977Y-31414D01*
X17882Y-31388D01*
X17811Y-31458D01*
X17811Y-31317D01*
X17785Y-31222D01*
X17580Y-31149D01*
X17525Y-31152D01*
X17525Y-26515D01*
X17460Y-26359D01*
X17341Y-26239D01*
X17184Y-26175D01*
X17100Y-26174D01*
X17100Y-26101D01*
X17160Y-26041D01*
X17224Y-25884D01*
X17225Y-25715D01*
X17160Y-25559D01*
X17041Y-25439D01*
X16884Y-25375D01*
X16715Y-25374D01*
X16559Y-25439D01*
X16439Y-25558D01*
X16375Y-25715D01*
X16374Y-25884D01*
X16439Y-26040D01*
X16500Y-26101D01*
X16500Y-26300D01*
X16522Y-26414D01*
X16587Y-26512D01*
X16675Y-26599D01*
X16674Y-26684D01*
X16739Y-26840D01*
X16858Y-26960D01*
X17015Y-27024D01*
X17184Y-27025D01*
X17340Y-26960D01*
X17460Y-26841D01*
X17524Y-26684D01*
X17525Y-26515D01*
X17525Y-31152D01*
X17363Y-31160D01*
X17214Y-31222D01*
X17188Y-31317D01*
X17500Y-31629D01*
X17811Y-31317D01*
X17811Y-31458D01*
X17570Y-31700D01*
X17882Y-32011D01*
X17977Y-31985D01*
X18050Y-31780D01*
X18050Y-32420D01*
X17983Y-32376D01*
X17938Y-32367D01*
X17938Y-32367D01*
X17809Y-32238D01*
X17724Y-32202D01*
X17785Y-32177D01*
X17811Y-32082D01*
X17500Y-31770D01*
X17429Y-31841D01*
X17429Y-31700D01*
X17117Y-31388D01*
X17022Y-31414D01*
X16949Y-31619D01*
X16960Y-31836D01*
X17022Y-31985D01*
X17117Y-32011D01*
X17429Y-31700D01*
X17429Y-31841D01*
X17188Y-32082D01*
X17214Y-32177D01*
X17280Y-32200D01*
X17191Y-32237D01*
X17038Y-32390D01*
X16954Y-32591D01*
X16954Y-32807D01*
X17037Y-33008D01*
X17190Y-33161D01*
X17391Y-33245D01*
X17607Y-33245D01*
X17808Y-33162D01*
X17813Y-33157D01*
X18077Y-33422D01*
X18077Y-33422D01*
X18191Y-33498D01*
X18325Y-33525D01*
X28300Y-33525D01*
X28433Y-33498D01*
X28433Y-33498D01*
X28547Y-33422D01*
X28970Y-32999D01*
X29133Y-33000D01*
X29336Y-32916D01*
X29490Y-32761D01*
X29574Y-32559D01*
X29575Y-32341D01*
X29570Y-32329D01*
X29875Y-32024D01*
X29874Y-32203D01*
X29954Y-32397D01*
X30102Y-32544D01*
X30295Y-32624D01*
X30503Y-32625D01*
X30697Y-32545D01*
X30844Y-32397D01*
X30924Y-32204D01*
X30925Y-31996D01*
X30925Y-33755D01*
X16075Y-33755D01*
X16075Y-29121D01*
X15995Y-28928D01*
X15847Y-28780D01*
X15654Y-28700D01*
X15446Y-28699D01*
X15253Y-28779D01*
X15105Y-28927D01*
X15025Y-29120D01*
X15024Y-29328D01*
X15104Y-29522D01*
X15252Y-29669D01*
X15445Y-29749D01*
X15653Y-29750D01*
X15847Y-29670D01*
X15994Y-29522D01*
X16074Y-29329D01*
X16075Y-29121D01*
X16075Y-33755D01*
X15350Y-33755D01*
X15350Y-30291D01*
X15266Y-30088D01*
X15111Y-29934D01*
X14909Y-29850D01*
X14691Y-29849D01*
X14488Y-29933D01*
X14334Y-30088D01*
X14250Y-30290D01*
X14249Y-30508D01*
X14333Y-30711D01*
X14488Y-30865D01*
X14690Y-30949D01*
X14908Y-30950D01*
X15111Y-30866D01*
X15265Y-30711D01*
X15349Y-30509D01*
X15350Y-30291D01*
X15350Y-33755D01*
X14075Y-33755D01*
X14075Y-29121D01*
X13995Y-28928D01*
X13847Y-28780D01*
X13654Y-28700D01*
X13446Y-28699D01*
X13253Y-28779D01*
X13105Y-28927D01*
X13025Y-29120D01*
X13024Y-29328D01*
X13104Y-29522D01*
X13252Y-29669D01*
X13445Y-29749D01*
X13653Y-29750D01*
X13847Y-29670D01*
X13994Y-29522D01*
X14074Y-29329D01*
X14075Y-29121D01*
X14075Y-33755D01*
X12969Y-33755D01*
X12969Y-33400D01*
X12969Y-27960D01*
X12987Y-27972D01*
X13151Y-28005D01*
X13448Y-28005D01*
X13612Y-27972D01*
X13750Y-27880D01*
X13843Y-27741D01*
X13876Y-27577D01*
X13843Y-27414D01*
X13750Y-27275D01*
X13612Y-27183D01*
X13448Y-27150D01*
X13151Y-27150D01*
X12987Y-27183D01*
X12969Y-27195D01*
X12969Y-25204D01*
X12987Y-25216D01*
X13151Y-25249D01*
X13448Y-25249D01*
X13612Y-25216D01*
X13750Y-25124D01*
X13843Y-24985D01*
X13876Y-24822D01*
X13843Y-24658D01*
X13750Y-24519D01*
X13612Y-24427D01*
X13448Y-24394D01*
X13151Y-24394D01*
X12987Y-24427D01*
X12969Y-24439D01*
X12969Y-9400D01*
X12969Y-9045D01*
X42000Y-9045D01*
X42000Y-9839D01*
X41860Y-9699D01*
X41639Y-9608D01*
X41401Y-9607D01*
X41180Y-9699D01*
X41019Y-9859D01*
X40860Y-9699D01*
X40639Y-9608D01*
X40401Y-9607D01*
X40180Y-9699D01*
X40011Y-9867D01*
X40007Y-9878D01*
X39942Y-9856D01*
X39871Y-9927D01*
X39871Y-9785D01*
X39837Y-9685D01*
X39613Y-9603D01*
X39375Y-9613D01*
X39202Y-9685D01*
X39168Y-9785D01*
X39520Y-10137D01*
X39871Y-9785D01*
X39871Y-9927D01*
X39590Y-10208D01*
X39942Y-10559D01*
X40007Y-10537D01*
X40011Y-10547D01*
X40179Y-10716D01*
X40400Y-10807D01*
X40638Y-10808D01*
X40859Y-10716D01*
X41020Y-10556D01*
X41179Y-10716D01*
X41400Y-10807D01*
X41638Y-10808D01*
X41859Y-10716D01*
X42000Y-10576D01*
X42000Y-11365D01*
X42000Y-11365D01*
G37*
G54D24*
X42000Y-11365D02*
X39871Y-11365D01*
X39871Y-10630D01*
X39520Y-10278D01*
X39449Y-10349D01*
X39449Y-10208D01*
X39097Y-9856D01*
X38997Y-9890D01*
X38915Y-10114D01*
X38925Y-10352D01*
X38997Y-10525D01*
X39097Y-10559D01*
X39449Y-10208D01*
X39449Y-10349D01*
X39168Y-10630D01*
X39202Y-10730D01*
X39426Y-10812D01*
X39664Y-10802D01*
X39837Y-10730D01*
X39871Y-10630D01*
X39871Y-11365D01*
X35170Y-11365D01*
X35170Y-23069D01*
X35164Y-23056D01*
X35164Y-18241D01*
X35153Y-18023D01*
X35091Y-17872D01*
X35050Y-17860D01*
X35050Y-16166D01*
X35050Y-12166D01*
X34966Y-11963D01*
X34811Y-11809D01*
X34800Y-11804D01*
X34800Y-11195D01*
X34916Y-11078D01*
X35004Y-10865D01*
X35005Y-10635D01*
X34916Y-10421D01*
X34753Y-10258D01*
X34540Y-10170D01*
X34310Y-10169D01*
X34096Y-10258D01*
X33933Y-10421D01*
X33925Y-10441D01*
X33916Y-10421D01*
X33753Y-10258D01*
X33540Y-10170D01*
X33310Y-10169D01*
X33096Y-10258D01*
X32933Y-10421D01*
X32845Y-10634D01*
X32844Y-10864D01*
X32933Y-11078D01*
X33096Y-11241D01*
X33309Y-11329D01*
X33539Y-11330D01*
X33753Y-11241D01*
X33916Y-11078D01*
X33924Y-11058D01*
X33933Y-11078D01*
X34096Y-11241D01*
X34200Y-11284D01*
X34200Y-11803D01*
X34188Y-11808D01*
X34034Y-11963D01*
X33950Y-12165D01*
X33949Y-12383D01*
X34033Y-12586D01*
X34188Y-12740D01*
X34390Y-12824D01*
X34608Y-12825D01*
X34811Y-12741D01*
X34965Y-12586D01*
X35049Y-12384D01*
X35050Y-12166D01*
X35050Y-16166D01*
X34966Y-15963D01*
X34811Y-15809D01*
X34609Y-15725D01*
X34391Y-15724D01*
X34379Y-15729D01*
X33835Y-15185D01*
X33835Y-14755D01*
X33797Y-14663D01*
X33726Y-14593D01*
X33634Y-14555D01*
X33535Y-14554D01*
X32985Y-14554D01*
X32893Y-14592D01*
X32823Y-14663D01*
X32785Y-14755D01*
X32784Y-14854D01*
X32784Y-14854D01*
X32755Y-14783D01*
X32607Y-14635D01*
X32414Y-14555D01*
X32206Y-14554D01*
X32013Y-14634D01*
X31935Y-14711D01*
X31554Y-14330D01*
X31618Y-14330D01*
X31821Y-14246D01*
X31967Y-14100D01*
X33668Y-14100D01*
X33678Y-14110D01*
X33835Y-14174D01*
X34004Y-14175D01*
X34160Y-14110D01*
X34280Y-13991D01*
X34344Y-13834D01*
X34345Y-13665D01*
X34280Y-13509D01*
X34161Y-13389D01*
X34004Y-13325D01*
X33835Y-13324D01*
X33679Y-13389D01*
X33568Y-13500D01*
X32060Y-13500D01*
X32060Y-9671D01*
X31976Y-9468D01*
X31821Y-9314D01*
X31619Y-9230D01*
X31401Y-9229D01*
X31198Y-9313D01*
X31044Y-9468D01*
X30960Y-9670D01*
X30959Y-9888D01*
X31043Y-10091D01*
X31198Y-10245D01*
X31400Y-10329D01*
X31618Y-10330D01*
X31821Y-10246D01*
X31975Y-10091D01*
X32059Y-9889D01*
X32060Y-9671D01*
X32060Y-13500D01*
X31989Y-13500D01*
X31976Y-13468D01*
X31821Y-13314D01*
X31619Y-13230D01*
X31401Y-13229D01*
X31198Y-13313D01*
X31044Y-13468D01*
X31021Y-13522D01*
X30966Y-13388D01*
X30811Y-13234D01*
X30609Y-13150D01*
X30391Y-13149D01*
X30188Y-13233D01*
X30034Y-13388D01*
X29950Y-13590D01*
X29949Y-13808D01*
X30033Y-14011D01*
X30188Y-14165D01*
X30390Y-14249D01*
X30608Y-14250D01*
X30620Y-14245D01*
X31687Y-15312D01*
X31687Y-15312D01*
X31785Y-15377D01*
X31884Y-15396D01*
X32012Y-15524D01*
X32145Y-15580D01*
X32013Y-15634D01*
X31865Y-15782D01*
X31785Y-15975D01*
X31784Y-16183D01*
X31864Y-16377D01*
X31946Y-16458D01*
X31629Y-16775D01*
X31496Y-16774D01*
X31303Y-16854D01*
X31155Y-17002D01*
X31075Y-17195D01*
X31074Y-17403D01*
X31154Y-17597D01*
X31302Y-17744D01*
X31495Y-17824D01*
X31703Y-17825D01*
X31897Y-17745D01*
X32044Y-17597D01*
X32124Y-17404D01*
X32125Y-17269D01*
X32547Y-16847D01*
X32547Y-16847D01*
X32547Y-16847D01*
X32623Y-16733D01*
X32650Y-16600D01*
X32649Y-16600D01*
X32650Y-16600D01*
X32650Y-16482D01*
X32754Y-16377D01*
X32834Y-16184D01*
X32835Y-15976D01*
X32755Y-15783D01*
X32607Y-15635D01*
X32474Y-15579D01*
X32607Y-15525D01*
X32754Y-15377D01*
X32784Y-15305D01*
X32784Y-15404D01*
X32822Y-15496D01*
X32893Y-15566D01*
X32985Y-15604D01*
X33084Y-15605D01*
X33405Y-15605D01*
X33954Y-16153D01*
X33950Y-16165D01*
X33949Y-16383D01*
X34033Y-16586D01*
X34188Y-16740D01*
X34390Y-16824D01*
X34608Y-16825D01*
X34811Y-16741D01*
X34965Y-16586D01*
X35049Y-16384D01*
X35050Y-16166D01*
X35050Y-17860D01*
X34995Y-17844D01*
X34925Y-17915D01*
X34925Y-17774D01*
X34897Y-17678D01*
X34691Y-17605D01*
X34473Y-17616D01*
X34322Y-17678D01*
X34294Y-17774D01*
X34610Y-18089D01*
X34925Y-17774D01*
X34925Y-17915D01*
X34680Y-18160D01*
X34995Y-18475D01*
X35091Y-18447D01*
X35164Y-18241D01*
X35164Y-23056D01*
X35101Y-22903D01*
X34946Y-22749D01*
X34786Y-22682D01*
X34921Y-22626D01*
X35075Y-22471D01*
X35159Y-22269D01*
X35160Y-22051D01*
X35076Y-21848D01*
X34925Y-21697D01*
X34925Y-18545D01*
X34610Y-18230D01*
X34539Y-18301D01*
X34539Y-18160D01*
X34224Y-17844D01*
X34128Y-17872D01*
X34125Y-17882D01*
X34125Y-17196D01*
X34045Y-17003D01*
X33897Y-16855D01*
X33704Y-16775D01*
X33496Y-16774D01*
X33303Y-16854D01*
X33155Y-17002D01*
X33075Y-17195D01*
X33074Y-17403D01*
X33154Y-17597D01*
X33302Y-17744D01*
X33495Y-17824D01*
X33703Y-17825D01*
X33897Y-17745D01*
X34044Y-17597D01*
X34124Y-17404D01*
X34125Y-17196D01*
X34125Y-17882D01*
X34055Y-18078D01*
X34066Y-18296D01*
X34128Y-18447D01*
X34224Y-18475D01*
X34539Y-18160D01*
X34539Y-18301D01*
X34294Y-18545D01*
X34322Y-18641D01*
X34528Y-18714D01*
X34746Y-18703D01*
X34897Y-18641D01*
X34925Y-18545D01*
X34925Y-21697D01*
X34921Y-21694D01*
X34719Y-21610D01*
X34501Y-21609D01*
X34298Y-21693D01*
X34190Y-21802D01*
X34190Y-19791D01*
X34210Y-19771D01*
X34274Y-19614D01*
X34275Y-19445D01*
X34210Y-19289D01*
X34091Y-19169D01*
X33934Y-19105D01*
X33924Y-19105D01*
X33925Y-18996D01*
X33845Y-18803D01*
X33697Y-18655D01*
X33504Y-18575D01*
X33296Y-18574D01*
X33103Y-18654D01*
X32955Y-18802D01*
X32875Y-18995D01*
X32874Y-19203D01*
X32954Y-19397D01*
X33102Y-19544D01*
X33235Y-19600D01*
X33103Y-19654D01*
X32955Y-19802D01*
X32875Y-19995D01*
X32874Y-20203D01*
X32954Y-20397D01*
X33102Y-20544D01*
X33235Y-20600D01*
X33103Y-20654D01*
X32955Y-20802D01*
X32875Y-20995D01*
X32874Y-21203D01*
X32954Y-21397D01*
X33102Y-21544D01*
X33235Y-21600D01*
X33103Y-21654D01*
X32955Y-21802D01*
X32875Y-21995D01*
X32874Y-22203D01*
X32954Y-22397D01*
X33102Y-22544D01*
X33235Y-22600D01*
X33103Y-22654D01*
X32955Y-22802D01*
X32875Y-22995D01*
X32874Y-23203D01*
X32954Y-23397D01*
X33102Y-23544D01*
X33235Y-23600D01*
X33103Y-23654D01*
X32955Y-23802D01*
X32875Y-23995D01*
X32874Y-24203D01*
X32954Y-24397D01*
X33102Y-24544D01*
X33235Y-24600D01*
X33103Y-24654D01*
X32955Y-24802D01*
X32875Y-24995D01*
X32874Y-25203D01*
X32954Y-25397D01*
X33102Y-25544D01*
X33235Y-25600D01*
X33103Y-25654D01*
X32955Y-25802D01*
X32875Y-25995D01*
X32874Y-26203D01*
X32954Y-26397D01*
X33102Y-26544D01*
X33235Y-26600D01*
X33103Y-26654D01*
X32955Y-26802D01*
X32875Y-26995D01*
X32874Y-27203D01*
X32954Y-27397D01*
X33102Y-27544D01*
X33235Y-27600D01*
X33103Y-27654D01*
X32955Y-27802D01*
X32875Y-27995D01*
X32874Y-28203D01*
X32954Y-28397D01*
X33102Y-28544D01*
X33235Y-28600D01*
X33103Y-28654D01*
X32955Y-28802D01*
X32875Y-28995D01*
X32874Y-29203D01*
X32954Y-29397D01*
X33102Y-29544D01*
X33235Y-29600D01*
X33103Y-29654D01*
X32955Y-29802D01*
X32875Y-29995D01*
X32874Y-30203D01*
X32954Y-30397D01*
X33102Y-30544D01*
X33235Y-30600D01*
X33103Y-30654D01*
X32955Y-30802D01*
X32875Y-30995D01*
X32874Y-31203D01*
X32954Y-31397D01*
X33102Y-31544D01*
X33235Y-31600D01*
X33103Y-31654D01*
X32955Y-31802D01*
X32875Y-31995D01*
X32874Y-32203D01*
X32954Y-32397D01*
X33102Y-32544D01*
X33295Y-32624D01*
X33503Y-32625D01*
X33697Y-32545D01*
X33844Y-32397D01*
X33924Y-32204D01*
X33925Y-31996D01*
X33845Y-31803D01*
X33697Y-31655D01*
X33564Y-31599D01*
X33697Y-31545D01*
X33844Y-31397D01*
X33924Y-31204D01*
X33925Y-30996D01*
X33845Y-30803D01*
X33697Y-30655D01*
X33564Y-30599D01*
X33697Y-30545D01*
X33844Y-30397D01*
X33924Y-30204D01*
X33925Y-29996D01*
X33845Y-29803D01*
X33697Y-29655D01*
X33564Y-29599D01*
X33697Y-29545D01*
X33844Y-29397D01*
X33924Y-29204D01*
X33925Y-28996D01*
X33845Y-28803D01*
X33697Y-28655D01*
X33564Y-28599D01*
X33697Y-28545D01*
X33792Y-28450D01*
X35170Y-28450D01*
X35170Y-33755D01*
X31050Y-33755D01*
X31050Y-17591D01*
X30966Y-17388D01*
X30811Y-17234D01*
X30609Y-17150D01*
X30391Y-17149D01*
X30188Y-17233D01*
X30074Y-17347D01*
X30066Y-17339D01*
X29909Y-17275D01*
X29740Y-17274D01*
X29600Y-17333D01*
X29600Y-15671D01*
X29611Y-15666D01*
X29765Y-15511D01*
X29849Y-15309D01*
X29850Y-15091D01*
X29766Y-14888D01*
X29611Y-14734D01*
X29530Y-14700D01*
X29611Y-14666D01*
X29765Y-14511D01*
X29849Y-14309D01*
X29850Y-14091D01*
X29766Y-13888D01*
X29611Y-13734D01*
X29530Y-13700D01*
X29611Y-13666D01*
X29765Y-13511D01*
X29849Y-13309D01*
X29850Y-13091D01*
X29766Y-12888D01*
X29611Y-12734D01*
X29530Y-12700D01*
X29611Y-12666D01*
X29765Y-12511D01*
X29849Y-12309D01*
X29850Y-12147D01*
X29915Y-12174D01*
X30084Y-12175D01*
X30240Y-12110D01*
X30360Y-11991D01*
X30424Y-11834D01*
X30425Y-11665D01*
X30360Y-11509D01*
X30241Y-11389D01*
X30084Y-11325D01*
X29915Y-11324D01*
X29828Y-11360D01*
X29849Y-11309D01*
X29850Y-11091D01*
X29766Y-10888D01*
X29627Y-10750D01*
X29649Y-10750D01*
X29741Y-10712D01*
X29811Y-10641D01*
X29849Y-10549D01*
X29850Y-10450D01*
X29850Y-9850D01*
X29812Y-9758D01*
X29741Y-9688D01*
X29649Y-9650D01*
X29550Y-9649D01*
X28950Y-9649D01*
X28858Y-9687D01*
X28788Y-9758D01*
X28750Y-9850D01*
X28749Y-9949D01*
X28749Y-10549D01*
X28787Y-10641D01*
X28858Y-10711D01*
X28950Y-10749D01*
X28972Y-10749D01*
X28834Y-10888D01*
X28750Y-11090D01*
X28749Y-11308D01*
X28778Y-11376D01*
X28741Y-11339D01*
X28584Y-11275D01*
X28415Y-11274D01*
X28259Y-11339D01*
X28139Y-11458D01*
X28075Y-11615D01*
X28074Y-11784D01*
X28139Y-11940D01*
X28258Y-12060D01*
X28415Y-12124D01*
X28584Y-12125D01*
X28740Y-12060D01*
X28777Y-12023D01*
X28750Y-12090D01*
X28749Y-12308D01*
X28833Y-12511D01*
X28988Y-12665D01*
X29069Y-12699D01*
X28988Y-12733D01*
X28834Y-12888D01*
X28750Y-13090D01*
X28749Y-13308D01*
X28751Y-13313D01*
X27950Y-14115D01*
X27950Y-13300D01*
X27950Y-9800D01*
X27912Y-9708D01*
X27841Y-9638D01*
X27749Y-9600D01*
X27650Y-9599D01*
X24150Y-9599D01*
X24058Y-9637D01*
X23988Y-9708D01*
X23950Y-9800D01*
X23949Y-9899D01*
X23949Y-13399D01*
X23987Y-13491D01*
X24058Y-13561D01*
X24150Y-13599D01*
X24249Y-13600D01*
X27749Y-13600D01*
X27841Y-13562D01*
X27911Y-13491D01*
X27949Y-13399D01*
X27950Y-13300D01*
X27950Y-14115D01*
X27237Y-14827D01*
X27172Y-14925D01*
X27150Y-15040D01*
X27150Y-15497D01*
X27094Y-15475D01*
X27080Y-15475D01*
X26907Y-15302D01*
X26793Y-15226D01*
X26660Y-15200D01*
X20054Y-15200D01*
X20054Y-10693D01*
X20044Y-10455D01*
X19972Y-10282D01*
X19872Y-10248D01*
X19801Y-10319D01*
X19801Y-10177D01*
X19767Y-10077D01*
X19543Y-9995D01*
X19305Y-10005D01*
X19132Y-10077D01*
X19098Y-10177D01*
X19450Y-10529D01*
X19801Y-10177D01*
X19801Y-10319D01*
X19520Y-10600D01*
X19872Y-10951D01*
X19972Y-10917D01*
X20054Y-10693D01*
X20054Y-15200D01*
X18670Y-15200D01*
X18075Y-15200D01*
X18075Y-14605D01*
X18075Y-12880D01*
X18075Y-12639D01*
X18764Y-11950D01*
X18951Y-11950D01*
X19015Y-12014D01*
X18958Y-12037D01*
X18888Y-12108D01*
X18850Y-12200D01*
X18849Y-12299D01*
X18849Y-12999D01*
X18887Y-13091D01*
X18958Y-13161D01*
X19050Y-13199D01*
X19149Y-13200D01*
X19849Y-13200D01*
X19941Y-13162D01*
X20011Y-13091D01*
X20049Y-12999D01*
X20050Y-12900D01*
X20050Y-12200D01*
X20012Y-12108D01*
X19941Y-12038D01*
X19884Y-12014D01*
X19958Y-11940D01*
X20049Y-11719D01*
X20050Y-11481D01*
X19958Y-11260D01*
X19790Y-11091D01*
X19779Y-11087D01*
X19801Y-11022D01*
X19450Y-10670D01*
X19379Y-10741D01*
X19379Y-10600D01*
X19027Y-10248D01*
X18927Y-10282D01*
X18845Y-10506D01*
X18855Y-10744D01*
X18927Y-10917D01*
X19027Y-10951D01*
X19379Y-10600D01*
X19379Y-10741D01*
X19098Y-11022D01*
X19120Y-11087D01*
X19110Y-11091D01*
X18951Y-11250D01*
X18620Y-11250D01*
X18486Y-11276D01*
X18372Y-11352D01*
X18372Y-11352D01*
X18045Y-11679D01*
X18045Y-11592D01*
X17962Y-11391D01*
X17809Y-11238D01*
X17717Y-11200D01*
X17808Y-11162D01*
X17961Y-11009D01*
X18045Y-10808D01*
X18045Y-10592D01*
X17962Y-10391D01*
X17809Y-10238D01*
X17608Y-10154D01*
X17392Y-10154D01*
X17191Y-10237D01*
X17078Y-10350D01*
X16550Y-10350D01*
X16549Y-10350D01*
X16416Y-10376D01*
X16302Y-10452D01*
X16302Y-10452D01*
X14255Y-12499D01*
X13850Y-12499D01*
X13758Y-12537D01*
X13688Y-12608D01*
X13650Y-12700D01*
X13649Y-12799D01*
X13649Y-13399D01*
X13687Y-13491D01*
X13758Y-13561D01*
X13850Y-13599D01*
X13949Y-13600D01*
X14549Y-13600D01*
X14641Y-13562D01*
X14711Y-13491D01*
X14749Y-13399D01*
X14749Y-13377D01*
X14888Y-13515D01*
X15090Y-13599D01*
X15308Y-13600D01*
X15511Y-13516D01*
X15665Y-13361D01*
X15699Y-13280D01*
X15733Y-13361D01*
X15888Y-13515D01*
X16090Y-13599D01*
X16308Y-13600D01*
X16511Y-13516D01*
X16665Y-13361D01*
X16749Y-13159D01*
X16750Y-12941D01*
X16691Y-12800D01*
X17375Y-12800D01*
X17375Y-12880D01*
X17375Y-14605D01*
X17375Y-15550D01*
X17375Y-25040D01*
X17350Y-25100D01*
X17350Y-24316D01*
X17266Y-24113D01*
X17111Y-23959D01*
X16909Y-23875D01*
X16691Y-23874D01*
X16488Y-23958D01*
X16334Y-24113D01*
X16250Y-24315D01*
X16249Y-24533D01*
X16333Y-24736D01*
X16488Y-24890D01*
X16690Y-24974D01*
X16908Y-24975D01*
X17111Y-24891D01*
X17265Y-24736D01*
X17349Y-24534D01*
X17350Y-24316D01*
X17350Y-25100D01*
X17315Y-25185D01*
X17314Y-25354D01*
X17379Y-25510D01*
X17498Y-25630D01*
X17655Y-25694D01*
X17824Y-25695D01*
X17980Y-25630D01*
X18100Y-25511D01*
X18164Y-25354D01*
X18165Y-25185D01*
X18100Y-25029D01*
X18075Y-25004D01*
X18075Y-15900D01*
X18670Y-15900D01*
X26515Y-15900D01*
X26584Y-15969D01*
X26584Y-15984D01*
X26649Y-16140D01*
X26768Y-16260D01*
X26925Y-16324D01*
X27094Y-16325D01*
X27150Y-16302D01*
X27150Y-20049D01*
X27140Y-20100D01*
X27162Y-20214D01*
X27227Y-20312D01*
X27325Y-20377D01*
X27325Y-20377D01*
X27440Y-20400D01*
X27998Y-20400D01*
X27939Y-20458D01*
X27875Y-20615D01*
X27874Y-20784D01*
X27939Y-20940D01*
X28058Y-21060D01*
X28215Y-21124D01*
X28300Y-21125D01*
X28487Y-21312D01*
X28487Y-21312D01*
X28585Y-21377D01*
X28699Y-21399D01*
X28700Y-21400D01*
X29957Y-21400D01*
X30102Y-21544D01*
X30235Y-21600D01*
X30103Y-21654D01*
X30016Y-21740D01*
X29941Y-21664D01*
X29784Y-21600D01*
X29615Y-21599D01*
X29459Y-21664D01*
X29339Y-21783D01*
X29275Y-21940D01*
X29274Y-22109D01*
X29339Y-22265D01*
X29458Y-22385D01*
X29615Y-22449D01*
X29700Y-22450D01*
X30004Y-22753D01*
X29955Y-22802D01*
X29919Y-22887D01*
X29918Y-22867D01*
X29860Y-22727D01*
X29767Y-22702D01*
X29697Y-22773D01*
X29697Y-22632D01*
X29672Y-22539D01*
X29475Y-22470D01*
X29267Y-22481D01*
X29127Y-22539D01*
X29102Y-22632D01*
X29400Y-22929D01*
X29697Y-22632D01*
X29697Y-22773D01*
X29470Y-23000D01*
X29767Y-23297D01*
X29860Y-23272D01*
X29880Y-23216D01*
X29954Y-23397D01*
X30102Y-23544D01*
X30235Y-23600D01*
X30103Y-23654D01*
X29955Y-23802D01*
X29875Y-23995D01*
X29874Y-24203D01*
X29954Y-24397D01*
X30102Y-24544D01*
X30228Y-24597D01*
X30127Y-24639D01*
X30102Y-24732D01*
X30400Y-25029D01*
X30697Y-24732D01*
X30672Y-24639D01*
X30562Y-24600D01*
X30697Y-24545D01*
X30844Y-24397D01*
X30924Y-24204D01*
X30925Y-23996D01*
X30845Y-23803D01*
X30697Y-23655D01*
X30564Y-23599D01*
X30697Y-23545D01*
X30844Y-23397D01*
X30924Y-23204D01*
X30925Y-22996D01*
X30845Y-22803D01*
X30697Y-22655D01*
X30685Y-22649D01*
X30677Y-22610D01*
X30647Y-22565D01*
X30697Y-22545D01*
X30844Y-22397D01*
X30924Y-22204D01*
X30925Y-21996D01*
X30845Y-21803D01*
X30697Y-21655D01*
X30564Y-21599D01*
X30697Y-21545D01*
X30844Y-21397D01*
X30924Y-21204D01*
X30925Y-20996D01*
X30845Y-20803D01*
X30697Y-20655D01*
X30564Y-20599D01*
X30697Y-20545D01*
X30844Y-20397D01*
X30924Y-20204D01*
X30925Y-19996D01*
X30845Y-19803D01*
X30697Y-19655D01*
X30625Y-19625D01*
X30724Y-19625D01*
X30816Y-19587D01*
X30886Y-19516D01*
X30924Y-19424D01*
X30925Y-19325D01*
X30925Y-18775D01*
X30887Y-18683D01*
X30816Y-18613D01*
X30724Y-18575D01*
X30625Y-18574D01*
X30075Y-18574D01*
X29983Y-18612D01*
X29913Y-18683D01*
X29906Y-18700D01*
X29442Y-18700D01*
X29297Y-18555D01*
X29164Y-18499D01*
X29297Y-18445D01*
X29444Y-18297D01*
X29524Y-18104D01*
X29524Y-18001D01*
X29583Y-18060D01*
X29740Y-18124D01*
X29909Y-18125D01*
X30065Y-18060D01*
X30074Y-18051D01*
X30188Y-18165D01*
X30390Y-18249D01*
X30608Y-18250D01*
X30811Y-18166D01*
X30965Y-18011D01*
X31049Y-17809D01*
X31050Y-17591D01*
X31050Y-33755D01*
X30929Y-33755D01*
X30929Y-25175D01*
X30918Y-24967D01*
X30860Y-24827D01*
X30767Y-24802D01*
X30470Y-25100D01*
X30767Y-25397D01*
X30860Y-25372D01*
X30929Y-25175D01*
X30929Y-33755D01*
X30925Y-33755D01*
X30925Y-31996D01*
X30845Y-31803D01*
X30697Y-31655D01*
X30564Y-31599D01*
X30697Y-31545D01*
X30844Y-31397D01*
X30924Y-31204D01*
X30925Y-30996D01*
X30845Y-30803D01*
X30697Y-30655D01*
X30564Y-30599D01*
X30697Y-30545D01*
X30844Y-30397D01*
X30924Y-30204D01*
X30925Y-29996D01*
X30845Y-29803D01*
X30697Y-29655D01*
X30564Y-29599D01*
X30697Y-29545D01*
X30844Y-29397D01*
X30924Y-29204D01*
X30925Y-28996D01*
X30845Y-28803D01*
X30697Y-28655D01*
X30564Y-28599D01*
X30697Y-28545D01*
X30844Y-28397D01*
X30924Y-28204D01*
X30925Y-27996D01*
X30845Y-27803D01*
X30697Y-27655D01*
X30564Y-27599D01*
X30697Y-27545D01*
X30844Y-27397D01*
X30924Y-27204D01*
X30925Y-26996D01*
X30845Y-26803D01*
X30697Y-26655D01*
X30564Y-26599D01*
X30697Y-26545D01*
X30844Y-26397D01*
X30924Y-26204D01*
X30925Y-25996D01*
X30845Y-25803D01*
X30697Y-25655D01*
X30571Y-25602D01*
X30672Y-25560D01*
X30697Y-25467D01*
X30400Y-25170D01*
X30329Y-25241D01*
X30329Y-25100D01*
X30032Y-24802D01*
X29939Y-24827D01*
X29870Y-25024D01*
X29881Y-25232D01*
X29939Y-25372D01*
X30032Y-25397D01*
X30329Y-25100D01*
X30329Y-25241D01*
X30102Y-25467D01*
X30127Y-25560D01*
X30237Y-25599D01*
X30103Y-25654D01*
X29955Y-25802D01*
X29875Y-25995D01*
X29874Y-26203D01*
X29954Y-26397D01*
X30102Y-26544D01*
X30235Y-26600D01*
X30103Y-26654D01*
X29957Y-26800D01*
X29697Y-26800D01*
X29697Y-23367D01*
X29400Y-23070D01*
X29329Y-23141D01*
X29329Y-23000D01*
X29032Y-22702D01*
X28939Y-22727D01*
X28900Y-22837D01*
X28845Y-22703D01*
X28697Y-22555D01*
X28504Y-22475D01*
X28296Y-22474D01*
X28103Y-22554D01*
X27955Y-22702D01*
X27875Y-22895D01*
X27874Y-23103D01*
X27954Y-23297D01*
X28102Y-23444D01*
X28295Y-23524D01*
X28503Y-23525D01*
X28697Y-23445D01*
X28844Y-23297D01*
X28897Y-23171D01*
X28939Y-23272D01*
X29032Y-23297D01*
X29329Y-23000D01*
X29329Y-23141D01*
X29102Y-23367D01*
X29127Y-23460D01*
X29324Y-23529D01*
X29532Y-23518D01*
X29672Y-23460D01*
X29697Y-23367D01*
X29697Y-26800D01*
X29525Y-26800D01*
X29525Y-24896D01*
X29445Y-24703D01*
X29297Y-24555D01*
X29104Y-24475D01*
X28896Y-24474D01*
X28703Y-24554D01*
X28555Y-24702D01*
X28475Y-24895D01*
X28474Y-25103D01*
X28554Y-25297D01*
X28702Y-25444D01*
X28895Y-25524D01*
X29103Y-25525D01*
X29297Y-25445D01*
X29444Y-25297D01*
X29524Y-25104D01*
X29525Y-24896D01*
X29525Y-26800D01*
X28630Y-26800D01*
X28630Y-26695D01*
X28549Y-26500D01*
X28400Y-26350D01*
X28400Y-26350D01*
X28400Y-26100D01*
X28377Y-25985D01*
X28312Y-25887D01*
X28312Y-25887D01*
X27524Y-25100D01*
X27525Y-24896D01*
X27445Y-24703D01*
X27297Y-24555D01*
X27104Y-24475D01*
X26896Y-24474D01*
X26703Y-24554D01*
X26555Y-24702D01*
X26475Y-24895D01*
X26474Y-25103D01*
X26554Y-25297D01*
X26702Y-25444D01*
X26895Y-25524D01*
X27100Y-25525D01*
X27800Y-26224D01*
X27800Y-26350D01*
X27650Y-26499D01*
X27570Y-26694D01*
X27569Y-26904D01*
X27650Y-27099D01*
X27799Y-27249D01*
X27994Y-27329D01*
X28204Y-27330D01*
X28211Y-27327D01*
X28285Y-27377D01*
X28399Y-27399D01*
X28400Y-27400D01*
X29957Y-27400D01*
X30102Y-27544D01*
X30235Y-27600D01*
X30103Y-27654D01*
X29957Y-27800D01*
X28400Y-27800D01*
X28285Y-27822D01*
X28187Y-27887D01*
X27887Y-28187D01*
X27822Y-28285D01*
X27810Y-28346D01*
X27800Y-28350D01*
X27650Y-28499D01*
X27570Y-28694D01*
X27569Y-28904D01*
X27650Y-29099D01*
X27799Y-29249D01*
X27800Y-29249D01*
X27800Y-29375D01*
X27100Y-30075D01*
X26896Y-30074D01*
X26703Y-30154D01*
X26555Y-30302D01*
X26475Y-30495D01*
X26474Y-30703D01*
X26554Y-30897D01*
X26702Y-31044D01*
X26895Y-31124D01*
X27103Y-31125D01*
X27297Y-31045D01*
X27444Y-30897D01*
X27524Y-30704D01*
X27525Y-30499D01*
X28312Y-29712D01*
X28312Y-29712D01*
X28377Y-29614D01*
X28399Y-29500D01*
X28400Y-29500D01*
X28400Y-29249D01*
X28549Y-29100D01*
X28629Y-28905D01*
X28630Y-28695D01*
X28549Y-28500D01*
X28486Y-28437D01*
X28524Y-28400D01*
X29957Y-28400D01*
X30102Y-28544D01*
X30235Y-28600D01*
X30103Y-28654D01*
X29955Y-28802D01*
X29875Y-28995D01*
X29874Y-29203D01*
X29954Y-29397D01*
X30102Y-29544D01*
X30235Y-29600D01*
X30103Y-29654D01*
X29955Y-29802D01*
X29875Y-29995D01*
X29874Y-30200D01*
X29525Y-30550D01*
X29525Y-30496D01*
X29445Y-30303D01*
X29297Y-30155D01*
X29104Y-30075D01*
X28896Y-30074D01*
X28703Y-30154D01*
X28555Y-30302D01*
X28475Y-30495D01*
X28474Y-30703D01*
X28554Y-30897D01*
X28702Y-31044D01*
X28754Y-31066D01*
X28713Y-31083D01*
X28559Y-31238D01*
X28475Y-31440D01*
X28474Y-31658D01*
X28558Y-31861D01*
X28697Y-32000D01*
X28559Y-32138D01*
X28475Y-32340D01*
X28474Y-32505D01*
X28155Y-32825D01*
X26150Y-32825D01*
X26150Y-24341D01*
X26066Y-24138D01*
X25911Y-23984D01*
X25709Y-23900D01*
X25491Y-23899D01*
X25288Y-23983D01*
X25134Y-24138D01*
X25050Y-24340D01*
X25049Y-24558D01*
X25133Y-24761D01*
X25288Y-24915D01*
X25490Y-24999D01*
X25708Y-25000D01*
X25911Y-24916D01*
X26065Y-24761D01*
X26149Y-24559D01*
X26150Y-24341D01*
X26150Y-32825D01*
X25427Y-32825D01*
X25490Y-32761D01*
X25574Y-32559D01*
X25575Y-32341D01*
X25491Y-32138D01*
X25352Y-31999D01*
X25490Y-31861D01*
X25574Y-31659D01*
X25575Y-31441D01*
X25491Y-31238D01*
X25336Y-31084D01*
X25134Y-31000D01*
X24916Y-30999D01*
X24821Y-31038D01*
X24821Y-29157D01*
X24821Y-26165D01*
X24754Y-26001D01*
X24628Y-25875D01*
X24464Y-25807D01*
X24286Y-25807D01*
X24122Y-25874D01*
X23996Y-26000D01*
X23928Y-26164D01*
X23928Y-26205D01*
X22150Y-27983D01*
X22150Y-24341D01*
X22066Y-24138D01*
X21911Y-23984D01*
X21709Y-23900D01*
X21491Y-23899D01*
X21288Y-23983D01*
X21212Y-24059D01*
X21111Y-23959D01*
X20909Y-23875D01*
X20691Y-23874D01*
X20488Y-23958D01*
X20334Y-24113D01*
X20250Y-24315D01*
X20249Y-24533D01*
X20333Y-24736D01*
X20488Y-24890D01*
X20662Y-24963D01*
X20537Y-25087D01*
X20472Y-25185D01*
X20450Y-25300D01*
X20450Y-25596D01*
X20421Y-25608D01*
X20258Y-25771D01*
X20170Y-25984D01*
X20169Y-26214D01*
X20258Y-26428D01*
X20421Y-26591D01*
X20441Y-26599D01*
X20421Y-26608D01*
X20258Y-26771D01*
X20170Y-26984D01*
X20169Y-27214D01*
X20258Y-27428D01*
X20421Y-27591D01*
X20634Y-27679D01*
X20864Y-27680D01*
X21078Y-27591D01*
X21241Y-27428D01*
X21329Y-27215D01*
X21330Y-26985D01*
X21241Y-26771D01*
X21078Y-26608D01*
X21058Y-26600D01*
X21078Y-26591D01*
X21241Y-26428D01*
X21329Y-26215D01*
X21330Y-25985D01*
X21241Y-25771D01*
X21078Y-25608D01*
X21050Y-25596D01*
X21050Y-25424D01*
X21478Y-24995D01*
X21490Y-24999D01*
X21708Y-25000D01*
X21911Y-24916D01*
X22065Y-24761D01*
X22149Y-24559D01*
X22150Y-24341D01*
X22150Y-27983D01*
X22123Y-28010D01*
X21667Y-28010D01*
X21551Y-27894D01*
X21349Y-27810D01*
X21131Y-27809D01*
X20928Y-27893D01*
X20774Y-28048D01*
X20690Y-28250D01*
X20689Y-28468D01*
X20773Y-28671D01*
X20928Y-28825D01*
X21130Y-28909D01*
X21348Y-28910D01*
X21551Y-28826D01*
X21667Y-28710D01*
X22268Y-28710D01*
X22402Y-28683D01*
X22402Y-28683D01*
X22516Y-28607D01*
X24423Y-26700D01*
X24463Y-26700D01*
X24627Y-26632D01*
X24753Y-26507D01*
X24821Y-26343D01*
X24821Y-26165D01*
X24821Y-29157D01*
X24754Y-28993D01*
X24628Y-28867D01*
X24464Y-28799D01*
X24286Y-28799D01*
X24122Y-28867D01*
X23996Y-28992D01*
X23928Y-29156D01*
X23928Y-29334D01*
X23995Y-29498D01*
X24121Y-29624D01*
X24285Y-29692D01*
X24463Y-29692D01*
X24627Y-29625D01*
X24753Y-29499D01*
X24821Y-29335D01*
X24821Y-29157D01*
X24821Y-31038D01*
X24713Y-31083D01*
X24559Y-31238D01*
X24554Y-31250D01*
X23767Y-31250D01*
X23747Y-31230D01*
X23614Y-31174D01*
X23747Y-31120D01*
X23894Y-30972D01*
X23974Y-30779D01*
X23975Y-30571D01*
X23895Y-30378D01*
X23747Y-30230D01*
X23554Y-30150D01*
X23346Y-30149D01*
X23153Y-30229D01*
X23005Y-30377D01*
X22925Y-30570D01*
X22924Y-30778D01*
X23004Y-30972D01*
X23152Y-31119D01*
X23285Y-31175D01*
X23153Y-31229D01*
X23005Y-31377D01*
X22975Y-31449D01*
X22975Y-31350D01*
X22937Y-31258D01*
X22866Y-31188D01*
X22774Y-31150D01*
X22675Y-31149D01*
X22125Y-31149D01*
X22033Y-31187D01*
X21963Y-31258D01*
X21935Y-31325D01*
X21925Y-31325D01*
X21791Y-31351D01*
X21677Y-31427D01*
X21294Y-31810D01*
X21131Y-31809D01*
X20928Y-31893D01*
X20774Y-32048D01*
X20690Y-32250D01*
X20689Y-32468D01*
X20773Y-32671D01*
X20927Y-32825D01*
X20525Y-32825D01*
X20525Y-31496D01*
X20445Y-31303D01*
X20297Y-31155D01*
X20104Y-31075D01*
X19896Y-31074D01*
X19703Y-31154D01*
X19555Y-31302D01*
X19502Y-31428D01*
X19460Y-31327D01*
X19380Y-31306D01*
X19380Y-28985D01*
X19291Y-28771D01*
X19128Y-28608D01*
X19108Y-28600D01*
X19128Y-28591D01*
X19291Y-28428D01*
X19379Y-28215D01*
X19380Y-27985D01*
X19291Y-27771D01*
X19128Y-27608D01*
X18915Y-27520D01*
X18685Y-27519D01*
X18471Y-27608D01*
X18308Y-27771D01*
X18220Y-27984D01*
X18219Y-28214D01*
X18308Y-28428D01*
X18471Y-28591D01*
X18491Y-28599D01*
X18471Y-28608D01*
X18308Y-28771D01*
X18220Y-28984D01*
X18219Y-29214D01*
X18308Y-29428D01*
X18471Y-29591D01*
X18684Y-29679D01*
X18914Y-29680D01*
X19128Y-29591D01*
X19291Y-29428D01*
X19379Y-29215D01*
X19380Y-28985D01*
X19380Y-31306D01*
X19367Y-31302D01*
X19350Y-31320D01*
X19350Y-30291D01*
X19266Y-30088D01*
X19111Y-29934D01*
X18909Y-29850D01*
X18691Y-29849D01*
X18488Y-29933D01*
X18334Y-30088D01*
X18250Y-30290D01*
X18249Y-30508D01*
X18333Y-30711D01*
X18488Y-30865D01*
X18690Y-30949D01*
X18908Y-30950D01*
X19111Y-30866D01*
X19265Y-30711D01*
X19349Y-30509D01*
X19350Y-30291D01*
X19350Y-31320D01*
X19297Y-31373D01*
X19297Y-31232D01*
X19272Y-31139D01*
X19075Y-31070D01*
X18867Y-31081D01*
X18727Y-31139D01*
X18702Y-31232D01*
X19000Y-31529D01*
X19297Y-31232D01*
X19297Y-31373D01*
X19070Y-31600D01*
X19367Y-31897D01*
X19460Y-31872D01*
X19499Y-31762D01*
X19554Y-31897D01*
X19702Y-32044D01*
X19895Y-32124D01*
X20103Y-32125D01*
X20297Y-32045D01*
X20444Y-31897D01*
X20524Y-31704D01*
X20525Y-31496D01*
X20525Y-32825D01*
X19297Y-32825D01*
X19297Y-31967D01*
X19000Y-31670D01*
X18929Y-31741D01*
X18929Y-31600D01*
X18632Y-31302D01*
X18539Y-31327D01*
X18470Y-31524D01*
X18481Y-31732D01*
X18539Y-31872D01*
X18632Y-31897D01*
X18929Y-31600D01*
X18929Y-31741D01*
X18702Y-31967D01*
X18727Y-32060D01*
X18924Y-32129D01*
X19132Y-32118D01*
X19272Y-32060D01*
X19297Y-31967D01*
X19297Y-32825D01*
X18469Y-32825D01*
X18097Y-32452D01*
X18050Y-32420D01*
X18050Y-31780D01*
X18039Y-31563D01*
X17977Y-31414D01*
X17882Y-31388D01*
X17811Y-31458D01*
X17811Y-31317D01*
X17785Y-31222D01*
X17580Y-31149D01*
X17525Y-31152D01*
X17525Y-26515D01*
X17460Y-26359D01*
X17341Y-26239D01*
X17184Y-26175D01*
X17100Y-26174D01*
X17100Y-26101D01*
X17160Y-26041D01*
X17224Y-25884D01*
X17225Y-25715D01*
X17160Y-25559D01*
X17041Y-25439D01*
X16884Y-25375D01*
X16715Y-25374D01*
X16559Y-25439D01*
X16439Y-25558D01*
X16375Y-25715D01*
X16374Y-25884D01*
X16439Y-26040D01*
X16500Y-26101D01*
X16500Y-26300D01*
X16522Y-26414D01*
X16587Y-26512D01*
X16675Y-26599D01*
X16674Y-26684D01*
X16739Y-26840D01*
X16858Y-26960D01*
X17015Y-27024D01*
X17184Y-27025D01*
X17340Y-26960D01*
X17460Y-26841D01*
X17524Y-26684D01*
X17525Y-26515D01*
X17525Y-31152D01*
X17363Y-31160D01*
X17214Y-31222D01*
X17188Y-31317D01*
X17500Y-31629D01*
X17811Y-31317D01*
X17811Y-31458D01*
X17570Y-31700D01*
X17882Y-32011D01*
X17977Y-31985D01*
X18050Y-31780D01*
X18050Y-32420D01*
X17983Y-32376D01*
X17938Y-32367D01*
X17938Y-32367D01*
X17809Y-32238D01*
X17724Y-32202D01*
X17785Y-32177D01*
X17811Y-32082D01*
X17500Y-31770D01*
X17429Y-31841D01*
X17429Y-31700D01*
X17117Y-31388D01*
X17022Y-31414D01*
X16949Y-31619D01*
X16960Y-31836D01*
X17022Y-31985D01*
X17117Y-32011D01*
X17429Y-31700D01*
X17429Y-31841D01*
X17188Y-32082D01*
X17214Y-32177D01*
X17280Y-32200D01*
X17191Y-32237D01*
X17038Y-32390D01*
X16954Y-32591D01*
X16954Y-32807D01*
X17037Y-33008D01*
X17190Y-33161D01*
X17391Y-33245D01*
X17607Y-33245D01*
X17808Y-33162D01*
X17813Y-33157D01*
X18077Y-33422D01*
X18077Y-33422D01*
X18191Y-33498D01*
X18325Y-33525D01*
X28300Y-33525D01*
X28433Y-33498D01*
X28433Y-33498D01*
X28547Y-33422D01*
X28970Y-32999D01*
X29133Y-33000D01*
X29336Y-32916D01*
X29490Y-32761D01*
X29574Y-32559D01*
X29575Y-32341D01*
X29570Y-32329D01*
X29875Y-32024D01*
X29874Y-32203D01*
X29954Y-32397D01*
X30102Y-32544D01*
X30295Y-32624D01*
X30503Y-32625D01*
X30697Y-32545D01*
X30844Y-32397D01*
X30924Y-32204D01*
X30925Y-31996D01*
X30925Y-33755D01*
X16075Y-33755D01*
X16075Y-29121D01*
X15995Y-28928D01*
X15847Y-28780D01*
X15654Y-28700D01*
X15446Y-28699D01*
X15253Y-28779D01*
X15105Y-28927D01*
X15025Y-29120D01*
X15024Y-29328D01*
X15104Y-29522D01*
X15252Y-29669D01*
X15445Y-29749D01*
X15653Y-29750D01*
X15847Y-29670D01*
X15994Y-29522D01*
X16074Y-29329D01*
X16075Y-29121D01*
X16075Y-33755D01*
X15350Y-33755D01*
X15350Y-30291D01*
X15266Y-30088D01*
X15111Y-29934D01*
X14909Y-29850D01*
X14691Y-29849D01*
X14488Y-29933D01*
X14334Y-30088D01*
X14250Y-30290D01*
X14249Y-30508D01*
X14333Y-30711D01*
X14488Y-30865D01*
X14690Y-30949D01*
X14908Y-30950D01*
X15111Y-30866D01*
X15265Y-30711D01*
X15349Y-30509D01*
X15350Y-30291D01*
X15350Y-33755D01*
X14075Y-33755D01*
X14075Y-29121D01*
X13995Y-28928D01*
X13847Y-28780D01*
X13654Y-28700D01*
X13446Y-28699D01*
X13253Y-28779D01*
X13105Y-28927D01*
X13025Y-29120D01*
X13024Y-29328D01*
X13104Y-29522D01*
X13252Y-29669D01*
X13445Y-29749D01*
X13653Y-29750D01*
X13847Y-29670D01*
X13994Y-29522D01*
X14074Y-29329D01*
X14075Y-29121D01*
X14075Y-33755D01*
X12969Y-33755D01*
X12969Y-33400D01*
X12969Y-27960D01*
X12987Y-27972D01*
X13151Y-28005D01*
X13448Y-28005D01*
X13612Y-27972D01*
X13750Y-27880D01*
X13843Y-27741D01*
X13876Y-27577D01*
X13843Y-27414D01*
X13750Y-27275D01*
X13612Y-27183D01*
X13448Y-27150D01*
X13151Y-27150D01*
X12987Y-27183D01*
X12969Y-27195D01*
X12969Y-25204D01*
X12987Y-25216D01*
X13151Y-25249D01*
X13448Y-25249D01*
X13612Y-25216D01*
X13750Y-25124D01*
X13843Y-24985D01*
X13876Y-24822D01*
X13843Y-24658D01*
X13750Y-24519D01*
X13612Y-24427D01*
X13448Y-24394D01*
X13151Y-24394D01*
X12987Y-24427D01*
X12969Y-24439D01*
X12969Y-9400D01*
X12969Y-9045D01*
X42000Y-9045D01*
X42000Y-9839D01*
X41860Y-9699D01*
X41639Y-9608D01*
X41401Y-9607D01*
X41180Y-9699D01*
X41019Y-9859D01*
X40860Y-9699D01*
X40639Y-9608D01*
X40401Y-9607D01*
X40180Y-9699D01*
X40011Y-9867D01*
X40007Y-9878D01*
X39942Y-9856D01*
X39871Y-9927D01*
X39871Y-9785D01*
X39837Y-9685D01*
X39613Y-9603D01*
X39375Y-9613D01*
X39202Y-9685D01*
X39168Y-9785D01*
X39520Y-10137D01*
X39871Y-9785D01*
X39871Y-9927D01*
X39590Y-10208D01*
X39942Y-10559D01*
X40007Y-10537D01*
X40011Y-10547D01*
X40179Y-10716D01*
X40400Y-10807D01*
X40638Y-10808D01*
X40859Y-10716D01*
X41020Y-10556D01*
X41179Y-10716D01*
X41400Y-10807D01*
X41638Y-10808D01*
X41859Y-10716D01*
X42000Y-10576D01*
X42000Y-11365D01*
M02*
