M48
;DRILL file {Pcbnew (2013-07-07 BZR 4022)-stable} date 4/28/2015 11:39:38 PM
;FORMAT={-:-/ absolute / inch / decimal}
FMAT,2
INCH,TZ
T1C0.020
T2C0.020
T3C0.024
T4C0.028
T5C0.030
T6C0.032
T7C0.040
T8C0.045
T9C0.120
%
G90
G05
M72
T2
X1.68Y-2.58
X1.71Y-2.66
X1.774Y-2.527
X2.701Y-1.59
X2.83Y-1.97
X2.83Y-2.07
X2.85Y-1.17
X2.97Y-2.2025
X2.9825Y-1.77
X3.Y-1.175
X3.385Y-1.953
X3.392Y-1.375
T3
X1.75Y-1.07
X1.75Y-1.17
X1.75Y-3.17
X1.75Y-3.27
T4
X2.4375Y-2.6254
X2.4375Y-2.9246
T5
X2.81Y-2.68
X2.81Y-2.88
T6
X1.355Y-2.9225
X1.48Y-3.04
X1.555Y-2.9225
X1.68Y-2.4425
X1.88Y-2.81
X1.88Y-2.91
X1.88Y-3.04
X1.9Y-3.16
X2.Y-3.16
X2.075Y-2.61
X2.075Y-2.71
X2.08Y-2.4425
X2.124Y-2.836
X2.124Y-3.236
X2.16Y-2.445
X2.245Y-3.1675
X2.345Y-3.0675
X2.345Y-3.1675
X2.5025Y-3.155
X2.5025Y-3.245
X2.56Y-2.445
X2.7Y-2.5
X2.7Y-3.06
X2.84Y-2.3
X2.9Y-1.8
X2.9Y-1.9
X2.9Y-2.5
X2.9Y-3.06
X2.9025Y-3.155
X2.9025Y-3.245
X2.94Y-2.3
X3.04Y-1.91
X3.04Y-2.01
X3.04Y-2.11
X3.04Y-2.21
X3.04Y-2.31
X3.04Y-2.41
X3.04Y-2.51
X3.04Y-2.61
X3.04Y-2.71
X3.04Y-2.81
X3.04Y-2.91
X3.04Y-3.01
X3.04Y-3.11
X3.04Y-3.21
X3.05Y-1.37
X3.05Y-1.77
X3.151Y-0.978
X3.151Y-1.378
X3.16Y-1.73
X3.231Y-1.508
X3.231Y-1.608
X3.331Y-1.508
X3.34Y-1.91
X3.34Y-2.01
X3.34Y-2.11
X3.34Y-2.21
X3.34Y-2.31
X3.34Y-2.41
X3.34Y-2.51
X3.34Y-2.61
X3.34Y-2.71
X3.34Y-2.81
X3.34Y-2.91
X3.34Y-3.01
X3.34Y-3.11
X3.34Y-3.21
X3.3425Y-1.075
X3.36Y-1.73
X3.4425Y-1.075
X3.45Y-1.2275
X3.45Y-1.6275
X3.461Y-1.816
X3.461Y-2.216
X3.4635Y-2.3215
X3.4635Y-2.7215
T7
X1.42Y-1.305
X1.52Y-1.305
X1.62Y-1.305
X2.93Y-1.02
X2.93Y-1.12
X2.93Y-1.22
X2.93Y-1.32
X2.93Y-1.42
X2.93Y-1.52
T8
X1.945Y-1.06
X1.945Y-1.16
X1.945Y-1.26
X3.952Y-1.0208
X4.052Y-1.0208
X4.152Y-1.0208
X4.2519Y-1.0208
X4.352Y-1.0208
X4.452Y-1.0208
X4.552Y-1.0208
X4.652Y-1.0208
T9
X2.595Y-1.16
T1
X1.3438Y-2.4822G85X1.3162Y-2.4822
G05
X1.3438Y-2.7578G85X1.3162Y-2.7578
G05
T0
M30
