G04 (created by PCBNEW (2013-07-07 BZR 4022)-stable) date 4/28/2015 11:34:22 PM*
%MOIN*%
G04 Gerber Fmt 3.4, Leading zero omitted, Abs format*
%FSLAX34Y34*%
G01*
G70*
G90*
G04 APERTURE LIST*
%ADD10C,0.00590551*%
%ADD11C,0.055*%
%ADD12R,0.055X0.055*%
%ADD13C,0.06*%
%ADD14R,0.06X0.06*%
%ADD15C,0.066*%
%ADD16C,0.056*%
%ADD17C,0.07*%
%ADD18O,0.0629921X0.0354331*%
%ADD19C,0.0590551*%
%ADD20R,0.07X0.07*%
%ADD21R,0.35X0.35*%
%ADD22C,0.0393701*%
G04 APERTURE END LIST*
G54D10*
G54D11*
X30400Y-20100D03*
X30400Y-21100D03*
X30400Y-22100D03*
X30400Y-23100D03*
X30400Y-24100D03*
X30400Y-25100D03*
X30400Y-26100D03*
X30400Y-27100D03*
X30400Y-28100D03*
X30400Y-29100D03*
X30400Y-30100D03*
X30400Y-31100D03*
X30400Y-32100D03*
G54D12*
X30400Y-19100D03*
G54D11*
X33400Y-32100D03*
X33400Y-31100D03*
X33400Y-30100D03*
X33400Y-29100D03*
X33400Y-28100D03*
X33400Y-27100D03*
X33400Y-26100D03*
X33400Y-25100D03*
X33400Y-24100D03*
X33400Y-23100D03*
X33400Y-22100D03*
X33400Y-21100D03*
X33400Y-20100D03*
X33400Y-19100D03*
G54D12*
X22450Y-31675D03*
G54D11*
X23450Y-31675D03*
X23450Y-30675D03*
G54D13*
X31510Y-9780D03*
X31510Y-13780D03*
X25025Y-31550D03*
X29025Y-31550D03*
X14800Y-30400D03*
X18800Y-30400D03*
X34635Y-23215D03*
X34635Y-27215D03*
X30500Y-17700D03*
X30500Y-13700D03*
X21600Y-24450D03*
X25600Y-24450D03*
X25025Y-32450D03*
X29025Y-32450D03*
X16800Y-24425D03*
X20800Y-24425D03*
G54D14*
X29300Y-10200D03*
G54D13*
X29300Y-11200D03*
X29300Y-12200D03*
X29300Y-13200D03*
X29300Y-14200D03*
X29300Y-15200D03*
G54D15*
X18800Y-29100D03*
X18800Y-28100D03*
X34425Y-10750D03*
X33425Y-10750D03*
X20750Y-26100D03*
X20750Y-27100D03*
G54D16*
X28100Y-28800D03*
X28100Y-26800D03*
G54D11*
X15550Y-29225D03*
X13550Y-29225D03*
X31600Y-17300D03*
X33600Y-17300D03*
X27000Y-30600D03*
X29000Y-30600D03*
X27000Y-25000D03*
X29000Y-25000D03*
X19000Y-31600D03*
X20000Y-31600D03*
X29000Y-19000D03*
X29000Y-18000D03*
X29400Y-23000D03*
X28400Y-23000D03*
G54D17*
X46520Y-10208D03*
X45520Y-10208D03*
X44520Y-10208D03*
X43520Y-10208D03*
X42519Y-10208D03*
X41520Y-10208D03*
X40520Y-10208D03*
X39520Y-10208D03*
G54D18*
X13300Y-24822D03*
X13300Y-27577D03*
G54D19*
X17500Y-11700D03*
X17500Y-10700D03*
X17500Y-32700D03*
X17500Y-31700D03*
G54D20*
X19450Y-12600D03*
G54D17*
X19450Y-10600D03*
X19450Y-11600D03*
G54D21*
X25950Y-11600D03*
G54D12*
X33310Y-15080D03*
G54D11*
X32310Y-15080D03*
X32310Y-16080D03*
G54D13*
X34610Y-22160D03*
X34610Y-18160D03*
X34500Y-16275D03*
X34500Y-12275D03*
G54D14*
X14200Y-13050D03*
G54D13*
X15200Y-13050D03*
X16200Y-13050D03*
G54D22*
X24375Y-26253D03*
X24375Y-29246D03*
G54D13*
X21240Y-32360D03*
X21240Y-28360D03*
M02*
