G04 (created by PCBNEW (2013-07-07 BZR 4022)-stable) date 5/1/2015 4:40:17 PM*
%MOIN*%
G04 Gerber Fmt 3.4, Leading zero omitted, Abs format*
%FSLAX34Y34*%
G01*
G70*
G90*
G04 APERTURE LIST*
%ADD10C,0.00590551*%
%ADD11C,0.0433071*%
%ADD12R,0.06X0.06*%
%ADD13C,0.06*%
%ADD14C,0.055*%
%ADD15C,0.01*%
G04 APERTURE END LIST*
G54D10*
G54D11*
X15342Y-12038D03*
X14842Y-12038D03*
X14342Y-12038D03*
X13842Y-12038D03*
G54D12*
X13480Y-9288D03*
G54D13*
X14480Y-9288D03*
X15480Y-9288D03*
G54D12*
X13468Y-15220D03*
G54D13*
X14468Y-15220D03*
X15468Y-15220D03*
G54D12*
X17250Y-13250D03*
G54D13*
X17250Y-12250D03*
X17250Y-11250D03*
G54D12*
X11500Y-14750D03*
G54D13*
X11500Y-13750D03*
X11500Y-12750D03*
X11500Y-11750D03*
X11500Y-10750D03*
X11500Y-9750D03*
G54D14*
X12726Y-13440D03*
X12726Y-11440D03*
G54D13*
X16200Y-14240D03*
X16200Y-10240D03*
G54D15*
X13842Y-12038D02*
X11788Y-12038D01*
X11788Y-12038D02*
X11500Y-11750D01*
X14342Y-12038D02*
X14342Y-11732D01*
X11650Y-10600D02*
X11500Y-10750D01*
X13210Y-10600D02*
X11650Y-10600D01*
X14342Y-11732D02*
X13210Y-10600D01*
X13902Y-10399D02*
X12149Y-10399D01*
X12149Y-10399D02*
X11500Y-9750D01*
X15342Y-12038D02*
X15342Y-11806D01*
X13935Y-10399D02*
X13902Y-10399D01*
X15342Y-11806D02*
X13935Y-10399D01*
G54D10*
G36*
X17980Y-15700D02*
X17804Y-15700D01*
X17804Y-11331D01*
X17793Y-11113D01*
X17731Y-10962D01*
X17635Y-10934D01*
X17565Y-11005D01*
X17565Y-10864D01*
X17537Y-10768D01*
X17331Y-10695D01*
X17113Y-10706D01*
X16962Y-10768D01*
X16934Y-10864D01*
X17250Y-11179D01*
X17565Y-10864D01*
X17565Y-11005D01*
X17320Y-11250D01*
X17635Y-11565D01*
X17731Y-11537D01*
X17804Y-11331D01*
X17804Y-15700D01*
X17800Y-15700D01*
X17800Y-12141D01*
X17716Y-11938D01*
X17561Y-11784D01*
X17486Y-11752D01*
X17537Y-11731D01*
X17565Y-11635D01*
X17250Y-11320D01*
X17179Y-11391D01*
X17179Y-11250D01*
X16864Y-10934D01*
X16768Y-10962D01*
X16750Y-11014D01*
X16750Y-10131D01*
X16666Y-9928D01*
X16511Y-9774D01*
X16309Y-9690D01*
X16091Y-9689D01*
X16034Y-9713D01*
X16034Y-9369D01*
X16023Y-9151D01*
X15961Y-9000D01*
X15865Y-8972D01*
X15795Y-9043D01*
X15795Y-8902D01*
X15767Y-8806D01*
X15561Y-8733D01*
X15343Y-8744D01*
X15192Y-8806D01*
X15164Y-8902D01*
X15480Y-9217D01*
X15795Y-8902D01*
X15795Y-9043D01*
X15550Y-9288D01*
X15865Y-9603D01*
X15961Y-9575D01*
X16034Y-9369D01*
X16034Y-9713D01*
X15888Y-9773D01*
X15795Y-9866D01*
X15795Y-9673D01*
X15480Y-9358D01*
X15409Y-9429D01*
X15409Y-9288D01*
X15094Y-8972D01*
X14998Y-9000D01*
X14979Y-9055D01*
X14946Y-8976D01*
X14791Y-8822D01*
X14589Y-8738D01*
X14371Y-8737D01*
X14168Y-8821D01*
X14030Y-8960D01*
X14030Y-8938D01*
X13992Y-8846D01*
X13921Y-8776D01*
X13829Y-8738D01*
X13730Y-8737D01*
X13130Y-8737D01*
X13038Y-8775D01*
X12968Y-8846D01*
X12930Y-8938D01*
X12929Y-9037D01*
X12929Y-9637D01*
X12967Y-9729D01*
X13038Y-9799D01*
X13130Y-9837D01*
X13229Y-9838D01*
X13829Y-9838D01*
X13921Y-9800D01*
X13991Y-9729D01*
X14029Y-9637D01*
X14029Y-9615D01*
X14168Y-9753D01*
X14370Y-9837D01*
X14588Y-9838D01*
X14791Y-9754D01*
X14945Y-9599D01*
X14977Y-9524D01*
X14998Y-9575D01*
X15094Y-9603D01*
X15409Y-9288D01*
X15409Y-9429D01*
X15164Y-9673D01*
X15192Y-9769D01*
X15398Y-9842D01*
X15616Y-9831D01*
X15767Y-9769D01*
X15795Y-9673D01*
X15795Y-9866D01*
X15734Y-9928D01*
X15650Y-10130D01*
X15649Y-10348D01*
X15733Y-10551D01*
X15888Y-10705D01*
X16090Y-10789D01*
X16308Y-10790D01*
X16511Y-10706D01*
X16665Y-10551D01*
X16749Y-10349D01*
X16750Y-10131D01*
X16750Y-11014D01*
X16695Y-11168D01*
X16706Y-11386D01*
X16768Y-11537D01*
X16864Y-11565D01*
X17179Y-11250D01*
X17179Y-11391D01*
X16934Y-11635D01*
X16962Y-11731D01*
X17017Y-11750D01*
X16938Y-11783D01*
X16784Y-11938D01*
X16700Y-12140D01*
X16699Y-12358D01*
X16783Y-12561D01*
X16922Y-12699D01*
X16900Y-12699D01*
X16808Y-12737D01*
X16738Y-12808D01*
X16700Y-12900D01*
X16699Y-12999D01*
X16699Y-13599D01*
X16737Y-13691D01*
X16808Y-13761D01*
X16900Y-13799D01*
X16999Y-13800D01*
X17599Y-13800D01*
X17691Y-13762D01*
X17761Y-13691D01*
X17799Y-13599D01*
X17800Y-13500D01*
X17800Y-12900D01*
X17762Y-12808D01*
X17691Y-12738D01*
X17599Y-12700D01*
X17577Y-12700D01*
X17715Y-12561D01*
X17799Y-12359D01*
X17800Y-12141D01*
X17800Y-15700D01*
X17503Y-15700D01*
X17410Y-15661D01*
X17409Y-15661D01*
X17153Y-15610D01*
X17152Y-15610D01*
X17047Y-15610D01*
X16788Y-15661D01*
X16750Y-15678D01*
X16750Y-14131D01*
X16666Y-13928D01*
X16511Y-13774D01*
X16309Y-13690D01*
X16091Y-13689D01*
X15888Y-13773D01*
X15808Y-13853D01*
X15808Y-11945D01*
X15737Y-11774D01*
X15606Y-11642D01*
X15579Y-11631D01*
X15554Y-11593D01*
X15554Y-11593D01*
X14148Y-10187D01*
X14050Y-10122D01*
X13935Y-10099D01*
X13902Y-10099D01*
X12274Y-10099D01*
X12045Y-9871D01*
X12049Y-9859D01*
X12050Y-9641D01*
X11966Y-9438D01*
X11811Y-9284D01*
X11609Y-9200D01*
X11391Y-9199D01*
X11188Y-9283D01*
X11034Y-9438D01*
X10950Y-9640D01*
X10949Y-9858D01*
X11033Y-10061D01*
X11188Y-10215D01*
X11269Y-10249D01*
X11188Y-10283D01*
X11034Y-10438D01*
X10950Y-10640D01*
X10949Y-10858D01*
X11033Y-11061D01*
X11188Y-11215D01*
X11269Y-11249D01*
X11188Y-11283D01*
X11034Y-11438D01*
X10950Y-11640D01*
X10949Y-11858D01*
X11033Y-12061D01*
X11188Y-12215D01*
X11269Y-12249D01*
X11188Y-12283D01*
X11034Y-12438D01*
X10950Y-12640D01*
X10949Y-12858D01*
X11033Y-13061D01*
X11188Y-13215D01*
X11263Y-13247D01*
X11212Y-13268D01*
X11184Y-13364D01*
X11500Y-13679D01*
X11815Y-13364D01*
X11787Y-13268D01*
X11732Y-13249D01*
X11811Y-13216D01*
X11965Y-13061D01*
X12049Y-12859D01*
X12050Y-12641D01*
X11966Y-12438D01*
X11865Y-12338D01*
X13482Y-12338D01*
X13577Y-12433D01*
X13748Y-12504D01*
X13934Y-12504D01*
X14092Y-12439D01*
X14248Y-12504D01*
X14434Y-12504D01*
X14592Y-12439D01*
X14748Y-12504D01*
X14934Y-12504D01*
X15092Y-12439D01*
X15248Y-12504D01*
X15434Y-12504D01*
X15605Y-12433D01*
X15737Y-12302D01*
X15808Y-12131D01*
X15808Y-11945D01*
X15808Y-13853D01*
X15734Y-13928D01*
X15650Y-14130D01*
X15649Y-14348D01*
X15733Y-14551D01*
X15888Y-14705D01*
X16090Y-14789D01*
X16308Y-14790D01*
X16511Y-14706D01*
X16665Y-14551D01*
X16749Y-14349D01*
X16750Y-14131D01*
X16750Y-15678D01*
X16697Y-15700D01*
X16022Y-15700D01*
X16022Y-15301D01*
X16011Y-15083D01*
X15949Y-14932D01*
X15853Y-14904D01*
X15783Y-14975D01*
X15783Y-14834D01*
X15755Y-14738D01*
X15549Y-14665D01*
X15331Y-14676D01*
X15180Y-14738D01*
X15152Y-14834D01*
X15468Y-15149D01*
X15783Y-14834D01*
X15783Y-14975D01*
X15538Y-15220D01*
X15853Y-15535D01*
X15949Y-15507D01*
X16022Y-15301D01*
X16022Y-15700D01*
X15756Y-15700D01*
X15783Y-15605D01*
X15468Y-15290D01*
X15152Y-15605D01*
X15179Y-15700D01*
X14746Y-15700D01*
X14779Y-15686D01*
X14933Y-15531D01*
X14965Y-15456D01*
X14986Y-15507D01*
X15082Y-15535D01*
X15397Y-15220D01*
X15082Y-14904D01*
X14986Y-14932D01*
X14967Y-14987D01*
X14934Y-14908D01*
X14779Y-14754D01*
X14577Y-14670D01*
X14359Y-14669D01*
X14156Y-14753D01*
X14018Y-14892D01*
X14018Y-14870D01*
X13980Y-14778D01*
X13909Y-14708D01*
X13817Y-14670D01*
X13718Y-14669D01*
X13255Y-14669D01*
X13255Y-13515D01*
X13244Y-13307D01*
X13186Y-13167D01*
X13093Y-13142D01*
X13023Y-13213D01*
X13023Y-13072D01*
X12998Y-12979D01*
X12801Y-12910D01*
X12593Y-12921D01*
X12453Y-12979D01*
X12428Y-13072D01*
X12726Y-13369D01*
X13023Y-13072D01*
X13023Y-13213D01*
X12796Y-13440D01*
X13093Y-13737D01*
X13186Y-13712D01*
X13255Y-13515D01*
X13255Y-14669D01*
X13118Y-14669D01*
X13026Y-14707D01*
X13023Y-14711D01*
X13023Y-13807D01*
X12726Y-13510D01*
X12655Y-13581D01*
X12655Y-13440D01*
X12358Y-13142D01*
X12265Y-13167D01*
X12196Y-13364D01*
X12207Y-13572D01*
X12265Y-13712D01*
X12358Y-13737D01*
X12655Y-13440D01*
X12655Y-13581D01*
X12428Y-13807D01*
X12453Y-13900D01*
X12650Y-13969D01*
X12858Y-13958D01*
X12998Y-13900D01*
X13023Y-13807D01*
X13023Y-14711D01*
X12956Y-14778D01*
X12918Y-14870D01*
X12917Y-14969D01*
X12917Y-15569D01*
X12955Y-15661D01*
X12994Y-15700D01*
X12054Y-15700D01*
X12054Y-13831D01*
X12043Y-13613D01*
X11981Y-13462D01*
X11885Y-13434D01*
X11570Y-13750D01*
X11885Y-14065D01*
X11981Y-14037D01*
X12054Y-13831D01*
X12054Y-15700D01*
X12053Y-15700D01*
X12050Y-15698D01*
X12050Y-15000D01*
X12050Y-14400D01*
X12012Y-14308D01*
X11941Y-14238D01*
X11849Y-14200D01*
X11796Y-14199D01*
X11815Y-14135D01*
X11500Y-13820D01*
X11429Y-13891D01*
X11429Y-13750D01*
X11114Y-13434D01*
X11018Y-13462D01*
X10945Y-13668D01*
X10956Y-13886D01*
X11018Y-14037D01*
X11114Y-14065D01*
X11429Y-13750D01*
X11429Y-13891D01*
X11184Y-14135D01*
X11203Y-14199D01*
X11150Y-14199D01*
X11058Y-14237D01*
X10988Y-14308D01*
X10950Y-14400D01*
X10949Y-14499D01*
X10949Y-15099D01*
X10987Y-15191D01*
X11058Y-15261D01*
X11150Y-15299D01*
X11249Y-15300D01*
X11849Y-15300D01*
X11941Y-15262D01*
X12011Y-15191D01*
X12049Y-15099D01*
X12050Y-15000D01*
X12050Y-15698D01*
X11960Y-15661D01*
X11959Y-15661D01*
X11703Y-15610D01*
X11702Y-15610D01*
X11597Y-15610D01*
X11338Y-15661D01*
X11247Y-15700D01*
X10769Y-15700D01*
X10769Y-8800D01*
X11237Y-8800D01*
X11240Y-8801D01*
X11241Y-8802D01*
X11338Y-8843D01*
X11597Y-8894D01*
X11702Y-8894D01*
X11703Y-8894D01*
X11959Y-8843D01*
X11960Y-8843D01*
X12057Y-8802D01*
X12062Y-8800D01*
X12516Y-8800D01*
X12516Y-8319D01*
X12538Y-8266D01*
X12542Y-8246D01*
X16205Y-8246D01*
X16206Y-8254D01*
X16206Y-8255D01*
X16247Y-8352D01*
X16308Y-8444D01*
X16308Y-8800D01*
X16704Y-8800D01*
X16783Y-8833D01*
X16984Y-8873D01*
X17033Y-8883D01*
X17033Y-8883D01*
X17037Y-8883D01*
X17042Y-8884D01*
X17103Y-8884D01*
X17138Y-8885D01*
X17141Y-8884D01*
X17147Y-8884D01*
X17148Y-8884D01*
X17202Y-8873D01*
X17395Y-8838D01*
X17395Y-8838D01*
X17491Y-8800D01*
X17980Y-8800D01*
X17980Y-15700D01*
X17980Y-15700D01*
G37*
G54D15*
X17980Y-15700D02*
X17804Y-15700D01*
X17804Y-11331D01*
X17793Y-11113D01*
X17731Y-10962D01*
X17635Y-10934D01*
X17565Y-11005D01*
X17565Y-10864D01*
X17537Y-10768D01*
X17331Y-10695D01*
X17113Y-10706D01*
X16962Y-10768D01*
X16934Y-10864D01*
X17250Y-11179D01*
X17565Y-10864D01*
X17565Y-11005D01*
X17320Y-11250D01*
X17635Y-11565D01*
X17731Y-11537D01*
X17804Y-11331D01*
X17804Y-15700D01*
X17800Y-15700D01*
X17800Y-12141D01*
X17716Y-11938D01*
X17561Y-11784D01*
X17486Y-11752D01*
X17537Y-11731D01*
X17565Y-11635D01*
X17250Y-11320D01*
X17179Y-11391D01*
X17179Y-11250D01*
X16864Y-10934D01*
X16768Y-10962D01*
X16750Y-11014D01*
X16750Y-10131D01*
X16666Y-9928D01*
X16511Y-9774D01*
X16309Y-9690D01*
X16091Y-9689D01*
X16034Y-9713D01*
X16034Y-9369D01*
X16023Y-9151D01*
X15961Y-9000D01*
X15865Y-8972D01*
X15795Y-9043D01*
X15795Y-8902D01*
X15767Y-8806D01*
X15561Y-8733D01*
X15343Y-8744D01*
X15192Y-8806D01*
X15164Y-8902D01*
X15480Y-9217D01*
X15795Y-8902D01*
X15795Y-9043D01*
X15550Y-9288D01*
X15865Y-9603D01*
X15961Y-9575D01*
X16034Y-9369D01*
X16034Y-9713D01*
X15888Y-9773D01*
X15795Y-9866D01*
X15795Y-9673D01*
X15480Y-9358D01*
X15409Y-9429D01*
X15409Y-9288D01*
X15094Y-8972D01*
X14998Y-9000D01*
X14979Y-9055D01*
X14946Y-8976D01*
X14791Y-8822D01*
X14589Y-8738D01*
X14371Y-8737D01*
X14168Y-8821D01*
X14030Y-8960D01*
X14030Y-8938D01*
X13992Y-8846D01*
X13921Y-8776D01*
X13829Y-8738D01*
X13730Y-8737D01*
X13130Y-8737D01*
X13038Y-8775D01*
X12968Y-8846D01*
X12930Y-8938D01*
X12929Y-9037D01*
X12929Y-9637D01*
X12967Y-9729D01*
X13038Y-9799D01*
X13130Y-9837D01*
X13229Y-9838D01*
X13829Y-9838D01*
X13921Y-9800D01*
X13991Y-9729D01*
X14029Y-9637D01*
X14029Y-9615D01*
X14168Y-9753D01*
X14370Y-9837D01*
X14588Y-9838D01*
X14791Y-9754D01*
X14945Y-9599D01*
X14977Y-9524D01*
X14998Y-9575D01*
X15094Y-9603D01*
X15409Y-9288D01*
X15409Y-9429D01*
X15164Y-9673D01*
X15192Y-9769D01*
X15398Y-9842D01*
X15616Y-9831D01*
X15767Y-9769D01*
X15795Y-9673D01*
X15795Y-9866D01*
X15734Y-9928D01*
X15650Y-10130D01*
X15649Y-10348D01*
X15733Y-10551D01*
X15888Y-10705D01*
X16090Y-10789D01*
X16308Y-10790D01*
X16511Y-10706D01*
X16665Y-10551D01*
X16749Y-10349D01*
X16750Y-10131D01*
X16750Y-11014D01*
X16695Y-11168D01*
X16706Y-11386D01*
X16768Y-11537D01*
X16864Y-11565D01*
X17179Y-11250D01*
X17179Y-11391D01*
X16934Y-11635D01*
X16962Y-11731D01*
X17017Y-11750D01*
X16938Y-11783D01*
X16784Y-11938D01*
X16700Y-12140D01*
X16699Y-12358D01*
X16783Y-12561D01*
X16922Y-12699D01*
X16900Y-12699D01*
X16808Y-12737D01*
X16738Y-12808D01*
X16700Y-12900D01*
X16699Y-12999D01*
X16699Y-13599D01*
X16737Y-13691D01*
X16808Y-13761D01*
X16900Y-13799D01*
X16999Y-13800D01*
X17599Y-13800D01*
X17691Y-13762D01*
X17761Y-13691D01*
X17799Y-13599D01*
X17800Y-13500D01*
X17800Y-12900D01*
X17762Y-12808D01*
X17691Y-12738D01*
X17599Y-12700D01*
X17577Y-12700D01*
X17715Y-12561D01*
X17799Y-12359D01*
X17800Y-12141D01*
X17800Y-15700D01*
X17503Y-15700D01*
X17410Y-15661D01*
X17409Y-15661D01*
X17153Y-15610D01*
X17152Y-15610D01*
X17047Y-15610D01*
X16788Y-15661D01*
X16750Y-15678D01*
X16750Y-14131D01*
X16666Y-13928D01*
X16511Y-13774D01*
X16309Y-13690D01*
X16091Y-13689D01*
X15888Y-13773D01*
X15808Y-13853D01*
X15808Y-11945D01*
X15737Y-11774D01*
X15606Y-11642D01*
X15579Y-11631D01*
X15554Y-11593D01*
X15554Y-11593D01*
X14148Y-10187D01*
X14050Y-10122D01*
X13935Y-10099D01*
X13902Y-10099D01*
X12274Y-10099D01*
X12045Y-9871D01*
X12049Y-9859D01*
X12050Y-9641D01*
X11966Y-9438D01*
X11811Y-9284D01*
X11609Y-9200D01*
X11391Y-9199D01*
X11188Y-9283D01*
X11034Y-9438D01*
X10950Y-9640D01*
X10949Y-9858D01*
X11033Y-10061D01*
X11188Y-10215D01*
X11269Y-10249D01*
X11188Y-10283D01*
X11034Y-10438D01*
X10950Y-10640D01*
X10949Y-10858D01*
X11033Y-11061D01*
X11188Y-11215D01*
X11269Y-11249D01*
X11188Y-11283D01*
X11034Y-11438D01*
X10950Y-11640D01*
X10949Y-11858D01*
X11033Y-12061D01*
X11188Y-12215D01*
X11269Y-12249D01*
X11188Y-12283D01*
X11034Y-12438D01*
X10950Y-12640D01*
X10949Y-12858D01*
X11033Y-13061D01*
X11188Y-13215D01*
X11263Y-13247D01*
X11212Y-13268D01*
X11184Y-13364D01*
X11500Y-13679D01*
X11815Y-13364D01*
X11787Y-13268D01*
X11732Y-13249D01*
X11811Y-13216D01*
X11965Y-13061D01*
X12049Y-12859D01*
X12050Y-12641D01*
X11966Y-12438D01*
X11865Y-12338D01*
X13482Y-12338D01*
X13577Y-12433D01*
X13748Y-12504D01*
X13934Y-12504D01*
X14092Y-12439D01*
X14248Y-12504D01*
X14434Y-12504D01*
X14592Y-12439D01*
X14748Y-12504D01*
X14934Y-12504D01*
X15092Y-12439D01*
X15248Y-12504D01*
X15434Y-12504D01*
X15605Y-12433D01*
X15737Y-12302D01*
X15808Y-12131D01*
X15808Y-11945D01*
X15808Y-13853D01*
X15734Y-13928D01*
X15650Y-14130D01*
X15649Y-14348D01*
X15733Y-14551D01*
X15888Y-14705D01*
X16090Y-14789D01*
X16308Y-14790D01*
X16511Y-14706D01*
X16665Y-14551D01*
X16749Y-14349D01*
X16750Y-14131D01*
X16750Y-15678D01*
X16697Y-15700D01*
X16022Y-15700D01*
X16022Y-15301D01*
X16011Y-15083D01*
X15949Y-14932D01*
X15853Y-14904D01*
X15783Y-14975D01*
X15783Y-14834D01*
X15755Y-14738D01*
X15549Y-14665D01*
X15331Y-14676D01*
X15180Y-14738D01*
X15152Y-14834D01*
X15468Y-15149D01*
X15783Y-14834D01*
X15783Y-14975D01*
X15538Y-15220D01*
X15853Y-15535D01*
X15949Y-15507D01*
X16022Y-15301D01*
X16022Y-15700D01*
X15756Y-15700D01*
X15783Y-15605D01*
X15468Y-15290D01*
X15152Y-15605D01*
X15179Y-15700D01*
X14746Y-15700D01*
X14779Y-15686D01*
X14933Y-15531D01*
X14965Y-15456D01*
X14986Y-15507D01*
X15082Y-15535D01*
X15397Y-15220D01*
X15082Y-14904D01*
X14986Y-14932D01*
X14967Y-14987D01*
X14934Y-14908D01*
X14779Y-14754D01*
X14577Y-14670D01*
X14359Y-14669D01*
X14156Y-14753D01*
X14018Y-14892D01*
X14018Y-14870D01*
X13980Y-14778D01*
X13909Y-14708D01*
X13817Y-14670D01*
X13718Y-14669D01*
X13255Y-14669D01*
X13255Y-13515D01*
X13244Y-13307D01*
X13186Y-13167D01*
X13093Y-13142D01*
X13023Y-13213D01*
X13023Y-13072D01*
X12998Y-12979D01*
X12801Y-12910D01*
X12593Y-12921D01*
X12453Y-12979D01*
X12428Y-13072D01*
X12726Y-13369D01*
X13023Y-13072D01*
X13023Y-13213D01*
X12796Y-13440D01*
X13093Y-13737D01*
X13186Y-13712D01*
X13255Y-13515D01*
X13255Y-14669D01*
X13118Y-14669D01*
X13026Y-14707D01*
X13023Y-14711D01*
X13023Y-13807D01*
X12726Y-13510D01*
X12655Y-13581D01*
X12655Y-13440D01*
X12358Y-13142D01*
X12265Y-13167D01*
X12196Y-13364D01*
X12207Y-13572D01*
X12265Y-13712D01*
X12358Y-13737D01*
X12655Y-13440D01*
X12655Y-13581D01*
X12428Y-13807D01*
X12453Y-13900D01*
X12650Y-13969D01*
X12858Y-13958D01*
X12998Y-13900D01*
X13023Y-13807D01*
X13023Y-14711D01*
X12956Y-14778D01*
X12918Y-14870D01*
X12917Y-14969D01*
X12917Y-15569D01*
X12955Y-15661D01*
X12994Y-15700D01*
X12054Y-15700D01*
X12054Y-13831D01*
X12043Y-13613D01*
X11981Y-13462D01*
X11885Y-13434D01*
X11570Y-13750D01*
X11885Y-14065D01*
X11981Y-14037D01*
X12054Y-13831D01*
X12054Y-15700D01*
X12053Y-15700D01*
X12050Y-15698D01*
X12050Y-15000D01*
X12050Y-14400D01*
X12012Y-14308D01*
X11941Y-14238D01*
X11849Y-14200D01*
X11796Y-14199D01*
X11815Y-14135D01*
X11500Y-13820D01*
X11429Y-13891D01*
X11429Y-13750D01*
X11114Y-13434D01*
X11018Y-13462D01*
X10945Y-13668D01*
X10956Y-13886D01*
X11018Y-14037D01*
X11114Y-14065D01*
X11429Y-13750D01*
X11429Y-13891D01*
X11184Y-14135D01*
X11203Y-14199D01*
X11150Y-14199D01*
X11058Y-14237D01*
X10988Y-14308D01*
X10950Y-14400D01*
X10949Y-14499D01*
X10949Y-15099D01*
X10987Y-15191D01*
X11058Y-15261D01*
X11150Y-15299D01*
X11249Y-15300D01*
X11849Y-15300D01*
X11941Y-15262D01*
X12011Y-15191D01*
X12049Y-15099D01*
X12050Y-15000D01*
X12050Y-15698D01*
X11960Y-15661D01*
X11959Y-15661D01*
X11703Y-15610D01*
X11702Y-15610D01*
X11597Y-15610D01*
X11338Y-15661D01*
X11247Y-15700D01*
X10769Y-15700D01*
X10769Y-8800D01*
X11237Y-8800D01*
X11240Y-8801D01*
X11241Y-8802D01*
X11338Y-8843D01*
X11597Y-8894D01*
X11702Y-8894D01*
X11703Y-8894D01*
X11959Y-8843D01*
X11960Y-8843D01*
X12057Y-8802D01*
X12062Y-8800D01*
X12516Y-8800D01*
X12516Y-8319D01*
X12538Y-8266D01*
X12542Y-8246D01*
X16205Y-8246D01*
X16206Y-8254D01*
X16206Y-8255D01*
X16247Y-8352D01*
X16308Y-8444D01*
X16308Y-8800D01*
X16704Y-8800D01*
X16783Y-8833D01*
X16984Y-8873D01*
X17033Y-8883D01*
X17033Y-8883D01*
X17037Y-8883D01*
X17042Y-8884D01*
X17103Y-8884D01*
X17138Y-8885D01*
X17141Y-8884D01*
X17147Y-8884D01*
X17148Y-8884D01*
X17202Y-8873D01*
X17395Y-8838D01*
X17395Y-8838D01*
X17491Y-8800D01*
X17980Y-8800D01*
X17980Y-15700D01*
M02*
