M48
;DRILL file {Pcbnew (2013-07-07 BZR 4022)-stable} date 5/1/2015 4:40:22 PM
;FORMAT={-:-/ absolute / inch / decimal}
FMAT,2
INCH,TZ
T1C0.031
T2C0.032
T3C0.040
%
G90
G05
M72
T1
X1.3842Y-1.2038
X1.4342Y-1.2038
X1.4842Y-1.2038
X1.5342Y-1.2038
T2
X1.2726Y-1.144
X1.2726Y-1.344
X1.62Y-1.024
X1.62Y-1.424
T3
X1.15Y-0.975
X1.15Y-1.075
X1.15Y-1.175
X1.15Y-1.275
X1.15Y-1.375
X1.15Y-1.475
X1.3468Y-1.522
X1.348Y-0.9288
X1.4468Y-1.522
X1.448Y-0.9288
X1.5468Y-1.522
X1.548Y-0.9288
X1.725Y-1.125
X1.725Y-1.225
X1.725Y-1.325
T0
M30
