G04 (created by PCBNEW (2013-07-07 BZR 4022)-stable) date 5/1/2015 4:40:18 PM*
%MOIN*%
G04 Gerber Fmt 3.4, Leading zero omitted, Abs format*
%FSLAX34Y34*%
G01*
G70*
G90*
G04 APERTURE LIST*
%ADD10C,0.00590551*%
%ADD11C,0.00492126*%
%ADD12C,0.006*%
%ADD13C,0.012*%
%ADD14C,0.008*%
G04 APERTURE END LIST*
G54D10*
G54D11*
X12745Y-7395D02*
X12886Y-7395D01*
X12717Y-7479D02*
X12816Y-7184D01*
X12914Y-7479D01*
X13013Y-7282D02*
X13013Y-7577D01*
X13013Y-7296D02*
X13041Y-7282D01*
X13097Y-7282D01*
X13125Y-7296D01*
X13139Y-7310D01*
X13153Y-7338D01*
X13153Y-7423D01*
X13139Y-7451D01*
X13125Y-7465D01*
X13097Y-7479D01*
X13041Y-7479D01*
X13013Y-7465D01*
X13280Y-7282D02*
X13280Y-7577D01*
X13280Y-7296D02*
X13308Y-7282D01*
X13364Y-7282D01*
X13392Y-7296D01*
X13406Y-7310D01*
X13420Y-7338D01*
X13420Y-7423D01*
X13406Y-7451D01*
X13392Y-7465D01*
X13364Y-7479D01*
X13308Y-7479D01*
X13280Y-7465D01*
X13673Y-7479D02*
X13673Y-7324D01*
X13659Y-7296D01*
X13631Y-7282D01*
X13575Y-7282D01*
X13547Y-7296D01*
X13673Y-7465D02*
X13645Y-7479D01*
X13575Y-7479D01*
X13547Y-7465D01*
X13533Y-7437D01*
X13533Y-7409D01*
X13547Y-7381D01*
X13575Y-7367D01*
X13645Y-7367D01*
X13673Y-7352D01*
X13814Y-7479D02*
X13814Y-7282D01*
X13814Y-7338D02*
X13828Y-7310D01*
X13842Y-7296D01*
X13870Y-7282D01*
X13898Y-7282D01*
X14109Y-7465D02*
X14081Y-7479D01*
X14025Y-7479D01*
X13997Y-7465D01*
X13983Y-7437D01*
X13983Y-7324D01*
X13997Y-7296D01*
X14025Y-7282D01*
X14081Y-7282D01*
X14109Y-7296D01*
X14123Y-7324D01*
X14123Y-7352D01*
X13983Y-7381D01*
X14292Y-7479D02*
X14264Y-7465D01*
X14250Y-7437D01*
X14250Y-7184D01*
X14616Y-7465D02*
X14658Y-7479D01*
X14728Y-7479D01*
X14756Y-7465D01*
X14770Y-7451D01*
X14784Y-7423D01*
X14784Y-7395D01*
X14770Y-7367D01*
X14756Y-7352D01*
X14728Y-7338D01*
X14672Y-7324D01*
X14644Y-7310D01*
X14630Y-7296D01*
X14616Y-7268D01*
X14616Y-7240D01*
X14630Y-7212D01*
X14644Y-7198D01*
X14672Y-7184D01*
X14742Y-7184D01*
X14784Y-7198D01*
X15023Y-7465D02*
X14995Y-7479D01*
X14939Y-7479D01*
X14911Y-7465D01*
X14897Y-7437D01*
X14897Y-7324D01*
X14911Y-7296D01*
X14939Y-7282D01*
X14995Y-7282D01*
X15023Y-7296D01*
X15037Y-7324D01*
X15037Y-7352D01*
X14897Y-7381D01*
X15164Y-7282D02*
X15164Y-7479D01*
X15164Y-7310D02*
X15178Y-7296D01*
X15206Y-7282D01*
X15248Y-7282D01*
X15276Y-7296D01*
X15290Y-7324D01*
X15290Y-7479D01*
X15417Y-7465D02*
X15445Y-7479D01*
X15501Y-7479D01*
X15530Y-7465D01*
X15544Y-7437D01*
X15544Y-7423D01*
X15530Y-7395D01*
X15501Y-7381D01*
X15459Y-7381D01*
X15431Y-7367D01*
X15417Y-7338D01*
X15417Y-7324D01*
X15431Y-7296D01*
X15459Y-7282D01*
X15501Y-7282D01*
X15530Y-7296D01*
X15712Y-7479D02*
X15684Y-7465D01*
X15670Y-7451D01*
X15656Y-7423D01*
X15656Y-7338D01*
X15670Y-7310D01*
X15684Y-7296D01*
X15712Y-7282D01*
X15754Y-7282D01*
X15783Y-7296D01*
X15797Y-7310D01*
X15811Y-7338D01*
X15811Y-7423D01*
X15797Y-7451D01*
X15783Y-7465D01*
X15754Y-7479D01*
X15712Y-7479D01*
X15937Y-7479D02*
X15937Y-7282D01*
X15937Y-7338D02*
X15951Y-7310D01*
X15965Y-7296D01*
X15994Y-7282D01*
X16022Y-7282D01*
X12949Y-7857D02*
X13090Y-7857D01*
X12921Y-7942D02*
X13020Y-7646D01*
X13118Y-7942D01*
X13217Y-7942D02*
X13217Y-7745D01*
X13217Y-7801D02*
X13231Y-7773D01*
X13245Y-7759D01*
X13273Y-7745D01*
X13301Y-7745D01*
X13399Y-7942D02*
X13399Y-7745D01*
X13399Y-7801D02*
X13413Y-7773D01*
X13427Y-7759D01*
X13456Y-7745D01*
X13484Y-7745D01*
X13709Y-7942D02*
X13709Y-7787D01*
X13695Y-7759D01*
X13666Y-7745D01*
X13610Y-7745D01*
X13582Y-7759D01*
X13709Y-7928D02*
X13681Y-7942D01*
X13610Y-7942D01*
X13582Y-7928D01*
X13568Y-7899D01*
X13568Y-7871D01*
X13582Y-7843D01*
X13610Y-7829D01*
X13681Y-7829D01*
X13709Y-7815D01*
X13821Y-7745D02*
X13891Y-7942D01*
X13962Y-7745D02*
X13891Y-7942D01*
X13863Y-8012D01*
X13849Y-8026D01*
X13821Y-8040D01*
X14299Y-7942D02*
X14299Y-7646D01*
X14412Y-7646D01*
X14440Y-7660D01*
X14454Y-7674D01*
X14468Y-7703D01*
X14468Y-7745D01*
X14454Y-7773D01*
X14440Y-7787D01*
X14412Y-7801D01*
X14299Y-7801D01*
X14763Y-7913D02*
X14749Y-7928D01*
X14707Y-7942D01*
X14679Y-7942D01*
X14637Y-7928D01*
X14609Y-7899D01*
X14594Y-7871D01*
X14580Y-7815D01*
X14580Y-7773D01*
X14594Y-7717D01*
X14609Y-7689D01*
X14637Y-7660D01*
X14679Y-7646D01*
X14707Y-7646D01*
X14749Y-7660D01*
X14763Y-7674D01*
X14988Y-7787D02*
X15030Y-7801D01*
X15044Y-7815D01*
X15058Y-7843D01*
X15058Y-7885D01*
X15044Y-7913D01*
X15030Y-7928D01*
X15002Y-7942D01*
X14890Y-7942D01*
X14890Y-7646D01*
X14988Y-7646D01*
X15016Y-7660D01*
X15030Y-7674D01*
X15044Y-7703D01*
X15044Y-7731D01*
X15030Y-7759D01*
X15016Y-7773D01*
X14988Y-7787D01*
X14890Y-7787D01*
X15382Y-7745D02*
X15452Y-7942D01*
X15522Y-7745D01*
X15790Y-7942D02*
X15621Y-7942D01*
X15705Y-7942D02*
X15705Y-7646D01*
X15677Y-7689D01*
X15649Y-7717D01*
X15621Y-7731D01*
X13427Y-16189D02*
X13286Y-16189D01*
X13286Y-15894D01*
X13652Y-16189D02*
X13652Y-16034D01*
X13638Y-16006D01*
X13609Y-15992D01*
X13553Y-15992D01*
X13525Y-16006D01*
X13652Y-16175D02*
X13623Y-16189D01*
X13553Y-16189D01*
X13525Y-16175D01*
X13511Y-16147D01*
X13511Y-16119D01*
X13525Y-16091D01*
X13553Y-16077D01*
X13623Y-16077D01*
X13652Y-16062D01*
X13764Y-15894D02*
X13961Y-15894D01*
X13764Y-16189D01*
X13961Y-16189D01*
X14073Y-16189D02*
X14073Y-15894D01*
X14383Y-16189D02*
X14284Y-16048D01*
X14214Y-16189D02*
X14214Y-15894D01*
X14327Y-15894D01*
X14355Y-15908D01*
X14369Y-15922D01*
X14383Y-15950D01*
X14383Y-15992D01*
X14369Y-16020D01*
X14355Y-16034D01*
X14327Y-16048D01*
X14214Y-16048D01*
X14692Y-15894D02*
X14861Y-15894D01*
X14776Y-16189D02*
X14776Y-15894D01*
X15086Y-16189D02*
X15086Y-16034D01*
X15072Y-16006D01*
X15044Y-15992D01*
X14987Y-15992D01*
X14959Y-16006D01*
X15086Y-16175D02*
X15058Y-16189D01*
X14987Y-16189D01*
X14959Y-16175D01*
X14945Y-16147D01*
X14945Y-16119D01*
X14959Y-16091D01*
X14987Y-16077D01*
X15058Y-16077D01*
X15086Y-16062D01*
X15353Y-15992D02*
X15353Y-16231D01*
X15339Y-16259D01*
X15325Y-16273D01*
X15297Y-16287D01*
X15255Y-16287D01*
X15226Y-16273D01*
X15353Y-16175D02*
X15325Y-16189D01*
X15269Y-16189D01*
X15240Y-16175D01*
X15226Y-16161D01*
X15212Y-16133D01*
X15212Y-16048D01*
X15226Y-16020D01*
X15240Y-16006D01*
X15269Y-15992D01*
X15325Y-15992D01*
X15353Y-16006D01*
X13202Y-16567D02*
X13342Y-16567D01*
X13174Y-16652D02*
X13272Y-16356D01*
X13370Y-16652D01*
X13469Y-16455D02*
X13469Y-16750D01*
X13469Y-16469D02*
X13497Y-16455D01*
X13553Y-16455D01*
X13581Y-16469D01*
X13595Y-16483D01*
X13609Y-16511D01*
X13609Y-16595D01*
X13595Y-16623D01*
X13581Y-16638D01*
X13553Y-16652D01*
X13497Y-16652D01*
X13469Y-16638D01*
X13736Y-16652D02*
X13736Y-16455D01*
X13736Y-16511D02*
X13750Y-16483D01*
X13764Y-16469D01*
X13792Y-16455D01*
X13820Y-16455D01*
X13919Y-16652D02*
X13919Y-16455D01*
X13919Y-16356D02*
X13905Y-16370D01*
X13919Y-16384D01*
X13933Y-16370D01*
X13919Y-16356D01*
X13919Y-16384D01*
X14102Y-16652D02*
X14073Y-16638D01*
X14059Y-16609D01*
X14059Y-16356D01*
X14425Y-16384D02*
X14439Y-16370D01*
X14467Y-16356D01*
X14537Y-16356D01*
X14566Y-16370D01*
X14580Y-16384D01*
X14594Y-16413D01*
X14594Y-16441D01*
X14580Y-16483D01*
X14411Y-16652D01*
X14594Y-16652D01*
X14776Y-16356D02*
X14805Y-16356D01*
X14833Y-16370D01*
X14847Y-16384D01*
X14861Y-16413D01*
X14875Y-16469D01*
X14875Y-16539D01*
X14861Y-16595D01*
X14847Y-16623D01*
X14833Y-16638D01*
X14805Y-16652D01*
X14776Y-16652D01*
X14748Y-16638D01*
X14734Y-16623D01*
X14720Y-16595D01*
X14706Y-16539D01*
X14706Y-16469D01*
X14720Y-16413D01*
X14734Y-16384D01*
X14748Y-16370D01*
X14776Y-16356D01*
X15156Y-16652D02*
X14987Y-16652D01*
X15072Y-16652D02*
X15072Y-16356D01*
X15044Y-16399D01*
X15016Y-16427D01*
X14987Y-16441D01*
X15423Y-16356D02*
X15283Y-16356D01*
X15269Y-16497D01*
X15283Y-16483D01*
X15311Y-16469D01*
X15381Y-16469D01*
X15409Y-16483D01*
X15423Y-16497D01*
X15437Y-16525D01*
X15437Y-16595D01*
X15423Y-16623D01*
X15409Y-16638D01*
X15381Y-16652D01*
X15311Y-16652D01*
X15283Y-16638D01*
X15269Y-16623D01*
X12667Y-17114D02*
X12667Y-16819D01*
X12738Y-16819D01*
X12780Y-16833D01*
X12808Y-16861D01*
X12822Y-16889D01*
X12836Y-16945D01*
X12836Y-16988D01*
X12822Y-17044D01*
X12808Y-17072D01*
X12780Y-17100D01*
X12738Y-17114D01*
X12667Y-17114D01*
X13089Y-17114D02*
X13089Y-16960D01*
X13075Y-16931D01*
X13047Y-16917D01*
X12991Y-16917D01*
X12963Y-16931D01*
X13089Y-17100D02*
X13061Y-17114D01*
X12991Y-17114D01*
X12963Y-17100D01*
X12949Y-17072D01*
X12949Y-17044D01*
X12963Y-17016D01*
X12991Y-17002D01*
X13061Y-17002D01*
X13089Y-16988D01*
X13230Y-16917D02*
X13230Y-17114D01*
X13230Y-16945D02*
X13244Y-16931D01*
X13272Y-16917D01*
X13314Y-16917D01*
X13342Y-16931D01*
X13356Y-16960D01*
X13356Y-17114D01*
X13497Y-17114D02*
X13497Y-16917D01*
X13497Y-16819D02*
X13483Y-16833D01*
X13497Y-16847D01*
X13511Y-16833D01*
X13497Y-16819D01*
X13497Y-16847D01*
X13750Y-17100D02*
X13722Y-17114D01*
X13666Y-17114D01*
X13638Y-17100D01*
X13623Y-17072D01*
X13623Y-16960D01*
X13638Y-16931D01*
X13666Y-16917D01*
X13722Y-16917D01*
X13750Y-16931D01*
X13764Y-16960D01*
X13764Y-16988D01*
X13623Y-17016D01*
X13933Y-17114D02*
X13905Y-17100D01*
X13891Y-17072D01*
X13891Y-16819D01*
X14411Y-17114D02*
X14270Y-17114D01*
X14270Y-16819D01*
X14622Y-17100D02*
X14594Y-17114D01*
X14537Y-17114D01*
X14509Y-17100D01*
X14495Y-17072D01*
X14495Y-16960D01*
X14509Y-16931D01*
X14537Y-16917D01*
X14594Y-16917D01*
X14622Y-16931D01*
X14636Y-16960D01*
X14636Y-16988D01*
X14495Y-17016D01*
X14720Y-16917D02*
X14833Y-16917D01*
X14762Y-17114D02*
X14762Y-16861D01*
X14776Y-16833D01*
X14805Y-16819D01*
X14833Y-16819D01*
X15044Y-17100D02*
X15016Y-17114D01*
X14959Y-17114D01*
X14931Y-17100D01*
X14917Y-17072D01*
X14917Y-16960D01*
X14931Y-16931D01*
X14959Y-16917D01*
X15016Y-16917D01*
X15044Y-16931D01*
X15058Y-16960D01*
X15058Y-16988D01*
X14917Y-17016D01*
X15184Y-17114D02*
X15184Y-16819D01*
X15184Y-16931D02*
X15212Y-16917D01*
X15269Y-16917D01*
X15297Y-16931D01*
X15311Y-16945D01*
X15325Y-16974D01*
X15325Y-17058D01*
X15311Y-17086D01*
X15297Y-17100D01*
X15269Y-17114D01*
X15212Y-17114D01*
X15184Y-17100D01*
X15423Y-16917D02*
X15494Y-17114D01*
X15564Y-16917D01*
X15676Y-17114D02*
X15676Y-16917D01*
X15676Y-16974D02*
X15690Y-16945D01*
X15704Y-16931D01*
X15733Y-16917D01*
X15761Y-16917D01*
X15972Y-17100D02*
X15944Y-17114D01*
X15887Y-17114D01*
X15859Y-17100D01*
X15845Y-17072D01*
X15845Y-16960D01*
X15859Y-16931D01*
X15887Y-16917D01*
X15944Y-16917D01*
X15972Y-16931D01*
X15986Y-16960D01*
X15986Y-16988D01*
X15845Y-17016D01*
X12913Y-17577D02*
X12899Y-17577D01*
X12871Y-17563D01*
X12829Y-17521D01*
X12759Y-17436D01*
X12731Y-17394D01*
X12717Y-17352D01*
X12717Y-17324D01*
X12731Y-17296D01*
X12759Y-17282D01*
X12773Y-17282D01*
X12801Y-17296D01*
X12815Y-17324D01*
X12815Y-17338D01*
X12801Y-17366D01*
X12787Y-17380D01*
X12703Y-17436D01*
X12688Y-17450D01*
X12674Y-17478D01*
X12674Y-17521D01*
X12688Y-17549D01*
X12703Y-17563D01*
X12731Y-17577D01*
X12773Y-17577D01*
X12801Y-17563D01*
X12815Y-17549D01*
X12857Y-17492D01*
X12871Y-17450D01*
X12871Y-17422D01*
X13349Y-17282D02*
X13349Y-17492D01*
X13335Y-17535D01*
X13307Y-17563D01*
X13265Y-17577D01*
X13237Y-17577D01*
X13532Y-17577D02*
X13504Y-17563D01*
X13490Y-17549D01*
X13476Y-17521D01*
X13476Y-17436D01*
X13490Y-17408D01*
X13504Y-17394D01*
X13532Y-17380D01*
X13574Y-17380D01*
X13602Y-17394D01*
X13616Y-17408D01*
X13631Y-17436D01*
X13631Y-17521D01*
X13616Y-17549D01*
X13602Y-17563D01*
X13574Y-17577D01*
X13532Y-17577D01*
X13757Y-17577D02*
X13757Y-17282D01*
X13884Y-17577D02*
X13884Y-17422D01*
X13870Y-17394D01*
X13841Y-17380D01*
X13799Y-17380D01*
X13771Y-17394D01*
X13757Y-17408D01*
X14024Y-17380D02*
X14024Y-17577D01*
X14024Y-17408D02*
X14038Y-17394D01*
X14066Y-17380D01*
X14109Y-17380D01*
X14137Y-17394D01*
X14151Y-17422D01*
X14151Y-17577D01*
X14502Y-17492D02*
X14643Y-17492D01*
X14474Y-17577D02*
X14573Y-17282D01*
X14671Y-17577D01*
X14812Y-17577D02*
X14784Y-17563D01*
X14769Y-17535D01*
X14769Y-17282D01*
X15037Y-17563D02*
X15008Y-17577D01*
X14952Y-17577D01*
X14924Y-17563D01*
X14910Y-17535D01*
X14910Y-17422D01*
X14924Y-17394D01*
X14952Y-17380D01*
X15008Y-17380D01*
X15037Y-17394D01*
X15051Y-17422D01*
X15051Y-17450D01*
X14910Y-17478D01*
X15177Y-17577D02*
X15177Y-17380D01*
X15177Y-17408D02*
X15191Y-17394D01*
X15219Y-17380D01*
X15262Y-17380D01*
X15290Y-17394D01*
X15304Y-17422D01*
X15304Y-17577D01*
X15304Y-17422D02*
X15318Y-17394D01*
X15346Y-17380D01*
X15388Y-17380D01*
X15416Y-17394D01*
X15430Y-17422D01*
X15430Y-17577D01*
X15697Y-17577D02*
X15697Y-17422D01*
X15683Y-17394D01*
X15655Y-17380D01*
X15599Y-17380D01*
X15571Y-17394D01*
X15697Y-17563D02*
X15669Y-17577D01*
X15599Y-17577D01*
X15571Y-17563D01*
X15557Y-17535D01*
X15557Y-17507D01*
X15571Y-17478D01*
X15599Y-17464D01*
X15669Y-17464D01*
X15697Y-17450D01*
X15838Y-17380D02*
X15838Y-17577D01*
X15838Y-17408D02*
X15852Y-17394D01*
X15880Y-17380D01*
X15922Y-17380D01*
X15951Y-17394D01*
X15965Y-17422D01*
X15965Y-17577D01*
G54D10*
X15592Y-12038D02*
X15592Y-11528D01*
X15592Y-11528D02*
G75*
G03X14082Y-11037I-1000J-509D01*
G74*
G01*
X15192Y-11088D02*
G75*
G03X13642Y-11437I-600J-949D01*
G74*
G01*
X13642Y-11437D02*
G75*
G03X14041Y-13037I999J-600D01*
G74*
G01*
X14042Y-13038D02*
G75*
G03X15592Y-12587I549J1000D01*
G74*
G01*
X15592Y-12038D02*
X15592Y-12588D01*
X15593Y-12038D02*
G75*
G03X15593Y-12038I-1001J0D01*
G74*
G01*
G54D12*
X12980Y-9788D02*
X12980Y-8788D01*
X12980Y-8788D02*
X15980Y-8788D01*
X15980Y-8788D02*
X15980Y-9788D01*
X15980Y-9788D02*
X12980Y-9788D01*
X13980Y-8788D02*
X13980Y-9788D01*
X12968Y-15720D02*
X12968Y-14720D01*
X12968Y-14720D02*
X15968Y-14720D01*
X15968Y-14720D02*
X15968Y-15720D01*
X15968Y-15720D02*
X12968Y-15720D01*
X13968Y-14720D02*
X13968Y-15720D01*
X17750Y-13750D02*
X16750Y-13750D01*
X16750Y-13750D02*
X16750Y-10750D01*
X16750Y-10750D02*
X17750Y-10750D01*
X17750Y-10750D02*
X17750Y-13750D01*
X16750Y-12750D02*
X17750Y-12750D01*
G54D13*
X12000Y-15250D02*
X11000Y-15250D01*
X11000Y-15250D02*
X11000Y-9250D01*
X11000Y-9250D02*
X12000Y-9250D01*
X12000Y-9250D02*
X12000Y-15250D01*
X12000Y-14250D02*
X11000Y-14250D01*
X12326Y-13840D02*
X12326Y-11040D01*
X12326Y-11040D02*
X13126Y-11040D01*
X13126Y-11040D02*
X13126Y-13840D01*
X13126Y-13840D02*
X12326Y-13840D01*
X12526Y-13840D02*
X12326Y-13640D01*
X16200Y-14240D02*
X16200Y-13840D01*
X16200Y-13840D02*
X15800Y-13840D01*
X15800Y-13840D02*
X15800Y-10640D01*
X15800Y-10640D02*
X16600Y-10640D01*
X16600Y-10640D02*
X16600Y-13840D01*
X16600Y-13840D02*
X16200Y-13840D01*
X16000Y-13840D02*
X15800Y-13640D01*
X16200Y-10240D02*
X16200Y-10640D01*
G54D10*
X13735Y-13697D02*
X13604Y-13509D01*
X13510Y-13697D02*
X13510Y-13303D01*
X13660Y-13303D01*
X13698Y-13322D01*
X13717Y-13341D01*
X13735Y-13378D01*
X13735Y-13434D01*
X13717Y-13472D01*
X13698Y-13491D01*
X13660Y-13509D01*
X13510Y-13509D01*
X14110Y-13322D02*
X14073Y-13303D01*
X14017Y-13303D01*
X13960Y-13322D01*
X13923Y-13359D01*
X13904Y-13397D01*
X13885Y-13472D01*
X13885Y-13528D01*
X13904Y-13603D01*
X13923Y-13641D01*
X13960Y-13678D01*
X14017Y-13697D01*
X14054Y-13697D01*
X14110Y-13678D01*
X14129Y-13659D01*
X14129Y-13528D01*
X14054Y-13528D01*
X14429Y-13491D02*
X14485Y-13509D01*
X14504Y-13528D01*
X14523Y-13566D01*
X14523Y-13622D01*
X14504Y-13659D01*
X14485Y-13678D01*
X14448Y-13697D01*
X14298Y-13697D01*
X14298Y-13303D01*
X14429Y-13303D01*
X14467Y-13322D01*
X14485Y-13341D01*
X14504Y-13378D01*
X14504Y-13416D01*
X14485Y-13453D01*
X14467Y-13472D01*
X14429Y-13491D01*
X14298Y-13491D01*
X14879Y-13697D02*
X14691Y-13697D01*
X14691Y-13303D01*
X15010Y-13491D02*
X15141Y-13491D01*
X15198Y-13697D02*
X15010Y-13697D01*
X15010Y-13303D01*
X15198Y-13303D01*
X15366Y-13697D02*
X15366Y-13303D01*
X15460Y-13303D01*
X15516Y-13322D01*
X15554Y-13359D01*
X15573Y-13397D01*
X15591Y-13472D01*
X15591Y-13528D01*
X15573Y-13603D01*
X15554Y-13641D01*
X15516Y-13678D01*
X15460Y-13697D01*
X15366Y-13697D01*
G54D12*
X16175Y-8999D02*
X16175Y-9323D01*
X16194Y-9361D01*
X16213Y-9380D01*
X16251Y-9399D01*
X16327Y-9399D01*
X16365Y-9380D01*
X16384Y-9361D01*
X16403Y-9323D01*
X16403Y-8999D01*
X16803Y-9399D02*
X16575Y-9399D01*
X16689Y-9399D02*
X16689Y-8999D01*
X16651Y-9057D01*
X16613Y-9095D01*
X16575Y-9114D01*
X12163Y-15031D02*
X12163Y-15355D01*
X12182Y-15393D01*
X12201Y-15412D01*
X12239Y-15431D01*
X12315Y-15431D01*
X12353Y-15412D01*
X12372Y-15393D01*
X12391Y-15355D01*
X12391Y-15031D01*
X12563Y-15070D02*
X12582Y-15050D01*
X12620Y-15031D01*
X12715Y-15031D01*
X12753Y-15050D01*
X12772Y-15070D01*
X12791Y-15108D01*
X12791Y-15146D01*
X12772Y-15203D01*
X12544Y-15431D01*
X12791Y-15431D01*
X16895Y-13861D02*
X16895Y-14185D01*
X16914Y-14223D01*
X16933Y-14242D01*
X16971Y-14261D01*
X17047Y-14261D01*
X17085Y-14242D01*
X17104Y-14223D01*
X17123Y-14185D01*
X17123Y-13861D01*
X17276Y-13861D02*
X17523Y-13861D01*
X17390Y-14014D01*
X17447Y-14014D01*
X17485Y-14033D01*
X17504Y-14052D01*
X17523Y-14090D01*
X17523Y-14185D01*
X17504Y-14223D01*
X17485Y-14242D01*
X17447Y-14261D01*
X17333Y-14261D01*
X17295Y-14242D01*
X17276Y-14223D01*
G54D14*
X12209Y-9659D02*
X12209Y-9265D01*
X12359Y-9265D01*
X12396Y-9284D01*
X12415Y-9303D01*
X12434Y-9340D01*
X12434Y-9396D01*
X12415Y-9434D01*
X12396Y-9453D01*
X12359Y-9471D01*
X12209Y-9471D01*
X12809Y-9659D02*
X12584Y-9659D01*
X12696Y-9659D02*
X12696Y-9265D01*
X12659Y-9321D01*
X12621Y-9359D01*
X12584Y-9378D01*
X11899Y-12443D02*
X11880Y-12462D01*
X11823Y-12481D01*
X11785Y-12481D01*
X11727Y-12462D01*
X11689Y-12424D01*
X11670Y-12386D01*
X11651Y-12310D01*
X11651Y-12253D01*
X11670Y-12177D01*
X11689Y-12139D01*
X11727Y-12100D01*
X11785Y-12081D01*
X11823Y-12081D01*
X11880Y-12100D01*
X11899Y-12120D01*
X12280Y-12481D02*
X12051Y-12481D01*
X12166Y-12481D02*
X12166Y-12081D01*
X12127Y-12139D01*
X12089Y-12177D01*
X12051Y-12196D01*
X16422Y-12323D02*
X16160Y-12490D01*
X16422Y-12609D02*
X15872Y-12609D01*
X15872Y-12418D01*
X15898Y-12370D01*
X15925Y-12347D01*
X15977Y-12323D01*
X16055Y-12323D01*
X16108Y-12347D01*
X16134Y-12370D01*
X16160Y-12418D01*
X16160Y-12609D01*
X16422Y-11847D02*
X16422Y-12132D01*
X16422Y-11990D02*
X15872Y-11990D01*
X15951Y-12037D01*
X16003Y-12085D01*
X16029Y-12132D01*
M02*
