G04 (created by PCBNEW (2013-07-07 BZR 4022)-stable) date 5/1/2015 4:36:49 PM*
%MOIN*%
G04 Gerber Fmt 3.4, Leading zero omitted, Abs format*
%FSLAX34Y34*%
G01*
G70*
G90*
G04 APERTURE LIST*
%ADD10C,0.00590551*%
%ADD11R,0.055X0.055*%
%ADD12C,0.055*%
%ADD13R,0.07X0.07*%
%ADD14C,0.07*%
%ADD15R,0.35X0.35*%
%ADD16R,0.03X0.02*%
%ADD17C,0.0590551*%
%ADD18C,0.06*%
%ADD19R,0.06X0.06*%
%ADD20R,0.0531496X0.015748*%
%ADD21R,0.0551181X0.0629921*%
%ADD22O,0.0629921X0.0354331*%
%ADD23R,0.0748031X0.0748031*%
%ADD24C,0.066*%
%ADD25R,0.0472X0.0472*%
%ADD26C,0.056*%
%ADD27R,0.0551181X0.0787402*%
%ADD28R,0.0787402X0.0551181*%
%ADD29C,0.035*%
%ADD30C,0.02*%
%ADD31C,0.0153937*%
%ADD32C,0.01*%
G04 APERTURE END LIST*
G54D10*
G54D11*
X25630Y-41120D03*
G54D12*
X25630Y-40120D03*
X24630Y-40120D03*
G54D13*
X23280Y-45630D03*
G54D14*
X23280Y-43630D03*
X23280Y-44630D03*
G54D15*
X29780Y-44630D03*
G54D16*
X18940Y-37215D03*
X18940Y-37965D03*
X19940Y-37215D03*
X18940Y-37590D03*
X19940Y-37965D03*
G54D17*
X28172Y-40968D03*
X27187Y-40968D03*
G54D18*
X32540Y-38180D03*
X32540Y-42180D03*
X30430Y-42180D03*
X30430Y-38180D03*
X29380Y-42180D03*
X29380Y-38180D03*
X35380Y-49170D03*
X31380Y-49170D03*
X31470Y-42180D03*
X31470Y-38180D03*
X20480Y-41180D03*
X24480Y-41180D03*
X20600Y-37590D03*
X24600Y-37590D03*
G54D19*
X16840Y-45270D03*
G54D18*
X17840Y-45270D03*
X18840Y-45270D03*
G54D19*
X33390Y-58990D03*
G54D18*
X34390Y-58990D03*
X35390Y-58990D03*
X36390Y-58990D03*
X37390Y-58990D03*
X38390Y-58990D03*
G54D20*
X18054Y-38288D03*
X18054Y-38544D03*
X18054Y-38800D03*
X18054Y-39055D03*
X18054Y-39311D03*
G54D21*
X17867Y-37540D03*
X17867Y-40059D03*
G54D22*
X16470Y-37422D03*
X16470Y-40177D03*
G54D23*
X16470Y-38327D03*
X16470Y-39272D03*
G54D24*
X22350Y-39950D03*
X22350Y-38950D03*
G54D25*
X30430Y-37133D03*
X30430Y-36307D03*
X33159Y-37472D03*
X33985Y-37472D03*
G54D26*
X34370Y-46860D03*
X34370Y-44860D03*
G54D12*
X37440Y-36590D03*
X37440Y-37590D03*
X37440Y-38590D03*
X37440Y-39590D03*
X37440Y-40590D03*
X37440Y-41590D03*
X37440Y-42590D03*
X37440Y-43590D03*
X37440Y-44590D03*
X37440Y-45590D03*
X37440Y-46590D03*
X37440Y-47590D03*
X37440Y-48590D03*
G54D11*
X37440Y-35590D03*
G54D12*
X40440Y-48590D03*
X40440Y-47590D03*
X40440Y-46590D03*
X40440Y-45590D03*
X40440Y-44590D03*
X40440Y-43590D03*
X40440Y-42590D03*
X40440Y-41590D03*
X40440Y-40590D03*
X40440Y-39590D03*
X40440Y-38590D03*
X40440Y-37590D03*
X40440Y-36590D03*
X40440Y-35590D03*
X32720Y-43260D03*
X32720Y-45260D03*
X32720Y-48230D03*
X32720Y-46230D03*
X21890Y-44320D03*
X21890Y-42320D03*
X19390Y-39170D03*
X19390Y-41170D03*
X36080Y-43600D03*
X36080Y-44600D03*
X24320Y-42330D03*
X23320Y-42330D03*
X31780Y-50210D03*
X32780Y-50210D03*
G54D17*
X20650Y-43280D03*
X20650Y-42280D03*
G54D19*
X31780Y-56470D03*
G54D18*
X31780Y-55470D03*
X31780Y-54470D03*
X31780Y-53470D03*
X31780Y-52470D03*
X31780Y-51470D03*
G54D19*
X43890Y-46590D03*
G54D18*
X43890Y-45590D03*
X43890Y-44590D03*
X43890Y-43590D03*
X43890Y-42590D03*
G54D19*
X53792Y-55374D03*
G54D18*
X52788Y-55374D03*
X51792Y-55374D03*
X50792Y-55374D03*
X49792Y-55374D03*
X48792Y-55374D03*
X47792Y-55374D03*
X46792Y-55374D03*
G54D19*
X34940Y-54180D03*
G54D18*
X33940Y-54180D03*
X34940Y-53180D03*
X33940Y-53180D03*
X34940Y-52180D03*
X33940Y-52180D03*
G54D19*
X34940Y-51180D03*
G54D18*
X33940Y-51180D03*
G54D27*
X36264Y-39590D03*
X35512Y-39590D03*
G54D28*
X32886Y-55815D03*
X32886Y-56567D03*
G54D18*
X36590Y-36480D03*
X32590Y-36480D03*
G54D11*
X39146Y-57306D03*
G54D12*
X40146Y-57306D03*
X40146Y-56306D03*
G54D11*
X36340Y-57230D03*
G54D12*
X37340Y-57230D03*
X37340Y-56230D03*
G54D11*
X41890Y-57402D03*
G54D12*
X42890Y-57402D03*
X42890Y-56402D03*
X41310Y-40160D03*
X41310Y-42160D03*
G54D29*
X36081Y-41598D03*
X34293Y-38709D03*
X38815Y-42553D03*
X18940Y-36740D03*
X34940Y-37770D03*
X36633Y-42087D03*
X20030Y-46610D03*
X18940Y-38440D03*
X36946Y-39046D03*
G54D30*
X36080Y-43600D02*
X36080Y-41599D01*
X36080Y-41599D02*
X36081Y-41598D01*
X33159Y-37575D02*
X33159Y-37472D01*
X34293Y-38709D02*
X33159Y-37575D01*
X33159Y-37472D02*
X33159Y-37576D01*
X33159Y-37576D02*
X34286Y-38703D01*
X37440Y-42590D02*
X38778Y-42590D01*
X38778Y-42590D02*
X38815Y-42553D01*
X19390Y-41170D02*
X19390Y-40030D01*
X18740Y-39380D02*
X18740Y-39377D01*
X19390Y-40030D02*
X18740Y-39380D01*
G54D31*
X18054Y-39055D02*
X18418Y-39055D01*
X18418Y-39055D02*
X18740Y-39377D01*
G54D30*
X37440Y-48590D02*
X37440Y-54314D01*
X35390Y-56364D02*
X35390Y-58990D01*
X37440Y-54314D02*
X35390Y-56364D01*
X40146Y-57306D02*
X40016Y-57306D01*
X40740Y-48890D02*
X40440Y-48590D01*
X40740Y-56582D02*
X40740Y-48890D01*
X40016Y-57306D02*
X40740Y-56582D01*
X37340Y-57230D02*
X37660Y-57230D01*
X38158Y-47308D02*
X37440Y-46590D01*
X38158Y-56732D02*
X38158Y-47308D01*
X37660Y-57230D02*
X38158Y-56732D01*
X40440Y-47590D02*
X40630Y-47590D01*
X41550Y-56062D02*
X42890Y-57402D01*
X41550Y-48510D02*
X41550Y-56062D01*
X40630Y-47590D02*
X41550Y-48510D01*
X16840Y-45270D02*
X16840Y-44720D01*
X19240Y-42280D02*
X16820Y-44700D01*
X19240Y-42280D02*
X20650Y-42280D01*
X16840Y-44720D02*
X16820Y-44700D01*
X27187Y-40968D02*
X25781Y-40968D01*
X25781Y-40968D02*
X25630Y-41120D01*
X32886Y-55815D02*
X32886Y-53234D01*
X32886Y-53234D02*
X33940Y-52180D01*
X30430Y-38180D02*
X30430Y-37133D01*
X36590Y-36480D02*
X34977Y-36480D01*
X34977Y-36480D02*
X33985Y-37472D01*
G54D31*
X20600Y-37590D02*
X20315Y-37590D01*
X20315Y-37590D02*
X19940Y-37215D01*
G54D30*
X36264Y-39590D02*
X36264Y-38765D01*
X36264Y-38765D02*
X37440Y-37590D01*
G54D32*
X24480Y-41180D02*
X23580Y-41180D01*
X23580Y-41180D02*
X22350Y-39950D01*
G54D30*
X18940Y-36740D02*
X18940Y-37215D01*
X34940Y-38800D02*
X34940Y-37770D01*
X34940Y-41640D02*
X34940Y-38800D01*
X33670Y-42910D02*
X34940Y-41640D01*
X33670Y-49130D02*
X33670Y-42910D01*
X33320Y-49480D02*
X33670Y-49130D01*
X32050Y-49480D02*
X33320Y-49480D01*
X32050Y-49480D02*
X32780Y-50210D01*
X31380Y-49170D02*
X31740Y-49170D01*
X31740Y-49170D02*
X32050Y-49480D01*
X36633Y-42087D02*
X39137Y-42087D01*
X39310Y-43720D02*
X37440Y-45590D01*
X39310Y-42260D02*
X39310Y-43720D01*
X39137Y-42087D02*
X39310Y-42260D01*
X33940Y-51180D02*
X33940Y-49638D01*
X35512Y-48065D02*
X35512Y-39590D01*
X33940Y-49638D02*
X35512Y-48065D01*
X31780Y-54470D02*
X27860Y-54470D01*
X27860Y-54470D02*
X20030Y-46610D01*
X20480Y-41180D02*
X20480Y-40260D01*
X20480Y-40260D02*
X19390Y-39170D01*
G54D31*
X19020Y-38800D02*
X19105Y-38800D01*
X19105Y-38800D02*
X19940Y-37965D01*
X18054Y-38800D02*
X19020Y-38800D01*
X19020Y-38800D02*
X19390Y-39170D01*
G54D30*
X43890Y-40150D02*
X43890Y-39150D01*
X43890Y-39150D02*
X41130Y-36390D01*
X29632Y-35114D02*
X29790Y-34956D01*
X24630Y-40120D02*
X29180Y-35570D01*
X29790Y-34956D02*
X40606Y-34956D01*
X40606Y-34956D02*
X41130Y-35480D01*
X41130Y-35480D02*
X41130Y-36390D01*
X29180Y-35570D02*
X29180Y-35566D01*
X29180Y-35566D02*
X29632Y-35114D01*
X43890Y-42590D02*
X43890Y-43590D01*
X42890Y-56402D02*
X43748Y-56402D01*
X43748Y-56402D02*
X45040Y-55110D01*
X45040Y-55110D02*
X45040Y-44740D01*
X45040Y-44740D02*
X43890Y-43590D01*
X43890Y-42590D02*
X43890Y-40150D01*
X17840Y-45270D02*
X17840Y-45030D01*
X18550Y-44320D02*
X21890Y-44320D01*
X17840Y-45030D02*
X18550Y-44320D01*
G54D31*
X18940Y-37965D02*
X18940Y-38440D01*
G54D30*
X23280Y-44630D02*
X21903Y-44630D01*
X21890Y-44320D02*
X21890Y-44617D01*
X21903Y-44630D02*
X21890Y-44617D01*
X38940Y-39090D02*
X40440Y-40590D01*
X36990Y-39090D02*
X38940Y-39090D01*
X36946Y-39046D02*
X36990Y-39090D01*
X40440Y-40590D02*
X40880Y-40590D01*
X40880Y-40590D02*
X41310Y-40160D01*
G54D10*
G36*
X37214Y-36115D02*
X37143Y-36144D01*
X37074Y-36212D01*
X37056Y-36168D01*
X36901Y-36014D01*
X36699Y-35930D01*
X36481Y-35929D01*
X36278Y-36013D01*
X36162Y-36130D01*
X34977Y-36130D01*
X34843Y-36156D01*
X34729Y-36232D01*
X34729Y-36232D01*
X33976Y-36985D01*
X33699Y-36985D01*
X33607Y-37023D01*
X33571Y-37059D01*
X33536Y-37024D01*
X33444Y-36986D01*
X33345Y-36985D01*
X33144Y-36985D01*
X33144Y-36561D01*
X33133Y-36343D01*
X33071Y-36192D01*
X32975Y-36164D01*
X32905Y-36235D01*
X32905Y-36094D01*
X32877Y-35998D01*
X32671Y-35925D01*
X32453Y-35936D01*
X32302Y-35998D01*
X32274Y-36094D01*
X32590Y-36409D01*
X32905Y-36094D01*
X32905Y-36235D01*
X32660Y-36480D01*
X32975Y-36795D01*
X33071Y-36767D01*
X33144Y-36561D01*
X33144Y-36985D01*
X32905Y-36985D01*
X32905Y-36865D01*
X32590Y-36550D01*
X32519Y-36621D01*
X32519Y-36480D01*
X32204Y-36164D01*
X32108Y-36192D01*
X32035Y-36398D01*
X32046Y-36616D01*
X32108Y-36767D01*
X32204Y-36795D01*
X32519Y-36480D01*
X32519Y-36621D01*
X32274Y-36865D01*
X32302Y-36961D01*
X32508Y-37034D01*
X32726Y-37023D01*
X32877Y-36961D01*
X32905Y-36865D01*
X32905Y-36985D01*
X32873Y-36985D01*
X32781Y-37023D01*
X32711Y-37094D01*
X32673Y-37186D01*
X32672Y-37285D01*
X32672Y-37639D01*
X32649Y-37630D01*
X32431Y-37629D01*
X32228Y-37713D01*
X32074Y-37868D01*
X32004Y-38034D01*
X31936Y-37868D01*
X31781Y-37714D01*
X31579Y-37630D01*
X31361Y-37629D01*
X31158Y-37713D01*
X31004Y-37868D01*
X30949Y-37998D01*
X30896Y-37868D01*
X30780Y-37752D01*
X30780Y-37592D01*
X30807Y-37581D01*
X30877Y-37510D01*
X30915Y-37418D01*
X30916Y-37319D01*
X30916Y-36847D01*
X30878Y-36755D01*
X30842Y-36720D01*
X30878Y-36684D01*
X30916Y-36592D01*
X30916Y-36021D01*
X30878Y-35929D01*
X30807Y-35859D01*
X30715Y-35821D01*
X30616Y-35820D01*
X30542Y-35821D01*
X30480Y-35883D01*
X30480Y-36257D01*
X30853Y-36257D01*
X30916Y-36194D01*
X30916Y-36021D01*
X30916Y-36592D01*
X30916Y-36419D01*
X30853Y-36357D01*
X30480Y-36357D01*
X30480Y-36364D01*
X30380Y-36364D01*
X30380Y-36357D01*
X30372Y-36357D01*
X30372Y-36257D01*
X30380Y-36257D01*
X30380Y-35883D01*
X30317Y-35821D01*
X30243Y-35820D01*
X30144Y-35821D01*
X30070Y-35851D01*
X30070Y-35807D01*
X29402Y-35842D01*
X29427Y-35817D01*
X29435Y-35805D01*
X29879Y-35361D01*
X29934Y-35306D01*
X36915Y-35306D01*
X36914Y-35364D01*
X36914Y-35914D01*
X36952Y-36006D01*
X37023Y-36076D01*
X37115Y-36114D01*
X37214Y-36115D01*
X37214Y-36115D01*
X37214Y-36115D01*
G37*
G54D32*
X37214Y-36115D02*
X37143Y-36144D01*
X37074Y-36212D01*
X37056Y-36168D01*
X36901Y-36014D01*
X36699Y-35930D01*
X36481Y-35929D01*
X36278Y-36013D01*
X36162Y-36130D01*
X34977Y-36130D01*
X34843Y-36156D01*
X34729Y-36232D01*
X34729Y-36232D01*
X33976Y-36985D01*
X33699Y-36985D01*
X33607Y-37023D01*
X33571Y-37059D01*
X33536Y-37024D01*
X33444Y-36986D01*
X33345Y-36985D01*
X33144Y-36985D01*
X33144Y-36561D01*
X33133Y-36343D01*
X33071Y-36192D01*
X32975Y-36164D01*
X32905Y-36235D01*
X32905Y-36094D01*
X32877Y-35998D01*
X32671Y-35925D01*
X32453Y-35936D01*
X32302Y-35998D01*
X32274Y-36094D01*
X32590Y-36409D01*
X32905Y-36094D01*
X32905Y-36235D01*
X32660Y-36480D01*
X32975Y-36795D01*
X33071Y-36767D01*
X33144Y-36561D01*
X33144Y-36985D01*
X32905Y-36985D01*
X32905Y-36865D01*
X32590Y-36550D01*
X32519Y-36621D01*
X32519Y-36480D01*
X32204Y-36164D01*
X32108Y-36192D01*
X32035Y-36398D01*
X32046Y-36616D01*
X32108Y-36767D01*
X32204Y-36795D01*
X32519Y-36480D01*
X32519Y-36621D01*
X32274Y-36865D01*
X32302Y-36961D01*
X32508Y-37034D01*
X32726Y-37023D01*
X32877Y-36961D01*
X32905Y-36865D01*
X32905Y-36985D01*
X32873Y-36985D01*
X32781Y-37023D01*
X32711Y-37094D01*
X32673Y-37186D01*
X32672Y-37285D01*
X32672Y-37639D01*
X32649Y-37630D01*
X32431Y-37629D01*
X32228Y-37713D01*
X32074Y-37868D01*
X32004Y-38034D01*
X31936Y-37868D01*
X31781Y-37714D01*
X31579Y-37630D01*
X31361Y-37629D01*
X31158Y-37713D01*
X31004Y-37868D01*
X30949Y-37998D01*
X30896Y-37868D01*
X30780Y-37752D01*
X30780Y-37592D01*
X30807Y-37581D01*
X30877Y-37510D01*
X30915Y-37418D01*
X30916Y-37319D01*
X30916Y-36847D01*
X30878Y-36755D01*
X30842Y-36720D01*
X30878Y-36684D01*
X30916Y-36592D01*
X30916Y-36021D01*
X30878Y-35929D01*
X30807Y-35859D01*
X30715Y-35821D01*
X30616Y-35820D01*
X30542Y-35821D01*
X30480Y-35883D01*
X30480Y-36257D01*
X30853Y-36257D01*
X30916Y-36194D01*
X30916Y-36021D01*
X30916Y-36592D01*
X30916Y-36419D01*
X30853Y-36357D01*
X30480Y-36357D01*
X30480Y-36364D01*
X30380Y-36364D01*
X30380Y-36357D01*
X30372Y-36357D01*
X30372Y-36257D01*
X30380Y-36257D01*
X30380Y-35883D01*
X30317Y-35821D01*
X30243Y-35820D01*
X30144Y-35821D01*
X30070Y-35851D01*
X30070Y-35807D01*
X29402Y-35842D01*
X29427Y-35817D01*
X29435Y-35805D01*
X29879Y-35361D01*
X29934Y-35306D01*
X36915Y-35306D01*
X36914Y-35364D01*
X36914Y-35914D01*
X36952Y-36006D01*
X37023Y-36076D01*
X37115Y-36114D01*
X37214Y-36115D01*
X37214Y-36115D01*
G54D10*
G36*
X41765Y-34389D02*
X41581Y-34426D01*
X41580Y-34426D01*
X41483Y-34466D01*
X41266Y-34612D01*
X41191Y-34686D01*
X41191Y-34687D01*
X41047Y-34902D01*
X40853Y-34708D01*
X40739Y-34632D01*
X40606Y-34606D01*
X29790Y-34606D01*
X29656Y-34632D01*
X29542Y-34708D01*
X29384Y-34866D01*
X28932Y-35318D01*
X28924Y-35330D01*
X25154Y-39100D01*
X25154Y-37671D01*
X25143Y-37453D01*
X25081Y-37302D01*
X24985Y-37274D01*
X24915Y-37345D01*
X24915Y-37204D01*
X24887Y-37108D01*
X24681Y-37035D01*
X24463Y-37046D01*
X24312Y-37108D01*
X24284Y-37204D01*
X24600Y-37519D01*
X24915Y-37204D01*
X24915Y-37345D01*
X24670Y-37590D01*
X24985Y-37905D01*
X25081Y-37877D01*
X25154Y-37671D01*
X25154Y-39100D01*
X24915Y-39339D01*
X24915Y-37975D01*
X24600Y-37660D01*
X24529Y-37731D01*
X24529Y-37590D01*
X24214Y-37274D01*
X24118Y-37302D01*
X24045Y-37508D01*
X24056Y-37726D01*
X24118Y-37877D01*
X24214Y-37905D01*
X24529Y-37590D01*
X24529Y-37731D01*
X24284Y-37975D01*
X24312Y-38071D01*
X24518Y-38144D01*
X24736Y-38133D01*
X24887Y-38071D01*
X24915Y-37975D01*
X24915Y-39339D01*
X24659Y-39595D01*
X24526Y-39594D01*
X24333Y-39674D01*
X24185Y-39822D01*
X24105Y-40015D01*
X24104Y-40223D01*
X24184Y-40417D01*
X24332Y-40564D01*
X24489Y-40630D01*
X24371Y-40629D01*
X24168Y-40713D01*
X24014Y-40868D01*
X24009Y-40880D01*
X23704Y-40880D01*
X22918Y-40093D01*
X22929Y-40065D01*
X22930Y-39835D01*
X22841Y-39621D01*
X22678Y-39458D01*
X22658Y-39450D01*
X22678Y-39441D01*
X22841Y-39278D01*
X22929Y-39065D01*
X22930Y-38835D01*
X22841Y-38621D01*
X22678Y-38458D01*
X22465Y-38370D01*
X22235Y-38369D01*
X22021Y-38458D01*
X21858Y-38621D01*
X21770Y-38834D01*
X21769Y-39064D01*
X21858Y-39278D01*
X22021Y-39441D01*
X22041Y-39449D01*
X22021Y-39458D01*
X21858Y-39621D01*
X21770Y-39834D01*
X21769Y-40064D01*
X21858Y-40278D01*
X22021Y-40441D01*
X22234Y-40529D01*
X22464Y-40530D01*
X22493Y-40518D01*
X23367Y-41392D01*
X23465Y-41457D01*
X23465Y-41457D01*
X23580Y-41480D01*
X24008Y-41480D01*
X24013Y-41491D01*
X24168Y-41645D01*
X24370Y-41729D01*
X24588Y-41730D01*
X24791Y-41646D01*
X24945Y-41491D01*
X25029Y-41289D01*
X25030Y-41071D01*
X24946Y-40868D01*
X24791Y-40714D01*
X24625Y-40644D01*
X24733Y-40645D01*
X24927Y-40565D01*
X25074Y-40417D01*
X25130Y-40284D01*
X25184Y-40417D01*
X25332Y-40564D01*
X25404Y-40594D01*
X25305Y-40594D01*
X25213Y-40632D01*
X25143Y-40703D01*
X25105Y-40795D01*
X25104Y-40894D01*
X25104Y-41444D01*
X25142Y-41536D01*
X25213Y-41606D01*
X25305Y-41644D01*
X25404Y-41645D01*
X25954Y-41645D01*
X26046Y-41607D01*
X26116Y-41536D01*
X26154Y-41444D01*
X26155Y-41345D01*
X26155Y-41318D01*
X26766Y-41318D01*
X26878Y-41430D01*
X27078Y-41513D01*
X27295Y-41514D01*
X27496Y-41431D01*
X27649Y-41278D01*
X27677Y-41211D01*
X27694Y-41253D01*
X27789Y-41280D01*
X28101Y-40968D01*
X27789Y-40657D01*
X27694Y-40683D01*
X27678Y-40728D01*
X27650Y-40660D01*
X27497Y-40506D01*
X27296Y-40423D01*
X27079Y-40423D01*
X26879Y-40506D01*
X26766Y-40618D01*
X26012Y-40618D01*
X25954Y-40595D01*
X25855Y-40594D01*
X25855Y-40594D01*
X25927Y-40565D01*
X26074Y-40417D01*
X26154Y-40224D01*
X26155Y-40016D01*
X26075Y-39823D01*
X25994Y-39742D01*
X27310Y-39902D01*
X28830Y-38157D01*
X28829Y-38288D01*
X28913Y-38491D01*
X29068Y-38645D01*
X29270Y-38729D01*
X29488Y-38730D01*
X29691Y-38646D01*
X29845Y-38491D01*
X29905Y-38349D01*
X29963Y-38491D01*
X30118Y-38645D01*
X30320Y-38729D01*
X30538Y-38730D01*
X30741Y-38646D01*
X30895Y-38491D01*
X30950Y-38361D01*
X31003Y-38491D01*
X31158Y-38645D01*
X31360Y-38729D01*
X31578Y-38730D01*
X31781Y-38646D01*
X31935Y-38491D01*
X32005Y-38325D01*
X32073Y-38491D01*
X32228Y-38645D01*
X32430Y-38729D01*
X32648Y-38730D01*
X32851Y-38646D01*
X33005Y-38491D01*
X33089Y-38289D01*
X33090Y-38071D01*
X33043Y-37958D01*
X33046Y-37958D01*
X33867Y-38779D01*
X33867Y-38793D01*
X33932Y-38949D01*
X34051Y-39069D01*
X34208Y-39133D01*
X34377Y-39134D01*
X34533Y-39069D01*
X34590Y-39013D01*
X34590Y-41495D01*
X33422Y-42662D01*
X33346Y-42776D01*
X33320Y-42910D01*
X33320Y-48985D01*
X33249Y-49055D01*
X33249Y-46305D01*
X33249Y-45335D01*
X33245Y-45247D01*
X33245Y-43156D01*
X33165Y-42963D01*
X33094Y-42892D01*
X33094Y-42261D01*
X33083Y-42043D01*
X33021Y-41892D01*
X32925Y-41864D01*
X32855Y-41935D01*
X32855Y-41794D01*
X32827Y-41698D01*
X32621Y-41625D01*
X32403Y-41636D01*
X32252Y-41698D01*
X32224Y-41794D01*
X32540Y-42109D01*
X32855Y-41794D01*
X32855Y-41935D01*
X32610Y-42180D01*
X32925Y-42495D01*
X33021Y-42467D01*
X33094Y-42261D01*
X33094Y-42892D01*
X33017Y-42815D01*
X32855Y-42747D01*
X32855Y-42565D01*
X32540Y-42250D01*
X32469Y-42321D01*
X32469Y-42180D01*
X32154Y-41864D01*
X32058Y-41892D01*
X32006Y-42038D01*
X31936Y-41868D01*
X31781Y-41714D01*
X31579Y-41630D01*
X31361Y-41629D01*
X31158Y-41713D01*
X31004Y-41868D01*
X30949Y-41998D01*
X30896Y-41868D01*
X30741Y-41714D01*
X30539Y-41630D01*
X30321Y-41629D01*
X30118Y-41713D01*
X29964Y-41868D01*
X29904Y-42010D01*
X29846Y-41868D01*
X29691Y-41714D01*
X29489Y-41630D01*
X29271Y-41629D01*
X29068Y-41713D01*
X28914Y-41868D01*
X28830Y-42070D01*
X28829Y-42288D01*
X28913Y-42491D01*
X29052Y-42629D01*
X28722Y-42629D01*
X28722Y-41049D01*
X28711Y-40832D01*
X28649Y-40683D01*
X28554Y-40657D01*
X28483Y-40727D01*
X28483Y-40586D01*
X28457Y-40491D01*
X28252Y-40418D01*
X28036Y-40429D01*
X27887Y-40491D01*
X27860Y-40586D01*
X28172Y-40898D01*
X28483Y-40586D01*
X28483Y-40727D01*
X28242Y-40968D01*
X28554Y-41280D01*
X28649Y-41253D01*
X28722Y-41049D01*
X28722Y-42629D01*
X28483Y-42629D01*
X28483Y-41351D01*
X28172Y-41039D01*
X27860Y-41351D01*
X27887Y-41446D01*
X28091Y-41518D01*
X28308Y-41507D01*
X28457Y-41446D01*
X28483Y-41351D01*
X28483Y-42629D01*
X27980Y-42629D01*
X27888Y-42667D01*
X27818Y-42738D01*
X27780Y-42830D01*
X27779Y-42929D01*
X27779Y-46429D01*
X27817Y-46521D01*
X27888Y-46591D01*
X27980Y-46629D01*
X28079Y-46630D01*
X31579Y-46630D01*
X31671Y-46592D01*
X31741Y-46521D01*
X31779Y-46429D01*
X31780Y-46330D01*
X31780Y-42830D01*
X31742Y-42738D01*
X31688Y-42684D01*
X31781Y-42646D01*
X31935Y-42491D01*
X32002Y-42331D01*
X32058Y-42467D01*
X32154Y-42495D01*
X32469Y-42180D01*
X32469Y-42321D01*
X32224Y-42565D01*
X32252Y-42661D01*
X32458Y-42734D01*
X32676Y-42723D01*
X32827Y-42661D01*
X32855Y-42565D01*
X32855Y-42747D01*
X32824Y-42735D01*
X32616Y-42734D01*
X32423Y-42814D01*
X32275Y-42962D01*
X32195Y-43155D01*
X32194Y-43363D01*
X32274Y-43557D01*
X32422Y-43704D01*
X32615Y-43784D01*
X32823Y-43785D01*
X33017Y-43705D01*
X33164Y-43557D01*
X33244Y-43364D01*
X33245Y-43156D01*
X33245Y-45247D01*
X33238Y-45127D01*
X33180Y-44987D01*
X33087Y-44962D01*
X33017Y-45033D01*
X33017Y-44892D01*
X32992Y-44799D01*
X32795Y-44730D01*
X32587Y-44741D01*
X32447Y-44799D01*
X32422Y-44892D01*
X32720Y-45189D01*
X33017Y-44892D01*
X33017Y-45033D01*
X32790Y-45260D01*
X33087Y-45557D01*
X33180Y-45532D01*
X33249Y-45335D01*
X33249Y-46305D01*
X33238Y-46097D01*
X33180Y-45957D01*
X33087Y-45932D01*
X33017Y-46003D01*
X33017Y-45862D01*
X32992Y-45769D01*
X32928Y-45746D01*
X32992Y-45720D01*
X33017Y-45627D01*
X32720Y-45330D01*
X32649Y-45401D01*
X32649Y-45260D01*
X32352Y-44962D01*
X32259Y-44987D01*
X32190Y-45184D01*
X32201Y-45392D01*
X32259Y-45532D01*
X32352Y-45557D01*
X32649Y-45260D01*
X32649Y-45401D01*
X32422Y-45627D01*
X32447Y-45720D01*
X32511Y-45743D01*
X32447Y-45769D01*
X32422Y-45862D01*
X32720Y-46159D01*
X33017Y-45862D01*
X33017Y-46003D01*
X32790Y-46230D01*
X33087Y-46527D01*
X33180Y-46502D01*
X33249Y-46305D01*
X33249Y-49055D01*
X33245Y-49059D01*
X33245Y-48126D01*
X33165Y-47933D01*
X33017Y-47785D01*
X33017Y-47784D01*
X33017Y-46597D01*
X32720Y-46300D01*
X32649Y-46371D01*
X32649Y-46230D01*
X32352Y-45932D01*
X32259Y-45957D01*
X32190Y-46154D01*
X32201Y-46362D01*
X32259Y-46502D01*
X32352Y-46527D01*
X32649Y-46230D01*
X32649Y-46371D01*
X32422Y-46597D01*
X32447Y-46690D01*
X32644Y-46759D01*
X32852Y-46748D01*
X32992Y-46690D01*
X33017Y-46597D01*
X33017Y-47784D01*
X32824Y-47705D01*
X32616Y-47704D01*
X32423Y-47784D01*
X32275Y-47932D01*
X32195Y-48125D01*
X32194Y-48333D01*
X32274Y-48527D01*
X32422Y-48674D01*
X32615Y-48754D01*
X32823Y-48755D01*
X33017Y-48675D01*
X33164Y-48527D01*
X33244Y-48334D01*
X33245Y-48126D01*
X33245Y-49059D01*
X33175Y-49130D01*
X32194Y-49130D01*
X31987Y-48922D01*
X31873Y-48846D01*
X31824Y-48836D01*
X31824Y-48836D01*
X31691Y-48704D01*
X31489Y-48620D01*
X31271Y-48619D01*
X31068Y-48703D01*
X30914Y-48858D01*
X30830Y-49060D01*
X30829Y-49278D01*
X30913Y-49481D01*
X31068Y-49635D01*
X31270Y-49719D01*
X31488Y-49720D01*
X31691Y-49636D01*
X31701Y-49626D01*
X31760Y-49684D01*
X31676Y-49684D01*
X31483Y-49764D01*
X31335Y-49912D01*
X31255Y-50105D01*
X31254Y-50313D01*
X31334Y-50507D01*
X31482Y-50654D01*
X31675Y-50734D01*
X31883Y-50735D01*
X32077Y-50655D01*
X32224Y-50507D01*
X32280Y-50374D01*
X32334Y-50507D01*
X32482Y-50654D01*
X32675Y-50734D01*
X32883Y-50735D01*
X33077Y-50655D01*
X33224Y-50507D01*
X33304Y-50314D01*
X33305Y-50106D01*
X33225Y-49913D01*
X33142Y-49830D01*
X33320Y-49830D01*
X33453Y-49803D01*
X33453Y-49803D01*
X33567Y-49727D01*
X33590Y-49704D01*
X33590Y-50752D01*
X33474Y-50868D01*
X33390Y-51070D01*
X33389Y-51288D01*
X33473Y-51491D01*
X33628Y-51645D01*
X33709Y-51679D01*
X33628Y-51713D01*
X33474Y-51868D01*
X33390Y-52070D01*
X33389Y-52235D01*
X32638Y-52986D01*
X32562Y-53100D01*
X32536Y-53234D01*
X32536Y-55290D01*
X32442Y-55290D01*
X32350Y-55328D01*
X32330Y-55349D01*
X32330Y-54361D01*
X32246Y-54158D01*
X32091Y-54004D01*
X32010Y-53970D01*
X32091Y-53936D01*
X32245Y-53781D01*
X32329Y-53579D01*
X32330Y-53361D01*
X32246Y-53158D01*
X32091Y-53004D01*
X32010Y-52970D01*
X32091Y-52936D01*
X32245Y-52781D01*
X32329Y-52579D01*
X32330Y-52361D01*
X32246Y-52158D01*
X32091Y-52004D01*
X32010Y-51970D01*
X32091Y-51936D01*
X32245Y-51781D01*
X32329Y-51579D01*
X32330Y-51361D01*
X32246Y-51158D01*
X32091Y-51004D01*
X31889Y-50920D01*
X31671Y-50919D01*
X31468Y-51003D01*
X31314Y-51158D01*
X31230Y-51360D01*
X31229Y-51578D01*
X31313Y-51781D01*
X31468Y-51935D01*
X31549Y-51969D01*
X31468Y-52003D01*
X31314Y-52158D01*
X31230Y-52360D01*
X31229Y-52578D01*
X31313Y-52781D01*
X31468Y-52935D01*
X31549Y-52969D01*
X31468Y-53003D01*
X31314Y-53158D01*
X31230Y-53360D01*
X31229Y-53578D01*
X31313Y-53781D01*
X31468Y-53935D01*
X31549Y-53969D01*
X31468Y-54003D01*
X31352Y-54120D01*
X28007Y-54120D01*
X24845Y-50946D01*
X24845Y-42226D01*
X24765Y-42033D01*
X24617Y-41885D01*
X24424Y-41805D01*
X24216Y-41804D01*
X24023Y-41884D01*
X23875Y-42032D01*
X23822Y-42158D01*
X23780Y-42057D01*
X23687Y-42032D01*
X23617Y-42103D01*
X23617Y-41962D01*
X23592Y-41869D01*
X23395Y-41800D01*
X23187Y-41811D01*
X23047Y-41869D01*
X23022Y-41962D01*
X23320Y-42259D01*
X23617Y-41962D01*
X23617Y-42103D01*
X23390Y-42330D01*
X23687Y-42627D01*
X23780Y-42602D01*
X23819Y-42492D01*
X23874Y-42627D01*
X24022Y-42774D01*
X24215Y-42854D01*
X24423Y-42855D01*
X24617Y-42775D01*
X24764Y-42627D01*
X24844Y-42434D01*
X24845Y-42226D01*
X24845Y-50946D01*
X23880Y-49977D01*
X23880Y-44511D01*
X23788Y-44290D01*
X23628Y-44129D01*
X23788Y-43970D01*
X23879Y-43749D01*
X23880Y-43511D01*
X23788Y-43290D01*
X23620Y-43121D01*
X23617Y-43120D01*
X23617Y-42697D01*
X23320Y-42400D01*
X23249Y-42471D01*
X23249Y-42330D01*
X22952Y-42032D01*
X22859Y-42057D01*
X22790Y-42254D01*
X22801Y-42462D01*
X22859Y-42602D01*
X22952Y-42627D01*
X23249Y-42330D01*
X23249Y-42471D01*
X23022Y-42697D01*
X23047Y-42790D01*
X23244Y-42859D01*
X23452Y-42848D01*
X23592Y-42790D01*
X23617Y-42697D01*
X23617Y-43120D01*
X23399Y-43030D01*
X23161Y-43029D01*
X22940Y-43121D01*
X22771Y-43289D01*
X22680Y-43510D01*
X22679Y-43748D01*
X22771Y-43969D01*
X22931Y-44130D01*
X22781Y-44280D01*
X22419Y-44280D01*
X22419Y-42395D01*
X22408Y-42187D01*
X22350Y-42047D01*
X22257Y-42022D01*
X22187Y-42093D01*
X22187Y-41952D01*
X22162Y-41859D01*
X21965Y-41790D01*
X21757Y-41801D01*
X21617Y-41859D01*
X21592Y-41952D01*
X21890Y-42249D01*
X22187Y-41952D01*
X22187Y-42093D01*
X21960Y-42320D01*
X22257Y-42617D01*
X22350Y-42592D01*
X22419Y-42395D01*
X22419Y-44280D01*
X22415Y-44280D01*
X22415Y-44216D01*
X22335Y-44023D01*
X22187Y-43875D01*
X22187Y-43874D01*
X22187Y-42687D01*
X21890Y-42390D01*
X21819Y-42461D01*
X21819Y-42320D01*
X21522Y-42022D01*
X21429Y-42047D01*
X21360Y-42244D01*
X21371Y-42452D01*
X21429Y-42592D01*
X21522Y-42617D01*
X21819Y-42320D01*
X21819Y-42461D01*
X21592Y-42687D01*
X21617Y-42780D01*
X21814Y-42849D01*
X22022Y-42838D01*
X22162Y-42780D01*
X22187Y-42687D01*
X22187Y-43874D01*
X21994Y-43795D01*
X21786Y-43794D01*
X21593Y-43874D01*
X21497Y-43970D01*
X21200Y-43970D01*
X21200Y-43360D01*
X21189Y-43143D01*
X21127Y-42994D01*
X21032Y-42968D01*
X20720Y-43280D01*
X21032Y-43591D01*
X21127Y-43565D01*
X21200Y-43360D01*
X21200Y-43970D01*
X20961Y-43970D01*
X20961Y-43662D01*
X20650Y-43350D01*
X20338Y-43662D01*
X20364Y-43757D01*
X20569Y-43830D01*
X20786Y-43819D01*
X20935Y-43757D01*
X20961Y-43662D01*
X20961Y-43970D01*
X20151Y-43970D01*
X20179Y-43567D01*
X20267Y-43591D01*
X20579Y-43280D01*
X20267Y-42968D01*
X20221Y-42981D01*
X20244Y-42646D01*
X20340Y-42741D01*
X20425Y-42777D01*
X20364Y-42802D01*
X20338Y-42897D01*
X20650Y-43209D01*
X20961Y-42897D01*
X20935Y-42802D01*
X20869Y-42779D01*
X20958Y-42742D01*
X21111Y-42589D01*
X21195Y-42388D01*
X21195Y-42172D01*
X21150Y-42062D01*
X21150Y-37481D01*
X21066Y-37278D01*
X20911Y-37124D01*
X20709Y-37040D01*
X20491Y-37039D01*
X20340Y-37102D01*
X20340Y-37065D01*
X20302Y-36973D01*
X20231Y-36903D01*
X20139Y-36865D01*
X20040Y-36864D01*
X19740Y-36864D01*
X19648Y-36902D01*
X19578Y-36973D01*
X19540Y-37065D01*
X19539Y-37164D01*
X19539Y-37364D01*
X19577Y-37456D01*
X19648Y-37526D01*
X19740Y-37564D01*
X19827Y-37565D01*
X19877Y-37614D01*
X19740Y-37614D01*
X19648Y-37652D01*
X19578Y-37723D01*
X19540Y-37815D01*
X19539Y-37902D01*
X19365Y-38077D01*
X19365Y-36655D01*
X19300Y-36499D01*
X19181Y-36379D01*
X19024Y-36315D01*
X18855Y-36314D01*
X18699Y-36379D01*
X18579Y-36498D01*
X18515Y-36655D01*
X18514Y-36824D01*
X18577Y-36975D01*
X18540Y-37065D01*
X18539Y-37164D01*
X18539Y-37364D01*
X18555Y-37402D01*
X18539Y-37440D01*
X18540Y-37477D01*
X18602Y-37540D01*
X18679Y-37540D01*
X18740Y-37564D01*
X18839Y-37565D01*
X19139Y-37565D01*
X19200Y-37540D01*
X19277Y-37540D01*
X19340Y-37477D01*
X19340Y-37440D01*
X19324Y-37402D01*
X19339Y-37364D01*
X19340Y-37265D01*
X19340Y-37065D01*
X19302Y-36974D01*
X19364Y-36824D01*
X19365Y-36655D01*
X19365Y-38077D01*
X19339Y-38102D01*
X19340Y-38015D01*
X19340Y-37815D01*
X19324Y-37777D01*
X19340Y-37739D01*
X19340Y-37702D01*
X19277Y-37640D01*
X19200Y-37640D01*
X19139Y-37615D01*
X19040Y-37614D01*
X18740Y-37614D01*
X18679Y-37640D01*
X18602Y-37640D01*
X18540Y-37702D01*
X18539Y-37739D01*
X18555Y-37777D01*
X18540Y-37815D01*
X18539Y-37914D01*
X18539Y-38086D01*
X18532Y-38068D01*
X18462Y-37997D01*
X18370Y-37959D01*
X18393Y-37905D01*
X18393Y-37805D01*
X18393Y-37175D01*
X18355Y-37083D01*
X18285Y-37013D01*
X18193Y-36975D01*
X18093Y-36975D01*
X17542Y-36975D01*
X17450Y-37013D01*
X17380Y-37083D01*
X17342Y-37175D01*
X17342Y-37274D01*
X17342Y-37904D01*
X17379Y-37996D01*
X17450Y-38066D01*
X17542Y-38105D01*
X17561Y-38105D01*
X17538Y-38159D01*
X17538Y-38258D01*
X17538Y-38416D01*
X17538Y-38416D01*
X17538Y-38514D01*
X17538Y-38672D01*
X17538Y-38672D01*
X17538Y-38770D01*
X17538Y-38927D01*
X17538Y-38928D01*
X17538Y-38928D01*
X17538Y-38954D01*
X17556Y-38972D01*
X17576Y-39020D01*
X17612Y-39055D01*
X17577Y-39091D01*
X17556Y-39139D01*
X17538Y-39157D01*
X17538Y-39184D01*
X17538Y-39184D01*
X17538Y-39282D01*
X17538Y-39440D01*
X17561Y-39494D01*
X17542Y-39494D01*
X17450Y-39532D01*
X17380Y-39603D01*
X17342Y-39694D01*
X17342Y-39794D01*
X17342Y-40424D01*
X17379Y-40516D01*
X17450Y-40586D01*
X17542Y-40624D01*
X17641Y-40624D01*
X18192Y-40624D01*
X18284Y-40586D01*
X18355Y-40516D01*
X18393Y-40424D01*
X18393Y-40325D01*
X18393Y-39695D01*
X18370Y-39640D01*
X18461Y-39602D01*
X18532Y-39532D01*
X18570Y-39440D01*
X18570Y-39341D01*
X18570Y-39184D01*
X18570Y-39183D01*
X18570Y-39183D01*
X18570Y-39157D01*
X18552Y-39139D01*
X18547Y-39126D01*
X18865Y-39126D01*
X18864Y-39273D01*
X18944Y-39467D01*
X19092Y-39614D01*
X19285Y-39694D01*
X19420Y-39695D01*
X20130Y-40404D01*
X20130Y-40752D01*
X20014Y-40868D01*
X19930Y-41070D01*
X19929Y-41288D01*
X20013Y-41491D01*
X20168Y-41645D01*
X20370Y-41729D01*
X20588Y-41730D01*
X20791Y-41646D01*
X20945Y-41491D01*
X21029Y-41289D01*
X21030Y-41071D01*
X20946Y-40868D01*
X20830Y-40752D01*
X20830Y-40260D01*
X20803Y-40126D01*
X20727Y-40012D01*
X20727Y-40012D01*
X19914Y-39199D01*
X19915Y-39066D01*
X19835Y-38873D01*
X19687Y-38725D01*
X19655Y-38711D01*
X20052Y-38315D01*
X20139Y-38315D01*
X20231Y-38277D01*
X20301Y-38206D01*
X20339Y-38114D01*
X20339Y-38077D01*
X20490Y-38139D01*
X20708Y-38140D01*
X20911Y-38056D01*
X21065Y-37901D01*
X21149Y-37699D01*
X21150Y-37481D01*
X21150Y-42062D01*
X21112Y-41971D01*
X20959Y-41818D01*
X20758Y-41734D01*
X20542Y-41734D01*
X20341Y-41817D01*
X20228Y-41930D01*
X19919Y-41930D01*
X19919Y-41245D01*
X19908Y-41037D01*
X19850Y-40897D01*
X19757Y-40872D01*
X19687Y-40943D01*
X19687Y-40802D01*
X19662Y-40709D01*
X19465Y-40640D01*
X19257Y-40651D01*
X19117Y-40709D01*
X19092Y-40802D01*
X19390Y-41099D01*
X19687Y-40802D01*
X19687Y-40943D01*
X19460Y-41170D01*
X19757Y-41467D01*
X19850Y-41442D01*
X19919Y-41245D01*
X19919Y-41930D01*
X19687Y-41930D01*
X19687Y-41537D01*
X19390Y-41240D01*
X19319Y-41311D01*
X19319Y-41170D01*
X19022Y-40872D01*
X18929Y-40897D01*
X18860Y-41094D01*
X18871Y-41302D01*
X18929Y-41442D01*
X19022Y-41467D01*
X19319Y-41170D01*
X19319Y-41311D01*
X19092Y-41537D01*
X19117Y-41630D01*
X19314Y-41699D01*
X19522Y-41688D01*
X19662Y-41630D01*
X19687Y-41537D01*
X19687Y-41930D01*
X19240Y-41930D01*
X19106Y-41956D01*
X18992Y-42032D01*
X18992Y-42032D01*
X18992Y-42032D01*
X16572Y-44452D01*
X16496Y-44566D01*
X16470Y-44700D01*
X16475Y-44726D01*
X16398Y-44757D01*
X16328Y-44828D01*
X16290Y-44920D01*
X16289Y-45019D01*
X16289Y-45619D01*
X16327Y-45711D01*
X16398Y-45781D01*
X16490Y-45819D01*
X16589Y-45820D01*
X17189Y-45820D01*
X17281Y-45782D01*
X17351Y-45711D01*
X17389Y-45619D01*
X17389Y-45597D01*
X17528Y-45735D01*
X17730Y-45819D01*
X17948Y-45820D01*
X18151Y-45736D01*
X18305Y-45581D01*
X18339Y-45500D01*
X18373Y-45581D01*
X18528Y-45735D01*
X18730Y-45819D01*
X18948Y-45820D01*
X19151Y-45736D01*
X19305Y-45581D01*
X19389Y-45379D01*
X19390Y-45161D01*
X19306Y-44958D01*
X19151Y-44804D01*
X18949Y-44720D01*
X18731Y-44719D01*
X18584Y-44780D01*
X18694Y-44670D01*
X21497Y-44670D01*
X21563Y-44736D01*
X21563Y-44736D01*
X21566Y-44750D01*
X21642Y-44864D01*
X21655Y-44877D01*
X21769Y-44953D01*
X21903Y-44980D01*
X22781Y-44980D01*
X22845Y-45044D01*
X22788Y-45067D01*
X22718Y-45138D01*
X22680Y-45230D01*
X22679Y-45329D01*
X22680Y-45517D01*
X22742Y-45580D01*
X23230Y-45580D01*
X23230Y-45572D01*
X23330Y-45572D01*
X23330Y-45580D01*
X23817Y-45580D01*
X23880Y-45517D01*
X23880Y-45329D01*
X23879Y-45230D01*
X23841Y-45138D01*
X23771Y-45067D01*
X23714Y-45044D01*
X23788Y-44970D01*
X23879Y-44749D01*
X23880Y-44511D01*
X23880Y-49977D01*
X23880Y-49977D01*
X23880Y-45930D01*
X23880Y-45742D01*
X23817Y-45680D01*
X23330Y-45680D01*
X23330Y-46167D01*
X23392Y-46230D01*
X23679Y-46230D01*
X23771Y-46192D01*
X23841Y-46121D01*
X23879Y-46029D01*
X23880Y-45930D01*
X23880Y-49977D01*
X23230Y-49325D01*
X23230Y-46167D01*
X23230Y-45680D01*
X22742Y-45680D01*
X22680Y-45742D01*
X22679Y-45930D01*
X22680Y-46029D01*
X22718Y-46121D01*
X22788Y-46192D01*
X22880Y-46230D01*
X23167Y-46230D01*
X23230Y-46167D01*
X23230Y-49325D01*
X20455Y-46540D01*
X20455Y-46525D01*
X20390Y-46369D01*
X20271Y-46249D01*
X20114Y-46185D01*
X19945Y-46184D01*
X19789Y-46249D01*
X19669Y-46368D01*
X19605Y-46525D01*
X19604Y-46694D01*
X19669Y-46850D01*
X19788Y-46970D01*
X19945Y-47034D01*
X19959Y-47034D01*
X27607Y-54709D01*
X27612Y-54717D01*
X27726Y-54793D01*
X27860Y-54820D01*
X31352Y-54820D01*
X31468Y-54935D01*
X31543Y-54967D01*
X31492Y-54988D01*
X31464Y-55084D01*
X31780Y-55399D01*
X32095Y-55084D01*
X32067Y-54988D01*
X32012Y-54969D01*
X32091Y-54936D01*
X32245Y-54781D01*
X32329Y-54579D01*
X32330Y-54361D01*
X32330Y-55349D01*
X32324Y-55354D01*
X32323Y-55333D01*
X32261Y-55182D01*
X32165Y-55154D01*
X31850Y-55470D01*
X32165Y-55785D01*
X32242Y-55763D01*
X32242Y-55978D01*
X32221Y-55958D01*
X32129Y-55920D01*
X32076Y-55919D01*
X32095Y-55855D01*
X31780Y-55540D01*
X31709Y-55611D01*
X31709Y-55470D01*
X31394Y-55154D01*
X31298Y-55182D01*
X31225Y-55388D01*
X31236Y-55606D01*
X31298Y-55757D01*
X31394Y-55785D01*
X31709Y-55470D01*
X31709Y-55611D01*
X31464Y-55855D01*
X31483Y-55919D01*
X31430Y-55920D01*
X31338Y-55958D01*
X31267Y-56028D01*
X31229Y-56120D01*
X31230Y-56357D01*
X31292Y-56420D01*
X31730Y-56420D01*
X31730Y-56412D01*
X31830Y-56412D01*
X31830Y-56420D01*
X31837Y-56420D01*
X31837Y-56520D01*
X31830Y-56520D01*
X31830Y-56957D01*
X31892Y-57020D01*
X32030Y-57020D01*
X32129Y-57019D01*
X32221Y-56981D01*
X32262Y-56941D01*
X32280Y-56984D01*
X32350Y-57055D01*
X32442Y-57093D01*
X32541Y-57093D01*
X32773Y-57093D01*
X32836Y-57031D01*
X32836Y-56617D01*
X32828Y-56617D01*
X32828Y-56517D01*
X32836Y-56517D01*
X32836Y-56510D01*
X32936Y-56510D01*
X32936Y-56517D01*
X33467Y-56517D01*
X33529Y-56455D01*
X33529Y-56242D01*
X33508Y-56191D01*
X33529Y-56141D01*
X33529Y-56042D01*
X33529Y-55490D01*
X33491Y-55398D01*
X33421Y-55328D01*
X33329Y-55290D01*
X33236Y-55290D01*
X33236Y-53378D01*
X33389Y-53225D01*
X33389Y-53288D01*
X33473Y-53491D01*
X33628Y-53645D01*
X33703Y-53677D01*
X33652Y-53698D01*
X33624Y-53794D01*
X33940Y-54109D01*
X34255Y-53794D01*
X34227Y-53698D01*
X34172Y-53679D01*
X34251Y-53646D01*
X34405Y-53491D01*
X34439Y-53410D01*
X34473Y-53491D01*
X34612Y-53629D01*
X34590Y-53629D01*
X34498Y-53667D01*
X34428Y-53738D01*
X34390Y-53830D01*
X34389Y-53883D01*
X34325Y-53864D01*
X34010Y-54180D01*
X34325Y-54495D01*
X34389Y-54476D01*
X34389Y-54529D01*
X34427Y-54621D01*
X34498Y-54691D01*
X34590Y-54729D01*
X34689Y-54730D01*
X35289Y-54730D01*
X35381Y-54692D01*
X35451Y-54621D01*
X35489Y-54529D01*
X35490Y-54430D01*
X35490Y-53830D01*
X35452Y-53738D01*
X35381Y-53668D01*
X35289Y-53630D01*
X35267Y-53630D01*
X35405Y-53491D01*
X35489Y-53289D01*
X35490Y-53071D01*
X35406Y-52868D01*
X35251Y-52714D01*
X35170Y-52680D01*
X35251Y-52646D01*
X35405Y-52491D01*
X35489Y-52289D01*
X35490Y-52071D01*
X35406Y-51868D01*
X35267Y-51730D01*
X35289Y-51730D01*
X35381Y-51692D01*
X35451Y-51621D01*
X35489Y-51529D01*
X35490Y-51430D01*
X35490Y-50830D01*
X35452Y-50738D01*
X35381Y-50668D01*
X35289Y-50630D01*
X35190Y-50629D01*
X34590Y-50629D01*
X34498Y-50667D01*
X34428Y-50738D01*
X34390Y-50830D01*
X34390Y-50852D01*
X34290Y-50752D01*
X34290Y-49782D01*
X34829Y-49243D01*
X34829Y-49278D01*
X34913Y-49481D01*
X35068Y-49635D01*
X35270Y-49719D01*
X35488Y-49720D01*
X35691Y-49636D01*
X35845Y-49481D01*
X35929Y-49279D01*
X35930Y-49061D01*
X35846Y-48858D01*
X35691Y-48704D01*
X35489Y-48620D01*
X35452Y-48620D01*
X35759Y-48313D01*
X35759Y-48313D01*
X35759Y-48313D01*
X35835Y-48199D01*
X35862Y-48065D01*
X35862Y-48065D01*
X35862Y-48065D01*
X35862Y-45079D01*
X36004Y-45129D01*
X36212Y-45118D01*
X36352Y-45060D01*
X36377Y-44967D01*
X36080Y-44670D01*
X36074Y-44676D01*
X36003Y-44605D01*
X36009Y-44600D01*
X36003Y-44594D01*
X36074Y-44523D01*
X36080Y-44529D01*
X36377Y-44232D01*
X36352Y-44139D01*
X36242Y-44100D01*
X36377Y-44045D01*
X36524Y-43897D01*
X36604Y-43704D01*
X36605Y-43496D01*
X36525Y-43303D01*
X36430Y-43207D01*
X36430Y-42462D01*
X36548Y-42511D01*
X36717Y-42512D01*
X36873Y-42447D01*
X36883Y-42437D01*
X36937Y-42437D01*
X36910Y-42514D01*
X36921Y-42722D01*
X36979Y-42862D01*
X37072Y-42887D01*
X37369Y-42590D01*
X37363Y-42584D01*
X37434Y-42513D01*
X37440Y-42519D01*
X37445Y-42513D01*
X37516Y-42584D01*
X37510Y-42590D01*
X37807Y-42887D01*
X37900Y-42862D01*
X37969Y-42665D01*
X37958Y-42457D01*
X37950Y-42437D01*
X38960Y-42437D01*
X38960Y-43575D01*
X37965Y-44570D01*
X37965Y-44486D01*
X37885Y-44293D01*
X37737Y-44145D01*
X37604Y-44089D01*
X37737Y-44035D01*
X37884Y-43887D01*
X37964Y-43694D01*
X37965Y-43486D01*
X37885Y-43293D01*
X37737Y-43145D01*
X37611Y-43092D01*
X37712Y-43050D01*
X37737Y-42957D01*
X37440Y-42660D01*
X37142Y-42957D01*
X37167Y-43050D01*
X37277Y-43089D01*
X37143Y-43144D01*
X36995Y-43292D01*
X36915Y-43485D01*
X36914Y-43693D01*
X36994Y-43887D01*
X37142Y-44034D01*
X37275Y-44090D01*
X37143Y-44144D01*
X36995Y-44292D01*
X36915Y-44485D01*
X36914Y-44693D01*
X36994Y-44887D01*
X37142Y-45034D01*
X37275Y-45090D01*
X37143Y-45144D01*
X36995Y-45292D01*
X36915Y-45485D01*
X36914Y-45693D01*
X36994Y-45887D01*
X37142Y-46034D01*
X37275Y-46090D01*
X37143Y-46144D01*
X36995Y-46292D01*
X36915Y-46485D01*
X36914Y-46693D01*
X36994Y-46887D01*
X37142Y-47034D01*
X37275Y-47090D01*
X37143Y-47144D01*
X36995Y-47292D01*
X36915Y-47485D01*
X36914Y-47693D01*
X36994Y-47887D01*
X37142Y-48034D01*
X37275Y-48090D01*
X37143Y-48144D01*
X36995Y-48292D01*
X36915Y-48485D01*
X36914Y-48693D01*
X36994Y-48887D01*
X37090Y-48982D01*
X37090Y-54169D01*
X36609Y-54649D01*
X36609Y-44675D01*
X36598Y-44467D01*
X36540Y-44327D01*
X36447Y-44302D01*
X36150Y-44600D01*
X36447Y-44897D01*
X36540Y-44872D01*
X36609Y-44675D01*
X36609Y-54649D01*
X35142Y-56116D01*
X35066Y-56230D01*
X35040Y-56364D01*
X35040Y-58562D01*
X34924Y-58678D01*
X34890Y-58759D01*
X34856Y-58678D01*
X34701Y-58524D01*
X34499Y-58440D01*
X34281Y-58439D01*
X34255Y-58450D01*
X34255Y-54565D01*
X33940Y-54250D01*
X33869Y-54321D01*
X33869Y-54180D01*
X33554Y-53864D01*
X33458Y-53892D01*
X33385Y-54098D01*
X33396Y-54316D01*
X33458Y-54467D01*
X33554Y-54495D01*
X33869Y-54180D01*
X33869Y-54321D01*
X33624Y-54565D01*
X33652Y-54661D01*
X33858Y-54734D01*
X34076Y-54723D01*
X34227Y-54661D01*
X34255Y-54565D01*
X34255Y-58450D01*
X34078Y-58523D01*
X33939Y-58662D01*
X33939Y-58640D01*
X33901Y-58548D01*
X33831Y-58477D01*
X33739Y-58439D01*
X33529Y-58439D01*
X33529Y-56893D01*
X33529Y-56680D01*
X33467Y-56617D01*
X32936Y-56617D01*
X32936Y-57031D01*
X32998Y-57093D01*
X33230Y-57093D01*
X33329Y-57093D01*
X33421Y-57055D01*
X33491Y-56984D01*
X33529Y-56893D01*
X33529Y-58439D01*
X33502Y-58440D01*
X33440Y-58502D01*
X33440Y-58940D01*
X33447Y-58940D01*
X33447Y-59040D01*
X33440Y-59040D01*
X33440Y-59047D01*
X33340Y-59047D01*
X33340Y-59040D01*
X33340Y-58940D01*
X33340Y-58502D01*
X33277Y-58440D01*
X33040Y-58439D01*
X32948Y-58477D01*
X32878Y-58548D01*
X32840Y-58640D01*
X32839Y-58739D01*
X32840Y-58877D01*
X32902Y-58940D01*
X33340Y-58940D01*
X33340Y-59040D01*
X32902Y-59040D01*
X32840Y-59102D01*
X32839Y-59240D01*
X32840Y-59339D01*
X32873Y-59420D01*
X32836Y-59420D01*
X31730Y-59420D01*
X31730Y-56957D01*
X31730Y-56520D01*
X31292Y-56520D01*
X31230Y-56582D01*
X31229Y-56819D01*
X31267Y-56911D01*
X31338Y-56981D01*
X31430Y-57019D01*
X31529Y-57020D01*
X31667Y-57020D01*
X31730Y-56957D01*
X31730Y-59420D01*
X17193Y-59420D01*
X17378Y-59383D01*
X17379Y-59383D01*
X17476Y-59343D01*
X17692Y-59198D01*
X17693Y-59198D01*
X17767Y-59123D01*
X17913Y-58906D01*
X17953Y-58809D01*
X17953Y-58808D01*
X18004Y-58552D01*
X18004Y-58552D01*
X18004Y-58552D01*
X18004Y-58500D01*
X18004Y-58447D01*
X18004Y-58447D01*
X18004Y-58447D01*
X17953Y-58191D01*
X17953Y-58190D01*
X17913Y-58093D01*
X17767Y-57876D01*
X17693Y-57801D01*
X17692Y-57801D01*
X17476Y-57656D01*
X17379Y-57616D01*
X17378Y-57616D01*
X17123Y-57565D01*
X17122Y-57565D01*
X17017Y-57565D01*
X16761Y-57616D01*
X16760Y-57616D01*
X16663Y-57656D01*
X16446Y-57802D01*
X16371Y-57876D01*
X16371Y-57877D01*
X16226Y-58093D01*
X16186Y-58190D01*
X16186Y-58191D01*
X16159Y-58326D01*
X16159Y-40573D01*
X16321Y-40605D01*
X16618Y-40605D01*
X16782Y-40572D01*
X16920Y-40480D01*
X17013Y-40341D01*
X17046Y-40177D01*
X17013Y-40014D01*
X16925Y-39883D01*
X16985Y-39858D01*
X17055Y-39788D01*
X17093Y-39696D01*
X17094Y-39596D01*
X17094Y-38848D01*
X17073Y-38799D01*
X17093Y-38751D01*
X17094Y-38652D01*
X17094Y-37904D01*
X17056Y-37812D01*
X16985Y-37741D01*
X16925Y-37716D01*
X17013Y-37585D01*
X17046Y-37422D01*
X17013Y-37258D01*
X16920Y-37119D01*
X16782Y-37027D01*
X16618Y-36994D01*
X16321Y-36994D01*
X16159Y-37026D01*
X16159Y-35433D01*
X16196Y-35618D01*
X16196Y-35619D01*
X16236Y-35716D01*
X16381Y-35932D01*
X16381Y-35933D01*
X16456Y-36007D01*
X16673Y-36153D01*
X16770Y-36193D01*
X16771Y-36193D01*
X17027Y-36244D01*
X17132Y-36244D01*
X17133Y-36244D01*
X17388Y-36193D01*
X17389Y-36193D01*
X17486Y-36153D01*
X17702Y-36008D01*
X17703Y-36008D01*
X17777Y-35933D01*
X17923Y-35716D01*
X17963Y-35619D01*
X17963Y-35618D01*
X18014Y-35362D01*
X18014Y-35362D01*
X18014Y-35362D01*
X18014Y-35310D01*
X18014Y-35257D01*
X18014Y-35257D01*
X18014Y-35257D01*
X17963Y-35001D01*
X17963Y-35000D01*
X17923Y-34903D01*
X17777Y-34686D01*
X17703Y-34611D01*
X17702Y-34611D01*
X17486Y-34466D01*
X17389Y-34426D01*
X17388Y-34426D01*
X17203Y-34389D01*
X41765Y-34389D01*
X41765Y-34389D01*
G37*
G54D32*
X41765Y-34389D02*
X41581Y-34426D01*
X41580Y-34426D01*
X41483Y-34466D01*
X41266Y-34612D01*
X41191Y-34686D01*
X41191Y-34687D01*
X41047Y-34902D01*
X40853Y-34708D01*
X40739Y-34632D01*
X40606Y-34606D01*
X29790Y-34606D01*
X29656Y-34632D01*
X29542Y-34708D01*
X29384Y-34866D01*
X28932Y-35318D01*
X28924Y-35330D01*
X25154Y-39100D01*
X25154Y-37671D01*
X25143Y-37453D01*
X25081Y-37302D01*
X24985Y-37274D01*
X24915Y-37345D01*
X24915Y-37204D01*
X24887Y-37108D01*
X24681Y-37035D01*
X24463Y-37046D01*
X24312Y-37108D01*
X24284Y-37204D01*
X24600Y-37519D01*
X24915Y-37204D01*
X24915Y-37345D01*
X24670Y-37590D01*
X24985Y-37905D01*
X25081Y-37877D01*
X25154Y-37671D01*
X25154Y-39100D01*
X24915Y-39339D01*
X24915Y-37975D01*
X24600Y-37660D01*
X24529Y-37731D01*
X24529Y-37590D01*
X24214Y-37274D01*
X24118Y-37302D01*
X24045Y-37508D01*
X24056Y-37726D01*
X24118Y-37877D01*
X24214Y-37905D01*
X24529Y-37590D01*
X24529Y-37731D01*
X24284Y-37975D01*
X24312Y-38071D01*
X24518Y-38144D01*
X24736Y-38133D01*
X24887Y-38071D01*
X24915Y-37975D01*
X24915Y-39339D01*
X24659Y-39595D01*
X24526Y-39594D01*
X24333Y-39674D01*
X24185Y-39822D01*
X24105Y-40015D01*
X24104Y-40223D01*
X24184Y-40417D01*
X24332Y-40564D01*
X24489Y-40630D01*
X24371Y-40629D01*
X24168Y-40713D01*
X24014Y-40868D01*
X24009Y-40880D01*
X23704Y-40880D01*
X22918Y-40093D01*
X22929Y-40065D01*
X22930Y-39835D01*
X22841Y-39621D01*
X22678Y-39458D01*
X22658Y-39450D01*
X22678Y-39441D01*
X22841Y-39278D01*
X22929Y-39065D01*
X22930Y-38835D01*
X22841Y-38621D01*
X22678Y-38458D01*
X22465Y-38370D01*
X22235Y-38369D01*
X22021Y-38458D01*
X21858Y-38621D01*
X21770Y-38834D01*
X21769Y-39064D01*
X21858Y-39278D01*
X22021Y-39441D01*
X22041Y-39449D01*
X22021Y-39458D01*
X21858Y-39621D01*
X21770Y-39834D01*
X21769Y-40064D01*
X21858Y-40278D01*
X22021Y-40441D01*
X22234Y-40529D01*
X22464Y-40530D01*
X22493Y-40518D01*
X23367Y-41392D01*
X23465Y-41457D01*
X23465Y-41457D01*
X23580Y-41480D01*
X24008Y-41480D01*
X24013Y-41491D01*
X24168Y-41645D01*
X24370Y-41729D01*
X24588Y-41730D01*
X24791Y-41646D01*
X24945Y-41491D01*
X25029Y-41289D01*
X25030Y-41071D01*
X24946Y-40868D01*
X24791Y-40714D01*
X24625Y-40644D01*
X24733Y-40645D01*
X24927Y-40565D01*
X25074Y-40417D01*
X25130Y-40284D01*
X25184Y-40417D01*
X25332Y-40564D01*
X25404Y-40594D01*
X25305Y-40594D01*
X25213Y-40632D01*
X25143Y-40703D01*
X25105Y-40795D01*
X25104Y-40894D01*
X25104Y-41444D01*
X25142Y-41536D01*
X25213Y-41606D01*
X25305Y-41644D01*
X25404Y-41645D01*
X25954Y-41645D01*
X26046Y-41607D01*
X26116Y-41536D01*
X26154Y-41444D01*
X26155Y-41345D01*
X26155Y-41318D01*
X26766Y-41318D01*
X26878Y-41430D01*
X27078Y-41513D01*
X27295Y-41514D01*
X27496Y-41431D01*
X27649Y-41278D01*
X27677Y-41211D01*
X27694Y-41253D01*
X27789Y-41280D01*
X28101Y-40968D01*
X27789Y-40657D01*
X27694Y-40683D01*
X27678Y-40728D01*
X27650Y-40660D01*
X27497Y-40506D01*
X27296Y-40423D01*
X27079Y-40423D01*
X26879Y-40506D01*
X26766Y-40618D01*
X26012Y-40618D01*
X25954Y-40595D01*
X25855Y-40594D01*
X25855Y-40594D01*
X25927Y-40565D01*
X26074Y-40417D01*
X26154Y-40224D01*
X26155Y-40016D01*
X26075Y-39823D01*
X25994Y-39742D01*
X27310Y-39902D01*
X28830Y-38157D01*
X28829Y-38288D01*
X28913Y-38491D01*
X29068Y-38645D01*
X29270Y-38729D01*
X29488Y-38730D01*
X29691Y-38646D01*
X29845Y-38491D01*
X29905Y-38349D01*
X29963Y-38491D01*
X30118Y-38645D01*
X30320Y-38729D01*
X30538Y-38730D01*
X30741Y-38646D01*
X30895Y-38491D01*
X30950Y-38361D01*
X31003Y-38491D01*
X31158Y-38645D01*
X31360Y-38729D01*
X31578Y-38730D01*
X31781Y-38646D01*
X31935Y-38491D01*
X32005Y-38325D01*
X32073Y-38491D01*
X32228Y-38645D01*
X32430Y-38729D01*
X32648Y-38730D01*
X32851Y-38646D01*
X33005Y-38491D01*
X33089Y-38289D01*
X33090Y-38071D01*
X33043Y-37958D01*
X33046Y-37958D01*
X33867Y-38779D01*
X33867Y-38793D01*
X33932Y-38949D01*
X34051Y-39069D01*
X34208Y-39133D01*
X34377Y-39134D01*
X34533Y-39069D01*
X34590Y-39013D01*
X34590Y-41495D01*
X33422Y-42662D01*
X33346Y-42776D01*
X33320Y-42910D01*
X33320Y-48985D01*
X33249Y-49055D01*
X33249Y-46305D01*
X33249Y-45335D01*
X33245Y-45247D01*
X33245Y-43156D01*
X33165Y-42963D01*
X33094Y-42892D01*
X33094Y-42261D01*
X33083Y-42043D01*
X33021Y-41892D01*
X32925Y-41864D01*
X32855Y-41935D01*
X32855Y-41794D01*
X32827Y-41698D01*
X32621Y-41625D01*
X32403Y-41636D01*
X32252Y-41698D01*
X32224Y-41794D01*
X32540Y-42109D01*
X32855Y-41794D01*
X32855Y-41935D01*
X32610Y-42180D01*
X32925Y-42495D01*
X33021Y-42467D01*
X33094Y-42261D01*
X33094Y-42892D01*
X33017Y-42815D01*
X32855Y-42747D01*
X32855Y-42565D01*
X32540Y-42250D01*
X32469Y-42321D01*
X32469Y-42180D01*
X32154Y-41864D01*
X32058Y-41892D01*
X32006Y-42038D01*
X31936Y-41868D01*
X31781Y-41714D01*
X31579Y-41630D01*
X31361Y-41629D01*
X31158Y-41713D01*
X31004Y-41868D01*
X30949Y-41998D01*
X30896Y-41868D01*
X30741Y-41714D01*
X30539Y-41630D01*
X30321Y-41629D01*
X30118Y-41713D01*
X29964Y-41868D01*
X29904Y-42010D01*
X29846Y-41868D01*
X29691Y-41714D01*
X29489Y-41630D01*
X29271Y-41629D01*
X29068Y-41713D01*
X28914Y-41868D01*
X28830Y-42070D01*
X28829Y-42288D01*
X28913Y-42491D01*
X29052Y-42629D01*
X28722Y-42629D01*
X28722Y-41049D01*
X28711Y-40832D01*
X28649Y-40683D01*
X28554Y-40657D01*
X28483Y-40727D01*
X28483Y-40586D01*
X28457Y-40491D01*
X28252Y-40418D01*
X28036Y-40429D01*
X27887Y-40491D01*
X27860Y-40586D01*
X28172Y-40898D01*
X28483Y-40586D01*
X28483Y-40727D01*
X28242Y-40968D01*
X28554Y-41280D01*
X28649Y-41253D01*
X28722Y-41049D01*
X28722Y-42629D01*
X28483Y-42629D01*
X28483Y-41351D01*
X28172Y-41039D01*
X27860Y-41351D01*
X27887Y-41446D01*
X28091Y-41518D01*
X28308Y-41507D01*
X28457Y-41446D01*
X28483Y-41351D01*
X28483Y-42629D01*
X27980Y-42629D01*
X27888Y-42667D01*
X27818Y-42738D01*
X27780Y-42830D01*
X27779Y-42929D01*
X27779Y-46429D01*
X27817Y-46521D01*
X27888Y-46591D01*
X27980Y-46629D01*
X28079Y-46630D01*
X31579Y-46630D01*
X31671Y-46592D01*
X31741Y-46521D01*
X31779Y-46429D01*
X31780Y-46330D01*
X31780Y-42830D01*
X31742Y-42738D01*
X31688Y-42684D01*
X31781Y-42646D01*
X31935Y-42491D01*
X32002Y-42331D01*
X32058Y-42467D01*
X32154Y-42495D01*
X32469Y-42180D01*
X32469Y-42321D01*
X32224Y-42565D01*
X32252Y-42661D01*
X32458Y-42734D01*
X32676Y-42723D01*
X32827Y-42661D01*
X32855Y-42565D01*
X32855Y-42747D01*
X32824Y-42735D01*
X32616Y-42734D01*
X32423Y-42814D01*
X32275Y-42962D01*
X32195Y-43155D01*
X32194Y-43363D01*
X32274Y-43557D01*
X32422Y-43704D01*
X32615Y-43784D01*
X32823Y-43785D01*
X33017Y-43705D01*
X33164Y-43557D01*
X33244Y-43364D01*
X33245Y-43156D01*
X33245Y-45247D01*
X33238Y-45127D01*
X33180Y-44987D01*
X33087Y-44962D01*
X33017Y-45033D01*
X33017Y-44892D01*
X32992Y-44799D01*
X32795Y-44730D01*
X32587Y-44741D01*
X32447Y-44799D01*
X32422Y-44892D01*
X32720Y-45189D01*
X33017Y-44892D01*
X33017Y-45033D01*
X32790Y-45260D01*
X33087Y-45557D01*
X33180Y-45532D01*
X33249Y-45335D01*
X33249Y-46305D01*
X33238Y-46097D01*
X33180Y-45957D01*
X33087Y-45932D01*
X33017Y-46003D01*
X33017Y-45862D01*
X32992Y-45769D01*
X32928Y-45746D01*
X32992Y-45720D01*
X33017Y-45627D01*
X32720Y-45330D01*
X32649Y-45401D01*
X32649Y-45260D01*
X32352Y-44962D01*
X32259Y-44987D01*
X32190Y-45184D01*
X32201Y-45392D01*
X32259Y-45532D01*
X32352Y-45557D01*
X32649Y-45260D01*
X32649Y-45401D01*
X32422Y-45627D01*
X32447Y-45720D01*
X32511Y-45743D01*
X32447Y-45769D01*
X32422Y-45862D01*
X32720Y-46159D01*
X33017Y-45862D01*
X33017Y-46003D01*
X32790Y-46230D01*
X33087Y-46527D01*
X33180Y-46502D01*
X33249Y-46305D01*
X33249Y-49055D01*
X33245Y-49059D01*
X33245Y-48126D01*
X33165Y-47933D01*
X33017Y-47785D01*
X33017Y-47784D01*
X33017Y-46597D01*
X32720Y-46300D01*
X32649Y-46371D01*
X32649Y-46230D01*
X32352Y-45932D01*
X32259Y-45957D01*
X32190Y-46154D01*
X32201Y-46362D01*
X32259Y-46502D01*
X32352Y-46527D01*
X32649Y-46230D01*
X32649Y-46371D01*
X32422Y-46597D01*
X32447Y-46690D01*
X32644Y-46759D01*
X32852Y-46748D01*
X32992Y-46690D01*
X33017Y-46597D01*
X33017Y-47784D01*
X32824Y-47705D01*
X32616Y-47704D01*
X32423Y-47784D01*
X32275Y-47932D01*
X32195Y-48125D01*
X32194Y-48333D01*
X32274Y-48527D01*
X32422Y-48674D01*
X32615Y-48754D01*
X32823Y-48755D01*
X33017Y-48675D01*
X33164Y-48527D01*
X33244Y-48334D01*
X33245Y-48126D01*
X33245Y-49059D01*
X33175Y-49130D01*
X32194Y-49130D01*
X31987Y-48922D01*
X31873Y-48846D01*
X31824Y-48836D01*
X31824Y-48836D01*
X31691Y-48704D01*
X31489Y-48620D01*
X31271Y-48619D01*
X31068Y-48703D01*
X30914Y-48858D01*
X30830Y-49060D01*
X30829Y-49278D01*
X30913Y-49481D01*
X31068Y-49635D01*
X31270Y-49719D01*
X31488Y-49720D01*
X31691Y-49636D01*
X31701Y-49626D01*
X31760Y-49684D01*
X31676Y-49684D01*
X31483Y-49764D01*
X31335Y-49912D01*
X31255Y-50105D01*
X31254Y-50313D01*
X31334Y-50507D01*
X31482Y-50654D01*
X31675Y-50734D01*
X31883Y-50735D01*
X32077Y-50655D01*
X32224Y-50507D01*
X32280Y-50374D01*
X32334Y-50507D01*
X32482Y-50654D01*
X32675Y-50734D01*
X32883Y-50735D01*
X33077Y-50655D01*
X33224Y-50507D01*
X33304Y-50314D01*
X33305Y-50106D01*
X33225Y-49913D01*
X33142Y-49830D01*
X33320Y-49830D01*
X33453Y-49803D01*
X33453Y-49803D01*
X33567Y-49727D01*
X33590Y-49704D01*
X33590Y-50752D01*
X33474Y-50868D01*
X33390Y-51070D01*
X33389Y-51288D01*
X33473Y-51491D01*
X33628Y-51645D01*
X33709Y-51679D01*
X33628Y-51713D01*
X33474Y-51868D01*
X33390Y-52070D01*
X33389Y-52235D01*
X32638Y-52986D01*
X32562Y-53100D01*
X32536Y-53234D01*
X32536Y-55290D01*
X32442Y-55290D01*
X32350Y-55328D01*
X32330Y-55349D01*
X32330Y-54361D01*
X32246Y-54158D01*
X32091Y-54004D01*
X32010Y-53970D01*
X32091Y-53936D01*
X32245Y-53781D01*
X32329Y-53579D01*
X32330Y-53361D01*
X32246Y-53158D01*
X32091Y-53004D01*
X32010Y-52970D01*
X32091Y-52936D01*
X32245Y-52781D01*
X32329Y-52579D01*
X32330Y-52361D01*
X32246Y-52158D01*
X32091Y-52004D01*
X32010Y-51970D01*
X32091Y-51936D01*
X32245Y-51781D01*
X32329Y-51579D01*
X32330Y-51361D01*
X32246Y-51158D01*
X32091Y-51004D01*
X31889Y-50920D01*
X31671Y-50919D01*
X31468Y-51003D01*
X31314Y-51158D01*
X31230Y-51360D01*
X31229Y-51578D01*
X31313Y-51781D01*
X31468Y-51935D01*
X31549Y-51969D01*
X31468Y-52003D01*
X31314Y-52158D01*
X31230Y-52360D01*
X31229Y-52578D01*
X31313Y-52781D01*
X31468Y-52935D01*
X31549Y-52969D01*
X31468Y-53003D01*
X31314Y-53158D01*
X31230Y-53360D01*
X31229Y-53578D01*
X31313Y-53781D01*
X31468Y-53935D01*
X31549Y-53969D01*
X31468Y-54003D01*
X31352Y-54120D01*
X28007Y-54120D01*
X24845Y-50946D01*
X24845Y-42226D01*
X24765Y-42033D01*
X24617Y-41885D01*
X24424Y-41805D01*
X24216Y-41804D01*
X24023Y-41884D01*
X23875Y-42032D01*
X23822Y-42158D01*
X23780Y-42057D01*
X23687Y-42032D01*
X23617Y-42103D01*
X23617Y-41962D01*
X23592Y-41869D01*
X23395Y-41800D01*
X23187Y-41811D01*
X23047Y-41869D01*
X23022Y-41962D01*
X23320Y-42259D01*
X23617Y-41962D01*
X23617Y-42103D01*
X23390Y-42330D01*
X23687Y-42627D01*
X23780Y-42602D01*
X23819Y-42492D01*
X23874Y-42627D01*
X24022Y-42774D01*
X24215Y-42854D01*
X24423Y-42855D01*
X24617Y-42775D01*
X24764Y-42627D01*
X24844Y-42434D01*
X24845Y-42226D01*
X24845Y-50946D01*
X23880Y-49977D01*
X23880Y-44511D01*
X23788Y-44290D01*
X23628Y-44129D01*
X23788Y-43970D01*
X23879Y-43749D01*
X23880Y-43511D01*
X23788Y-43290D01*
X23620Y-43121D01*
X23617Y-43120D01*
X23617Y-42697D01*
X23320Y-42400D01*
X23249Y-42471D01*
X23249Y-42330D01*
X22952Y-42032D01*
X22859Y-42057D01*
X22790Y-42254D01*
X22801Y-42462D01*
X22859Y-42602D01*
X22952Y-42627D01*
X23249Y-42330D01*
X23249Y-42471D01*
X23022Y-42697D01*
X23047Y-42790D01*
X23244Y-42859D01*
X23452Y-42848D01*
X23592Y-42790D01*
X23617Y-42697D01*
X23617Y-43120D01*
X23399Y-43030D01*
X23161Y-43029D01*
X22940Y-43121D01*
X22771Y-43289D01*
X22680Y-43510D01*
X22679Y-43748D01*
X22771Y-43969D01*
X22931Y-44130D01*
X22781Y-44280D01*
X22419Y-44280D01*
X22419Y-42395D01*
X22408Y-42187D01*
X22350Y-42047D01*
X22257Y-42022D01*
X22187Y-42093D01*
X22187Y-41952D01*
X22162Y-41859D01*
X21965Y-41790D01*
X21757Y-41801D01*
X21617Y-41859D01*
X21592Y-41952D01*
X21890Y-42249D01*
X22187Y-41952D01*
X22187Y-42093D01*
X21960Y-42320D01*
X22257Y-42617D01*
X22350Y-42592D01*
X22419Y-42395D01*
X22419Y-44280D01*
X22415Y-44280D01*
X22415Y-44216D01*
X22335Y-44023D01*
X22187Y-43875D01*
X22187Y-43874D01*
X22187Y-42687D01*
X21890Y-42390D01*
X21819Y-42461D01*
X21819Y-42320D01*
X21522Y-42022D01*
X21429Y-42047D01*
X21360Y-42244D01*
X21371Y-42452D01*
X21429Y-42592D01*
X21522Y-42617D01*
X21819Y-42320D01*
X21819Y-42461D01*
X21592Y-42687D01*
X21617Y-42780D01*
X21814Y-42849D01*
X22022Y-42838D01*
X22162Y-42780D01*
X22187Y-42687D01*
X22187Y-43874D01*
X21994Y-43795D01*
X21786Y-43794D01*
X21593Y-43874D01*
X21497Y-43970D01*
X21200Y-43970D01*
X21200Y-43360D01*
X21189Y-43143D01*
X21127Y-42994D01*
X21032Y-42968D01*
X20720Y-43280D01*
X21032Y-43591D01*
X21127Y-43565D01*
X21200Y-43360D01*
X21200Y-43970D01*
X20961Y-43970D01*
X20961Y-43662D01*
X20650Y-43350D01*
X20338Y-43662D01*
X20364Y-43757D01*
X20569Y-43830D01*
X20786Y-43819D01*
X20935Y-43757D01*
X20961Y-43662D01*
X20961Y-43970D01*
X20151Y-43970D01*
X20179Y-43567D01*
X20267Y-43591D01*
X20579Y-43280D01*
X20267Y-42968D01*
X20221Y-42981D01*
X20244Y-42646D01*
X20340Y-42741D01*
X20425Y-42777D01*
X20364Y-42802D01*
X20338Y-42897D01*
X20650Y-43209D01*
X20961Y-42897D01*
X20935Y-42802D01*
X20869Y-42779D01*
X20958Y-42742D01*
X21111Y-42589D01*
X21195Y-42388D01*
X21195Y-42172D01*
X21150Y-42062D01*
X21150Y-37481D01*
X21066Y-37278D01*
X20911Y-37124D01*
X20709Y-37040D01*
X20491Y-37039D01*
X20340Y-37102D01*
X20340Y-37065D01*
X20302Y-36973D01*
X20231Y-36903D01*
X20139Y-36865D01*
X20040Y-36864D01*
X19740Y-36864D01*
X19648Y-36902D01*
X19578Y-36973D01*
X19540Y-37065D01*
X19539Y-37164D01*
X19539Y-37364D01*
X19577Y-37456D01*
X19648Y-37526D01*
X19740Y-37564D01*
X19827Y-37565D01*
X19877Y-37614D01*
X19740Y-37614D01*
X19648Y-37652D01*
X19578Y-37723D01*
X19540Y-37815D01*
X19539Y-37902D01*
X19365Y-38077D01*
X19365Y-36655D01*
X19300Y-36499D01*
X19181Y-36379D01*
X19024Y-36315D01*
X18855Y-36314D01*
X18699Y-36379D01*
X18579Y-36498D01*
X18515Y-36655D01*
X18514Y-36824D01*
X18577Y-36975D01*
X18540Y-37065D01*
X18539Y-37164D01*
X18539Y-37364D01*
X18555Y-37402D01*
X18539Y-37440D01*
X18540Y-37477D01*
X18602Y-37540D01*
X18679Y-37540D01*
X18740Y-37564D01*
X18839Y-37565D01*
X19139Y-37565D01*
X19200Y-37540D01*
X19277Y-37540D01*
X19340Y-37477D01*
X19340Y-37440D01*
X19324Y-37402D01*
X19339Y-37364D01*
X19340Y-37265D01*
X19340Y-37065D01*
X19302Y-36974D01*
X19364Y-36824D01*
X19365Y-36655D01*
X19365Y-38077D01*
X19339Y-38102D01*
X19340Y-38015D01*
X19340Y-37815D01*
X19324Y-37777D01*
X19340Y-37739D01*
X19340Y-37702D01*
X19277Y-37640D01*
X19200Y-37640D01*
X19139Y-37615D01*
X19040Y-37614D01*
X18740Y-37614D01*
X18679Y-37640D01*
X18602Y-37640D01*
X18540Y-37702D01*
X18539Y-37739D01*
X18555Y-37777D01*
X18540Y-37815D01*
X18539Y-37914D01*
X18539Y-38086D01*
X18532Y-38068D01*
X18462Y-37997D01*
X18370Y-37959D01*
X18393Y-37905D01*
X18393Y-37805D01*
X18393Y-37175D01*
X18355Y-37083D01*
X18285Y-37013D01*
X18193Y-36975D01*
X18093Y-36975D01*
X17542Y-36975D01*
X17450Y-37013D01*
X17380Y-37083D01*
X17342Y-37175D01*
X17342Y-37274D01*
X17342Y-37904D01*
X17379Y-37996D01*
X17450Y-38066D01*
X17542Y-38105D01*
X17561Y-38105D01*
X17538Y-38159D01*
X17538Y-38258D01*
X17538Y-38416D01*
X17538Y-38416D01*
X17538Y-38514D01*
X17538Y-38672D01*
X17538Y-38672D01*
X17538Y-38770D01*
X17538Y-38927D01*
X17538Y-38928D01*
X17538Y-38928D01*
X17538Y-38954D01*
X17556Y-38972D01*
X17576Y-39020D01*
X17612Y-39055D01*
X17577Y-39091D01*
X17556Y-39139D01*
X17538Y-39157D01*
X17538Y-39184D01*
X17538Y-39184D01*
X17538Y-39282D01*
X17538Y-39440D01*
X17561Y-39494D01*
X17542Y-39494D01*
X17450Y-39532D01*
X17380Y-39603D01*
X17342Y-39694D01*
X17342Y-39794D01*
X17342Y-40424D01*
X17379Y-40516D01*
X17450Y-40586D01*
X17542Y-40624D01*
X17641Y-40624D01*
X18192Y-40624D01*
X18284Y-40586D01*
X18355Y-40516D01*
X18393Y-40424D01*
X18393Y-40325D01*
X18393Y-39695D01*
X18370Y-39640D01*
X18461Y-39602D01*
X18532Y-39532D01*
X18570Y-39440D01*
X18570Y-39341D01*
X18570Y-39184D01*
X18570Y-39183D01*
X18570Y-39183D01*
X18570Y-39157D01*
X18552Y-39139D01*
X18547Y-39126D01*
X18865Y-39126D01*
X18864Y-39273D01*
X18944Y-39467D01*
X19092Y-39614D01*
X19285Y-39694D01*
X19420Y-39695D01*
X20130Y-40404D01*
X20130Y-40752D01*
X20014Y-40868D01*
X19930Y-41070D01*
X19929Y-41288D01*
X20013Y-41491D01*
X20168Y-41645D01*
X20370Y-41729D01*
X20588Y-41730D01*
X20791Y-41646D01*
X20945Y-41491D01*
X21029Y-41289D01*
X21030Y-41071D01*
X20946Y-40868D01*
X20830Y-40752D01*
X20830Y-40260D01*
X20803Y-40126D01*
X20727Y-40012D01*
X20727Y-40012D01*
X19914Y-39199D01*
X19915Y-39066D01*
X19835Y-38873D01*
X19687Y-38725D01*
X19655Y-38711D01*
X20052Y-38315D01*
X20139Y-38315D01*
X20231Y-38277D01*
X20301Y-38206D01*
X20339Y-38114D01*
X20339Y-38077D01*
X20490Y-38139D01*
X20708Y-38140D01*
X20911Y-38056D01*
X21065Y-37901D01*
X21149Y-37699D01*
X21150Y-37481D01*
X21150Y-42062D01*
X21112Y-41971D01*
X20959Y-41818D01*
X20758Y-41734D01*
X20542Y-41734D01*
X20341Y-41817D01*
X20228Y-41930D01*
X19919Y-41930D01*
X19919Y-41245D01*
X19908Y-41037D01*
X19850Y-40897D01*
X19757Y-40872D01*
X19687Y-40943D01*
X19687Y-40802D01*
X19662Y-40709D01*
X19465Y-40640D01*
X19257Y-40651D01*
X19117Y-40709D01*
X19092Y-40802D01*
X19390Y-41099D01*
X19687Y-40802D01*
X19687Y-40943D01*
X19460Y-41170D01*
X19757Y-41467D01*
X19850Y-41442D01*
X19919Y-41245D01*
X19919Y-41930D01*
X19687Y-41930D01*
X19687Y-41537D01*
X19390Y-41240D01*
X19319Y-41311D01*
X19319Y-41170D01*
X19022Y-40872D01*
X18929Y-40897D01*
X18860Y-41094D01*
X18871Y-41302D01*
X18929Y-41442D01*
X19022Y-41467D01*
X19319Y-41170D01*
X19319Y-41311D01*
X19092Y-41537D01*
X19117Y-41630D01*
X19314Y-41699D01*
X19522Y-41688D01*
X19662Y-41630D01*
X19687Y-41537D01*
X19687Y-41930D01*
X19240Y-41930D01*
X19106Y-41956D01*
X18992Y-42032D01*
X18992Y-42032D01*
X18992Y-42032D01*
X16572Y-44452D01*
X16496Y-44566D01*
X16470Y-44700D01*
X16475Y-44726D01*
X16398Y-44757D01*
X16328Y-44828D01*
X16290Y-44920D01*
X16289Y-45019D01*
X16289Y-45619D01*
X16327Y-45711D01*
X16398Y-45781D01*
X16490Y-45819D01*
X16589Y-45820D01*
X17189Y-45820D01*
X17281Y-45782D01*
X17351Y-45711D01*
X17389Y-45619D01*
X17389Y-45597D01*
X17528Y-45735D01*
X17730Y-45819D01*
X17948Y-45820D01*
X18151Y-45736D01*
X18305Y-45581D01*
X18339Y-45500D01*
X18373Y-45581D01*
X18528Y-45735D01*
X18730Y-45819D01*
X18948Y-45820D01*
X19151Y-45736D01*
X19305Y-45581D01*
X19389Y-45379D01*
X19390Y-45161D01*
X19306Y-44958D01*
X19151Y-44804D01*
X18949Y-44720D01*
X18731Y-44719D01*
X18584Y-44780D01*
X18694Y-44670D01*
X21497Y-44670D01*
X21563Y-44736D01*
X21563Y-44736D01*
X21566Y-44750D01*
X21642Y-44864D01*
X21655Y-44877D01*
X21769Y-44953D01*
X21903Y-44980D01*
X22781Y-44980D01*
X22845Y-45044D01*
X22788Y-45067D01*
X22718Y-45138D01*
X22680Y-45230D01*
X22679Y-45329D01*
X22680Y-45517D01*
X22742Y-45580D01*
X23230Y-45580D01*
X23230Y-45572D01*
X23330Y-45572D01*
X23330Y-45580D01*
X23817Y-45580D01*
X23880Y-45517D01*
X23880Y-45329D01*
X23879Y-45230D01*
X23841Y-45138D01*
X23771Y-45067D01*
X23714Y-45044D01*
X23788Y-44970D01*
X23879Y-44749D01*
X23880Y-44511D01*
X23880Y-49977D01*
X23880Y-49977D01*
X23880Y-45930D01*
X23880Y-45742D01*
X23817Y-45680D01*
X23330Y-45680D01*
X23330Y-46167D01*
X23392Y-46230D01*
X23679Y-46230D01*
X23771Y-46192D01*
X23841Y-46121D01*
X23879Y-46029D01*
X23880Y-45930D01*
X23880Y-49977D01*
X23230Y-49325D01*
X23230Y-46167D01*
X23230Y-45680D01*
X22742Y-45680D01*
X22680Y-45742D01*
X22679Y-45930D01*
X22680Y-46029D01*
X22718Y-46121D01*
X22788Y-46192D01*
X22880Y-46230D01*
X23167Y-46230D01*
X23230Y-46167D01*
X23230Y-49325D01*
X20455Y-46540D01*
X20455Y-46525D01*
X20390Y-46369D01*
X20271Y-46249D01*
X20114Y-46185D01*
X19945Y-46184D01*
X19789Y-46249D01*
X19669Y-46368D01*
X19605Y-46525D01*
X19604Y-46694D01*
X19669Y-46850D01*
X19788Y-46970D01*
X19945Y-47034D01*
X19959Y-47034D01*
X27607Y-54709D01*
X27612Y-54717D01*
X27726Y-54793D01*
X27860Y-54820D01*
X31352Y-54820D01*
X31468Y-54935D01*
X31543Y-54967D01*
X31492Y-54988D01*
X31464Y-55084D01*
X31780Y-55399D01*
X32095Y-55084D01*
X32067Y-54988D01*
X32012Y-54969D01*
X32091Y-54936D01*
X32245Y-54781D01*
X32329Y-54579D01*
X32330Y-54361D01*
X32330Y-55349D01*
X32324Y-55354D01*
X32323Y-55333D01*
X32261Y-55182D01*
X32165Y-55154D01*
X31850Y-55470D01*
X32165Y-55785D01*
X32242Y-55763D01*
X32242Y-55978D01*
X32221Y-55958D01*
X32129Y-55920D01*
X32076Y-55919D01*
X32095Y-55855D01*
X31780Y-55540D01*
X31709Y-55611D01*
X31709Y-55470D01*
X31394Y-55154D01*
X31298Y-55182D01*
X31225Y-55388D01*
X31236Y-55606D01*
X31298Y-55757D01*
X31394Y-55785D01*
X31709Y-55470D01*
X31709Y-55611D01*
X31464Y-55855D01*
X31483Y-55919D01*
X31430Y-55920D01*
X31338Y-55958D01*
X31267Y-56028D01*
X31229Y-56120D01*
X31230Y-56357D01*
X31292Y-56420D01*
X31730Y-56420D01*
X31730Y-56412D01*
X31830Y-56412D01*
X31830Y-56420D01*
X31837Y-56420D01*
X31837Y-56520D01*
X31830Y-56520D01*
X31830Y-56957D01*
X31892Y-57020D01*
X32030Y-57020D01*
X32129Y-57019D01*
X32221Y-56981D01*
X32262Y-56941D01*
X32280Y-56984D01*
X32350Y-57055D01*
X32442Y-57093D01*
X32541Y-57093D01*
X32773Y-57093D01*
X32836Y-57031D01*
X32836Y-56617D01*
X32828Y-56617D01*
X32828Y-56517D01*
X32836Y-56517D01*
X32836Y-56510D01*
X32936Y-56510D01*
X32936Y-56517D01*
X33467Y-56517D01*
X33529Y-56455D01*
X33529Y-56242D01*
X33508Y-56191D01*
X33529Y-56141D01*
X33529Y-56042D01*
X33529Y-55490D01*
X33491Y-55398D01*
X33421Y-55328D01*
X33329Y-55290D01*
X33236Y-55290D01*
X33236Y-53378D01*
X33389Y-53225D01*
X33389Y-53288D01*
X33473Y-53491D01*
X33628Y-53645D01*
X33703Y-53677D01*
X33652Y-53698D01*
X33624Y-53794D01*
X33940Y-54109D01*
X34255Y-53794D01*
X34227Y-53698D01*
X34172Y-53679D01*
X34251Y-53646D01*
X34405Y-53491D01*
X34439Y-53410D01*
X34473Y-53491D01*
X34612Y-53629D01*
X34590Y-53629D01*
X34498Y-53667D01*
X34428Y-53738D01*
X34390Y-53830D01*
X34389Y-53883D01*
X34325Y-53864D01*
X34010Y-54180D01*
X34325Y-54495D01*
X34389Y-54476D01*
X34389Y-54529D01*
X34427Y-54621D01*
X34498Y-54691D01*
X34590Y-54729D01*
X34689Y-54730D01*
X35289Y-54730D01*
X35381Y-54692D01*
X35451Y-54621D01*
X35489Y-54529D01*
X35490Y-54430D01*
X35490Y-53830D01*
X35452Y-53738D01*
X35381Y-53668D01*
X35289Y-53630D01*
X35267Y-53630D01*
X35405Y-53491D01*
X35489Y-53289D01*
X35490Y-53071D01*
X35406Y-52868D01*
X35251Y-52714D01*
X35170Y-52680D01*
X35251Y-52646D01*
X35405Y-52491D01*
X35489Y-52289D01*
X35490Y-52071D01*
X35406Y-51868D01*
X35267Y-51730D01*
X35289Y-51730D01*
X35381Y-51692D01*
X35451Y-51621D01*
X35489Y-51529D01*
X35490Y-51430D01*
X35490Y-50830D01*
X35452Y-50738D01*
X35381Y-50668D01*
X35289Y-50630D01*
X35190Y-50629D01*
X34590Y-50629D01*
X34498Y-50667D01*
X34428Y-50738D01*
X34390Y-50830D01*
X34390Y-50852D01*
X34290Y-50752D01*
X34290Y-49782D01*
X34829Y-49243D01*
X34829Y-49278D01*
X34913Y-49481D01*
X35068Y-49635D01*
X35270Y-49719D01*
X35488Y-49720D01*
X35691Y-49636D01*
X35845Y-49481D01*
X35929Y-49279D01*
X35930Y-49061D01*
X35846Y-48858D01*
X35691Y-48704D01*
X35489Y-48620D01*
X35452Y-48620D01*
X35759Y-48313D01*
X35759Y-48313D01*
X35759Y-48313D01*
X35835Y-48199D01*
X35862Y-48065D01*
X35862Y-48065D01*
X35862Y-48065D01*
X35862Y-45079D01*
X36004Y-45129D01*
X36212Y-45118D01*
X36352Y-45060D01*
X36377Y-44967D01*
X36080Y-44670D01*
X36074Y-44676D01*
X36003Y-44605D01*
X36009Y-44600D01*
X36003Y-44594D01*
X36074Y-44523D01*
X36080Y-44529D01*
X36377Y-44232D01*
X36352Y-44139D01*
X36242Y-44100D01*
X36377Y-44045D01*
X36524Y-43897D01*
X36604Y-43704D01*
X36605Y-43496D01*
X36525Y-43303D01*
X36430Y-43207D01*
X36430Y-42462D01*
X36548Y-42511D01*
X36717Y-42512D01*
X36873Y-42447D01*
X36883Y-42437D01*
X36937Y-42437D01*
X36910Y-42514D01*
X36921Y-42722D01*
X36979Y-42862D01*
X37072Y-42887D01*
X37369Y-42590D01*
X37363Y-42584D01*
X37434Y-42513D01*
X37440Y-42519D01*
X37445Y-42513D01*
X37516Y-42584D01*
X37510Y-42590D01*
X37807Y-42887D01*
X37900Y-42862D01*
X37969Y-42665D01*
X37958Y-42457D01*
X37950Y-42437D01*
X38960Y-42437D01*
X38960Y-43575D01*
X37965Y-44570D01*
X37965Y-44486D01*
X37885Y-44293D01*
X37737Y-44145D01*
X37604Y-44089D01*
X37737Y-44035D01*
X37884Y-43887D01*
X37964Y-43694D01*
X37965Y-43486D01*
X37885Y-43293D01*
X37737Y-43145D01*
X37611Y-43092D01*
X37712Y-43050D01*
X37737Y-42957D01*
X37440Y-42660D01*
X37142Y-42957D01*
X37167Y-43050D01*
X37277Y-43089D01*
X37143Y-43144D01*
X36995Y-43292D01*
X36915Y-43485D01*
X36914Y-43693D01*
X36994Y-43887D01*
X37142Y-44034D01*
X37275Y-44090D01*
X37143Y-44144D01*
X36995Y-44292D01*
X36915Y-44485D01*
X36914Y-44693D01*
X36994Y-44887D01*
X37142Y-45034D01*
X37275Y-45090D01*
X37143Y-45144D01*
X36995Y-45292D01*
X36915Y-45485D01*
X36914Y-45693D01*
X36994Y-45887D01*
X37142Y-46034D01*
X37275Y-46090D01*
X37143Y-46144D01*
X36995Y-46292D01*
X36915Y-46485D01*
X36914Y-46693D01*
X36994Y-46887D01*
X37142Y-47034D01*
X37275Y-47090D01*
X37143Y-47144D01*
X36995Y-47292D01*
X36915Y-47485D01*
X36914Y-47693D01*
X36994Y-47887D01*
X37142Y-48034D01*
X37275Y-48090D01*
X37143Y-48144D01*
X36995Y-48292D01*
X36915Y-48485D01*
X36914Y-48693D01*
X36994Y-48887D01*
X37090Y-48982D01*
X37090Y-54169D01*
X36609Y-54649D01*
X36609Y-44675D01*
X36598Y-44467D01*
X36540Y-44327D01*
X36447Y-44302D01*
X36150Y-44600D01*
X36447Y-44897D01*
X36540Y-44872D01*
X36609Y-44675D01*
X36609Y-54649D01*
X35142Y-56116D01*
X35066Y-56230D01*
X35040Y-56364D01*
X35040Y-58562D01*
X34924Y-58678D01*
X34890Y-58759D01*
X34856Y-58678D01*
X34701Y-58524D01*
X34499Y-58440D01*
X34281Y-58439D01*
X34255Y-58450D01*
X34255Y-54565D01*
X33940Y-54250D01*
X33869Y-54321D01*
X33869Y-54180D01*
X33554Y-53864D01*
X33458Y-53892D01*
X33385Y-54098D01*
X33396Y-54316D01*
X33458Y-54467D01*
X33554Y-54495D01*
X33869Y-54180D01*
X33869Y-54321D01*
X33624Y-54565D01*
X33652Y-54661D01*
X33858Y-54734D01*
X34076Y-54723D01*
X34227Y-54661D01*
X34255Y-54565D01*
X34255Y-58450D01*
X34078Y-58523D01*
X33939Y-58662D01*
X33939Y-58640D01*
X33901Y-58548D01*
X33831Y-58477D01*
X33739Y-58439D01*
X33529Y-58439D01*
X33529Y-56893D01*
X33529Y-56680D01*
X33467Y-56617D01*
X32936Y-56617D01*
X32936Y-57031D01*
X32998Y-57093D01*
X33230Y-57093D01*
X33329Y-57093D01*
X33421Y-57055D01*
X33491Y-56984D01*
X33529Y-56893D01*
X33529Y-58439D01*
X33502Y-58440D01*
X33440Y-58502D01*
X33440Y-58940D01*
X33447Y-58940D01*
X33447Y-59040D01*
X33440Y-59040D01*
X33440Y-59047D01*
X33340Y-59047D01*
X33340Y-59040D01*
X33340Y-58940D01*
X33340Y-58502D01*
X33277Y-58440D01*
X33040Y-58439D01*
X32948Y-58477D01*
X32878Y-58548D01*
X32840Y-58640D01*
X32839Y-58739D01*
X32840Y-58877D01*
X32902Y-58940D01*
X33340Y-58940D01*
X33340Y-59040D01*
X32902Y-59040D01*
X32840Y-59102D01*
X32839Y-59240D01*
X32840Y-59339D01*
X32873Y-59420D01*
X32836Y-59420D01*
X31730Y-59420D01*
X31730Y-56957D01*
X31730Y-56520D01*
X31292Y-56520D01*
X31230Y-56582D01*
X31229Y-56819D01*
X31267Y-56911D01*
X31338Y-56981D01*
X31430Y-57019D01*
X31529Y-57020D01*
X31667Y-57020D01*
X31730Y-56957D01*
X31730Y-59420D01*
X17193Y-59420D01*
X17378Y-59383D01*
X17379Y-59383D01*
X17476Y-59343D01*
X17692Y-59198D01*
X17693Y-59198D01*
X17767Y-59123D01*
X17913Y-58906D01*
X17953Y-58809D01*
X17953Y-58808D01*
X18004Y-58552D01*
X18004Y-58552D01*
X18004Y-58552D01*
X18004Y-58500D01*
X18004Y-58447D01*
X18004Y-58447D01*
X18004Y-58447D01*
X17953Y-58191D01*
X17953Y-58190D01*
X17913Y-58093D01*
X17767Y-57876D01*
X17693Y-57801D01*
X17692Y-57801D01*
X17476Y-57656D01*
X17379Y-57616D01*
X17378Y-57616D01*
X17123Y-57565D01*
X17122Y-57565D01*
X17017Y-57565D01*
X16761Y-57616D01*
X16760Y-57616D01*
X16663Y-57656D01*
X16446Y-57802D01*
X16371Y-57876D01*
X16371Y-57877D01*
X16226Y-58093D01*
X16186Y-58190D01*
X16186Y-58191D01*
X16159Y-58326D01*
X16159Y-40573D01*
X16321Y-40605D01*
X16618Y-40605D01*
X16782Y-40572D01*
X16920Y-40480D01*
X17013Y-40341D01*
X17046Y-40177D01*
X17013Y-40014D01*
X16925Y-39883D01*
X16985Y-39858D01*
X17055Y-39788D01*
X17093Y-39696D01*
X17094Y-39596D01*
X17094Y-38848D01*
X17073Y-38799D01*
X17093Y-38751D01*
X17094Y-38652D01*
X17094Y-37904D01*
X17056Y-37812D01*
X16985Y-37741D01*
X16925Y-37716D01*
X17013Y-37585D01*
X17046Y-37422D01*
X17013Y-37258D01*
X16920Y-37119D01*
X16782Y-37027D01*
X16618Y-36994D01*
X16321Y-36994D01*
X16159Y-37026D01*
X16159Y-35433D01*
X16196Y-35618D01*
X16196Y-35619D01*
X16236Y-35716D01*
X16381Y-35932D01*
X16381Y-35933D01*
X16456Y-36007D01*
X16673Y-36153D01*
X16770Y-36193D01*
X16771Y-36193D01*
X17027Y-36244D01*
X17132Y-36244D01*
X17133Y-36244D01*
X17388Y-36193D01*
X17389Y-36193D01*
X17486Y-36153D01*
X17702Y-36008D01*
X17703Y-36008D01*
X17777Y-35933D01*
X17923Y-35716D01*
X17963Y-35619D01*
X17963Y-35618D01*
X18014Y-35362D01*
X18014Y-35362D01*
X18014Y-35362D01*
X18014Y-35310D01*
X18014Y-35257D01*
X18014Y-35257D01*
X18014Y-35257D01*
X17963Y-35001D01*
X17963Y-35000D01*
X17923Y-34903D01*
X17777Y-34686D01*
X17703Y-34611D01*
X17702Y-34611D01*
X17486Y-34466D01*
X17389Y-34426D01*
X17388Y-34426D01*
X17203Y-34389D01*
X41765Y-34389D01*
G54D10*
G36*
X54220Y-58375D02*
X54183Y-58191D01*
X54183Y-58190D01*
X54143Y-58093D01*
X53997Y-57876D01*
X53923Y-57801D01*
X53922Y-57801D01*
X53706Y-57656D01*
X53609Y-57616D01*
X53608Y-57616D01*
X53353Y-57565D01*
X53352Y-57565D01*
X53247Y-57565D01*
X52991Y-57616D01*
X52990Y-57616D01*
X52893Y-57656D01*
X52676Y-57802D01*
X52601Y-57876D01*
X52601Y-57877D01*
X52456Y-58093D01*
X52416Y-58190D01*
X52416Y-58191D01*
X52365Y-58447D01*
X52365Y-58447D01*
X52365Y-58447D01*
X52365Y-58500D01*
X52365Y-58552D01*
X52365Y-58552D01*
X52365Y-58552D01*
X52416Y-58808D01*
X52416Y-58809D01*
X52456Y-58906D01*
X52601Y-59122D01*
X52601Y-59123D01*
X52676Y-59197D01*
X52893Y-59343D01*
X52990Y-59383D01*
X52991Y-59383D01*
X53175Y-59420D01*
X49107Y-59420D01*
X49107Y-55759D01*
X48792Y-55444D01*
X48721Y-55515D01*
X48721Y-55374D01*
X48406Y-55058D01*
X48310Y-55086D01*
X48291Y-55141D01*
X48258Y-55062D01*
X48103Y-54908D01*
X47901Y-54824D01*
X47683Y-54823D01*
X47480Y-54907D01*
X47326Y-55062D01*
X47292Y-55143D01*
X47258Y-55062D01*
X47103Y-54908D01*
X46901Y-54824D01*
X46683Y-54823D01*
X46480Y-54907D01*
X46326Y-55062D01*
X46242Y-55264D01*
X46241Y-55482D01*
X46325Y-55685D01*
X46480Y-55839D01*
X46682Y-55923D01*
X46900Y-55924D01*
X47103Y-55840D01*
X47257Y-55685D01*
X47291Y-55604D01*
X47325Y-55685D01*
X47480Y-55839D01*
X47682Y-55923D01*
X47900Y-55924D01*
X48103Y-55840D01*
X48257Y-55685D01*
X48289Y-55610D01*
X48310Y-55661D01*
X48406Y-55689D01*
X48721Y-55374D01*
X48721Y-55515D01*
X48476Y-55759D01*
X48504Y-55855D01*
X48710Y-55928D01*
X48928Y-55917D01*
X49079Y-55855D01*
X49107Y-55759D01*
X49107Y-59420D01*
X38737Y-59420D01*
X38855Y-59301D01*
X38939Y-59099D01*
X38940Y-58881D01*
X38856Y-58678D01*
X38701Y-58524D01*
X38499Y-58440D01*
X38281Y-58439D01*
X38078Y-58523D01*
X37924Y-58678D01*
X37890Y-58759D01*
X37856Y-58678D01*
X37701Y-58524D01*
X37499Y-58440D01*
X37281Y-58439D01*
X37078Y-58523D01*
X36924Y-58678D01*
X36890Y-58759D01*
X36856Y-58678D01*
X36701Y-58524D01*
X36499Y-58440D01*
X36281Y-58439D01*
X36078Y-58523D01*
X35924Y-58678D01*
X35890Y-58759D01*
X35856Y-58678D01*
X35740Y-58562D01*
X35740Y-56508D01*
X37687Y-54561D01*
X37763Y-54447D01*
X37763Y-54447D01*
X37790Y-54314D01*
X37790Y-48982D01*
X37808Y-48964D01*
X37808Y-55987D01*
X37785Y-55933D01*
X37637Y-55785D01*
X37444Y-55705D01*
X37236Y-55704D01*
X37043Y-55784D01*
X36895Y-55932D01*
X36815Y-56125D01*
X36814Y-56333D01*
X36894Y-56527D01*
X37042Y-56674D01*
X37175Y-56730D01*
X37043Y-56784D01*
X36895Y-56932D01*
X36865Y-57004D01*
X36865Y-56905D01*
X36827Y-56813D01*
X36756Y-56743D01*
X36664Y-56705D01*
X36565Y-56704D01*
X36015Y-56704D01*
X35923Y-56742D01*
X35853Y-56813D01*
X35815Y-56905D01*
X35814Y-57004D01*
X35814Y-57554D01*
X35852Y-57646D01*
X35923Y-57716D01*
X36015Y-57754D01*
X36114Y-57755D01*
X36664Y-57755D01*
X36756Y-57717D01*
X36826Y-57646D01*
X36864Y-57554D01*
X36865Y-57455D01*
X36865Y-57455D01*
X36894Y-57527D01*
X37042Y-57674D01*
X37235Y-57754D01*
X37443Y-57755D01*
X37637Y-57675D01*
X37750Y-57561D01*
X37793Y-57553D01*
X37793Y-57553D01*
X37907Y-57477D01*
X38405Y-56979D01*
X38481Y-56865D01*
X38481Y-56865D01*
X38508Y-56732D01*
X38508Y-47308D01*
X38481Y-47174D01*
X38405Y-47060D01*
X37964Y-46619D01*
X37965Y-46486D01*
X37885Y-46293D01*
X37737Y-46145D01*
X37604Y-46089D01*
X37737Y-46035D01*
X37884Y-45887D01*
X37964Y-45694D01*
X37965Y-45559D01*
X39557Y-43967D01*
X39633Y-43853D01*
X39660Y-43720D01*
X39660Y-42260D01*
X39659Y-42259D01*
X39660Y-42259D01*
X39633Y-42126D01*
X39557Y-42012D01*
X39557Y-42012D01*
X39384Y-41839D01*
X39270Y-41763D01*
X39137Y-41737D01*
X37947Y-41737D01*
X37964Y-41694D01*
X37965Y-41486D01*
X37885Y-41293D01*
X37737Y-41145D01*
X37604Y-41089D01*
X37737Y-41035D01*
X37884Y-40887D01*
X37964Y-40694D01*
X37965Y-40486D01*
X37885Y-40293D01*
X37737Y-40145D01*
X37604Y-40089D01*
X37737Y-40035D01*
X37884Y-39887D01*
X37964Y-39694D01*
X37965Y-39486D01*
X37946Y-39440D01*
X38795Y-39440D01*
X39915Y-40560D01*
X39914Y-40693D01*
X39994Y-40887D01*
X40142Y-41034D01*
X40268Y-41087D01*
X40167Y-41129D01*
X40142Y-41222D01*
X40440Y-41519D01*
X40737Y-41222D01*
X40712Y-41129D01*
X40602Y-41090D01*
X40737Y-41035D01*
X40832Y-40940D01*
X40880Y-40940D01*
X41013Y-40913D01*
X41013Y-40913D01*
X41127Y-40837D01*
X41280Y-40684D01*
X41413Y-40685D01*
X41607Y-40605D01*
X41754Y-40457D01*
X41834Y-40264D01*
X41835Y-40056D01*
X41755Y-39863D01*
X41607Y-39715D01*
X41414Y-39635D01*
X41206Y-39634D01*
X41013Y-39714D01*
X40916Y-39810D01*
X40964Y-39694D01*
X40965Y-39486D01*
X40885Y-39293D01*
X40737Y-39145D01*
X40604Y-39089D01*
X40737Y-39035D01*
X40884Y-38887D01*
X40964Y-38694D01*
X40965Y-38486D01*
X40885Y-38293D01*
X40737Y-38145D01*
X40604Y-38089D01*
X40737Y-38035D01*
X40884Y-37887D01*
X40964Y-37694D01*
X40965Y-37486D01*
X40885Y-37293D01*
X40737Y-37145D01*
X40604Y-37089D01*
X40737Y-37035D01*
X40884Y-36887D01*
X40957Y-36712D01*
X43540Y-39294D01*
X43540Y-40150D01*
X43540Y-42162D01*
X43424Y-42278D01*
X43340Y-42480D01*
X43339Y-42698D01*
X43423Y-42901D01*
X43540Y-43017D01*
X43540Y-43162D01*
X43424Y-43278D01*
X43340Y-43480D01*
X43339Y-43698D01*
X43423Y-43901D01*
X43578Y-44055D01*
X43653Y-44087D01*
X43602Y-44108D01*
X43574Y-44204D01*
X43890Y-44519D01*
X43895Y-44513D01*
X43966Y-44584D01*
X43960Y-44590D01*
X44275Y-44905D01*
X44371Y-44877D01*
X44444Y-44671D01*
X44443Y-44638D01*
X44690Y-44884D01*
X44690Y-54965D01*
X44440Y-55214D01*
X44440Y-45481D01*
X44356Y-45278D01*
X44201Y-45124D01*
X44126Y-45092D01*
X44177Y-45071D01*
X44205Y-44975D01*
X43890Y-44660D01*
X43819Y-44731D01*
X43819Y-44590D01*
X43504Y-44274D01*
X43408Y-44302D01*
X43335Y-44508D01*
X43346Y-44726D01*
X43408Y-44877D01*
X43504Y-44905D01*
X43819Y-44590D01*
X43819Y-44731D01*
X43574Y-44975D01*
X43602Y-45071D01*
X43657Y-45090D01*
X43578Y-45123D01*
X43424Y-45278D01*
X43340Y-45480D01*
X43339Y-45698D01*
X43423Y-45901D01*
X43562Y-46039D01*
X43540Y-46039D01*
X43448Y-46077D01*
X43378Y-46148D01*
X43340Y-46240D01*
X43339Y-46339D01*
X43339Y-46939D01*
X43377Y-47031D01*
X43448Y-47101D01*
X43540Y-47139D01*
X43639Y-47140D01*
X44239Y-47140D01*
X44331Y-47102D01*
X44401Y-47031D01*
X44439Y-46939D01*
X44440Y-46840D01*
X44440Y-46240D01*
X44402Y-46148D01*
X44331Y-46078D01*
X44239Y-46040D01*
X44217Y-46040D01*
X44355Y-45901D01*
X44439Y-45699D01*
X44440Y-45481D01*
X44440Y-55214D01*
X43603Y-56052D01*
X43282Y-56052D01*
X43187Y-55957D01*
X42994Y-55877D01*
X42786Y-55876D01*
X42593Y-55956D01*
X42445Y-56104D01*
X42365Y-56297D01*
X42365Y-56382D01*
X41900Y-55917D01*
X41900Y-48510D01*
X41873Y-48376D01*
X41839Y-48325D01*
X41839Y-42235D01*
X41828Y-42027D01*
X41770Y-41887D01*
X41677Y-41862D01*
X41607Y-41933D01*
X41607Y-41792D01*
X41582Y-41699D01*
X41385Y-41630D01*
X41177Y-41641D01*
X41037Y-41699D01*
X41012Y-41792D01*
X41310Y-42089D01*
X41607Y-41792D01*
X41607Y-41933D01*
X41380Y-42160D01*
X41677Y-42457D01*
X41770Y-42432D01*
X41839Y-42235D01*
X41839Y-48325D01*
X41797Y-48262D01*
X41607Y-48072D01*
X40925Y-47390D01*
X40885Y-47293D01*
X40737Y-47145D01*
X40604Y-47089D01*
X40737Y-47035D01*
X40884Y-46887D01*
X40964Y-46694D01*
X40965Y-46486D01*
X40885Y-46293D01*
X40737Y-46145D01*
X40604Y-46089D01*
X40737Y-46035D01*
X40884Y-45887D01*
X40964Y-45694D01*
X40965Y-45486D01*
X40885Y-45293D01*
X40737Y-45145D01*
X40604Y-45089D01*
X40737Y-45035D01*
X40884Y-44887D01*
X40964Y-44694D01*
X40965Y-44486D01*
X40885Y-44293D01*
X40737Y-44145D01*
X40604Y-44089D01*
X40737Y-44035D01*
X40884Y-43887D01*
X40964Y-43694D01*
X40965Y-43486D01*
X40885Y-43293D01*
X40737Y-43145D01*
X40604Y-43089D01*
X40737Y-43035D01*
X40884Y-42887D01*
X40964Y-42694D01*
X40965Y-42570D01*
X40967Y-42573D01*
X41012Y-42527D01*
X41037Y-42620D01*
X41234Y-42689D01*
X41442Y-42678D01*
X41582Y-42620D01*
X41607Y-42527D01*
X41310Y-42230D01*
X41304Y-42236D01*
X41233Y-42165D01*
X41239Y-42160D01*
X40969Y-41890D01*
X40969Y-41665D01*
X40958Y-41457D01*
X40900Y-41317D01*
X40807Y-41292D01*
X40510Y-41590D01*
X40807Y-41887D01*
X40900Y-41862D01*
X40969Y-41665D01*
X40969Y-41890D01*
X40942Y-41862D01*
X40849Y-41887D01*
X40780Y-42084D01*
X40786Y-42193D01*
X40737Y-42145D01*
X40611Y-42092D01*
X40712Y-42050D01*
X40737Y-41957D01*
X40440Y-41660D01*
X40369Y-41731D01*
X40369Y-41590D01*
X40072Y-41292D01*
X39979Y-41317D01*
X39910Y-41514D01*
X39921Y-41722D01*
X39979Y-41862D01*
X40072Y-41887D01*
X40369Y-41590D01*
X40369Y-41731D01*
X40142Y-41957D01*
X40167Y-42050D01*
X40277Y-42089D01*
X40143Y-42144D01*
X39995Y-42292D01*
X39915Y-42485D01*
X39914Y-42693D01*
X39994Y-42887D01*
X40142Y-43034D01*
X40275Y-43090D01*
X40143Y-43144D01*
X39995Y-43292D01*
X39915Y-43485D01*
X39914Y-43693D01*
X39994Y-43887D01*
X40142Y-44034D01*
X40275Y-44090D01*
X40143Y-44144D01*
X39995Y-44292D01*
X39915Y-44485D01*
X39914Y-44693D01*
X39994Y-44887D01*
X40142Y-45034D01*
X40275Y-45090D01*
X40143Y-45144D01*
X39995Y-45292D01*
X39915Y-45485D01*
X39914Y-45693D01*
X39994Y-45887D01*
X40142Y-46034D01*
X40275Y-46090D01*
X40143Y-46144D01*
X39995Y-46292D01*
X39915Y-46485D01*
X39914Y-46693D01*
X39994Y-46887D01*
X40142Y-47034D01*
X40275Y-47090D01*
X40143Y-47144D01*
X39995Y-47292D01*
X39915Y-47485D01*
X39914Y-47693D01*
X39994Y-47887D01*
X40142Y-48034D01*
X40275Y-48090D01*
X40143Y-48144D01*
X39995Y-48292D01*
X39915Y-48485D01*
X39914Y-48693D01*
X39994Y-48887D01*
X40142Y-49034D01*
X40335Y-49114D01*
X40390Y-49114D01*
X40390Y-55838D01*
X40250Y-55781D01*
X40042Y-55780D01*
X39849Y-55860D01*
X39701Y-56008D01*
X39621Y-56201D01*
X39620Y-56409D01*
X39700Y-56603D01*
X39848Y-56750D01*
X39981Y-56806D01*
X39849Y-56860D01*
X39701Y-57008D01*
X39671Y-57080D01*
X39671Y-56981D01*
X39633Y-56889D01*
X39562Y-56819D01*
X39470Y-56781D01*
X39371Y-56780D01*
X38821Y-56780D01*
X38729Y-56818D01*
X38659Y-56889D01*
X38621Y-56981D01*
X38620Y-57080D01*
X38620Y-57630D01*
X38658Y-57722D01*
X38729Y-57792D01*
X38821Y-57830D01*
X38920Y-57831D01*
X39470Y-57831D01*
X39562Y-57793D01*
X39632Y-57722D01*
X39670Y-57630D01*
X39671Y-57531D01*
X39671Y-57531D01*
X39700Y-57603D01*
X39848Y-57750D01*
X40041Y-57830D01*
X40249Y-57831D01*
X40443Y-57751D01*
X40590Y-57603D01*
X40670Y-57410D01*
X40671Y-57202D01*
X40654Y-57162D01*
X40987Y-56829D01*
X41063Y-56715D01*
X41063Y-56715D01*
X41090Y-56582D01*
X41090Y-48890D01*
X41089Y-48889D01*
X41090Y-48889D01*
X41063Y-48756D01*
X40987Y-48642D01*
X40987Y-48642D01*
X40964Y-48619D01*
X40965Y-48486D01*
X40918Y-48373D01*
X41200Y-48654D01*
X41200Y-56062D01*
X41226Y-56195D01*
X41302Y-56309D01*
X41869Y-56876D01*
X41565Y-56876D01*
X41473Y-56914D01*
X41403Y-56985D01*
X41365Y-57077D01*
X41364Y-57176D01*
X41364Y-57726D01*
X41402Y-57818D01*
X41473Y-57888D01*
X41565Y-57926D01*
X41664Y-57927D01*
X42214Y-57927D01*
X42306Y-57889D01*
X42376Y-57818D01*
X42414Y-57726D01*
X42415Y-57627D01*
X42415Y-57627D01*
X42444Y-57699D01*
X42592Y-57846D01*
X42785Y-57926D01*
X42993Y-57927D01*
X43187Y-57847D01*
X43334Y-57699D01*
X43414Y-57506D01*
X43415Y-57298D01*
X43335Y-57105D01*
X43187Y-56957D01*
X43054Y-56901D01*
X43187Y-56847D01*
X43282Y-56752D01*
X43748Y-56752D01*
X43881Y-56725D01*
X43881Y-56725D01*
X43995Y-56649D01*
X45287Y-55357D01*
X45363Y-55243D01*
X45390Y-55110D01*
X45390Y-44740D01*
X45389Y-44739D01*
X45390Y-44739D01*
X45363Y-44606D01*
X45287Y-44492D01*
X45287Y-44492D01*
X44439Y-43644D01*
X44440Y-43481D01*
X44356Y-43278D01*
X44240Y-43162D01*
X44240Y-43017D01*
X44355Y-42901D01*
X44439Y-42699D01*
X44440Y-42481D01*
X44356Y-42278D01*
X44240Y-42162D01*
X44240Y-40150D01*
X44240Y-39150D01*
X44239Y-39149D01*
X44240Y-39149D01*
X44213Y-39016D01*
X44137Y-38902D01*
X44137Y-38902D01*
X41480Y-36245D01*
X41480Y-36150D01*
X41483Y-36153D01*
X41580Y-36193D01*
X41581Y-36193D01*
X41837Y-36244D01*
X41942Y-36244D01*
X41943Y-36244D01*
X42198Y-36193D01*
X42199Y-36193D01*
X42296Y-36153D01*
X42512Y-36008D01*
X42513Y-36008D01*
X42587Y-35933D01*
X42733Y-35716D01*
X42773Y-35619D01*
X42773Y-35618D01*
X42824Y-35362D01*
X42824Y-35362D01*
X42824Y-35362D01*
X42824Y-35310D01*
X42824Y-35257D01*
X42824Y-35257D01*
X42824Y-35257D01*
X42773Y-35001D01*
X42773Y-35000D01*
X42733Y-34903D01*
X42587Y-34686D01*
X42513Y-34611D01*
X42512Y-34611D01*
X42296Y-34466D01*
X42199Y-34426D01*
X42198Y-34426D01*
X42013Y-34389D01*
X54220Y-34389D01*
X54220Y-54856D01*
X54141Y-54824D01*
X54042Y-54823D01*
X53442Y-54823D01*
X53350Y-54861D01*
X53280Y-54932D01*
X53242Y-55024D01*
X53242Y-55050D01*
X53100Y-54908D01*
X52897Y-54824D01*
X52679Y-54823D01*
X52476Y-54907D01*
X52322Y-55062D01*
X52290Y-55139D01*
X52258Y-55062D01*
X52103Y-54908D01*
X51901Y-54824D01*
X51683Y-54823D01*
X51480Y-54907D01*
X51326Y-55062D01*
X51292Y-55143D01*
X51258Y-55062D01*
X51103Y-54908D01*
X50901Y-54824D01*
X50683Y-54823D01*
X50480Y-54907D01*
X50326Y-55062D01*
X50292Y-55143D01*
X50258Y-55062D01*
X50103Y-54908D01*
X49901Y-54824D01*
X49683Y-54823D01*
X49480Y-54907D01*
X49326Y-55062D01*
X49294Y-55137D01*
X49273Y-55086D01*
X49177Y-55058D01*
X49107Y-55129D01*
X49107Y-54988D01*
X49079Y-54892D01*
X48873Y-54819D01*
X48655Y-54830D01*
X48504Y-54892D01*
X48476Y-54988D01*
X48792Y-55303D01*
X49107Y-54988D01*
X49107Y-55129D01*
X48862Y-55374D01*
X49177Y-55689D01*
X49273Y-55661D01*
X49292Y-55606D01*
X49325Y-55685D01*
X49480Y-55839D01*
X49682Y-55923D01*
X49900Y-55924D01*
X50103Y-55840D01*
X50257Y-55685D01*
X50291Y-55604D01*
X50325Y-55685D01*
X50480Y-55839D01*
X50682Y-55923D01*
X50900Y-55924D01*
X51103Y-55840D01*
X51257Y-55685D01*
X51291Y-55604D01*
X51325Y-55685D01*
X51480Y-55839D01*
X51682Y-55923D01*
X51900Y-55924D01*
X52103Y-55840D01*
X52257Y-55685D01*
X52290Y-55608D01*
X52321Y-55685D01*
X52476Y-55839D01*
X52678Y-55923D01*
X52896Y-55924D01*
X53099Y-55840D01*
X53241Y-55698D01*
X53241Y-55723D01*
X53279Y-55815D01*
X53350Y-55885D01*
X53442Y-55923D01*
X53541Y-55924D01*
X54141Y-55924D01*
X54220Y-55891D01*
X54220Y-58375D01*
X54220Y-58375D01*
G37*
G54D32*
X54220Y-58375D02*
X54183Y-58191D01*
X54183Y-58190D01*
X54143Y-58093D01*
X53997Y-57876D01*
X53923Y-57801D01*
X53922Y-57801D01*
X53706Y-57656D01*
X53609Y-57616D01*
X53608Y-57616D01*
X53353Y-57565D01*
X53352Y-57565D01*
X53247Y-57565D01*
X52991Y-57616D01*
X52990Y-57616D01*
X52893Y-57656D01*
X52676Y-57802D01*
X52601Y-57876D01*
X52601Y-57877D01*
X52456Y-58093D01*
X52416Y-58190D01*
X52416Y-58191D01*
X52365Y-58447D01*
X52365Y-58447D01*
X52365Y-58447D01*
X52365Y-58500D01*
X52365Y-58552D01*
X52365Y-58552D01*
X52365Y-58552D01*
X52416Y-58808D01*
X52416Y-58809D01*
X52456Y-58906D01*
X52601Y-59122D01*
X52601Y-59123D01*
X52676Y-59197D01*
X52893Y-59343D01*
X52990Y-59383D01*
X52991Y-59383D01*
X53175Y-59420D01*
X49107Y-59420D01*
X49107Y-55759D01*
X48792Y-55444D01*
X48721Y-55515D01*
X48721Y-55374D01*
X48406Y-55058D01*
X48310Y-55086D01*
X48291Y-55141D01*
X48258Y-55062D01*
X48103Y-54908D01*
X47901Y-54824D01*
X47683Y-54823D01*
X47480Y-54907D01*
X47326Y-55062D01*
X47292Y-55143D01*
X47258Y-55062D01*
X47103Y-54908D01*
X46901Y-54824D01*
X46683Y-54823D01*
X46480Y-54907D01*
X46326Y-55062D01*
X46242Y-55264D01*
X46241Y-55482D01*
X46325Y-55685D01*
X46480Y-55839D01*
X46682Y-55923D01*
X46900Y-55924D01*
X47103Y-55840D01*
X47257Y-55685D01*
X47291Y-55604D01*
X47325Y-55685D01*
X47480Y-55839D01*
X47682Y-55923D01*
X47900Y-55924D01*
X48103Y-55840D01*
X48257Y-55685D01*
X48289Y-55610D01*
X48310Y-55661D01*
X48406Y-55689D01*
X48721Y-55374D01*
X48721Y-55515D01*
X48476Y-55759D01*
X48504Y-55855D01*
X48710Y-55928D01*
X48928Y-55917D01*
X49079Y-55855D01*
X49107Y-55759D01*
X49107Y-59420D01*
X38737Y-59420D01*
X38855Y-59301D01*
X38939Y-59099D01*
X38940Y-58881D01*
X38856Y-58678D01*
X38701Y-58524D01*
X38499Y-58440D01*
X38281Y-58439D01*
X38078Y-58523D01*
X37924Y-58678D01*
X37890Y-58759D01*
X37856Y-58678D01*
X37701Y-58524D01*
X37499Y-58440D01*
X37281Y-58439D01*
X37078Y-58523D01*
X36924Y-58678D01*
X36890Y-58759D01*
X36856Y-58678D01*
X36701Y-58524D01*
X36499Y-58440D01*
X36281Y-58439D01*
X36078Y-58523D01*
X35924Y-58678D01*
X35890Y-58759D01*
X35856Y-58678D01*
X35740Y-58562D01*
X35740Y-56508D01*
X37687Y-54561D01*
X37763Y-54447D01*
X37763Y-54447D01*
X37790Y-54314D01*
X37790Y-48982D01*
X37808Y-48964D01*
X37808Y-55987D01*
X37785Y-55933D01*
X37637Y-55785D01*
X37444Y-55705D01*
X37236Y-55704D01*
X37043Y-55784D01*
X36895Y-55932D01*
X36815Y-56125D01*
X36814Y-56333D01*
X36894Y-56527D01*
X37042Y-56674D01*
X37175Y-56730D01*
X37043Y-56784D01*
X36895Y-56932D01*
X36865Y-57004D01*
X36865Y-56905D01*
X36827Y-56813D01*
X36756Y-56743D01*
X36664Y-56705D01*
X36565Y-56704D01*
X36015Y-56704D01*
X35923Y-56742D01*
X35853Y-56813D01*
X35815Y-56905D01*
X35814Y-57004D01*
X35814Y-57554D01*
X35852Y-57646D01*
X35923Y-57716D01*
X36015Y-57754D01*
X36114Y-57755D01*
X36664Y-57755D01*
X36756Y-57717D01*
X36826Y-57646D01*
X36864Y-57554D01*
X36865Y-57455D01*
X36865Y-57455D01*
X36894Y-57527D01*
X37042Y-57674D01*
X37235Y-57754D01*
X37443Y-57755D01*
X37637Y-57675D01*
X37750Y-57561D01*
X37793Y-57553D01*
X37793Y-57553D01*
X37907Y-57477D01*
X38405Y-56979D01*
X38481Y-56865D01*
X38481Y-56865D01*
X38508Y-56732D01*
X38508Y-47308D01*
X38481Y-47174D01*
X38405Y-47060D01*
X37964Y-46619D01*
X37965Y-46486D01*
X37885Y-46293D01*
X37737Y-46145D01*
X37604Y-46089D01*
X37737Y-46035D01*
X37884Y-45887D01*
X37964Y-45694D01*
X37965Y-45559D01*
X39557Y-43967D01*
X39633Y-43853D01*
X39660Y-43720D01*
X39660Y-42260D01*
X39659Y-42259D01*
X39660Y-42259D01*
X39633Y-42126D01*
X39557Y-42012D01*
X39557Y-42012D01*
X39384Y-41839D01*
X39270Y-41763D01*
X39137Y-41737D01*
X37947Y-41737D01*
X37964Y-41694D01*
X37965Y-41486D01*
X37885Y-41293D01*
X37737Y-41145D01*
X37604Y-41089D01*
X37737Y-41035D01*
X37884Y-40887D01*
X37964Y-40694D01*
X37965Y-40486D01*
X37885Y-40293D01*
X37737Y-40145D01*
X37604Y-40089D01*
X37737Y-40035D01*
X37884Y-39887D01*
X37964Y-39694D01*
X37965Y-39486D01*
X37946Y-39440D01*
X38795Y-39440D01*
X39915Y-40560D01*
X39914Y-40693D01*
X39994Y-40887D01*
X40142Y-41034D01*
X40268Y-41087D01*
X40167Y-41129D01*
X40142Y-41222D01*
X40440Y-41519D01*
X40737Y-41222D01*
X40712Y-41129D01*
X40602Y-41090D01*
X40737Y-41035D01*
X40832Y-40940D01*
X40880Y-40940D01*
X41013Y-40913D01*
X41013Y-40913D01*
X41127Y-40837D01*
X41280Y-40684D01*
X41413Y-40685D01*
X41607Y-40605D01*
X41754Y-40457D01*
X41834Y-40264D01*
X41835Y-40056D01*
X41755Y-39863D01*
X41607Y-39715D01*
X41414Y-39635D01*
X41206Y-39634D01*
X41013Y-39714D01*
X40916Y-39810D01*
X40964Y-39694D01*
X40965Y-39486D01*
X40885Y-39293D01*
X40737Y-39145D01*
X40604Y-39089D01*
X40737Y-39035D01*
X40884Y-38887D01*
X40964Y-38694D01*
X40965Y-38486D01*
X40885Y-38293D01*
X40737Y-38145D01*
X40604Y-38089D01*
X40737Y-38035D01*
X40884Y-37887D01*
X40964Y-37694D01*
X40965Y-37486D01*
X40885Y-37293D01*
X40737Y-37145D01*
X40604Y-37089D01*
X40737Y-37035D01*
X40884Y-36887D01*
X40957Y-36712D01*
X43540Y-39294D01*
X43540Y-40150D01*
X43540Y-42162D01*
X43424Y-42278D01*
X43340Y-42480D01*
X43339Y-42698D01*
X43423Y-42901D01*
X43540Y-43017D01*
X43540Y-43162D01*
X43424Y-43278D01*
X43340Y-43480D01*
X43339Y-43698D01*
X43423Y-43901D01*
X43578Y-44055D01*
X43653Y-44087D01*
X43602Y-44108D01*
X43574Y-44204D01*
X43890Y-44519D01*
X43895Y-44513D01*
X43966Y-44584D01*
X43960Y-44590D01*
X44275Y-44905D01*
X44371Y-44877D01*
X44444Y-44671D01*
X44443Y-44638D01*
X44690Y-44884D01*
X44690Y-54965D01*
X44440Y-55214D01*
X44440Y-45481D01*
X44356Y-45278D01*
X44201Y-45124D01*
X44126Y-45092D01*
X44177Y-45071D01*
X44205Y-44975D01*
X43890Y-44660D01*
X43819Y-44731D01*
X43819Y-44590D01*
X43504Y-44274D01*
X43408Y-44302D01*
X43335Y-44508D01*
X43346Y-44726D01*
X43408Y-44877D01*
X43504Y-44905D01*
X43819Y-44590D01*
X43819Y-44731D01*
X43574Y-44975D01*
X43602Y-45071D01*
X43657Y-45090D01*
X43578Y-45123D01*
X43424Y-45278D01*
X43340Y-45480D01*
X43339Y-45698D01*
X43423Y-45901D01*
X43562Y-46039D01*
X43540Y-46039D01*
X43448Y-46077D01*
X43378Y-46148D01*
X43340Y-46240D01*
X43339Y-46339D01*
X43339Y-46939D01*
X43377Y-47031D01*
X43448Y-47101D01*
X43540Y-47139D01*
X43639Y-47140D01*
X44239Y-47140D01*
X44331Y-47102D01*
X44401Y-47031D01*
X44439Y-46939D01*
X44440Y-46840D01*
X44440Y-46240D01*
X44402Y-46148D01*
X44331Y-46078D01*
X44239Y-46040D01*
X44217Y-46040D01*
X44355Y-45901D01*
X44439Y-45699D01*
X44440Y-45481D01*
X44440Y-55214D01*
X43603Y-56052D01*
X43282Y-56052D01*
X43187Y-55957D01*
X42994Y-55877D01*
X42786Y-55876D01*
X42593Y-55956D01*
X42445Y-56104D01*
X42365Y-56297D01*
X42365Y-56382D01*
X41900Y-55917D01*
X41900Y-48510D01*
X41873Y-48376D01*
X41839Y-48325D01*
X41839Y-42235D01*
X41828Y-42027D01*
X41770Y-41887D01*
X41677Y-41862D01*
X41607Y-41933D01*
X41607Y-41792D01*
X41582Y-41699D01*
X41385Y-41630D01*
X41177Y-41641D01*
X41037Y-41699D01*
X41012Y-41792D01*
X41310Y-42089D01*
X41607Y-41792D01*
X41607Y-41933D01*
X41380Y-42160D01*
X41677Y-42457D01*
X41770Y-42432D01*
X41839Y-42235D01*
X41839Y-48325D01*
X41797Y-48262D01*
X41607Y-48072D01*
X40925Y-47390D01*
X40885Y-47293D01*
X40737Y-47145D01*
X40604Y-47089D01*
X40737Y-47035D01*
X40884Y-46887D01*
X40964Y-46694D01*
X40965Y-46486D01*
X40885Y-46293D01*
X40737Y-46145D01*
X40604Y-46089D01*
X40737Y-46035D01*
X40884Y-45887D01*
X40964Y-45694D01*
X40965Y-45486D01*
X40885Y-45293D01*
X40737Y-45145D01*
X40604Y-45089D01*
X40737Y-45035D01*
X40884Y-44887D01*
X40964Y-44694D01*
X40965Y-44486D01*
X40885Y-44293D01*
X40737Y-44145D01*
X40604Y-44089D01*
X40737Y-44035D01*
X40884Y-43887D01*
X40964Y-43694D01*
X40965Y-43486D01*
X40885Y-43293D01*
X40737Y-43145D01*
X40604Y-43089D01*
X40737Y-43035D01*
X40884Y-42887D01*
X40964Y-42694D01*
X40965Y-42570D01*
X40967Y-42573D01*
X41012Y-42527D01*
X41037Y-42620D01*
X41234Y-42689D01*
X41442Y-42678D01*
X41582Y-42620D01*
X41607Y-42527D01*
X41310Y-42230D01*
X41304Y-42236D01*
X41233Y-42165D01*
X41239Y-42160D01*
X40969Y-41890D01*
X40969Y-41665D01*
X40958Y-41457D01*
X40900Y-41317D01*
X40807Y-41292D01*
X40510Y-41590D01*
X40807Y-41887D01*
X40900Y-41862D01*
X40969Y-41665D01*
X40969Y-41890D01*
X40942Y-41862D01*
X40849Y-41887D01*
X40780Y-42084D01*
X40786Y-42193D01*
X40737Y-42145D01*
X40611Y-42092D01*
X40712Y-42050D01*
X40737Y-41957D01*
X40440Y-41660D01*
X40369Y-41731D01*
X40369Y-41590D01*
X40072Y-41292D01*
X39979Y-41317D01*
X39910Y-41514D01*
X39921Y-41722D01*
X39979Y-41862D01*
X40072Y-41887D01*
X40369Y-41590D01*
X40369Y-41731D01*
X40142Y-41957D01*
X40167Y-42050D01*
X40277Y-42089D01*
X40143Y-42144D01*
X39995Y-42292D01*
X39915Y-42485D01*
X39914Y-42693D01*
X39994Y-42887D01*
X40142Y-43034D01*
X40275Y-43090D01*
X40143Y-43144D01*
X39995Y-43292D01*
X39915Y-43485D01*
X39914Y-43693D01*
X39994Y-43887D01*
X40142Y-44034D01*
X40275Y-44090D01*
X40143Y-44144D01*
X39995Y-44292D01*
X39915Y-44485D01*
X39914Y-44693D01*
X39994Y-44887D01*
X40142Y-45034D01*
X40275Y-45090D01*
X40143Y-45144D01*
X39995Y-45292D01*
X39915Y-45485D01*
X39914Y-45693D01*
X39994Y-45887D01*
X40142Y-46034D01*
X40275Y-46090D01*
X40143Y-46144D01*
X39995Y-46292D01*
X39915Y-46485D01*
X39914Y-46693D01*
X39994Y-46887D01*
X40142Y-47034D01*
X40275Y-47090D01*
X40143Y-47144D01*
X39995Y-47292D01*
X39915Y-47485D01*
X39914Y-47693D01*
X39994Y-47887D01*
X40142Y-48034D01*
X40275Y-48090D01*
X40143Y-48144D01*
X39995Y-48292D01*
X39915Y-48485D01*
X39914Y-48693D01*
X39994Y-48887D01*
X40142Y-49034D01*
X40335Y-49114D01*
X40390Y-49114D01*
X40390Y-55838D01*
X40250Y-55781D01*
X40042Y-55780D01*
X39849Y-55860D01*
X39701Y-56008D01*
X39621Y-56201D01*
X39620Y-56409D01*
X39700Y-56603D01*
X39848Y-56750D01*
X39981Y-56806D01*
X39849Y-56860D01*
X39701Y-57008D01*
X39671Y-57080D01*
X39671Y-56981D01*
X39633Y-56889D01*
X39562Y-56819D01*
X39470Y-56781D01*
X39371Y-56780D01*
X38821Y-56780D01*
X38729Y-56818D01*
X38659Y-56889D01*
X38621Y-56981D01*
X38620Y-57080D01*
X38620Y-57630D01*
X38658Y-57722D01*
X38729Y-57792D01*
X38821Y-57830D01*
X38920Y-57831D01*
X39470Y-57831D01*
X39562Y-57793D01*
X39632Y-57722D01*
X39670Y-57630D01*
X39671Y-57531D01*
X39671Y-57531D01*
X39700Y-57603D01*
X39848Y-57750D01*
X40041Y-57830D01*
X40249Y-57831D01*
X40443Y-57751D01*
X40590Y-57603D01*
X40670Y-57410D01*
X40671Y-57202D01*
X40654Y-57162D01*
X40987Y-56829D01*
X41063Y-56715D01*
X41063Y-56715D01*
X41090Y-56582D01*
X41090Y-48890D01*
X41089Y-48889D01*
X41090Y-48889D01*
X41063Y-48756D01*
X40987Y-48642D01*
X40987Y-48642D01*
X40964Y-48619D01*
X40965Y-48486D01*
X40918Y-48373D01*
X41200Y-48654D01*
X41200Y-56062D01*
X41226Y-56195D01*
X41302Y-56309D01*
X41869Y-56876D01*
X41565Y-56876D01*
X41473Y-56914D01*
X41403Y-56985D01*
X41365Y-57077D01*
X41364Y-57176D01*
X41364Y-57726D01*
X41402Y-57818D01*
X41473Y-57888D01*
X41565Y-57926D01*
X41664Y-57927D01*
X42214Y-57927D01*
X42306Y-57889D01*
X42376Y-57818D01*
X42414Y-57726D01*
X42415Y-57627D01*
X42415Y-57627D01*
X42444Y-57699D01*
X42592Y-57846D01*
X42785Y-57926D01*
X42993Y-57927D01*
X43187Y-57847D01*
X43334Y-57699D01*
X43414Y-57506D01*
X43415Y-57298D01*
X43335Y-57105D01*
X43187Y-56957D01*
X43054Y-56901D01*
X43187Y-56847D01*
X43282Y-56752D01*
X43748Y-56752D01*
X43881Y-56725D01*
X43881Y-56725D01*
X43995Y-56649D01*
X45287Y-55357D01*
X45363Y-55243D01*
X45390Y-55110D01*
X45390Y-44740D01*
X45389Y-44739D01*
X45390Y-44739D01*
X45363Y-44606D01*
X45287Y-44492D01*
X45287Y-44492D01*
X44439Y-43644D01*
X44440Y-43481D01*
X44356Y-43278D01*
X44240Y-43162D01*
X44240Y-43017D01*
X44355Y-42901D01*
X44439Y-42699D01*
X44440Y-42481D01*
X44356Y-42278D01*
X44240Y-42162D01*
X44240Y-40150D01*
X44240Y-39150D01*
X44239Y-39149D01*
X44240Y-39149D01*
X44213Y-39016D01*
X44137Y-38902D01*
X44137Y-38902D01*
X41480Y-36245D01*
X41480Y-36150D01*
X41483Y-36153D01*
X41580Y-36193D01*
X41581Y-36193D01*
X41837Y-36244D01*
X41942Y-36244D01*
X41943Y-36244D01*
X42198Y-36193D01*
X42199Y-36193D01*
X42296Y-36153D01*
X42512Y-36008D01*
X42513Y-36008D01*
X42587Y-35933D01*
X42733Y-35716D01*
X42773Y-35619D01*
X42773Y-35618D01*
X42824Y-35362D01*
X42824Y-35362D01*
X42824Y-35362D01*
X42824Y-35310D01*
X42824Y-35257D01*
X42824Y-35257D01*
X42824Y-35257D01*
X42773Y-35001D01*
X42773Y-35000D01*
X42733Y-34903D01*
X42587Y-34686D01*
X42513Y-34611D01*
X42512Y-34611D01*
X42296Y-34466D01*
X42199Y-34426D01*
X42198Y-34426D01*
X42013Y-34389D01*
X54220Y-34389D01*
X54220Y-54856D01*
X54141Y-54824D01*
X54042Y-54823D01*
X53442Y-54823D01*
X53350Y-54861D01*
X53280Y-54932D01*
X53242Y-55024D01*
X53242Y-55050D01*
X53100Y-54908D01*
X52897Y-54824D01*
X52679Y-54823D01*
X52476Y-54907D01*
X52322Y-55062D01*
X52290Y-55139D01*
X52258Y-55062D01*
X52103Y-54908D01*
X51901Y-54824D01*
X51683Y-54823D01*
X51480Y-54907D01*
X51326Y-55062D01*
X51292Y-55143D01*
X51258Y-55062D01*
X51103Y-54908D01*
X50901Y-54824D01*
X50683Y-54823D01*
X50480Y-54907D01*
X50326Y-55062D01*
X50292Y-55143D01*
X50258Y-55062D01*
X50103Y-54908D01*
X49901Y-54824D01*
X49683Y-54823D01*
X49480Y-54907D01*
X49326Y-55062D01*
X49294Y-55137D01*
X49273Y-55086D01*
X49177Y-55058D01*
X49107Y-55129D01*
X49107Y-54988D01*
X49079Y-54892D01*
X48873Y-54819D01*
X48655Y-54830D01*
X48504Y-54892D01*
X48476Y-54988D01*
X48792Y-55303D01*
X49107Y-54988D01*
X49107Y-55129D01*
X48862Y-55374D01*
X49177Y-55689D01*
X49273Y-55661D01*
X49292Y-55606D01*
X49325Y-55685D01*
X49480Y-55839D01*
X49682Y-55923D01*
X49900Y-55924D01*
X50103Y-55840D01*
X50257Y-55685D01*
X50291Y-55604D01*
X50325Y-55685D01*
X50480Y-55839D01*
X50682Y-55923D01*
X50900Y-55924D01*
X51103Y-55840D01*
X51257Y-55685D01*
X51291Y-55604D01*
X51325Y-55685D01*
X51480Y-55839D01*
X51682Y-55923D01*
X51900Y-55924D01*
X52103Y-55840D01*
X52257Y-55685D01*
X52290Y-55608D01*
X52321Y-55685D01*
X52476Y-55839D01*
X52678Y-55923D01*
X52896Y-55924D01*
X53099Y-55840D01*
X53241Y-55698D01*
X53241Y-55723D01*
X53279Y-55815D01*
X53350Y-55885D01*
X53442Y-55923D01*
X53541Y-55924D01*
X54141Y-55924D01*
X54220Y-55891D01*
X54220Y-58375D01*
M02*
