M48
;DRILL file {Pcbnew (2013-07-07 BZR 4022)-stable} date 5/1/2015 4:37:04 PM
;FORMAT={-:-/ absolute / inch / decimal}
FMAT,2
INCH,TZ
T1C0.020
T2C0.024
T3C0.025
T4C0.030
T5C0.032
T6C0.040
T7C0.045
T8C0.120
%
G90
G05
M72
T2
X2.065Y-4.228
X2.065Y-4.328
X2.7188Y-4.0969
X2.8172Y-4.0969
T3
X1.894Y-3.674
X1.894Y-3.844
X2.003Y-4.661
X3.4293Y-3.8709
X3.494Y-3.777
X3.6081Y-4.1598
X3.6633Y-4.2087
X3.6946Y-3.9046
X3.8815Y-4.2553
T4
X3.437Y-4.486
X3.437Y-4.686
T5
X1.939Y-3.917
X1.939Y-4.117
X2.048Y-4.118
X2.06Y-3.759
X2.189Y-4.232
X2.189Y-4.432
X2.235Y-3.895
X2.235Y-3.995
X2.332Y-4.233
X2.432Y-4.233
X2.448Y-4.118
X2.46Y-3.759
X2.463Y-4.012
X2.563Y-4.012
X2.563Y-4.112
X2.938Y-3.818
X2.938Y-4.218
X3.043Y-3.818
X3.043Y-4.218
X3.138Y-4.917
X3.147Y-3.818
X3.147Y-4.218
X3.178Y-5.021
X3.254Y-3.818
X3.254Y-4.218
X3.259Y-3.648
X3.272Y-4.326
X3.272Y-4.526
X3.272Y-4.623
X3.272Y-4.823
X3.278Y-5.021
X3.538Y-4.917
X3.608Y-4.36
X3.608Y-4.46
X3.634Y-5.723
X3.659Y-3.648
X3.734Y-5.623
X3.734Y-5.723
X3.744Y-3.559
X3.744Y-3.659
X3.744Y-3.759
X3.744Y-3.859
X3.744Y-3.959
X3.744Y-4.059
X3.744Y-4.159
X3.744Y-4.259
X3.744Y-4.359
X3.744Y-4.459
X3.744Y-4.559
X3.744Y-4.659
X3.744Y-4.759
X3.744Y-4.859
X3.9146Y-5.7306
X4.0146Y-5.6306
X4.0146Y-5.7306
X4.044Y-3.559
X4.044Y-3.659
X4.044Y-3.759
X4.044Y-3.859
X4.044Y-3.959
X4.044Y-4.059
X4.044Y-4.159
X4.044Y-4.259
X4.044Y-4.359
X4.044Y-4.459
X4.044Y-4.559
X4.044Y-4.659
X4.044Y-4.759
X4.044Y-4.859
X4.131Y-4.016
X4.131Y-4.216
X4.189Y-5.7402
X4.289Y-5.6402
X4.289Y-5.7402
T6
X1.684Y-4.527
X1.784Y-4.527
X1.884Y-4.527
X3.178Y-5.147
X3.178Y-5.247
X3.178Y-5.347
X3.178Y-5.447
X3.178Y-5.547
X3.178Y-5.647
X3.339Y-5.899
X3.394Y-5.118
X3.394Y-5.218
X3.394Y-5.318
X3.394Y-5.418
X3.439Y-5.899
X3.494Y-5.118
X3.494Y-5.218
X3.494Y-5.318
X3.494Y-5.418
X3.539Y-5.899
X3.639Y-5.899
X3.739Y-5.899
X3.839Y-5.899
X4.389Y-4.259
X4.389Y-4.359
X4.389Y-4.459
X4.389Y-4.559
X4.389Y-4.659
X4.6792Y-5.5374
X4.7792Y-5.5374
X4.8792Y-5.5374
X4.9792Y-5.5374
X5.0792Y-5.5374
X5.1792Y-5.5374
X5.2788Y-5.5374
X5.3792Y-5.5374
T7
X2.328Y-4.363
X2.328Y-4.463
X2.328Y-4.563
T8
X2.978Y-4.463
T1
X1.6608Y-3.7422G85X1.6332Y-3.7422
G05
X1.6608Y-4.0178G85X1.6332Y-4.0178
G05
T0
M30
