G04 (created by PCBNEW (2013-07-07 BZR 4022)-stable) date 5/1/2015 4:36:49 PM*
%MOIN*%
G04 Gerber Fmt 3.4, Leading zero omitted, Abs format*
%FSLAX34Y34*%
G01*
G70*
G90*
G04 APERTURE LIST*
%ADD10C,0.00590551*%
%ADD11C,0.00787402*%
%ADD12C,0.011811*%
%ADD13C,0.012*%
%ADD14C,0.005*%
%ADD15C,0.006*%
%ADD16C,0.008*%
%ADD17C,0.003*%
%ADD18C,0.01*%
%ADD19C,0.0026*%
%ADD20C,0.004*%
%ADD21C,0.002*%
%ADD22C,0.0125*%
%ADD23C,0.015*%
%ADD24C,0.0035*%
%ADD25C,0.01125*%
G04 APERTURE END LIST*
G54D10*
G54D11*
X33930Y-38720D02*
X33740Y-38530D01*
X33730Y-38920D02*
X33930Y-38720D01*
X33930Y-38720D02*
X33730Y-38920D01*
X33930Y-38710D02*
X33930Y-38720D01*
X33170Y-38710D02*
X33930Y-38710D01*
G54D12*
X19595Y-51563D02*
X19595Y-52088D01*
X19407Y-51263D02*
X19220Y-51826D01*
X19707Y-51826D01*
X20157Y-51301D02*
X20232Y-51301D01*
X20307Y-51338D01*
X20345Y-51376D01*
X20382Y-51451D01*
X20420Y-51601D01*
X20420Y-51788D01*
X20382Y-51938D01*
X20345Y-52013D01*
X20307Y-52051D01*
X20232Y-52088D01*
X20157Y-52088D01*
X20082Y-52051D01*
X20045Y-52013D01*
X20007Y-51938D01*
X19970Y-51788D01*
X19970Y-51601D01*
X20007Y-51451D01*
X20045Y-51376D01*
X20082Y-51338D01*
X20157Y-51301D01*
X20907Y-51301D02*
X20982Y-51301D01*
X21057Y-51338D01*
X21095Y-51376D01*
X21132Y-51451D01*
X21170Y-51601D01*
X21170Y-51788D01*
X21132Y-51938D01*
X21095Y-52013D01*
X21057Y-52051D01*
X20982Y-52088D01*
X20907Y-52088D01*
X20832Y-52051D01*
X20795Y-52013D01*
X20757Y-51938D01*
X20720Y-51788D01*
X20720Y-51601D01*
X20757Y-51451D01*
X20795Y-51376D01*
X20832Y-51338D01*
X20907Y-51301D01*
X22107Y-52088D02*
X22107Y-51563D01*
X22107Y-51638D02*
X22145Y-51601D01*
X22220Y-51563D01*
X22332Y-51563D01*
X22407Y-51601D01*
X22445Y-51676D01*
X22445Y-52088D01*
X22445Y-51676D02*
X22482Y-51601D01*
X22557Y-51563D01*
X22670Y-51563D01*
X22745Y-51601D01*
X22782Y-51676D01*
X22782Y-52088D01*
X23120Y-51863D02*
X23494Y-51863D01*
X23045Y-52088D02*
X23307Y-51301D01*
X23569Y-52088D01*
X23832Y-52088D02*
X23832Y-51301D01*
X24169Y-52088D02*
X24169Y-51676D01*
X24132Y-51601D01*
X24057Y-51563D01*
X23944Y-51563D01*
X23869Y-51601D01*
X23832Y-51638D01*
X25519Y-52088D02*
X25144Y-52088D01*
X25144Y-51301D01*
X25782Y-52088D02*
X25782Y-51563D01*
X25782Y-51301D02*
X25744Y-51338D01*
X25782Y-51376D01*
X25819Y-51338D01*
X25782Y-51301D01*
X25782Y-51376D01*
X26157Y-52088D02*
X26157Y-51301D01*
X26457Y-51301D01*
X26532Y-51338D01*
X26569Y-51376D01*
X26607Y-51451D01*
X26607Y-51563D01*
X26569Y-51638D01*
X26532Y-51676D01*
X26457Y-51713D01*
X26157Y-51713D01*
X27057Y-52088D02*
X26982Y-52051D01*
X26944Y-52013D01*
X26907Y-51938D01*
X26907Y-51713D01*
X26944Y-51638D01*
X26982Y-51601D01*
X27057Y-51563D01*
X27169Y-51563D01*
X27244Y-51601D01*
X27281Y-51638D01*
X27319Y-51713D01*
X27319Y-51938D01*
X27281Y-52013D01*
X27244Y-52051D01*
X27169Y-52088D01*
X27057Y-52088D01*
G54D11*
X30940Y-46950D02*
X30940Y-56950D01*
X15960Y-46950D02*
X30940Y-46950D01*
X30940Y-56950D02*
X30940Y-46960D01*
X15960Y-56950D02*
X30940Y-56950D01*
X15960Y-46950D02*
X15960Y-56950D01*
G54D12*
X16712Y-46538D02*
X16712Y-45356D01*
X18118Y-45300D02*
X17106Y-46819D01*
X18737Y-45356D02*
X18962Y-45356D01*
X19074Y-45413D01*
X19187Y-45525D01*
X19243Y-45750D01*
X19243Y-46144D01*
X19187Y-46369D01*
X19074Y-46481D01*
X18962Y-46538D01*
X18737Y-46538D01*
X18624Y-46481D01*
X18512Y-46369D01*
X18456Y-46144D01*
X18456Y-45750D01*
X18512Y-45525D01*
X18624Y-45413D01*
X18737Y-45356D01*
X45325Y-57658D02*
X45325Y-56871D01*
X45625Y-56871D01*
X45700Y-56908D01*
X45737Y-56946D01*
X45775Y-57021D01*
X45775Y-57133D01*
X45737Y-57208D01*
X45700Y-57246D01*
X45625Y-57283D01*
X45325Y-57283D01*
X46225Y-57658D02*
X46150Y-57621D01*
X46112Y-57546D01*
X46112Y-56871D01*
X46862Y-57658D02*
X46862Y-57246D01*
X46825Y-57171D01*
X46750Y-57133D01*
X46600Y-57133D01*
X46525Y-57171D01*
X46862Y-57621D02*
X46787Y-57658D01*
X46600Y-57658D01*
X46525Y-57621D01*
X46487Y-57546D01*
X46487Y-57471D01*
X46525Y-57396D01*
X46600Y-57358D01*
X46787Y-57358D01*
X46862Y-57321D01*
X47162Y-57133D02*
X47350Y-57658D01*
X47537Y-57133D02*
X47350Y-57658D01*
X47275Y-57846D01*
X47237Y-57883D01*
X47162Y-57921D01*
X48137Y-57621D02*
X48062Y-57658D01*
X47912Y-57658D01*
X47837Y-57621D01*
X47800Y-57546D01*
X47800Y-57246D01*
X47837Y-57171D01*
X47912Y-57133D01*
X48062Y-57133D01*
X48137Y-57171D01*
X48175Y-57246D01*
X48175Y-57321D01*
X47800Y-57396D01*
X48512Y-57658D02*
X48512Y-57133D01*
X48512Y-57283D02*
X48550Y-57208D01*
X48587Y-57171D01*
X48662Y-57133D01*
X48737Y-57133D01*
X49562Y-56833D02*
X48887Y-57846D01*
X49824Y-57658D02*
X49824Y-56871D01*
X49824Y-57246D02*
X50274Y-57246D01*
X50274Y-57658D02*
X50274Y-56871D01*
X50649Y-57583D02*
X50687Y-57621D01*
X50649Y-57658D01*
X50612Y-57621D01*
X50649Y-57583D01*
X50649Y-57658D01*
X50987Y-57621D02*
X51099Y-57658D01*
X51287Y-57658D01*
X51362Y-57621D01*
X51399Y-57583D01*
X51437Y-57508D01*
X51437Y-57433D01*
X51399Y-57358D01*
X51362Y-57321D01*
X51287Y-57283D01*
X51137Y-57246D01*
X51062Y-57208D01*
X51024Y-57171D01*
X50987Y-57096D01*
X50987Y-57021D01*
X51024Y-56946D01*
X51062Y-56908D01*
X51137Y-56871D01*
X51324Y-56871D01*
X51437Y-56908D01*
X51774Y-57583D02*
X51812Y-57621D01*
X51774Y-57658D01*
X51737Y-57621D01*
X51774Y-57583D01*
X51774Y-57658D01*
X46581Y-58879D02*
X46581Y-58091D01*
X46881Y-58091D01*
X46956Y-58129D01*
X46993Y-58166D01*
X47031Y-58241D01*
X47031Y-58354D01*
X46993Y-58429D01*
X46956Y-58466D01*
X46881Y-58504D01*
X46581Y-58504D01*
X47818Y-58804D02*
X47781Y-58841D01*
X47668Y-58879D01*
X47593Y-58879D01*
X47481Y-58841D01*
X47406Y-58766D01*
X47368Y-58691D01*
X47331Y-58541D01*
X47331Y-58429D01*
X47368Y-58279D01*
X47406Y-58204D01*
X47481Y-58129D01*
X47593Y-58091D01*
X47668Y-58091D01*
X47781Y-58129D01*
X47818Y-58166D01*
X48418Y-58466D02*
X48531Y-58504D01*
X48568Y-58541D01*
X48606Y-58616D01*
X48606Y-58729D01*
X48568Y-58804D01*
X48531Y-58841D01*
X48456Y-58879D01*
X48156Y-58879D01*
X48156Y-58091D01*
X48418Y-58091D01*
X48493Y-58129D01*
X48531Y-58166D01*
X48568Y-58241D01*
X48568Y-58316D01*
X48531Y-58391D01*
X48493Y-58429D01*
X48418Y-58466D01*
X48156Y-58466D01*
X49468Y-58354D02*
X49656Y-58879D01*
X49843Y-58354D01*
X50555Y-58879D02*
X50106Y-58879D01*
X50331Y-58879D02*
X50331Y-58091D01*
X50256Y-58204D01*
X50181Y-58279D01*
X50106Y-58316D01*
X20059Y-35298D02*
X19684Y-35298D01*
X19684Y-34511D01*
X20658Y-35298D02*
X20658Y-34886D01*
X20621Y-34811D01*
X20546Y-34773D01*
X20396Y-34773D01*
X20321Y-34811D01*
X20658Y-35261D02*
X20583Y-35298D01*
X20396Y-35298D01*
X20321Y-35261D01*
X20284Y-35186D01*
X20284Y-35111D01*
X20321Y-35036D01*
X20396Y-34998D01*
X20583Y-34998D01*
X20658Y-34961D01*
X20958Y-34511D02*
X21483Y-34511D01*
X20958Y-35298D01*
X21483Y-35298D01*
X21783Y-35298D02*
X21783Y-34511D01*
X22608Y-35298D02*
X22346Y-34923D01*
X22158Y-35298D02*
X22158Y-34511D01*
X22458Y-34511D01*
X22533Y-34548D01*
X22571Y-34586D01*
X22608Y-34661D01*
X22608Y-34773D01*
X22571Y-34848D01*
X22533Y-34886D01*
X22458Y-34923D01*
X22158Y-34923D01*
X23433Y-34511D02*
X23883Y-34511D01*
X23658Y-35298D02*
X23658Y-34511D01*
X24483Y-35298D02*
X24483Y-34886D01*
X24445Y-34811D01*
X24371Y-34773D01*
X24221Y-34773D01*
X24146Y-34811D01*
X24483Y-35261D02*
X24408Y-35298D01*
X24221Y-35298D01*
X24146Y-35261D01*
X24108Y-35186D01*
X24108Y-35111D01*
X24146Y-35036D01*
X24221Y-34998D01*
X24408Y-34998D01*
X24483Y-34961D01*
X25195Y-34773D02*
X25195Y-35411D01*
X25158Y-35486D01*
X25120Y-35523D01*
X25045Y-35561D01*
X24933Y-35561D01*
X24858Y-35523D01*
X25195Y-35261D02*
X25120Y-35298D01*
X24970Y-35298D01*
X24895Y-35261D01*
X24858Y-35223D01*
X24820Y-35148D01*
X24820Y-34923D01*
X24858Y-34848D01*
X24895Y-34811D01*
X24970Y-34773D01*
X25120Y-34773D01*
X25195Y-34811D01*
X19459Y-36294D02*
X19834Y-36294D01*
X19384Y-36519D02*
X19646Y-35731D01*
X19909Y-36519D01*
X20171Y-35994D02*
X20171Y-36781D01*
X20171Y-36031D02*
X20246Y-35994D01*
X20396Y-35994D01*
X20471Y-36031D01*
X20508Y-36069D01*
X20546Y-36144D01*
X20546Y-36369D01*
X20508Y-36444D01*
X20471Y-36481D01*
X20396Y-36519D01*
X20246Y-36519D01*
X20171Y-36481D01*
X20883Y-36519D02*
X20883Y-35994D01*
X20883Y-36144D02*
X20921Y-36069D01*
X20958Y-36031D01*
X21033Y-35994D01*
X21108Y-35994D01*
X21371Y-36519D02*
X21371Y-35994D01*
X21371Y-35731D02*
X21333Y-35769D01*
X21371Y-35806D01*
X21408Y-35769D01*
X21371Y-35731D01*
X21371Y-35806D01*
X21858Y-36519D02*
X21783Y-36481D01*
X21746Y-36406D01*
X21746Y-35731D01*
X22721Y-35806D02*
X22758Y-35769D01*
X22833Y-35731D01*
X23021Y-35731D01*
X23096Y-35769D01*
X23133Y-35806D01*
X23171Y-35881D01*
X23171Y-35956D01*
X23133Y-36069D01*
X22683Y-36519D01*
X23171Y-36519D01*
X23658Y-35731D02*
X23733Y-35731D01*
X23808Y-35769D01*
X23846Y-35806D01*
X23883Y-35881D01*
X23921Y-36031D01*
X23921Y-36219D01*
X23883Y-36369D01*
X23846Y-36444D01*
X23808Y-36481D01*
X23733Y-36519D01*
X23658Y-36519D01*
X23583Y-36481D01*
X23546Y-36444D01*
X23508Y-36369D01*
X23471Y-36219D01*
X23471Y-36031D01*
X23508Y-35881D01*
X23546Y-35806D01*
X23583Y-35769D01*
X23658Y-35731D01*
X24670Y-36519D02*
X24221Y-36519D01*
X24445Y-36519D02*
X24445Y-35731D01*
X24371Y-35844D01*
X24296Y-35919D01*
X24221Y-35956D01*
X25383Y-35731D02*
X25008Y-35731D01*
X24970Y-36106D01*
X25008Y-36069D01*
X25083Y-36031D01*
X25270Y-36031D01*
X25345Y-36069D01*
X25383Y-36106D01*
X25420Y-36181D01*
X25420Y-36369D01*
X25383Y-36444D01*
X25345Y-36481D01*
X25270Y-36519D01*
X25083Y-36519D01*
X25008Y-36481D01*
X24970Y-36444D01*
X18609Y-58819D02*
X18609Y-58228D01*
X18750Y-58228D01*
X18834Y-58256D01*
X18891Y-58312D01*
X18919Y-58369D01*
X18947Y-58481D01*
X18947Y-58565D01*
X18919Y-58678D01*
X18891Y-58734D01*
X18834Y-58790D01*
X18750Y-58819D01*
X18609Y-58819D01*
X19453Y-58819D02*
X19453Y-58509D01*
X19425Y-58453D01*
X19369Y-58425D01*
X19256Y-58425D01*
X19200Y-58453D01*
X19453Y-58790D02*
X19397Y-58819D01*
X19256Y-58819D01*
X19200Y-58790D01*
X19172Y-58734D01*
X19172Y-58678D01*
X19200Y-58622D01*
X19256Y-58594D01*
X19397Y-58594D01*
X19453Y-58565D01*
X19734Y-58425D02*
X19734Y-58819D01*
X19734Y-58481D02*
X19762Y-58453D01*
X19819Y-58425D01*
X19903Y-58425D01*
X19959Y-58453D01*
X19987Y-58509D01*
X19987Y-58819D01*
X20269Y-58819D02*
X20269Y-58425D01*
X20269Y-58228D02*
X20240Y-58256D01*
X20269Y-58284D01*
X20297Y-58256D01*
X20269Y-58228D01*
X20269Y-58284D01*
X20775Y-58790D02*
X20719Y-58819D01*
X20606Y-58819D01*
X20550Y-58790D01*
X20522Y-58734D01*
X20522Y-58509D01*
X20550Y-58453D01*
X20606Y-58425D01*
X20719Y-58425D01*
X20775Y-58453D01*
X20803Y-58509D01*
X20803Y-58565D01*
X20522Y-58622D01*
X21140Y-58819D02*
X21084Y-58790D01*
X21056Y-58734D01*
X21056Y-58228D01*
X22096Y-58819D02*
X21815Y-58819D01*
X21815Y-58228D01*
X22518Y-58790D02*
X22462Y-58819D01*
X22350Y-58819D01*
X22293Y-58790D01*
X22265Y-58734D01*
X22265Y-58509D01*
X22293Y-58453D01*
X22350Y-58425D01*
X22462Y-58425D01*
X22518Y-58453D01*
X22546Y-58509D01*
X22546Y-58565D01*
X22265Y-58622D01*
X22715Y-58425D02*
X22940Y-58425D01*
X22800Y-58819D02*
X22800Y-58312D01*
X22828Y-58256D01*
X22884Y-58228D01*
X22940Y-58228D01*
X23362Y-58790D02*
X23306Y-58819D01*
X23193Y-58819D01*
X23137Y-58790D01*
X23109Y-58734D01*
X23109Y-58509D01*
X23137Y-58453D01*
X23193Y-58425D01*
X23306Y-58425D01*
X23362Y-58453D01*
X23390Y-58509D01*
X23390Y-58565D01*
X23109Y-58622D01*
X23643Y-58819D02*
X23643Y-58228D01*
X23643Y-58453D02*
X23699Y-58425D01*
X23812Y-58425D01*
X23868Y-58453D01*
X23896Y-58481D01*
X23924Y-58537D01*
X23924Y-58706D01*
X23896Y-58762D01*
X23868Y-58790D01*
X23812Y-58819D01*
X23699Y-58819D01*
X23643Y-58790D01*
X24121Y-58425D02*
X24262Y-58819D01*
X24402Y-58425D01*
X24627Y-58819D02*
X24627Y-58425D01*
X24627Y-58537D02*
X24656Y-58481D01*
X24684Y-58453D01*
X24740Y-58425D01*
X24796Y-58425D01*
X25218Y-58790D02*
X25162Y-58819D01*
X25049Y-58819D01*
X24993Y-58790D01*
X24965Y-58734D01*
X24965Y-58509D01*
X24993Y-58453D01*
X25049Y-58425D01*
X25162Y-58425D01*
X25218Y-58453D01*
X25246Y-58509D01*
X25246Y-58565D01*
X24965Y-58622D01*
X26427Y-58819D02*
X26399Y-58819D01*
X26343Y-58790D01*
X26258Y-58706D01*
X26118Y-58537D01*
X26062Y-58453D01*
X26034Y-58369D01*
X26034Y-58312D01*
X26062Y-58256D01*
X26118Y-58228D01*
X26146Y-58228D01*
X26202Y-58256D01*
X26230Y-58312D01*
X26230Y-58340D01*
X26202Y-58397D01*
X26174Y-58425D01*
X26005Y-58537D01*
X25977Y-58565D01*
X25949Y-58622D01*
X25949Y-58706D01*
X25977Y-58762D01*
X26005Y-58790D01*
X26062Y-58819D01*
X26146Y-58819D01*
X26202Y-58790D01*
X26230Y-58762D01*
X26315Y-58650D01*
X26343Y-58565D01*
X26343Y-58509D01*
X27299Y-58228D02*
X27299Y-58650D01*
X27271Y-58734D01*
X27215Y-58790D01*
X27130Y-58819D01*
X27074Y-58819D01*
X27665Y-58819D02*
X27608Y-58790D01*
X27580Y-58762D01*
X27552Y-58706D01*
X27552Y-58537D01*
X27580Y-58481D01*
X27608Y-58453D01*
X27665Y-58425D01*
X27749Y-58425D01*
X27805Y-58453D01*
X27833Y-58481D01*
X27861Y-58537D01*
X27861Y-58706D01*
X27833Y-58762D01*
X27805Y-58790D01*
X27749Y-58819D01*
X27665Y-58819D01*
X28114Y-58819D02*
X28114Y-58228D01*
X28368Y-58819D02*
X28368Y-58509D01*
X28339Y-58453D01*
X28283Y-58425D01*
X28199Y-58425D01*
X28143Y-58453D01*
X28114Y-58481D01*
X28649Y-58425D02*
X28649Y-58819D01*
X28649Y-58481D02*
X28677Y-58453D01*
X28733Y-58425D01*
X28818Y-58425D01*
X28874Y-58453D01*
X28902Y-58509D01*
X28902Y-58819D01*
X29605Y-58650D02*
X29886Y-58650D01*
X29549Y-58819D02*
X29746Y-58228D01*
X29942Y-58819D01*
X30224Y-58819D02*
X30167Y-58790D01*
X30139Y-58734D01*
X30139Y-58228D01*
X30674Y-58790D02*
X30617Y-58819D01*
X30505Y-58819D01*
X30449Y-58790D01*
X30420Y-58734D01*
X30420Y-58509D01*
X30449Y-58453D01*
X30505Y-58425D01*
X30617Y-58425D01*
X30674Y-58453D01*
X30702Y-58509D01*
X30702Y-58565D01*
X30420Y-58622D01*
X30955Y-58819D02*
X30955Y-58425D01*
X30955Y-58481D02*
X30983Y-58453D01*
X31039Y-58425D01*
X31123Y-58425D01*
X31180Y-58453D01*
X31208Y-58509D01*
X31208Y-58819D01*
X31208Y-58509D02*
X31236Y-58453D01*
X31292Y-58425D01*
X31377Y-58425D01*
X31433Y-58453D01*
X31461Y-58509D01*
X31461Y-58819D01*
X31995Y-58819D02*
X31995Y-58509D01*
X31967Y-58453D01*
X31911Y-58425D01*
X31798Y-58425D01*
X31742Y-58453D01*
X31995Y-58790D02*
X31939Y-58819D01*
X31798Y-58819D01*
X31742Y-58790D01*
X31714Y-58734D01*
X31714Y-58678D01*
X31742Y-58622D01*
X31798Y-58594D01*
X31939Y-58594D01*
X31995Y-58565D01*
X32276Y-58425D02*
X32276Y-58819D01*
X32276Y-58481D02*
X32305Y-58453D01*
X32361Y-58425D01*
X32445Y-58425D01*
X32501Y-58453D01*
X32530Y-58509D01*
X32530Y-58819D01*
G54D13*
X24130Y-40120D02*
X25630Y-41620D01*
X25630Y-41620D02*
X26130Y-41620D01*
X26130Y-41620D02*
X26630Y-41120D01*
X26630Y-41120D02*
X26630Y-40120D01*
X26630Y-40120D02*
X25630Y-39120D01*
X25630Y-39120D02*
X24630Y-39120D01*
X24630Y-39120D02*
X24130Y-39620D01*
X24130Y-39620D02*
X24130Y-40120D01*
X23280Y-43630D02*
X25280Y-43630D01*
X23280Y-44630D02*
X25280Y-44630D01*
X23280Y-45630D02*
X25280Y-45630D01*
X25280Y-46630D02*
X31280Y-46630D01*
X31280Y-46630D02*
X31280Y-42630D01*
X31280Y-42630D02*
X25280Y-42630D01*
X25280Y-42630D02*
X25280Y-46630D01*
X28280Y-46130D02*
X28280Y-42630D01*
X28280Y-46130D02*
X28280Y-46630D01*
G54D14*
X19790Y-38190D02*
X19090Y-38190D01*
X19090Y-38190D02*
X19090Y-36990D01*
X19090Y-36990D02*
X19790Y-36990D01*
X19790Y-36990D02*
X19790Y-38190D01*
G54D10*
X27680Y-39197D02*
X28172Y-39197D01*
X28172Y-39197D02*
X28172Y-38429D01*
X28172Y-38429D02*
X28172Y-39197D01*
X28172Y-39197D02*
X27187Y-39197D01*
X27187Y-39197D02*
X27187Y-38429D01*
X29648Y-36520D02*
G75*
G03X29648Y-36520I-1968J0D01*
G74*
G01*
G54D13*
X32540Y-38180D02*
X32540Y-38580D01*
X32540Y-38580D02*
X32940Y-38580D01*
X32940Y-38580D02*
X32940Y-41780D01*
X32940Y-41780D02*
X32140Y-41780D01*
X32140Y-41780D02*
X32140Y-38580D01*
X32140Y-38580D02*
X32540Y-38580D01*
X32740Y-38580D02*
X32940Y-38780D01*
X32540Y-42180D02*
X32540Y-41780D01*
X30430Y-42180D02*
X30430Y-41780D01*
X30430Y-41780D02*
X30030Y-41780D01*
X30030Y-41780D02*
X30030Y-38580D01*
X30030Y-38580D02*
X30830Y-38580D01*
X30830Y-38580D02*
X30830Y-41780D01*
X30830Y-41780D02*
X30430Y-41780D01*
X30230Y-41780D02*
X30030Y-41580D01*
X30430Y-38180D02*
X30430Y-38580D01*
X29380Y-42180D02*
X29380Y-41780D01*
X29380Y-41780D02*
X28980Y-41780D01*
X28980Y-41780D02*
X28980Y-38580D01*
X28980Y-38580D02*
X29780Y-38580D01*
X29780Y-38580D02*
X29780Y-41780D01*
X29780Y-41780D02*
X29380Y-41780D01*
X29180Y-41780D02*
X28980Y-41580D01*
X29380Y-38180D02*
X29380Y-38580D01*
X35380Y-49170D02*
X34980Y-49170D01*
X34980Y-49170D02*
X34980Y-49570D01*
X34980Y-49570D02*
X31780Y-49570D01*
X31780Y-49570D02*
X31780Y-48770D01*
X31780Y-48770D02*
X34980Y-48770D01*
X34980Y-48770D02*
X34980Y-49170D01*
X34980Y-49370D02*
X34780Y-49570D01*
X31380Y-49170D02*
X31780Y-49170D01*
X31470Y-42180D02*
X31470Y-41780D01*
X31470Y-41780D02*
X31070Y-41780D01*
X31070Y-41780D02*
X31070Y-38580D01*
X31070Y-38580D02*
X31870Y-38580D01*
X31870Y-38580D02*
X31870Y-41780D01*
X31870Y-41780D02*
X31470Y-41780D01*
X31270Y-41780D02*
X31070Y-41580D01*
X31470Y-38180D02*
X31470Y-38580D01*
X20480Y-41180D02*
X20880Y-41180D01*
X20880Y-41180D02*
X20880Y-40780D01*
X20880Y-40780D02*
X24080Y-40780D01*
X24080Y-40780D02*
X24080Y-41580D01*
X24080Y-41580D02*
X20880Y-41580D01*
X20880Y-41580D02*
X20880Y-41180D01*
X20880Y-40980D02*
X21080Y-40780D01*
X24480Y-41180D02*
X24080Y-41180D01*
X20600Y-37590D02*
X21000Y-37590D01*
X21000Y-37590D02*
X21000Y-37190D01*
X21000Y-37190D02*
X24200Y-37190D01*
X24200Y-37190D02*
X24200Y-37990D01*
X24200Y-37990D02*
X21000Y-37990D01*
X21000Y-37990D02*
X21000Y-37590D01*
X21000Y-37390D02*
X21200Y-37190D01*
X24600Y-37590D02*
X24200Y-37590D01*
G54D15*
X16340Y-45770D02*
X16340Y-44770D01*
X16340Y-44770D02*
X19340Y-44770D01*
X19340Y-44770D02*
X19340Y-45770D01*
X19340Y-45770D02*
X16340Y-45770D01*
X17340Y-44770D02*
X17340Y-45770D01*
G54D13*
X32890Y-59490D02*
X32890Y-58490D01*
X32890Y-58490D02*
X38890Y-58490D01*
X38890Y-58490D02*
X38890Y-59490D01*
X38890Y-59490D02*
X32890Y-59490D01*
X33890Y-59490D02*
X33890Y-58490D01*
G54D10*
X15899Y-38809D02*
X15899Y-36831D01*
X15899Y-38800D02*
X15899Y-40768D01*
G54D16*
X23100Y-38330D02*
X21600Y-38330D01*
G54D17*
X23057Y-39350D02*
G75*
G03X23057Y-39350I-707J0D01*
G74*
G01*
G54D18*
X21599Y-38350D02*
G75*
G03X23100Y-38350I750J-999D01*
G74*
G01*
G54D15*
X21900Y-39350D02*
G75*
G03X22350Y-39800I450J0D01*
G74*
G01*
X22800Y-39350D02*
G75*
G03X22350Y-38900I-450J0D01*
G74*
G01*
X21700Y-39350D02*
G75*
G03X22350Y-40000I650J0D01*
G74*
G01*
X23000Y-39350D02*
G75*
G03X22350Y-38700I-650J0D01*
G74*
G01*
X21500Y-39350D02*
G75*
G03X22350Y-40200I850J0D01*
G74*
G01*
X23200Y-39350D02*
G75*
G03X22350Y-38500I-850J0D01*
G74*
G01*
G54D19*
X30548Y-36524D02*
X30676Y-36524D01*
X30676Y-36524D02*
X30676Y-36327D01*
X30548Y-36327D02*
X30676Y-36327D01*
X30548Y-36524D02*
X30548Y-36327D01*
X30303Y-36524D02*
X30362Y-36524D01*
X30362Y-36524D02*
X30362Y-36425D01*
X30303Y-36425D02*
X30362Y-36425D01*
X30303Y-36524D02*
X30303Y-36425D01*
X30498Y-36524D02*
X30557Y-36524D01*
X30557Y-36524D02*
X30557Y-36425D01*
X30498Y-36425D02*
X30557Y-36425D01*
X30498Y-36524D02*
X30498Y-36425D01*
X30352Y-36524D02*
X30508Y-36524D01*
X30508Y-36524D02*
X30508Y-36455D01*
X30352Y-36455D02*
X30508Y-36455D01*
X30352Y-36524D02*
X30352Y-36455D01*
X30548Y-37113D02*
X30676Y-37113D01*
X30676Y-37113D02*
X30676Y-36916D01*
X30548Y-36916D02*
X30676Y-36916D01*
X30548Y-37113D02*
X30548Y-36916D01*
X30184Y-37113D02*
X30312Y-37113D01*
X30312Y-37113D02*
X30312Y-36916D01*
X30184Y-36916D02*
X30312Y-36916D01*
X30184Y-37113D02*
X30184Y-36916D01*
X30498Y-37015D02*
X30557Y-37015D01*
X30557Y-37015D02*
X30557Y-36916D01*
X30498Y-36916D02*
X30557Y-36916D01*
X30498Y-37015D02*
X30498Y-36916D01*
X30303Y-37015D02*
X30362Y-37015D01*
X30362Y-37015D02*
X30362Y-36916D01*
X30303Y-36916D02*
X30362Y-36916D01*
X30303Y-37015D02*
X30303Y-36916D01*
X30352Y-36985D02*
X30508Y-36985D01*
X30508Y-36985D02*
X30508Y-36916D01*
X30352Y-36916D02*
X30508Y-36916D01*
X30352Y-36985D02*
X30352Y-36916D01*
X30391Y-36720D02*
X30469Y-36720D01*
X30469Y-36720D02*
X30469Y-36642D01*
X30391Y-36642D02*
X30469Y-36642D01*
X30391Y-36720D02*
X30391Y-36642D01*
X30194Y-36524D02*
X30312Y-36524D01*
X30312Y-36524D02*
X30312Y-36406D01*
X30194Y-36406D02*
X30312Y-36406D01*
X30194Y-36524D02*
X30194Y-36406D01*
X30184Y-36356D02*
X30273Y-36356D01*
X30273Y-36356D02*
X30273Y-36327D01*
X30184Y-36327D02*
X30273Y-36327D01*
X30184Y-36356D02*
X30184Y-36327D01*
G54D20*
X30656Y-36514D02*
X30656Y-36926D01*
X30204Y-36916D02*
X30204Y-36356D01*
G54D21*
X30281Y-36386D02*
G75*
G03X30281Y-36386I-28J0D01*
G74*
G01*
G54D20*
X30293Y-36327D02*
G75*
G03X30567Y-36327I137J0D01*
G74*
G01*
X30567Y-37113D02*
G75*
G03X30293Y-37113I-137J0D01*
G74*
G01*
G54D19*
X33768Y-37590D02*
X33768Y-37718D01*
X33768Y-37718D02*
X33965Y-37718D01*
X33965Y-37590D02*
X33965Y-37718D01*
X33768Y-37590D02*
X33965Y-37590D01*
X33768Y-37345D02*
X33768Y-37404D01*
X33768Y-37404D02*
X33867Y-37404D01*
X33867Y-37345D02*
X33867Y-37404D01*
X33768Y-37345D02*
X33867Y-37345D01*
X33768Y-37540D02*
X33768Y-37599D01*
X33768Y-37599D02*
X33867Y-37599D01*
X33867Y-37540D02*
X33867Y-37599D01*
X33768Y-37540D02*
X33867Y-37540D01*
X33768Y-37394D02*
X33768Y-37550D01*
X33768Y-37550D02*
X33837Y-37550D01*
X33837Y-37394D02*
X33837Y-37550D01*
X33768Y-37394D02*
X33837Y-37394D01*
X33179Y-37590D02*
X33179Y-37718D01*
X33179Y-37718D02*
X33376Y-37718D01*
X33376Y-37590D02*
X33376Y-37718D01*
X33179Y-37590D02*
X33376Y-37590D01*
X33179Y-37226D02*
X33179Y-37354D01*
X33179Y-37354D02*
X33376Y-37354D01*
X33376Y-37226D02*
X33376Y-37354D01*
X33179Y-37226D02*
X33376Y-37226D01*
X33277Y-37540D02*
X33277Y-37599D01*
X33277Y-37599D02*
X33376Y-37599D01*
X33376Y-37540D02*
X33376Y-37599D01*
X33277Y-37540D02*
X33376Y-37540D01*
X33277Y-37345D02*
X33277Y-37404D01*
X33277Y-37404D02*
X33376Y-37404D01*
X33376Y-37345D02*
X33376Y-37404D01*
X33277Y-37345D02*
X33376Y-37345D01*
X33307Y-37394D02*
X33307Y-37550D01*
X33307Y-37550D02*
X33376Y-37550D01*
X33376Y-37394D02*
X33376Y-37550D01*
X33307Y-37394D02*
X33376Y-37394D01*
X33572Y-37433D02*
X33572Y-37511D01*
X33572Y-37511D02*
X33650Y-37511D01*
X33650Y-37433D02*
X33650Y-37511D01*
X33572Y-37433D02*
X33650Y-37433D01*
X33768Y-37236D02*
X33768Y-37354D01*
X33768Y-37354D02*
X33886Y-37354D01*
X33886Y-37236D02*
X33886Y-37354D01*
X33768Y-37236D02*
X33886Y-37236D01*
X33936Y-37226D02*
X33936Y-37315D01*
X33936Y-37315D02*
X33965Y-37315D01*
X33965Y-37226D02*
X33965Y-37315D01*
X33936Y-37226D02*
X33965Y-37226D01*
G54D20*
X33778Y-37698D02*
X33366Y-37698D01*
X33376Y-37246D02*
X33936Y-37246D01*
G54D21*
X33934Y-37295D02*
G75*
G03X33934Y-37295I-28J0D01*
G74*
G01*
G54D20*
X33965Y-37335D02*
G75*
G03X33965Y-37609I0J-137D01*
G74*
G01*
X33179Y-37609D02*
G75*
G03X33179Y-37335I0J137D01*
G74*
G01*
G54D22*
X35370Y-47110D02*
X35370Y-44610D01*
X33370Y-47110D02*
X33370Y-44610D01*
X34370Y-43610D02*
G75*
G03X33370Y-44610I0J-1000D01*
G74*
G01*
X35370Y-44610D02*
G75*
G03X34370Y-43610I-1000J0D01*
G74*
G01*
X33370Y-47110D02*
G75*
G03X34370Y-48110I1000J0D01*
G74*
G01*
X34370Y-48110D02*
G75*
G03X35370Y-47110I0J1000D01*
G74*
G01*
G54D23*
X39940Y-34590D02*
X39940Y-49590D01*
X39940Y-49590D02*
X37940Y-49590D01*
X37940Y-49590D02*
X37940Y-34590D01*
X37940Y-34590D02*
X39940Y-34590D01*
X39440Y-34590D02*
X39440Y-35090D01*
X39440Y-35090D02*
X38440Y-35090D01*
X38440Y-35090D02*
X38440Y-34590D01*
G54D13*
X33120Y-42860D02*
X33120Y-45660D01*
X33120Y-45660D02*
X32320Y-45660D01*
X32320Y-45660D02*
X32320Y-42860D01*
X32320Y-42860D02*
X33120Y-42860D01*
X32920Y-42860D02*
X33120Y-43060D01*
X32320Y-48630D02*
X32320Y-45830D01*
X32320Y-45830D02*
X33120Y-45830D01*
X33120Y-45830D02*
X33120Y-48630D01*
X33120Y-48630D02*
X32320Y-48630D01*
X32520Y-48630D02*
X32320Y-48430D01*
X21490Y-44720D02*
X21490Y-41920D01*
X21490Y-41920D02*
X22290Y-41920D01*
X22290Y-41920D02*
X22290Y-44720D01*
X22290Y-44720D02*
X21490Y-44720D01*
X21690Y-44720D02*
X21490Y-44520D01*
X19790Y-38770D02*
X19790Y-41570D01*
X19790Y-41570D02*
X18990Y-41570D01*
X18990Y-41570D02*
X18990Y-38770D01*
X18990Y-38770D02*
X19790Y-38770D01*
X19590Y-38770D02*
X19790Y-38970D01*
X36580Y-43120D02*
X36580Y-45100D01*
X36580Y-45100D02*
X35580Y-45100D01*
X35580Y-45100D02*
X35580Y-43100D01*
X35580Y-43100D02*
X36580Y-43100D01*
X36330Y-43100D02*
X36580Y-43350D01*
X24800Y-42830D02*
X22820Y-42830D01*
X22820Y-42830D02*
X22820Y-41830D01*
X22820Y-41830D02*
X24820Y-41830D01*
X24820Y-41830D02*
X24820Y-42830D01*
X24820Y-42580D02*
X24570Y-42830D01*
X31300Y-49710D02*
X33280Y-49710D01*
X33280Y-49710D02*
X33280Y-50710D01*
X33280Y-50710D02*
X31280Y-50710D01*
X31280Y-50710D02*
X31280Y-49710D01*
X31280Y-49960D02*
X31530Y-49710D01*
G54D10*
X15900Y-43830D02*
X15900Y-41730D01*
X15900Y-43830D02*
X21100Y-43830D01*
X21100Y-41730D02*
X15900Y-41730D01*
X21100Y-41730D02*
X21100Y-43830D01*
G54D13*
X32280Y-56970D02*
X31280Y-56970D01*
X31280Y-56970D02*
X31280Y-50970D01*
X31280Y-50970D02*
X32280Y-50970D01*
X32280Y-50970D02*
X32280Y-56970D01*
X32280Y-55970D02*
X31280Y-55970D01*
G54D10*
X51665Y-35357D02*
G75*
G03X51665Y-35357I-19J0D01*
G74*
G01*
X51704Y-35357D02*
G75*
G03X51704Y-35357I-59J0D01*
G74*
G01*
X51665Y-39727D02*
G75*
G03X51665Y-39727I-19J0D01*
G74*
G01*
X51704Y-39727D02*
G75*
G03X51704Y-39727I-59J0D01*
G74*
G01*
X51665Y-45830D02*
G75*
G03X51665Y-45830I-19J0D01*
G74*
G01*
X51704Y-45830D02*
G75*
G03X51704Y-45830I-59J0D01*
G74*
G01*
X51665Y-50180D02*
G75*
G03X51665Y-50180I-19J0D01*
G74*
G01*
X51704Y-50180D02*
G75*
G03X51704Y-50180I-59J0D01*
G74*
G01*
X48890Y-38841D02*
X48890Y-35495D01*
X48890Y-41538D02*
X48890Y-43212D01*
X48890Y-43212D02*
X48890Y-39865D01*
X48890Y-47641D02*
X48890Y-49314D01*
X48890Y-49314D02*
X48890Y-45967D01*
X48870Y-52011D02*
X48870Y-50338D01*
X48870Y-50338D02*
X48870Y-53684D01*
X51626Y-50338D02*
X51626Y-53684D01*
X46114Y-53684D02*
X46114Y-50338D01*
X48870Y-52011D02*
X51606Y-52011D01*
X48870Y-52011D02*
X46114Y-52011D01*
X51626Y-50338D02*
X46114Y-53684D01*
X51626Y-53684D02*
X46114Y-50338D01*
X48870Y-41538D02*
X51626Y-41538D01*
X48870Y-41538D02*
X46114Y-41538D01*
X51626Y-39865D02*
X46114Y-43212D01*
X46114Y-43212D02*
X46114Y-39865D01*
X46114Y-39865D02*
X51626Y-39865D01*
X51626Y-43212D02*
X46114Y-39885D01*
X51626Y-43212D02*
X46114Y-43212D01*
X54382Y-54668D02*
X54382Y-34511D01*
X53004Y-34511D02*
X53004Y-54668D01*
X54382Y-54668D02*
X43358Y-54668D01*
X44736Y-54668D02*
X44736Y-34511D01*
X43358Y-54668D02*
X43358Y-34511D01*
X46134Y-50357D02*
X46114Y-50357D01*
X46114Y-50338D02*
X51626Y-50338D01*
X46114Y-53684D02*
X51626Y-53684D01*
X51626Y-45967D02*
X51626Y-49314D01*
X51626Y-49314D02*
X46114Y-45967D01*
X46114Y-45967D02*
X46114Y-49314D01*
X46114Y-49314D02*
X51626Y-49314D01*
X51626Y-49314D02*
X51626Y-45967D01*
X51626Y-45967D02*
X46114Y-49314D01*
X46114Y-49314D02*
X46114Y-47641D01*
X46114Y-47641D02*
X51626Y-47641D01*
X51626Y-35495D02*
X51626Y-38841D01*
X51626Y-38841D02*
X46114Y-35495D01*
X46114Y-35495D02*
X46114Y-38841D01*
X46114Y-38841D02*
X51626Y-38841D01*
X51626Y-38841D02*
X51626Y-35495D01*
X51626Y-35495D02*
X46114Y-38861D01*
X46114Y-38861D02*
X48870Y-37168D01*
X48870Y-37168D02*
X46114Y-37168D01*
X46114Y-37168D02*
X51626Y-37168D01*
X51626Y-39885D02*
X51626Y-43231D01*
X46114Y-45967D02*
X51626Y-45967D01*
X51626Y-35495D02*
X46114Y-35495D01*
X43358Y-54275D02*
X43358Y-54176D01*
X53004Y-44590D02*
X44736Y-44590D01*
X43358Y-34511D02*
X54382Y-34511D01*
G54D13*
X43390Y-47090D02*
X44390Y-47090D01*
X44390Y-42090D02*
X43390Y-42090D01*
X43390Y-47090D02*
X43390Y-42090D01*
X44390Y-42090D02*
X44390Y-47090D01*
G54D10*
X54185Y-54881D02*
X54177Y-55877D01*
X54158Y-54858D02*
X54158Y-54842D01*
X54158Y-54842D02*
X54158Y-55913D01*
X54225Y-54854D02*
X54221Y-55913D01*
X46362Y-54846D02*
X46370Y-55889D01*
X46421Y-54940D02*
X46421Y-54925D01*
X46421Y-54925D02*
X46421Y-55862D01*
G54D13*
X54192Y-55880D02*
X46392Y-55880D01*
X46392Y-54877D02*
X54192Y-54877D01*
G54D10*
X33408Y-55573D02*
X43152Y-55569D01*
X43152Y-55569D02*
X43152Y-49786D01*
X43152Y-49786D02*
X33408Y-49786D01*
X33408Y-49786D02*
X33408Y-55573D01*
X33408Y-52680D02*
X33408Y-49786D01*
X33408Y-49786D02*
X33408Y-55573D01*
G54D13*
X33440Y-54680D02*
X33440Y-50680D01*
X33440Y-50680D02*
X35440Y-50680D01*
X35440Y-50680D02*
X35440Y-54680D01*
X35440Y-54680D02*
X33440Y-54680D01*
X36590Y-36480D02*
X36190Y-36480D01*
X36190Y-36480D02*
X36190Y-36880D01*
X36190Y-36880D02*
X32990Y-36880D01*
X32990Y-36880D02*
X32990Y-36080D01*
X32990Y-36080D02*
X36190Y-36080D01*
X36190Y-36080D02*
X36190Y-36480D01*
X36190Y-36680D02*
X35990Y-36880D01*
X32590Y-36480D02*
X32990Y-36480D01*
X40146Y-55806D02*
X38646Y-57306D01*
X38646Y-57306D02*
X38646Y-57806D01*
X38646Y-57806D02*
X39146Y-58306D01*
X39146Y-58306D02*
X40146Y-58306D01*
X40146Y-58306D02*
X41146Y-57306D01*
X41146Y-57306D02*
X41146Y-56306D01*
X41146Y-56306D02*
X40646Y-55806D01*
X40646Y-55806D02*
X40146Y-55806D01*
X37340Y-55730D02*
X35840Y-57230D01*
X35840Y-57230D02*
X35840Y-57730D01*
X35840Y-57730D02*
X36340Y-58230D01*
X36340Y-58230D02*
X37340Y-58230D01*
X37340Y-58230D02*
X38340Y-57230D01*
X38340Y-57230D02*
X38340Y-56230D01*
X38340Y-56230D02*
X37840Y-55730D01*
X37840Y-55730D02*
X37340Y-55730D01*
X42890Y-55902D02*
X41390Y-57402D01*
X41390Y-57402D02*
X41390Y-57902D01*
X41390Y-57902D02*
X41890Y-58402D01*
X41890Y-58402D02*
X42890Y-58402D01*
X42890Y-58402D02*
X43890Y-57402D01*
X43890Y-57402D02*
X43890Y-56402D01*
X43890Y-56402D02*
X43390Y-55902D01*
X43390Y-55902D02*
X42890Y-55902D01*
X41710Y-39760D02*
X41710Y-42560D01*
X41710Y-42560D02*
X40910Y-42560D01*
X40910Y-42560D02*
X40910Y-39760D01*
X40910Y-39760D02*
X41710Y-39760D01*
X41510Y-39760D02*
X41710Y-39960D01*
G54D16*
X24981Y-38920D02*
X24943Y-38900D01*
X24905Y-38862D01*
X24848Y-38805D01*
X24810Y-38786D01*
X24772Y-38786D01*
X24791Y-38881D02*
X24753Y-38862D01*
X24715Y-38824D01*
X24696Y-38748D01*
X24696Y-38615D01*
X24715Y-38539D01*
X24753Y-38500D01*
X24791Y-38481D01*
X24867Y-38481D01*
X24905Y-38500D01*
X24943Y-38539D01*
X24962Y-38615D01*
X24962Y-38748D01*
X24943Y-38824D01*
X24905Y-38862D01*
X24867Y-38881D01*
X24791Y-38881D01*
X25343Y-38881D02*
X25115Y-38881D01*
X25229Y-38881D02*
X25229Y-38481D01*
X25191Y-38539D01*
X25153Y-38577D01*
X25115Y-38596D01*
X26615Y-42061D02*
X26615Y-42385D01*
X26634Y-42423D01*
X26653Y-42442D01*
X26691Y-42461D01*
X26767Y-42461D01*
X26805Y-42442D01*
X26824Y-42423D01*
X26843Y-42385D01*
X26843Y-42061D01*
X27015Y-42100D02*
X27034Y-42080D01*
X27072Y-42061D01*
X27167Y-42061D01*
X27205Y-42080D01*
X27224Y-42100D01*
X27243Y-42138D01*
X27243Y-42176D01*
X27224Y-42233D01*
X26996Y-42461D01*
X27243Y-42461D01*
G54D14*
X19859Y-38501D02*
X19859Y-38703D01*
X19871Y-38727D01*
X19883Y-38739D01*
X19907Y-38751D01*
X19954Y-38751D01*
X19978Y-38739D01*
X19990Y-38727D01*
X20002Y-38703D01*
X20002Y-38501D01*
X20252Y-38751D02*
X20109Y-38751D01*
X20180Y-38751D02*
X20180Y-38501D01*
X20157Y-38536D01*
X20133Y-38560D01*
X20109Y-38572D01*
G54D10*
X29165Y-34971D02*
X29165Y-34577D01*
X29296Y-34858D01*
X29427Y-34577D01*
X29427Y-34971D01*
X29821Y-34971D02*
X29596Y-34971D01*
X29708Y-34971D02*
X29708Y-34577D01*
X29671Y-34633D01*
X29633Y-34671D01*
X29596Y-34690D01*
G54D16*
X33546Y-41772D02*
X33380Y-41510D01*
X33260Y-41772D02*
X33260Y-41222D01*
X33451Y-41222D01*
X33499Y-41248D01*
X33522Y-41275D01*
X33546Y-41327D01*
X33546Y-41405D01*
X33522Y-41458D01*
X33499Y-41484D01*
X33451Y-41510D01*
X33260Y-41510D01*
X33713Y-41222D02*
X34022Y-41222D01*
X33856Y-41432D01*
X33927Y-41432D01*
X33975Y-41458D01*
X33999Y-41484D01*
X34022Y-41536D01*
X34022Y-41667D01*
X33999Y-41720D01*
X33975Y-41746D01*
X33927Y-41772D01*
X33784Y-41772D01*
X33737Y-41746D01*
X33713Y-41720D01*
X33526Y-40332D02*
X33360Y-40070D01*
X33240Y-40332D02*
X33240Y-39782D01*
X33431Y-39782D01*
X33479Y-39808D01*
X33502Y-39835D01*
X33526Y-39887D01*
X33526Y-39965D01*
X33502Y-40018D01*
X33479Y-40044D01*
X33431Y-40070D01*
X33240Y-40070D01*
X33955Y-39782D02*
X33860Y-39782D01*
X33812Y-39808D01*
X33788Y-39835D01*
X33740Y-39913D01*
X33717Y-40018D01*
X33717Y-40227D01*
X33740Y-40280D01*
X33764Y-40306D01*
X33812Y-40332D01*
X33907Y-40332D01*
X33955Y-40306D01*
X33979Y-40280D01*
X34002Y-40227D01*
X34002Y-40096D01*
X33979Y-40044D01*
X33955Y-40018D01*
X33907Y-39992D01*
X33812Y-39992D01*
X33764Y-40018D01*
X33740Y-40044D01*
X33717Y-40096D01*
X33496Y-39612D02*
X33330Y-39350D01*
X33210Y-39612D02*
X33210Y-39062D01*
X33401Y-39062D01*
X33449Y-39088D01*
X33472Y-39115D01*
X33496Y-39167D01*
X33496Y-39245D01*
X33472Y-39298D01*
X33449Y-39324D01*
X33401Y-39350D01*
X33210Y-39350D01*
X33949Y-39062D02*
X33710Y-39062D01*
X33687Y-39324D01*
X33710Y-39298D01*
X33758Y-39272D01*
X33877Y-39272D01*
X33925Y-39298D01*
X33949Y-39324D01*
X33972Y-39376D01*
X33972Y-39507D01*
X33949Y-39560D01*
X33925Y-39586D01*
X33877Y-39612D01*
X33758Y-39612D01*
X33710Y-39586D01*
X33687Y-39560D01*
X34416Y-50362D02*
X34250Y-50100D01*
X34130Y-50362D02*
X34130Y-49812D01*
X34321Y-49812D01*
X34369Y-49838D01*
X34392Y-49865D01*
X34416Y-49917D01*
X34416Y-49995D01*
X34392Y-50048D01*
X34369Y-50074D01*
X34321Y-50100D01*
X34130Y-50100D01*
X34583Y-49812D02*
X34916Y-49812D01*
X34702Y-50362D01*
X33516Y-41052D02*
X33350Y-40790D01*
X33230Y-41052D02*
X33230Y-40502D01*
X33421Y-40502D01*
X33469Y-40528D01*
X33492Y-40555D01*
X33516Y-40607D01*
X33516Y-40685D01*
X33492Y-40738D01*
X33469Y-40764D01*
X33421Y-40790D01*
X33230Y-40790D01*
X33707Y-40555D02*
X33730Y-40528D01*
X33778Y-40502D01*
X33897Y-40502D01*
X33945Y-40528D01*
X33969Y-40555D01*
X33992Y-40607D01*
X33992Y-40659D01*
X33969Y-40738D01*
X33683Y-41052D01*
X33992Y-41052D01*
X20984Y-40619D02*
X20853Y-40431D01*
X20759Y-40619D02*
X20759Y-40225D01*
X20909Y-40225D01*
X20946Y-40244D01*
X20965Y-40263D01*
X20984Y-40300D01*
X20984Y-40356D01*
X20965Y-40394D01*
X20946Y-40413D01*
X20909Y-40431D01*
X20759Y-40431D01*
X21359Y-40619D02*
X21134Y-40619D01*
X21246Y-40619D02*
X21246Y-40225D01*
X21209Y-40281D01*
X21171Y-40319D01*
X21134Y-40338D01*
X23816Y-38692D02*
X23650Y-38430D01*
X23530Y-38692D02*
X23530Y-38142D01*
X23721Y-38142D01*
X23769Y-38168D01*
X23792Y-38195D01*
X23816Y-38247D01*
X23816Y-38325D01*
X23792Y-38378D01*
X23769Y-38404D01*
X23721Y-38430D01*
X23530Y-38430D01*
X24245Y-38325D02*
X24245Y-38692D01*
X24126Y-38116D02*
X24007Y-38509D01*
X24316Y-38509D01*
G54D15*
X17635Y-44562D02*
X17692Y-44581D01*
X17787Y-44581D01*
X17825Y-44562D01*
X17844Y-44543D01*
X17863Y-44505D01*
X17863Y-44467D01*
X17844Y-44429D01*
X17825Y-44410D01*
X17787Y-44391D01*
X17711Y-44372D01*
X17673Y-44353D01*
X17654Y-44334D01*
X17635Y-44296D01*
X17635Y-44258D01*
X17654Y-44220D01*
X17673Y-44200D01*
X17711Y-44181D01*
X17806Y-44181D01*
X17863Y-44200D01*
X18244Y-44581D02*
X18016Y-44581D01*
X18130Y-44581D02*
X18130Y-44181D01*
X18092Y-44239D01*
X18054Y-44277D01*
X18016Y-44296D01*
G54D16*
X39054Y-59101D02*
X39054Y-58701D01*
X39207Y-58701D01*
X39245Y-58720D01*
X39264Y-58740D01*
X39283Y-58778D01*
X39283Y-58835D01*
X39264Y-58873D01*
X39245Y-58892D01*
X39207Y-58911D01*
X39054Y-58911D01*
X39435Y-58740D02*
X39454Y-58720D01*
X39492Y-58701D01*
X39588Y-58701D01*
X39626Y-58720D01*
X39645Y-58740D01*
X39664Y-58778D01*
X39664Y-58816D01*
X39645Y-58873D01*
X39416Y-59101D01*
X39664Y-59101D01*
G54D10*
X16828Y-36455D02*
X16828Y-36736D01*
X16810Y-36793D01*
X16772Y-36830D01*
X16716Y-36849D01*
X16678Y-36849D01*
X17222Y-36849D02*
X16997Y-36849D01*
X17109Y-36849D02*
X17109Y-36455D01*
X17072Y-36511D01*
X17034Y-36549D01*
X16997Y-36568D01*
G54D24*
X20538Y-39651D02*
X20538Y-39351D01*
X20610Y-39351D01*
X20652Y-39365D01*
X20681Y-39394D01*
X20695Y-39422D01*
X20710Y-39480D01*
X20710Y-39522D01*
X20695Y-39580D01*
X20681Y-39608D01*
X20652Y-39637D01*
X20610Y-39651D01*
X20538Y-39651D01*
X20824Y-39380D02*
X20838Y-39365D01*
X20867Y-39351D01*
X20938Y-39351D01*
X20967Y-39365D01*
X20981Y-39380D01*
X20995Y-39408D01*
X20995Y-39437D01*
X20981Y-39480D01*
X20810Y-39651D01*
X20995Y-39651D01*
G54D14*
X30194Y-35863D02*
X30194Y-35563D01*
X30266Y-35563D01*
X30308Y-35577D01*
X30337Y-35606D01*
X30351Y-35634D01*
X30366Y-35692D01*
X30366Y-35734D01*
X30351Y-35792D01*
X30337Y-35820D01*
X30308Y-35849D01*
X30266Y-35863D01*
X30194Y-35863D01*
X30623Y-35663D02*
X30623Y-35863D01*
X30551Y-35549D02*
X30480Y-35763D01*
X30666Y-35763D01*
X33350Y-37093D02*
X33350Y-36793D01*
X33422Y-36793D01*
X33464Y-36807D01*
X33493Y-36836D01*
X33507Y-36864D01*
X33522Y-36922D01*
X33522Y-36964D01*
X33507Y-37022D01*
X33493Y-37050D01*
X33464Y-37079D01*
X33422Y-37093D01*
X33350Y-37093D01*
X33622Y-36793D02*
X33807Y-36793D01*
X33707Y-36907D01*
X33750Y-36907D01*
X33779Y-36922D01*
X33793Y-36936D01*
X33807Y-36964D01*
X33807Y-37036D01*
X33793Y-37064D01*
X33779Y-37079D01*
X33750Y-37093D01*
X33664Y-37093D01*
X33636Y-37079D01*
X33622Y-37064D01*
G54D13*
X32512Y-46345D02*
X33112Y-45945D01*
X32512Y-45945D02*
X33112Y-46345D01*
X33112Y-45402D02*
X33112Y-45745D01*
X33112Y-45574D02*
X32512Y-45574D01*
X32598Y-45631D01*
X32655Y-45688D01*
X32684Y-45745D01*
G54D25*
X38476Y-34358D02*
X38476Y-33758D01*
X38948Y-34301D02*
X38926Y-34330D01*
X38862Y-34358D01*
X38819Y-34358D01*
X38755Y-34330D01*
X38712Y-34273D01*
X38691Y-34216D01*
X38669Y-34101D01*
X38669Y-34016D01*
X38691Y-33901D01*
X38712Y-33844D01*
X38755Y-33787D01*
X38819Y-33758D01*
X38862Y-33758D01*
X38926Y-33787D01*
X38948Y-33816D01*
X39376Y-34358D02*
X39119Y-34358D01*
X39248Y-34358D02*
X39248Y-33758D01*
X39205Y-33844D01*
X39162Y-33901D01*
X39119Y-33930D01*
G54D13*
G54D16*
X33505Y-43397D02*
X33486Y-43416D01*
X33429Y-43435D01*
X33391Y-43435D01*
X33333Y-43416D01*
X33295Y-43378D01*
X33276Y-43340D01*
X33257Y-43264D01*
X33257Y-43207D01*
X33276Y-43131D01*
X33295Y-43093D01*
X33333Y-43054D01*
X33391Y-43035D01*
X33429Y-43035D01*
X33486Y-43054D01*
X33505Y-43074D01*
X33848Y-43035D02*
X33772Y-43035D01*
X33733Y-43054D01*
X33714Y-43074D01*
X33676Y-43131D01*
X33657Y-43207D01*
X33657Y-43359D01*
X33676Y-43397D01*
X33695Y-43416D01*
X33733Y-43435D01*
X33810Y-43435D01*
X33848Y-43416D01*
X33867Y-43397D01*
X33886Y-43359D01*
X33886Y-43264D01*
X33867Y-43226D01*
X33848Y-43207D01*
X33810Y-43188D01*
X33733Y-43188D01*
X33695Y-43207D01*
X33676Y-43226D01*
X33657Y-43264D01*
X31769Y-47969D02*
X31750Y-47988D01*
X31693Y-48007D01*
X31655Y-48007D01*
X31597Y-47988D01*
X31559Y-47950D01*
X31540Y-47912D01*
X31521Y-47836D01*
X31521Y-47779D01*
X31540Y-47703D01*
X31559Y-47665D01*
X31597Y-47626D01*
X31655Y-47607D01*
X31693Y-47607D01*
X31750Y-47626D01*
X31769Y-47646D01*
X32131Y-47607D02*
X31940Y-47607D01*
X31921Y-47798D01*
X31940Y-47779D01*
X31978Y-47760D01*
X32074Y-47760D01*
X32112Y-47779D01*
X32131Y-47798D01*
X32150Y-47836D01*
X32150Y-47931D01*
X32131Y-47969D01*
X32112Y-47988D01*
X32074Y-48007D01*
X31978Y-48007D01*
X31940Y-47988D01*
X31921Y-47969D01*
X21843Y-45313D02*
X21824Y-45332D01*
X21767Y-45351D01*
X21729Y-45351D01*
X21671Y-45332D01*
X21633Y-45294D01*
X21614Y-45256D01*
X21595Y-45180D01*
X21595Y-45123D01*
X21614Y-45047D01*
X21633Y-45009D01*
X21671Y-44970D01*
X21729Y-44951D01*
X21767Y-44951D01*
X21824Y-44970D01*
X21843Y-44990D01*
X22186Y-45085D02*
X22186Y-45351D01*
X22090Y-44932D02*
X21995Y-45218D01*
X22243Y-45218D01*
X18523Y-40973D02*
X18504Y-40992D01*
X18447Y-41011D01*
X18409Y-41011D01*
X18351Y-40992D01*
X18313Y-40954D01*
X18294Y-40916D01*
X18275Y-40840D01*
X18275Y-40783D01*
X18294Y-40707D01*
X18313Y-40669D01*
X18351Y-40630D01*
X18409Y-40611D01*
X18447Y-40611D01*
X18504Y-40630D01*
X18523Y-40650D01*
X18675Y-40650D02*
X18694Y-40630D01*
X18732Y-40611D01*
X18828Y-40611D01*
X18866Y-40630D01*
X18885Y-40650D01*
X18904Y-40688D01*
X18904Y-40726D01*
X18885Y-40783D01*
X18656Y-41011D01*
X18904Y-41011D01*
X36011Y-42851D02*
X35992Y-42870D01*
X35935Y-42889D01*
X35897Y-42889D01*
X35839Y-42870D01*
X35801Y-42832D01*
X35782Y-42794D01*
X35763Y-42718D01*
X35763Y-42661D01*
X35782Y-42585D01*
X35801Y-42547D01*
X35839Y-42508D01*
X35897Y-42489D01*
X35935Y-42489D01*
X35992Y-42508D01*
X36011Y-42528D01*
X36392Y-42889D02*
X36163Y-42889D01*
X36278Y-42889D02*
X36278Y-42489D01*
X36239Y-42547D01*
X36201Y-42585D01*
X36163Y-42604D01*
X24263Y-43353D02*
X24244Y-43372D01*
X24187Y-43391D01*
X24149Y-43391D01*
X24091Y-43372D01*
X24053Y-43334D01*
X24034Y-43296D01*
X24015Y-43220D01*
X24015Y-43163D01*
X24034Y-43087D01*
X24053Y-43049D01*
X24091Y-43010D01*
X24149Y-42991D01*
X24187Y-42991D01*
X24244Y-43010D01*
X24263Y-43030D01*
X24396Y-42991D02*
X24644Y-42991D01*
X24510Y-43144D01*
X24568Y-43144D01*
X24606Y-43163D01*
X24625Y-43182D01*
X24644Y-43220D01*
X24644Y-43315D01*
X24625Y-43353D01*
X24606Y-43372D01*
X24568Y-43391D01*
X24453Y-43391D01*
X24415Y-43372D01*
X24396Y-43353D01*
X32863Y-51203D02*
X32844Y-51222D01*
X32787Y-51241D01*
X32749Y-51241D01*
X32691Y-51222D01*
X32653Y-51184D01*
X32634Y-51146D01*
X32615Y-51070D01*
X32615Y-51013D01*
X32634Y-50937D01*
X32653Y-50899D01*
X32691Y-50860D01*
X32749Y-50841D01*
X32787Y-50841D01*
X32844Y-50860D01*
X32863Y-50880D01*
X32996Y-50841D02*
X33263Y-50841D01*
X33091Y-51241D01*
G54D14*
X16532Y-41609D02*
X16532Y-41215D01*
X16608Y-41215D01*
X16627Y-41234D01*
X16637Y-41253D01*
X16646Y-41290D01*
X16646Y-41346D01*
X16637Y-41384D01*
X16627Y-41403D01*
X16608Y-41421D01*
X16532Y-41421D01*
X16837Y-41609D02*
X16722Y-41609D01*
X16780Y-41609D02*
X16780Y-41215D01*
X16760Y-41271D01*
X16741Y-41309D01*
X16722Y-41328D01*
G54D16*
X32464Y-53131D02*
X32464Y-52731D01*
X32617Y-52731D01*
X32655Y-52750D01*
X32674Y-52770D01*
X32693Y-52808D01*
X32693Y-52865D01*
X32674Y-52903D01*
X32655Y-52922D01*
X32617Y-52941D01*
X32464Y-52941D01*
X32826Y-52731D02*
X33074Y-52731D01*
X32940Y-52884D01*
X32998Y-52884D01*
X33036Y-52903D01*
X33055Y-52922D01*
X33074Y-52960D01*
X33074Y-53055D01*
X33055Y-53093D01*
X33036Y-53112D01*
X32998Y-53131D01*
X32883Y-53131D01*
X32845Y-53112D01*
X32826Y-53093D01*
X42535Y-36977D02*
X42535Y-37301D01*
X42554Y-37339D01*
X42573Y-37358D01*
X42611Y-37377D01*
X42687Y-37377D01*
X42725Y-37358D01*
X42744Y-37339D01*
X42763Y-37301D01*
X42763Y-36977D01*
X42916Y-36977D02*
X43163Y-36977D01*
X43030Y-37130D01*
X43087Y-37130D01*
X43125Y-37149D01*
X43144Y-37168D01*
X43163Y-37206D01*
X43163Y-37301D01*
X43144Y-37339D01*
X43125Y-37358D01*
X43087Y-37377D01*
X42973Y-37377D01*
X42935Y-37358D01*
X42916Y-37339D01*
X45526Y-55581D02*
X45526Y-55181D01*
X45679Y-55181D01*
X45717Y-55200D01*
X45736Y-55220D01*
X45755Y-55258D01*
X45755Y-55315D01*
X45736Y-55353D01*
X45717Y-55372D01*
X45679Y-55391D01*
X45526Y-55391D01*
X46098Y-55315D02*
X46098Y-55581D01*
X46002Y-55162D02*
X45907Y-55448D01*
X46155Y-55448D01*
X36081Y-49217D02*
X36081Y-49541D01*
X36100Y-49579D01*
X36119Y-49598D01*
X36157Y-49617D01*
X36233Y-49617D01*
X36271Y-49598D01*
X36290Y-49579D01*
X36309Y-49541D01*
X36309Y-49217D01*
X36671Y-49351D02*
X36671Y-49617D01*
X36576Y-49198D02*
X36481Y-49484D01*
X36728Y-49484D01*
G54D10*
X35561Y-40099D02*
X35561Y-40380D01*
X35543Y-40437D01*
X35505Y-40474D01*
X35449Y-40493D01*
X35411Y-40493D01*
X35749Y-40493D02*
X35749Y-40099D01*
X35899Y-40099D01*
X35936Y-40118D01*
X35955Y-40137D01*
X35974Y-40174D01*
X35974Y-40230D01*
X35955Y-40268D01*
X35936Y-40287D01*
X35899Y-40305D01*
X35749Y-40305D01*
X36349Y-40493D02*
X36124Y-40493D01*
X36236Y-40493D02*
X36236Y-40099D01*
X36199Y-40155D01*
X36161Y-40193D01*
X36124Y-40212D01*
X32547Y-57145D02*
X32547Y-57426D01*
X32529Y-57483D01*
X32491Y-57520D01*
X32435Y-57539D01*
X32397Y-57539D01*
X32735Y-57539D02*
X32735Y-57145D01*
X32885Y-57145D01*
X32922Y-57164D01*
X32941Y-57183D01*
X32960Y-57220D01*
X32960Y-57276D01*
X32941Y-57314D01*
X32922Y-57333D01*
X32885Y-57351D01*
X32735Y-57351D01*
X33110Y-57183D02*
X33129Y-57164D01*
X33166Y-57145D01*
X33260Y-57145D01*
X33297Y-57164D01*
X33316Y-57183D01*
X33335Y-57220D01*
X33335Y-57258D01*
X33316Y-57314D01*
X33091Y-57539D01*
X33335Y-57539D01*
G54D16*
X34486Y-35812D02*
X34320Y-35550D01*
X34200Y-35812D02*
X34200Y-35262D01*
X34391Y-35262D01*
X34439Y-35288D01*
X34462Y-35315D01*
X34486Y-35367D01*
X34486Y-35445D01*
X34462Y-35498D01*
X34439Y-35524D01*
X34391Y-35550D01*
X34200Y-35550D01*
X34772Y-35498D02*
X34724Y-35472D01*
X34700Y-35445D01*
X34677Y-35393D01*
X34677Y-35367D01*
X34700Y-35315D01*
X34724Y-35288D01*
X34772Y-35262D01*
X34867Y-35262D01*
X34915Y-35288D01*
X34939Y-35315D01*
X34962Y-35367D01*
X34962Y-35393D01*
X34939Y-35445D01*
X34915Y-35472D01*
X34867Y-35498D01*
X34772Y-35498D01*
X34724Y-35524D01*
X34700Y-35550D01*
X34677Y-35603D01*
X34677Y-35707D01*
X34700Y-35760D01*
X34724Y-35786D01*
X34772Y-35812D01*
X34867Y-35812D01*
X34915Y-35786D01*
X34939Y-35760D01*
X34962Y-35707D01*
X34962Y-35603D01*
X34939Y-35550D01*
X34915Y-35524D01*
X34867Y-35498D01*
X39307Y-56120D02*
X39269Y-56100D01*
X39231Y-56062D01*
X39174Y-56005D01*
X39136Y-55986D01*
X39098Y-55986D01*
X39117Y-56081D02*
X39079Y-56062D01*
X39041Y-56024D01*
X39022Y-55948D01*
X39022Y-55815D01*
X39041Y-55739D01*
X39079Y-55700D01*
X39117Y-55681D01*
X39193Y-55681D01*
X39231Y-55700D01*
X39269Y-55739D01*
X39288Y-55815D01*
X39288Y-55948D01*
X39269Y-56024D01*
X39231Y-56062D01*
X39193Y-56081D01*
X39117Y-56081D01*
X39422Y-55681D02*
X39669Y-55681D01*
X39536Y-55834D01*
X39593Y-55834D01*
X39631Y-55853D01*
X39650Y-55872D01*
X39669Y-55910D01*
X39669Y-56005D01*
X39650Y-56043D01*
X39631Y-56062D01*
X39593Y-56081D01*
X39479Y-56081D01*
X39441Y-56062D01*
X39422Y-56043D01*
X36427Y-56180D02*
X36389Y-56160D01*
X36351Y-56122D01*
X36294Y-56065D01*
X36256Y-56046D01*
X36218Y-56046D01*
X36237Y-56141D02*
X36199Y-56122D01*
X36161Y-56084D01*
X36142Y-56008D01*
X36142Y-55875D01*
X36161Y-55799D01*
X36199Y-55760D01*
X36237Y-55741D01*
X36313Y-55741D01*
X36351Y-55760D01*
X36389Y-55799D01*
X36408Y-55875D01*
X36408Y-56008D01*
X36389Y-56084D01*
X36351Y-56122D01*
X36313Y-56141D01*
X36237Y-56141D01*
X36751Y-55875D02*
X36751Y-56141D01*
X36656Y-55722D02*
X36561Y-56008D01*
X36808Y-56008D01*
X42141Y-56136D02*
X42103Y-56116D01*
X42065Y-56078D01*
X42008Y-56021D01*
X41970Y-56002D01*
X41932Y-56002D01*
X41951Y-56097D02*
X41913Y-56078D01*
X41875Y-56040D01*
X41856Y-55964D01*
X41856Y-55831D01*
X41875Y-55755D01*
X41913Y-55716D01*
X41951Y-55697D01*
X42027Y-55697D01*
X42065Y-55716D01*
X42103Y-55755D01*
X42122Y-55831D01*
X42122Y-55964D01*
X42103Y-56040D01*
X42065Y-56078D01*
X42027Y-56097D01*
X41951Y-56097D01*
X42275Y-55736D02*
X42294Y-55716D01*
X42332Y-55697D01*
X42427Y-55697D01*
X42465Y-55716D01*
X42484Y-55736D01*
X42503Y-55774D01*
X42503Y-55812D01*
X42484Y-55869D01*
X42256Y-56097D01*
X42503Y-56097D01*
X41433Y-41226D02*
X41452Y-41245D01*
X41471Y-41302D01*
X41471Y-41340D01*
X41452Y-41398D01*
X41414Y-41436D01*
X41376Y-41455D01*
X41300Y-41474D01*
X41243Y-41474D01*
X41167Y-41455D01*
X41129Y-41436D01*
X41090Y-41398D01*
X41071Y-41340D01*
X41071Y-41302D01*
X41090Y-41245D01*
X41110Y-41226D01*
X41243Y-40998D02*
X41224Y-41036D01*
X41205Y-41055D01*
X41167Y-41074D01*
X41148Y-41074D01*
X41110Y-41055D01*
X41090Y-41036D01*
X41071Y-40998D01*
X41071Y-40921D01*
X41090Y-40883D01*
X41110Y-40864D01*
X41148Y-40845D01*
X41167Y-40845D01*
X41205Y-40864D01*
X41224Y-40883D01*
X41243Y-40921D01*
X41243Y-40998D01*
X41262Y-41036D01*
X41281Y-41055D01*
X41319Y-41074D01*
X41395Y-41074D01*
X41433Y-41055D01*
X41452Y-41036D01*
X41471Y-40998D01*
X41471Y-40921D01*
X41452Y-40883D01*
X41433Y-40864D01*
X41395Y-40845D01*
X41319Y-40845D01*
X41281Y-40864D01*
X41262Y-40883D01*
X41243Y-40921D01*
M02*
