G04 (created by PCBNEW (2013-07-07 BZR 4022)-stable) date 5/1/2015 4:36:49 PM*
%MOIN*%
G04 Gerber Fmt 3.4, Leading zero omitted, Abs format*
%FSLAX34Y34*%
G01*
G70*
G90*
G04 APERTURE LIST*
%ADD10C,0.00590551*%
%ADD11C,0.011811*%
G04 APERTURE END LIST*
G54D10*
G54D11*
X50624Y-57818D02*
X50624Y-57031D01*
X50324Y-57031D01*
X50249Y-57068D01*
X50212Y-57106D01*
X50174Y-57181D01*
X50174Y-57293D01*
X50212Y-57368D01*
X50249Y-57406D01*
X50324Y-57443D01*
X50624Y-57443D01*
X49724Y-57818D02*
X49799Y-57781D01*
X49837Y-57706D01*
X49837Y-57031D01*
X49087Y-57818D02*
X49087Y-57406D01*
X49124Y-57331D01*
X49199Y-57293D01*
X49349Y-57293D01*
X49424Y-57331D01*
X49087Y-57781D02*
X49162Y-57818D01*
X49349Y-57818D01*
X49424Y-57781D01*
X49462Y-57706D01*
X49462Y-57631D01*
X49424Y-57556D01*
X49349Y-57518D01*
X49162Y-57518D01*
X49087Y-57481D01*
X48787Y-57293D02*
X48599Y-57818D01*
X48412Y-57293D02*
X48599Y-57818D01*
X48674Y-58006D01*
X48712Y-58043D01*
X48787Y-58081D01*
X47812Y-57781D02*
X47887Y-57818D01*
X48037Y-57818D01*
X48112Y-57781D01*
X48149Y-57706D01*
X48149Y-57406D01*
X48112Y-57331D01*
X48037Y-57293D01*
X47887Y-57293D01*
X47812Y-57331D01*
X47774Y-57406D01*
X47774Y-57481D01*
X48149Y-57556D01*
X47437Y-57818D02*
X47437Y-57293D01*
X47437Y-57443D02*
X47399Y-57368D01*
X47362Y-57331D01*
X47287Y-57293D01*
X47212Y-57293D01*
X46387Y-56993D02*
X47062Y-58006D01*
X46125Y-57818D02*
X46125Y-57031D01*
X46125Y-57406D02*
X45675Y-57406D01*
X45675Y-57818D02*
X45675Y-57031D01*
X45300Y-57743D02*
X45262Y-57781D01*
X45300Y-57818D01*
X45337Y-57781D01*
X45300Y-57743D01*
X45300Y-57818D01*
X44962Y-57781D02*
X44850Y-57818D01*
X44662Y-57818D01*
X44587Y-57781D01*
X44550Y-57743D01*
X44512Y-57668D01*
X44512Y-57593D01*
X44550Y-57518D01*
X44587Y-57481D01*
X44662Y-57443D01*
X44812Y-57406D01*
X44887Y-57368D01*
X44925Y-57331D01*
X44962Y-57256D01*
X44962Y-57181D01*
X44925Y-57106D01*
X44887Y-57068D01*
X44812Y-57031D01*
X44625Y-57031D01*
X44512Y-57068D01*
X44175Y-57743D02*
X44137Y-57781D01*
X44175Y-57818D01*
X44212Y-57781D01*
X44175Y-57743D01*
X44175Y-57818D01*
X49368Y-59039D02*
X49368Y-58251D01*
X49068Y-58251D01*
X48993Y-58289D01*
X48956Y-58326D01*
X48918Y-58401D01*
X48918Y-58514D01*
X48956Y-58589D01*
X48993Y-58626D01*
X49068Y-58664D01*
X49368Y-58664D01*
X48131Y-58964D02*
X48168Y-59001D01*
X48281Y-59039D01*
X48356Y-59039D01*
X48468Y-59001D01*
X48543Y-58926D01*
X48581Y-58851D01*
X48618Y-58701D01*
X48618Y-58589D01*
X48581Y-58439D01*
X48543Y-58364D01*
X48468Y-58289D01*
X48356Y-58251D01*
X48281Y-58251D01*
X48168Y-58289D01*
X48131Y-58326D01*
X47531Y-58626D02*
X47418Y-58664D01*
X47381Y-58701D01*
X47343Y-58776D01*
X47343Y-58889D01*
X47381Y-58964D01*
X47418Y-59001D01*
X47493Y-59039D01*
X47793Y-59039D01*
X47793Y-58251D01*
X47531Y-58251D01*
X47456Y-58289D01*
X47418Y-58326D01*
X47381Y-58401D01*
X47381Y-58476D01*
X47418Y-58551D01*
X47456Y-58589D01*
X47531Y-58626D01*
X47793Y-58626D01*
X46481Y-58514D02*
X46293Y-59039D01*
X46106Y-58514D01*
X45394Y-59039D02*
X45843Y-59039D01*
X45618Y-59039D02*
X45618Y-58251D01*
X45693Y-58364D01*
X45768Y-58439D01*
X45843Y-58476D01*
X24820Y-35318D02*
X25195Y-35318D01*
X25195Y-34531D01*
X24221Y-35318D02*
X24221Y-34906D01*
X24258Y-34831D01*
X24333Y-34793D01*
X24483Y-34793D01*
X24558Y-34831D01*
X24221Y-35281D02*
X24296Y-35318D01*
X24483Y-35318D01*
X24558Y-35281D01*
X24595Y-35206D01*
X24595Y-35131D01*
X24558Y-35056D01*
X24483Y-35018D01*
X24296Y-35018D01*
X24221Y-34981D01*
X23921Y-34531D02*
X23396Y-34531D01*
X23921Y-35318D01*
X23396Y-35318D01*
X23096Y-35318D02*
X23096Y-34531D01*
X22271Y-35318D02*
X22533Y-34943D01*
X22721Y-35318D02*
X22721Y-34531D01*
X22421Y-34531D01*
X22346Y-34568D01*
X22308Y-34606D01*
X22271Y-34681D01*
X22271Y-34793D01*
X22308Y-34868D01*
X22346Y-34906D01*
X22421Y-34943D01*
X22721Y-34943D01*
X21446Y-34531D02*
X20996Y-34531D01*
X21221Y-35318D02*
X21221Y-34531D01*
X20396Y-35318D02*
X20396Y-34906D01*
X20434Y-34831D01*
X20508Y-34793D01*
X20658Y-34793D01*
X20733Y-34831D01*
X20396Y-35281D02*
X20471Y-35318D01*
X20658Y-35318D01*
X20733Y-35281D01*
X20771Y-35206D01*
X20771Y-35131D01*
X20733Y-35056D01*
X20658Y-35018D01*
X20471Y-35018D01*
X20396Y-34981D01*
X19684Y-34793D02*
X19684Y-35431D01*
X19721Y-35506D01*
X19759Y-35543D01*
X19834Y-35581D01*
X19946Y-35581D01*
X20021Y-35543D01*
X19684Y-35281D02*
X19759Y-35318D01*
X19909Y-35318D01*
X19984Y-35281D01*
X20021Y-35243D01*
X20059Y-35168D01*
X20059Y-34943D01*
X20021Y-34868D01*
X19984Y-34831D01*
X19909Y-34793D01*
X19759Y-34793D01*
X19684Y-34831D01*
X25420Y-36314D02*
X25045Y-36314D01*
X25495Y-36539D02*
X25233Y-35751D01*
X24970Y-36539D01*
X24708Y-36014D02*
X24708Y-36801D01*
X24708Y-36051D02*
X24633Y-36014D01*
X24483Y-36014D01*
X24408Y-36051D01*
X24371Y-36089D01*
X24333Y-36164D01*
X24333Y-36389D01*
X24371Y-36464D01*
X24408Y-36501D01*
X24483Y-36539D01*
X24633Y-36539D01*
X24708Y-36501D01*
X23996Y-36539D02*
X23996Y-36014D01*
X23996Y-36164D02*
X23958Y-36089D01*
X23921Y-36051D01*
X23846Y-36014D01*
X23771Y-36014D01*
X23508Y-36539D02*
X23508Y-36014D01*
X23508Y-35751D02*
X23546Y-35789D01*
X23508Y-35826D01*
X23471Y-35789D01*
X23508Y-35751D01*
X23508Y-35826D01*
X23021Y-36539D02*
X23096Y-36501D01*
X23133Y-36426D01*
X23133Y-35751D01*
X22158Y-35826D02*
X22121Y-35789D01*
X22046Y-35751D01*
X21858Y-35751D01*
X21783Y-35789D01*
X21746Y-35826D01*
X21708Y-35901D01*
X21708Y-35976D01*
X21746Y-36089D01*
X22196Y-36539D01*
X21708Y-36539D01*
X21221Y-35751D02*
X21146Y-35751D01*
X21071Y-35789D01*
X21033Y-35826D01*
X20996Y-35901D01*
X20958Y-36051D01*
X20958Y-36239D01*
X20996Y-36389D01*
X21033Y-36464D01*
X21071Y-36501D01*
X21146Y-36539D01*
X21221Y-36539D01*
X21296Y-36501D01*
X21333Y-36464D01*
X21371Y-36389D01*
X21408Y-36239D01*
X21408Y-36051D01*
X21371Y-35901D01*
X21333Y-35826D01*
X21296Y-35789D01*
X21221Y-35751D01*
X20209Y-36539D02*
X20658Y-36539D01*
X20434Y-36539D02*
X20434Y-35751D01*
X20508Y-35864D01*
X20583Y-35939D01*
X20658Y-35976D01*
X19496Y-35751D02*
X19871Y-35751D01*
X19909Y-36126D01*
X19871Y-36089D01*
X19796Y-36051D01*
X19609Y-36051D01*
X19534Y-36089D01*
X19496Y-36126D01*
X19459Y-36201D01*
X19459Y-36389D01*
X19496Y-36464D01*
X19534Y-36501D01*
X19609Y-36539D01*
X19796Y-36539D01*
X19871Y-36501D01*
X19909Y-36464D01*
M02*
