G04 (created by PCBNEW (2013-07-07 BZR 4022)-stable) date 5/1/2015 4:39:10 PM*
%MOIN*%
G04 Gerber Fmt 3.4, Leading zero omitted, Abs format*
%FSLAX34Y34*%
G01*
G70*
G90*
G04 APERTURE LIST*
%ADD10C,0.00590551*%
%ADD11R,0.055X0.055*%
%ADD12C,0.055*%
%ADD13R,0.07X0.07*%
%ADD14C,0.07*%
%ADD15R,0.35X0.35*%
%ADD16C,0.0590551*%
%ADD17C,0.06*%
%ADD18R,0.06X0.06*%
%ADD19O,0.0629921X0.0354331*%
%ADD20C,0.066*%
%ADD21C,0.056*%
G04 APERTURE END LIST*
G54D10*
G54D11*
X25630Y-41120D03*
G54D12*
X25630Y-40120D03*
X24630Y-40120D03*
G54D13*
X23280Y-45630D03*
G54D14*
X23280Y-43630D03*
X23280Y-44630D03*
G54D15*
X29780Y-44630D03*
G54D16*
X28172Y-40968D03*
X27187Y-40968D03*
G54D17*
X32540Y-38180D03*
X32540Y-42180D03*
X30430Y-42180D03*
X30430Y-38180D03*
X29380Y-42180D03*
X29380Y-38180D03*
X35380Y-49170D03*
X31380Y-49170D03*
X31470Y-42180D03*
X31470Y-38180D03*
X20480Y-41180D03*
X24480Y-41180D03*
X20600Y-37590D03*
X24600Y-37590D03*
G54D18*
X16840Y-45270D03*
G54D17*
X17840Y-45270D03*
X18840Y-45270D03*
G54D18*
X33390Y-58990D03*
G54D17*
X34390Y-58990D03*
X35390Y-58990D03*
X36390Y-58990D03*
X37390Y-58990D03*
X38390Y-58990D03*
G54D19*
X16470Y-37422D03*
X16470Y-40177D03*
G54D20*
X22350Y-39950D03*
X22350Y-38950D03*
G54D21*
X34370Y-46860D03*
X34370Y-44860D03*
G54D12*
X37440Y-36590D03*
X37440Y-37590D03*
X37440Y-38590D03*
X37440Y-39590D03*
X37440Y-40590D03*
X37440Y-41590D03*
X37440Y-42590D03*
X37440Y-43590D03*
X37440Y-44590D03*
X37440Y-45590D03*
X37440Y-46590D03*
X37440Y-47590D03*
X37440Y-48590D03*
G54D11*
X37440Y-35590D03*
G54D12*
X40440Y-48590D03*
X40440Y-47590D03*
X40440Y-46590D03*
X40440Y-45590D03*
X40440Y-44590D03*
X40440Y-43590D03*
X40440Y-42590D03*
X40440Y-41590D03*
X40440Y-40590D03*
X40440Y-39590D03*
X40440Y-38590D03*
X40440Y-37590D03*
X40440Y-36590D03*
X40440Y-35590D03*
X32720Y-43260D03*
X32720Y-45260D03*
X32720Y-48230D03*
X32720Y-46230D03*
X21890Y-44320D03*
X21890Y-42320D03*
X19390Y-39170D03*
X19390Y-41170D03*
X36080Y-43600D03*
X36080Y-44600D03*
X24320Y-42330D03*
X23320Y-42330D03*
X31780Y-50210D03*
X32780Y-50210D03*
G54D16*
X20650Y-43280D03*
X20650Y-42280D03*
G54D18*
X31780Y-56470D03*
G54D17*
X31780Y-55470D03*
X31780Y-54470D03*
X31780Y-53470D03*
X31780Y-52470D03*
X31780Y-51470D03*
G54D18*
X43890Y-46590D03*
G54D17*
X43890Y-45590D03*
X43890Y-44590D03*
X43890Y-43590D03*
X43890Y-42590D03*
G54D18*
X53792Y-55374D03*
G54D17*
X52788Y-55374D03*
X51792Y-55374D03*
X50792Y-55374D03*
X49792Y-55374D03*
X48792Y-55374D03*
X47792Y-55374D03*
X46792Y-55374D03*
G54D18*
X34940Y-54180D03*
G54D17*
X33940Y-54180D03*
X34940Y-53180D03*
X33940Y-53180D03*
X34940Y-52180D03*
X33940Y-52180D03*
G54D18*
X34940Y-51180D03*
G54D17*
X33940Y-51180D03*
X36590Y-36480D03*
X32590Y-36480D03*
G54D11*
X39146Y-57306D03*
G54D12*
X40146Y-57306D03*
X40146Y-56306D03*
G54D11*
X36340Y-57230D03*
G54D12*
X37340Y-57230D03*
X37340Y-56230D03*
G54D11*
X41890Y-57402D03*
G54D12*
X42890Y-57402D03*
X42890Y-56402D03*
X41310Y-40160D03*
X41310Y-42160D03*
M02*
